<svg width="585" height="587" viewBox="0 0 585 587" fill="none" xmlns="http://www.w3.org/2000/svg">
<path d="M142.24 6.99999V112H117.46V34.02C114.1 35.2333 110.973 36.96 108.08 39.2C105.28 41.44 102.853 44.0067 100.8 46.9C98.84 49.7933 97.2533 52.9667 96.04 56.42C94.92 59.8733 94.36 63.5133 94.36 67.34V112H69.58V67.34C69.58 63.5133 68.9733 59.8733 67.76 56.42C66.64 52.9667 65.0533 49.7933 63 46.9C61.04 44.0067 58.6133 41.44 55.72 39.2C52.92 36.96 49.84 35.2333 46.48 34.02V112H21.7V31.78H5.6V6.99999H34.02C43.9133 6.99999 52.9667 9.14666 61.18 13.44C69.4867 17.7333 76.44 23.52 82.04 30.8C87.5467 23.52 94.4067 17.7333 102.62 13.44C110.927 9.14666 120.027 6.99999 129.92 6.99999H142.24ZM157.631 6.99999H251.431V112H226.791V75.18H197.951C197.671 80.5 196.411 85.54 194.171 90.3C192.025 94.9667 189.131 99.0267 185.491 102.48C181.851 105.933 177.651 108.687 172.891 110.74C168.131 112.7 163.045 113.68 157.631 113.68V88.9C159.591 88.9 161.458 88.5733 163.231 87.92C165.005 87.1733 166.591 86.1933 167.991 84.98C169.391 83.6733 170.511 82.2267 171.351 80.64C172.285 78.96 172.845 77.14 173.031 75.18H157.631V52.92H173.171V31.78H157.631V6.99999ZM226.791 31.78H197.951V52.92H226.791V31.78ZM361.153 6.99999V112H336.373V105.7C336.373 98.8867 335.486 92.3533 333.713 86.1C332.033 79.7533 329.56 73.8267 326.293 68.32C323.12 62.72 319.246 57.5867 314.673 52.92C310.1 48.2533 304.966 44.1933 299.273 40.74V112H274.493V32.06C273.746 31.9667 272.953 31.92 272.113 31.92C271.366 31.8267 270.62 31.78 269.873 31.78H258.393V6.99999H269.873C276.126 6.99999 282.333 7.83999 288.493 9.51999C294.746 11.2 300.72 13.5333 306.413 16.52C312.2 19.4133 317.613 22.8667 322.653 26.88C327.786 30.8 332.36 35.0933 336.373 39.76V6.99999H361.153ZM368.178 6.99999H471.078V31.78H409.198V74.9C409.198 76.58 409.525 78.1667 410.178 79.66C410.831 81.1533 411.718 82.46 412.838 83.58C413.958 84.7 415.265 85.5867 416.758 86.24C418.345 86.8933 419.978 87.22 421.658 87.22H446.298V70.56H425.158V45.78H471.078V132.3H446.298V112H421.658C416.525 112 411.671 111.02 407.098 109.06C402.618 107.1 398.698 104.44 395.338 101.08C391.978 97.72 389.318 93.8 387.358 89.32C385.398 84.84 384.418 80.0333 384.418 74.9V31.78H368.178V6.99999ZM485.073 6.99999H578.873V112H554.233V75.18H525.393C525.113 80.5 523.853 85.54 521.613 90.3C519.466 94.9667 516.573 99.0267 512.933 102.48C509.293 105.933 505.093 108.687 500.333 110.74C495.573 112.7 490.486 113.68 485.073 113.68V88.9C487.033 88.9 488.899 88.5733 490.673 87.92C492.446 87.1733 494.033 86.1933 495.433 84.98C496.833 83.6733 497.953 82.2267 498.793 80.64C499.726 78.96 500.286 77.14 500.473 75.18H485.073V52.92H500.613V31.78H485.073V6.99999ZM554.233 31.78H525.393V52.92H554.233V31.78Z" fill="white"/>
<g clip-path="url(#clip0_1_3)">
<path d="M244.444 314.178H264.877C267.592 314.178 269.797 316.384 269.797 319.1V405.527H239.525V319.1C239.525 316.384 241.729 314.178 244.444 314.178Z" fill="#B0313F"/>
<path d="M282.208 276.313H302.792C305.465 276.313 307.636 278.486 307.636 281.16V405.527H277.364V281.16C277.364 278.486 279.535 276.313 282.208 276.313Z" fill="#B0313F"/>
<path d="M320.595 340.21H341.029C343.744 340.21 345.948 342.416 345.948 345.132V405.527H315.676V345.132C315.676 342.416 317.881 340.21 320.595 340.21Z" fill="#B0313F"/>
<path d="M411.457 214.783H173.544V234.189H411.457V214.783Z" fill="white"/>
<path d="M301.014 189.224H283.986V219.043H301.014V189.224Z" fill="white"/>
<path d="M353.515 405.527H231.484V406H353.515V405.527Z" fill="white"/>
<path d="M202.752 154.567C198.609 154.567 194.472 154.159 190.419 153.344L123.741 140C119.628 159.734 133.054 178.917 153.732 182.847L196.518 191H301V154.567H202.752Z" fill="white"/>
<path d="M382.29 154.567C386.408 154.567 390.511 154.159 394.539 153.353L461.258 140C465.375 159.734 451.949 178.917 431.271 182.847L388.484 191H284V154.567H382.295H382.29Z" fill="white"/>
<path d="M231.91 188.751H193.007V406H231.91V188.751Z" fill="white"/>
<path d="M391.993 188.751H353.09V406H391.993V188.751Z" fill="white"/>
</g>
<path d="M163.961 440H188.741V545H176.281C163.401 545 152.388 543.04 143.241 539.12C134.188 535.2 126.674 529.74 120.701 522.74C114.821 515.647 110.388 507.2 107.401 497.4C104.508 487.507 102.781 476.633 102.221 464.78H85.9809V440H126.861V456.8C126.861 463.8 127.281 470.753 128.121 477.66C128.961 484.567 130.688 490.913 133.301 496.7C136.008 502.393 139.788 507.247 144.641 511.26C149.494 515.273 155.934 517.933 163.961 519.24V440ZM201.371 440H252.191V464.78H239.171V520.22H252.191V545H201.371V520.22H214.391V464.78H201.371V440ZM260.707 440H355.347V464.78H301.867V482H344.707V504.26H301.867V520.22H355.347V545H260.707V520.22H277.087V464.78H260.707V440ZM474.289 440H499.069V545H485.909C476.203 545 467.243 542.9 459.029 538.7C450.816 534.407 443.909 528.667 438.309 521.48C432.803 528.667 425.943 534.407 417.729 538.7C409.516 542.9 400.509 545 390.709 545H378.389V464.78H362.289V440H403.169V517.98C406.529 516.673 409.563 514.947 412.269 512.8C415.069 510.653 417.496 508.133 419.549 505.24C421.603 502.347 423.189 499.22 424.309 495.86C425.429 492.407 425.989 488.813 425.989 485.08V440H450.769V485.08C450.769 488.907 451.329 492.547 452.449 496C453.663 499.453 455.296 502.627 457.349 505.52C459.496 508.413 461.969 510.98 464.769 513.22C467.663 515.367 470.836 517.047 474.289 518.26V440Z" fill="white"/>
<defs>
<clipPath id="clip0_1_3">
<rect width="339" height="266" fill="white" transform="translate(123 140)"/>
</clipPath>
</defs>
</svg>
