<svg version="1.1" id="Layer_1" xmlns="http://www.w3.org/2000/svg" xmlns:xlink="http://www.w3.org/1999/xlink" x="0px" y="0px"
	 width="100%" viewBox="0 0 3840 2160" enable-background="new 0 0 3840 2160" xml:space="preserve">
<path fill="#47704C" opacity="1.000000" stroke="none" 
	d="
M2428.000000,2162.000000 
	C1618.666870,2162.000000 810.333618,2162.000000 2.000325,2162.000000 
	C2.000217,1442.000244 2.000217,722.000549 2.000108,2.000615 
	C1281.999512,2.000410 2561.999023,2.000410 3841.999023,2.000205 
	C3841.999268,721.999329 3841.999268,1441.998657 3841.999512,2161.999023 
	C3371.000000,2162.000000 2900.000000,2162.000000 2428.000000,2162.000000 
M382.151154,1100.818237 
	C389.286957,1128.514282 396.017273,1156.322754 403.646790,1183.882080 
	C417.595154,1234.266235 432.911011,1284.155273 454.735779,1331.901733 
	C485.195892,1398.540039 521.499329,1461.425781 568.371033,1518.040649 
	C598.251282,1554.131958 631.528931,1586.682861 668.911499,1614.730225 
	C704.169678,1641.183716 742.187134,1663.241455 783.426819,1679.355835 
	C827.356323,1696.521240 872.593567,1708.248901 919.686584,1712.295410 
	C930.272095,1713.205078 940.859192,1714.429565 951.465515,1714.687866 
	C968.379272,1715.100098 985.338806,1715.429199 1002.222473,1714.617676 
	C1012.835938,1714.107422 1014.093567,1713.920410 1017.049133,1724.236328 
	C1036.107910,1790.757812 1069.910889,1849.132690 1115.846191,1900.460205 
	C1142.138672,1929.838867 1172.143188,1955.282593 1205.000000,1977.145630 
	C1246.019531,2004.440186 1290.247803,2025.005737 1337.334839,2039.598511 
	C1380.108032,2052.854736 1423.884766,2061.199707 1468.447266,2063.501221 
	C1498.944092,2065.076416 1529.686646,2063.725586 1560.225952,2062.014893 
	C1581.714844,2060.811523 1603.231201,2057.797119 1624.415161,2053.866455 
	C1694.418945,2040.876587 1760.532471,2017.091919 1821.649780,1980.159424 
	C1831.301270,1974.327026 1840.779175,1968.207764 1850.459961,1962.144409 
	C1861.941772,1972.845093 1873.150635,1983.221191 1884.282593,1993.678955 
	C1917.308716,2024.704834 1954.839966,2049.327881 1994.910889,2070.006104 
	C2037.423218,2091.944092 2082.471680,2107.181152 2129.197998,2117.382568 
	C2158.129395,2123.698486 2187.423828,2128.459961 2216.944092,2129.625732 
	C2260.826660,2131.358398 2304.731934,2131.225098 2348.407959,2124.386719 
	C2381.007568,2119.282227 2413.153076,2112.551758 2444.641602,2102.741211 
	C2493.211182,2087.608398 2539.194580,2066.891113 2582.452393,2039.959106 
	C2628.678711,2011.178711 2669.217285,1975.908813 2703.972900,1934.177002 
	C2728.339844,1904.918701 2748.758057,1872.951172 2764.084473,1837.917358 
	C2765.526367,1834.621460 2767.455566,1831.538818 2769.234619,1828.215088 
	C2771.650635,1828.473267 2773.602295,1828.614868 2775.532959,1828.898315 
	C2795.893066,1831.888062 2816.180908,1836.717773 2836.623291,1837.495361 
	C2870.173096,1838.771729 2903.809814,1839.532959 2937.433350,1836.464478 
	C2966.313477,1833.828979 2994.758057,1829.086792 3022.931152,1822.543457 
	C3070.578125,1811.477539 3116.040283,1794.319336 3158.614990,1770.328247 
	C3181.187988,1757.608276 3203.114746,1743.453857 3224.049072,1728.186523 
	C3250.938232,1708.576294 3275.498535,1686.051636 3297.970215,1661.386230 
	C3307.383789,1651.053589 3317.302979,1641.115845 3325.999268,1630.206787 
	C3359.950439,1587.616455 3388.893555,1541.907715 3411.957520,1492.422241 
	C3434.559326,1443.928833 3451.783936,1393.670898 3463.919189,1341.648804 
	C3471.547363,1308.946045 3477.808838,1275.963745 3480.262939,1242.401123 
	C3482.320557,1214.255981 3484.436768,1186.104614 3485.738037,1157.919434 
	C3486.287354,1146.020264 3484.414551,1134.030396 3484.332764,1122.077026 
	C3484.093506,1087.077637 3479.766113,1052.516724 3474.322998,1018.017578 
	C3468.661133,982.133423 3460.235596,946.916931 3449.593262,912.231995 
	C3437.057861,871.377319 3420.683838,832.086121 3401.084961,794.086548 
	C3375.441895,744.368713 3343.842773,698.777588 3306.182861,657.526245 
	C3276.259033,624.748108 3243.272705,595.258911 3206.675537,569.943542 
	C3171.773926,545.800842 3134.994873,525.137207 3095.761719,508.849030 
	C3055.048828,491.946747 3013.145996,478.998016 2969.780762,471.104706 
	C2962.099365,469.706482 2958.568115,466.405060 2956.389160,459.112244 
	C2943.932861,417.424225 2925.837402,378.177246 2904.046143,340.575073 
	C2883.077881,304.393280 2857.905029,271.292786 2829.436035,240.808731 
	C2806.700928,216.464447 2782.025635,194.140152 2755.463867,173.872040 
	C2728.387207,153.210922 2700.029053,134.613770 2670.132080,118.397346 
	C2623.998047,93.373611 2575.550537,74.071022 2524.971680,59.941368 
	C2473.841064,45.657631 2421.727783,37.065292 2368.844238,34.442669 
	C2339.671387,32.995926 2310.313477,34.963181 2281.049561,35.762901 
	C2253.406494,36.518318 2226.136963,40.774559 2199.063721,46.082611 
	C2145.889404,56.508076 2094.663330,72.983864 2046.159546,97.310265 
	C2006.730591,117.085243 1969.831665,140.723099 1936.513062,169.878189 
	C1913.636230,189.896286 1892.118774,211.230865 1873.300415,235.017258 
	C1866.841064,243.181732 1860.873901,244.722473 1851.223755,243.133057 
	C1831.926392,239.954758 1812.426392,237.675354 1792.921143,236.200317 
	C1778.334595,235.097260 1763.599487,235.472198 1748.947510,235.850784 
	C1731.669556,236.297226 1714.276855,236.406876 1697.175659,238.571274 
	C1675.456299,241.320160 1653.868896,245.456924 1632.420654,249.933548 
	C1583.908325,260.058899 1537.713379,277.126862 1493.705078,299.674683 
	C1462.878052,315.468994 1433.624634,333.945587 1406.346558,355.567352 
	C1365.860352,387.658478 1330.752686,424.618896 1301.405640,467.119965 
	C1271.404419,510.568695 1249.694214,557.934631 1235.072388,608.526611 
	C1226.666870,637.610046 1220.374634,667.198669 1217.660400,697.453918 
	C1217.074341,703.987610 1215.848755,710.463928 1214.874023,717.272278 
	C1212.782593,717.510742 1211.188232,717.788208 1209.584839,717.860291 
	C1195.311768,718.502014 1181.039551,719.171326 1166.762329,719.708557 
	C1144.387085,720.550598 1122.597778,724.958801 1100.908081,730.146667 
	C1053.942261,741.380127 1011.364868,762.265564 972.068909,789.810364 
	C936.809265,814.526001 906.236633,844.820251 874.935669,874.191650 
	C864.014832,884.439331 853.395996,895.034912 842.091431,904.839905 
	C831.326782,914.176636 820.619934,923.858948 805.968933,927.156677 
	C786.802002,931.470886 767.644531,933.660156 747.817261,932.464417 
	C728.777405,931.316162 710.178833,928.418701 691.644897,924.399475 
	C664.837708,918.586243 639.577148,908.226318 614.179260,898.230103 
	C576.073975,883.232605 538.052612,867.978699 498.669708,856.525208 
	C479.427521,850.929199 459.933411,846.913818 439.700745,848.072144 
	C414.731567,849.501709 395.075745,860.402039 381.332581,881.319702 
	C369.251221,899.708008 365.469025,920.755432 364.234985,942.108704 
	C362.698120,968.702087 363.154480,995.356323 367.772583,1021.714905 
	C372.300690,1047.559448 377.199982,1073.338867 382.151154,1100.818237 
z"/>
<path fill="#3A160E" opacity="1.000000" stroke="none" 
	d="
M382.043762,1099.982544 
	C377.199982,1073.338867 372.300690,1047.559448 367.772583,1021.714905 
	C363.154480,995.356323 362.698120,968.702087 364.234985,942.108704 
	C365.469025,920.755432 369.251221,899.708008 381.332581,881.319702 
	C395.075745,860.402039 414.731567,849.501709 439.700745,848.072144 
	C459.933411,846.913818 479.427521,850.929199 498.669708,856.525208 
	C538.052612,867.978699 576.073975,883.232605 614.179260,898.230103 
	C639.577148,908.226318 664.837708,918.586243 691.644897,924.399475 
	C710.178833,928.418701 728.777405,931.316162 747.817261,932.464417 
	C767.644531,933.660156 786.802002,931.470886 805.968933,927.156677 
	C820.619934,923.858948 831.326782,914.176636 842.091431,904.839905 
	C853.395996,895.034912 864.014832,884.439331 874.935669,874.191650 
	C906.236633,844.820251 936.809265,814.526001 972.068909,789.810364 
	C1011.364868,762.265564 1053.942261,741.380127 1100.908081,730.146667 
	C1122.597778,724.958801 1144.387085,720.550598 1166.762329,719.708557 
	C1181.039551,719.171326 1195.311768,718.502014 1209.584839,717.860291 
	C1211.188232,717.788208 1212.782593,717.510742 1214.874023,717.272278 
	C1215.848755,710.463928 1217.074341,703.987610 1217.660400,697.453918 
	C1220.374634,667.198669 1226.666870,637.610046 1235.072388,608.526611 
	C1249.694214,557.934631 1271.404419,510.568695 1301.405640,467.119965 
	C1330.752686,424.618896 1365.860352,387.658478 1406.346558,355.567352 
	C1433.624634,333.945587 1462.878052,315.468994 1493.705078,299.674683 
	C1537.713379,277.126862 1583.908325,260.058899 1632.420654,249.933548 
	C1653.868896,245.456924 1675.456299,241.320160 1697.175659,238.571274 
	C1714.276855,236.406876 1731.669556,236.297226 1748.947510,235.850784 
	C1763.599487,235.472198 1778.334595,235.097260 1792.921143,236.200317 
	C1812.426392,237.675354 1831.926392,239.954758 1851.223755,243.133057 
	C1860.873901,244.722473 1866.841064,243.181732 1873.300415,235.017258 
	C1892.118774,211.230865 1913.636230,189.896286 1936.513062,169.878189 
	C1969.831665,140.723099 2006.730591,117.085243 2046.159546,97.310265 
	C2094.663330,72.983864 2145.889404,56.508076 2199.063721,46.082611 
	C2226.136963,40.774559 2253.406494,36.518318 2281.049561,35.762901 
	C2310.313477,34.963181 2339.671387,32.995926 2368.844238,34.442669 
	C2421.727783,37.065292 2473.841064,45.657631 2524.971680,59.941368 
	C2575.550537,74.071022 2623.998047,93.373611 2670.132080,118.397346 
	C2700.029053,134.613770 2728.387207,153.210922 2755.463867,173.872040 
	C2782.025635,194.140152 2806.700928,216.464447 2829.436035,240.808731 
	C2857.905029,271.292786 2883.077881,304.393280 2904.046143,340.575073 
	C2925.837402,378.177246 2943.932861,417.424225 2956.389160,459.112244 
	C2958.568115,466.405060 2962.099365,469.706482 2969.780762,471.104706 
	C3013.145996,478.998016 3055.048828,491.946747 3095.761719,508.849030 
	C3134.994873,525.137207 3171.773926,545.800842 3206.675537,569.943542 
	C3243.272705,595.258911 3276.259033,624.748108 3306.182861,657.526245 
	C3343.842773,698.777588 3375.441895,744.368713 3401.084961,794.086548 
	C3420.683838,832.086121 3437.057861,871.377319 3449.593262,912.231995 
	C3460.235596,946.916931 3468.661133,982.133423 3474.322998,1018.017578 
	C3479.766113,1052.516724 3484.093506,1087.077637 3484.332764,1122.077026 
	C3484.414551,1134.030396 3486.287354,1146.020264 3485.738037,1157.919434 
	C3484.436768,1186.104614 3482.320557,1214.255981 3480.262939,1242.401123 
	C3477.808838,1275.963745 3471.547363,1308.946045 3463.919189,1341.648804 
	C3451.783936,1393.670898 3434.559326,1443.928833 3411.957520,1492.422241 
	C3388.893555,1541.907715 3359.950439,1587.616455 3325.999268,1630.206787 
	C3317.302979,1641.115845 3307.383789,1651.053589 3297.970215,1661.386230 
	C3275.498535,1686.051636 3250.938232,1708.576294 3224.049072,1728.186523 
	C3203.114746,1743.453857 3181.187988,1757.608276 3158.614990,1770.328247 
	C3116.040283,1794.319336 3070.578125,1811.477539 3022.931152,1822.543457 
	C2994.758057,1829.086792 2966.313477,1833.828979 2937.433350,1836.464478 
	C2903.809814,1839.532959 2870.173096,1838.771729 2836.623291,1837.495361 
	C2816.180908,1836.717773 2795.893066,1831.888062 2775.532959,1828.898315 
	C2773.602295,1828.614868 2771.650635,1828.473267 2769.234619,1828.215088 
	C2767.455566,1831.538818 2765.526367,1834.621460 2764.084473,1837.917358 
	C2748.758057,1872.951172 2728.339844,1904.918701 2703.972900,1934.177002 
	C2669.217285,1975.908813 2628.678711,2011.178711 2582.452393,2039.959106 
	C2539.194580,2066.891113 2493.211182,2087.608398 2444.641602,2102.741211 
	C2413.153076,2112.551758 2381.007568,2119.282227 2348.407959,2124.386719 
	C2304.731934,2131.225098 2260.826660,2131.358398 2216.944092,2129.625732 
	C2187.423828,2128.459961 2158.129395,2123.698486 2129.197998,2117.382568 
	C2082.471680,2107.181152 2037.423218,2091.944092 1994.910889,2070.006104 
	C1954.839966,2049.327881 1917.308716,2024.704834 1884.282593,1993.678955 
	C1873.150635,1983.221191 1861.941772,1972.845093 1850.459961,1962.144409 
	C1840.779175,1968.207764 1831.301270,1974.327026 1821.649780,1980.159424 
	C1760.532471,2017.091919 1694.418945,2040.876587 1624.415161,2053.866455 
	C1603.231201,2057.797119 1581.714844,2060.811523 1560.225952,2062.014893 
	C1529.686646,2063.725586 1498.944092,2065.076416 1468.447266,2063.501221 
	C1423.884766,2061.199707 1380.108032,2052.854736 1337.334839,2039.598511 
	C1290.247803,2025.005737 1246.019531,2004.440186 1205.000000,1977.145630 
	C1172.143188,1955.282593 1142.138672,1929.838867 1115.846191,1900.460205 
	C1069.910889,1849.132690 1036.107910,1790.757812 1017.049133,1724.236328 
	C1014.093567,1713.920410 1012.835938,1714.107422 1002.222473,1714.617676 
	C985.338806,1715.429199 968.379272,1715.100098 951.465515,1714.687866 
	C940.859192,1714.429565 930.272095,1713.205078 919.686584,1712.295410 
	C872.593567,1708.248901 827.356323,1696.521240 783.426819,1679.355835 
	C742.187134,1663.241455 704.169678,1641.183716 668.911499,1614.730225 
	C631.528931,1586.682861 598.251282,1554.131958 568.371033,1518.040649 
	C521.499329,1461.425781 485.195892,1398.540039 454.735779,1331.901733 
	C432.911011,1284.155273 417.595154,1234.266235 403.646790,1183.882080 
	C396.017273,1156.322754 389.286957,1128.514282 382.043762,1099.982544 
M509.224976,1357.567261 
	C528.491211,1395.691406 550.598633,1432.081665 576.034851,1466.408081 
	C621.805237,1528.175659 676.370850,1580.297729 743.792725,1618.087036 
	C824.731689,1663.452759 911.843567,1681.796875 1004.164856,1676.762451 
	C1017.064758,1676.058960 1029.939331,1674.891724 1043.322754,1673.902466 
	C1044.233154,1677.592773 1045.154785,1681.066772 1045.945190,1684.570312 
	C1068.127686,1782.906372 1119.290161,1863.096191 1198.342163,1925.202148 
	C1278.137939,1987.892334 1370.200195,2018.623413 1470.586914,2025.609863 
	C1530.793213,2029.799927 1590.397461,2024.476929 1649.031494,2009.839722 
	C1723.578125,1991.229858 1792.339111,1960.406494 1852.968628,1912.567383 
	C1854.164551,1911.623779 1855.618530,1911.007080 1856.850830,1910.296387 
	C1864.528564,1919.011841 1871.599731,1927.433350 1879.104492,1935.448608 
	C1886.843018,1943.714111 1894.712280,1951.899536 1903.024292,1959.578857 
	C1992.884277,2042.599121 2100.411377,2083.471680 2221.230713,2091.720459 
	C2271.284424,2095.137695 2321.089600,2091.801758 2370.415527,2082.134277 
	C2454.666748,2065.621338 2532.132080,2033.533691 2600.528076,1981.126221 
	C2666.626953,1930.479004 2715.601562,1866.951538 2743.370117,1787.858032 
	C2743.998779,1786.068237 2744.942139,1784.388794 2745.888184,1782.333252 
	C2770.260498,1789.687134 2794.601562,1795.136597 2819.408691,1797.789917 
	C2874.042236,1803.633179 2928.457764,1801.910156 2982.628174,1792.203247 
	C3063.356689,1777.737183 3136.808350,1746.558350 3202.256104,1697.028076 
	C3284.156006,1635.046753 3342.856934,1554.994629 3384.143066,1461.631470 
	C3425.373535,1368.393921 3445.205322,1270.376587 3447.406982,1168.764038 
	C3449.186768,1086.619751 3438.465332,1006.028137 3414.324707,927.327759 
	C3385.375977,832.953491 3339.641113,748.124817 3271.494629,676.109131 
	C3186.033691,585.796143 3081.316895,530.962769 2959.588623,507.754883 
	C2949.516846,505.834747 2939.409424,504.102936 2929.442871,502.306000 
	C2928.840576,500.380981 2928.389404,499.144470 2928.065674,497.875519 
	C2914.296631,443.926056 2892.703613,393.321106 2862.953857,346.252075 
	C2814.090576,268.940826 2749.241699,208.083191 2670.403320,162.379639 
	C2549.636230,92.369354 2419.128418,63.774418 2280.079590,73.537979 
	C2216.833984,77.978867 2155.711182,91.863594 2097.056641,116.069489 
	C2012.632324,150.910156 1942.063232,203.709869 1888.164551,277.976929 
	C1885.849487,281.166840 1883.497192,284.329834 1881.106079,287.581848 
	C1876.125366,286.578857 1871.558960,285.761169 1867.040039,284.733765 
	C1809.220581,271.588501 1750.951050,269.909027 1692.274048,277.626160 
	C1611.521729,288.246582 1536.350342,314.594208 1467.742432,358.562531 
	C1384.246704,412.071930 1322.821411,484.334961 1285.990112,576.799316 
	C1264.331665,631.172913 1253.723022,687.866089 1251.818481,746.269714 
	C1251.693604,750.096069 1251.512695,753.920532 1251.346313,758.033691 
	C1246.749390,757.826782 1243.422119,757.818787 1240.123657,757.505981 
	C1214.502197,755.076050 1188.910889,755.265930 1163.287720,757.720032 
	C1106.176270,763.189941 1053.685547,781.693481 1005.700989,813.069519 
	C972.912659,834.509033 944.220886,860.862000 915.852783,887.654175 
	C896.000549,906.403442 875.649536,924.624878 855.500061,943.058838 
	C841.278015,956.070068 824.090454,962.643127 805.472717,966.292175 
	C766.529053,973.924988 727.938965,970.964172 689.430725,963.026978 
	C654.346619,955.795532 621.519409,941.895630 588.290344,929.183533 
	C552.872131,915.633911 517.746704,901.263977 481.080322,891.260559 
	C468.190552,887.743958 455.162903,885.140808 441.655365,885.957092 
	C426.571106,886.868530 415.704224,894.037048 409.872681,907.930298 
	C407.189606,914.322571 405.103516,921.139099 403.942993,927.966553 
	C399.201385,955.861511 401.405121,983.805359 404.878967,1011.602966 
	C410.169464,1053.937866 419.210297,1095.575317 430.012665,1136.816040 
	C449.770538,1212.246704 472.118408,1286.771729 509.224976,1357.567261 
z"/>
<path fill="#FFFEFE" opacity="1.000000" stroke="none" 
	d="
M508.848511,1356.922852 
	C472.118408,1286.771729 449.770538,1212.246704 430.012665,1136.816040 
	C419.210297,1095.575317 410.169464,1053.937866 404.878967,1011.602966 
	C401.405121,983.805359 399.201385,955.861511 403.942993,927.966553 
	C405.103516,921.139099 407.189606,914.322571 409.872681,907.930298 
	C415.704224,894.037048 426.571106,886.868530 441.655365,885.957092 
	C455.162903,885.140808 468.190552,887.743958 481.080322,891.260559 
	C517.746704,901.263977 552.872131,915.633911 588.290344,929.183533 
	C621.519409,941.895630 654.346619,955.795532 689.430725,963.026978 
	C727.938965,970.964172 766.529053,973.924988 805.472717,966.292175 
	C824.090454,962.643127 841.278015,956.070068 855.500061,943.058838 
	C875.649536,924.624878 896.000549,906.403442 915.852783,887.654175 
	C944.220886,860.862000 972.912659,834.509033 1005.700989,813.069519 
	C1053.685547,781.693481 1106.176270,763.189941 1163.287720,757.720032 
	C1188.910889,755.265930 1214.502197,755.076050 1240.123657,757.505981 
	C1243.422119,757.818787 1246.749390,757.826782 1251.346313,758.033691 
	C1251.512695,753.920532 1251.693604,750.096069 1251.818481,746.269714 
	C1253.723022,687.866089 1264.331665,631.172913 1285.990112,576.799316 
	C1322.821411,484.334961 1384.246704,412.071930 1467.742432,358.562531 
	C1536.350342,314.594208 1611.521729,288.246582 1692.274048,277.626160 
	C1750.951050,269.909027 1809.220581,271.588501 1867.040039,284.733765 
	C1871.558960,285.761169 1876.125366,286.578857 1881.106079,287.581848 
	C1883.497192,284.329834 1885.849487,281.166840 1888.164551,277.976929 
	C1942.063232,203.709869 2012.632324,150.910156 2097.056641,116.069489 
	C2155.711182,91.863594 2216.833984,77.978867 2280.079590,73.537979 
	C2419.128418,63.774418 2549.636230,92.369354 2670.403320,162.379639 
	C2749.241699,208.083191 2814.090576,268.940826 2862.953857,346.252075 
	C2892.703613,393.321106 2914.296631,443.926056 2928.065674,497.875519 
	C2928.389404,499.144470 2928.840576,500.380981 2929.442871,502.306000 
	C2939.409424,504.102936 2949.516846,505.834747 2959.588623,507.754883 
	C3081.316895,530.962769 3186.033691,585.796143 3271.494629,676.109131 
	C3339.641113,748.124817 3385.375977,832.953491 3414.324707,927.327759 
	C3438.465332,1006.028137 3449.186768,1086.619751 3447.406982,1168.764038 
	C3445.205322,1270.376587 3425.373535,1368.393921 3384.143066,1461.631470 
	C3342.856934,1554.994629 3284.156006,1635.046753 3202.256104,1697.028076 
	C3136.808350,1746.558350 3063.356689,1777.737183 2982.628174,1792.203247 
	C2928.457764,1801.910156 2874.042236,1803.633179 2819.408691,1797.789917 
	C2794.601562,1795.136597 2770.260498,1789.687134 2745.888184,1782.333252 
	C2744.942139,1784.388794 2743.998779,1786.068237 2743.370117,1787.858032 
	C2715.601562,1866.951538 2666.626953,1930.479004 2600.528076,1981.126221 
	C2532.132080,2033.533691 2454.666748,2065.621338 2370.415527,2082.134277 
	C2321.089600,2091.801758 2271.284424,2095.137695 2221.230713,2091.720459 
	C2100.411377,2083.471680 1992.884277,2042.599121 1903.024292,1959.578857 
	C1894.712280,1951.899536 1886.843018,1943.714111 1879.104492,1935.448608 
	C1871.599731,1927.433350 1864.528564,1919.011841 1856.850830,1910.296387 
	C1855.618530,1911.007080 1854.164551,1911.623779 1852.968628,1912.567383 
	C1792.339111,1960.406494 1723.578125,1991.229858 1649.031494,2009.839722 
	C1590.397461,2024.476929 1530.793213,2029.799927 1470.586914,2025.609863 
	C1370.200195,2018.623413 1278.137939,1987.892334 1198.342163,1925.202148 
	C1119.290161,1863.096191 1068.127686,1782.906372 1045.945190,1684.570312 
	C1045.154785,1681.066772 1044.233154,1677.592773 1043.322754,1673.902466 
	C1029.939331,1674.891724 1017.064758,1676.058960 1004.164856,1676.762451 
	C911.843567,1681.796875 824.731689,1663.452759 743.792725,1618.087036 
	C676.370850,1580.297729 621.805237,1528.175659 576.034851,1466.408081 
	C550.598633,1432.081665 528.491211,1395.691406 508.848511,1356.922852 
M3181.101318,721.889343 
	C3141.416260,684.487488 3096.480713,655.112610 3046.291016,633.793518 
	C2988.638428,609.304199 2928.352051,596.626831 2865.906006,593.636353 
	C2859.708496,593.339661 2853.523682,592.774292 2847.617676,592.353882 
	C2844.784912,575.009583 2842.801270,558.802063 2839.432129,542.887939 
	C2815.674072,430.673492 2756.615479,341.056000 2664.230225,273.727966 
	C2571.553223,206.187363 2466.572266,173.522598 2352.700684,168.353546 
	C2297.788818,165.860901 2243.555908,171.695679 2190.417969,186.175797 
	C2114.918945,206.749405 2048.284668,242.679901 1994.450684,300.403442 
	C1967.165161,329.660217 1944.025757,362.119171 1930.047485,399.606079 
	C1903.938843,469.624298 1900.147827,541.191223 1921.309082,613.400818 
	C1931.518799,648.240173 1946.287354,681.159424 1969.673462,709.082397 
	C2013.093140,760.925476 2068.773438,793.329834 2134.695801,807.738098 
	C2167.297119,814.863525 2200.525146,816.593811 2232.636230,806.429504 
	C2301.931885,784.494934 2348.127930,737.719604 2371.059814,669.207336 
	C2384.756836,628.285706 2378.733643,588.915466 2353.146240,553.314209 
	C2352.174072,551.961670 2351.184570,550.615173 2350.307617,549.201294 
	C2336.876465,527.551514 2341.922119,499.167297 2361.936768,483.687317 
	C2382.300537,467.937164 2411.664551,470.392120 2428.932373,489.678558 
	C2433.791748,495.105957 2437.959717,501.249695 2441.833740,507.446991 
	C2478.858398,566.676819 2485.673340,630.065796 2466.632324,696.536804 
	C2450.882080,751.519714 2419.886230,797.134277 2377.805420,835.298279 
	C2310.329102,896.494324 2231.152100,921.377380 2140.830811,909.484985 
	C2084.869385,902.116577 2033.157471,882.507996 1985.366333,852.558044 
	C1946.021484,827.901428 1910.976074,798.167114 1883.803101,760.395935 
	C1840.595093,700.335693 1817.012939,632.660583 1810.371216,559.144836 
	C1805.958374,510.300323 1810.039185,461.976715 1821.819580,414.355377 
	C1824.912720,401.851227 1828.500854,389.469482 1831.978638,376.598999 
	C1828.925903,375.804535 1826.417725,374.843018 1823.831177,374.530792 
	C1810.938110,372.974182 1798.058838,370.884705 1785.112793,370.256561 
	C1700.958374,366.173218 1621.625122,384.164307 1547.319702,423.751740 
	C1495.366699,451.430634 1451.368774,488.549316 1416.992310,536.609253 
	C1372.160156,599.286926 1351.798462,670.061340 1348.297974,746.263000 
	C1346.424683,787.041138 1350.197144,827.472595 1356.922729,867.670837 
	C1357.562866,871.497131 1357.869141,875.379211 1358.453979,880.267395 
	C1353.654175,878.949341 1350.190308,877.985352 1346.719360,877.047241 
	C1331.300781,872.880005 1315.997070,868.207947 1300.437622,864.656799 
	C1259.029053,855.206360 1217.292480,849.554749 1174.590942,853.595764 
	C1135.410034,857.303589 1099.091919,869.046692 1065.530518,889.516602 
	C1036.594727,907.165344 1011.634094,929.686890 987.302979,953.013062 
	C962.532593,976.760437 938.305176,1001.097046 911.106750,1022.193848 
	C893.580994,1035.787964 874.920166,1046.959351 853.458984,1053.335449 
	C827.743103,1060.975952 801.551270,1065.170288 774.772888,1065.864990 
	C734.882690,1066.900024 695.707336,1061.496704 656.910034,1052.698730 
	C607.067749,1041.396118 559.115967,1024.369873 511.959320,1004.921936 
	C507.473419,1003.071899 502.933105,1001.353760 496.865448,998.962402 
	C497.617523,1004.893738 497.910217,1009.137329 498.722931,1013.278809 
	C502.376099,1031.895386 505.859406,1050.553589 509.980042,1069.068604 
	C526.956726,1145.348633 550.472717,1219.479492 583.787903,1290.308228 
	C613.476074,1353.425781 650.005798,1412.016357 698.899536,1462.277710 
	C743.794800,1508.428467 796.029968,1543.044922 857.593201,1563.029663 
	C909.111206,1579.753418 961.943115,1583.457764 1015.583984,1579.509033 
	C1019.504578,1579.220581 1023.372742,1578.220581 1027.647705,1577.485718 
	C1028.376709,1571.506226 1029.177368,1565.955200 1029.713745,1560.378662 
	C1034.454712,1511.098389 1047.289429,1464.059082 1070.430176,1420.249878 
	C1116.986450,1332.111084 1187.587402,1274.029419 1285.427002,1250.838989 
	C1315.492798,1243.712524 1346.138794,1241.269043 1376.770020,1244.728027 
	C1410.937378,1248.586304 1444.225342,1257.146118 1476.495728,1269.145874 
	C1530.211670,1289.119507 1576.085693,1319.577271 1608.708862,1367.986328 
	C1643.040649,1418.930542 1653.333496,1474.896606 1644.088135,1534.858398 
	C1640.018311,1561.253540 1613.608765,1580.744995 1586.111816,1577.072632 
	C1556.638794,1573.136230 1536.922852,1548.391846 1539.239136,1519.743530 
	C1539.936523,1511.117554 1540.452515,1502.441040 1540.368896,1493.794189 
	C1540.046997,1460.502197 1527.763428,1432.231934 1504.070923,1408.858643 
	C1483.697632,1388.759766 1459.034546,1375.791626 1432.367676,1366.552368 
	C1406.197754,1357.485229 1379.446533,1349.838257 1351.506104,1350.049561 
	C1296.328491,1350.467163 1248.502930,1370.256592 1209.354004,1408.999390 
	C1153.287842,1464.483887 1132.429565,1534.306519 1133.600830,1610.912964 
	C1134.512939,1670.565796 1154.283203,1725.333008 1187.921875,1774.645630 
	C1232.580444,1840.112671 1294.145020,1883.176147 1368.706543,1908.218506 
	C1426.994629,1927.795288 1486.939453,1933.544312 1548.123779,1928.595093 
	C1600.701294,1924.342285 1651.365112,1912.320801 1699.791382,1891.541504 
	C1768.061646,1862.247314 1825.784058,1819.763672 1866.032837,1755.967163 
	C1867.740601,1753.260132 1869.923218,1750.852783 1871.888794,1748.300171 
	C1872.936157,1749.167236 1873.608398,1749.462158 1873.850342,1749.964233 
	C1876.740356,1755.964844 1879.599121,1761.981201 1882.404053,1768.021973 
	C1903.107300,1812.607666 1930.351440,1852.611206 1966.194946,1886.431030 
	C2040.568604,1956.605957 2130.542725,1989.398071 2231.197998,1995.648438 
	C2270.566406,1998.092896 2309.769287,1995.324707 2348.610107,1988.027100 
	C2410.210449,1976.453247 2467.808105,1954.738770 2520.145752,1919.972534 
	C2570.775391,1886.340820 2611.647461,1843.713257 2638.522461,1788.650513 
	C2644.037109,1777.351196 2648.468994,1765.523682 2653.598633,1753.473022 
	C2649.593994,1750.907715 2646.572266,1748.931030 2643.511230,1747.017334 
	C2607.020264,1724.205566 2574.715576,1696.535034 2548.017822,1662.745972 
	C2483.097168,1580.582275 2454.199707,1488.839722 2476.181152,1384.299805 
	C2489.999268,1318.582153 2517.204834,1258.955200 2561.930908,1208.414185 
	C2621.295654,1141.331421 2694.563477,1107.156128 2785.625977,1118.044678 
	C2814.959229,1121.552124 2843.096436,1129.912598 2869.440674,1143.166870 
	C2889.802734,1153.411255 2899.521729,1171.149414 2898.111084,1193.944702 
	C2896.776611,1215.513062 2885.343750,1230.744019 2865.599121,1239.286133 
	C2851.426758,1245.417725 2837.084961,1244.858154 2822.953125,1238.464966 
	C2803.065430,1229.467529 2782.363525,1223.322144 2760.461426,1222.260620 
	C2725.594238,1220.570801 2695.008789,1232.045166 2667.826904,1253.382935 
	C2642.461670,1273.294678 2623.678711,1298.538452 2608.815430,1326.872437 
	C2591.469971,1359.938110 2579.740234,1394.894409 2576.115479,1432.119507 
	C2571.564453,1478.851196 2583.239502,1522.162354 2607.236816,1562.042480 
	C2658.287598,1646.881470 2736.058838,1689.712158 2832.141113,1701.860840 
	C2874.614502,1707.231445 2917.263428,1705.290771 2959.604492,1698.157227 
	C3015.448730,1688.748535 3067.708496,1669.923340 3115.634766,1639.533569 
	C3182.456299,1597.162598 3233.244873,1539.840332 3271.607666,1471.173462 
	C3319.424316,1385.586060 3343.672607,1293.112183 3349.619141,1195.730957 
	C3354.742188,1111.834595 3345.672852,1029.404297 3320.051758,949.110107 
	C3292.427246,862.537415 3248.301270,785.963989 3181.101318,721.889343 
z"/>
<path fill="#F24841" opacity="1.000000" stroke="none" 
	d="
M3181.610352,722.378784 
	C3248.301270,785.963989 3292.427246,862.537415 3320.051758,949.110107 
	C3345.672852,1029.404297 3354.742188,1111.834595 3349.619141,1195.730957 
	C3343.672607,1293.112183 3319.424316,1385.586060 3271.607666,1471.173462 
	C3233.244873,1539.840332 3182.456299,1597.162598 3115.634766,1639.533569 
	C3067.708496,1669.923340 3015.448730,1688.748535 2959.604492,1698.157227 
	C2917.263428,1705.290771 2874.614502,1707.231445 2832.141113,1701.860840 
	C2736.058838,1689.712158 2658.287598,1646.881470 2607.236816,1562.042480 
	C2583.239502,1522.162354 2571.564453,1478.851196 2576.115479,1432.119507 
	C2579.740234,1394.894409 2591.469971,1359.938110 2608.815430,1326.872437 
	C2623.678711,1298.538452 2642.461670,1273.294678 2667.826904,1253.382935 
	C2695.008789,1232.045166 2725.594238,1220.570801 2760.461426,1222.260620 
	C2782.363525,1223.322144 2803.065430,1229.467529 2822.953125,1238.464966 
	C2837.084961,1244.858154 2851.426758,1245.417725 2865.599121,1239.286133 
	C2885.343750,1230.744019 2896.776611,1215.513062 2898.111084,1193.944702 
	C2899.521729,1171.149414 2889.802734,1153.411255 2869.440674,1143.166870 
	C2843.096436,1129.912598 2814.959229,1121.552124 2785.625977,1118.044678 
	C2694.563477,1107.156128 2621.295654,1141.331421 2561.930908,1208.414185 
	C2517.204834,1258.955200 2489.999268,1318.582153 2476.181152,1384.299805 
	C2454.199707,1488.839722 2483.097168,1580.582275 2548.017822,1662.745972 
	C2574.715576,1696.535034 2607.020264,1724.205566 2643.511230,1747.017334 
	C2646.572266,1748.931030 2649.593994,1750.907715 2653.598633,1753.473022 
	C2648.468994,1765.523682 2644.037109,1777.351196 2638.522461,1788.650513 
	C2611.647461,1843.713257 2570.775391,1886.340820 2520.145752,1919.972534 
	C2467.808105,1954.738770 2410.210449,1976.453247 2348.610107,1988.027100 
	C2309.769287,1995.324707 2270.566406,1998.092896 2231.197998,1995.648438 
	C2130.542725,1989.398071 2040.568604,1956.605957 1966.194946,1886.431030 
	C1930.351440,1852.611206 1903.107300,1812.607666 1882.404053,1768.021973 
	C1879.599121,1761.981201 1876.740356,1755.964844 1873.850342,1749.964233 
	C1873.608398,1749.462158 1872.936157,1749.167236 1871.888794,1748.300171 
	C1869.923218,1750.852783 1867.740601,1753.260132 1866.032837,1755.967163 
	C1825.784058,1819.763672 1768.061646,1862.247314 1699.791382,1891.541504 
	C1651.365112,1912.320801 1600.701294,1924.342285 1548.123779,1928.595093 
	C1486.939453,1933.544312 1426.994629,1927.795288 1368.706543,1908.218506 
	C1294.145020,1883.176147 1232.580444,1840.112671 1187.921875,1774.645630 
	C1154.283203,1725.333008 1134.512939,1670.565796 1133.600830,1610.912964 
	C1132.429565,1534.306519 1153.287842,1464.483887 1209.354004,1408.999390 
	C1248.502930,1370.256592 1296.328491,1350.467163 1351.506104,1350.049561 
	C1379.446533,1349.838257 1406.197754,1357.485229 1432.367676,1366.552368 
	C1459.034546,1375.791626 1483.697632,1388.759766 1504.070923,1408.858643 
	C1527.763428,1432.231934 1540.046997,1460.502197 1540.368896,1493.794189 
	C1540.452515,1502.441040 1539.936523,1511.117554 1539.239136,1519.743530 
	C1536.922852,1548.391846 1556.638794,1573.136230 1586.111816,1577.072632 
	C1613.608765,1580.744995 1640.018311,1561.253540 1644.088135,1534.858398 
	C1653.333496,1474.896606 1643.040649,1418.930542 1608.708862,1367.986328 
	C1576.085693,1319.577271 1530.211670,1289.119507 1476.495728,1269.145874 
	C1444.225342,1257.146118 1410.937378,1248.586304 1376.770020,1244.728027 
	C1346.138794,1241.269043 1315.492798,1243.712524 1285.427002,1250.838989 
	C1187.587402,1274.029419 1116.986450,1332.111084 1070.430176,1420.249878 
	C1047.289429,1464.059082 1034.454712,1511.098389 1029.713745,1560.378662 
	C1029.177368,1565.955200 1028.376709,1571.506226 1027.647705,1577.485718 
	C1023.372742,1578.220581 1019.504578,1579.220581 1015.583984,1579.509033 
	C961.943115,1583.457764 909.111206,1579.753418 857.593201,1563.029663 
	C796.029968,1543.044922 743.794800,1508.428467 698.899536,1462.277710 
	C650.005798,1412.016357 613.476074,1353.425781 583.787903,1290.308228 
	C550.472717,1219.479492 526.956726,1145.348633 509.980042,1069.068604 
	C505.859406,1050.553589 502.376099,1031.895386 498.722931,1013.278809 
	C497.910217,1009.137329 497.617523,1004.893738 496.865448,998.962402 
	C502.933105,1001.353760 507.473419,1003.071899 511.959320,1004.921936 
	C559.115967,1024.369873 607.067749,1041.396118 656.910034,1052.698730 
	C695.707336,1061.496704 734.882690,1066.900024 774.772888,1065.864990 
	C801.551270,1065.170288 827.743103,1060.975952 853.458984,1053.335449 
	C874.920166,1046.959351 893.580994,1035.787964 911.106750,1022.193848 
	C938.305176,1001.097046 962.532593,976.760437 987.302979,953.013062 
	C1011.634094,929.686890 1036.594727,907.165344 1065.530518,889.516602 
	C1099.091919,869.046692 1135.410034,857.303589 1174.590942,853.595764 
	C1217.292480,849.554749 1259.029053,855.206360 1300.437622,864.656799 
	C1315.997070,868.207947 1331.300781,872.880005 1346.719360,877.047241 
	C1350.190308,877.985352 1353.654175,878.949341 1358.453979,880.267395 
	C1357.869141,875.379211 1357.562866,871.497131 1356.922729,867.670837 
	C1350.197144,827.472595 1346.424683,787.041138 1348.297974,746.263000 
	C1351.798462,670.061340 1372.160156,599.286926 1416.992310,536.609253 
	C1451.368774,488.549316 1495.366699,451.430634 1547.319702,423.751740 
	C1621.625122,384.164307 1700.958374,366.173218 1785.112793,370.256561 
	C1798.058838,370.884705 1810.938110,372.974182 1823.831177,374.530792 
	C1826.417725,374.843018 1828.925903,375.804535 1831.978638,376.598999 
	C1828.500854,389.469482 1824.912720,401.851227 1821.819580,414.355377 
	C1810.039185,461.976715 1805.958374,510.300323 1810.371216,559.144836 
	C1817.012939,632.660583 1840.595093,700.335693 1883.803101,760.395935 
	C1910.976074,798.167114 1946.021484,827.901428 1985.366333,852.558044 
	C2033.157471,882.507996 2084.869385,902.116577 2140.830811,909.484985 
	C2231.152100,921.377380 2310.329102,896.494324 2377.805420,835.298279 
	C2419.886230,797.134277 2450.882080,751.519714 2466.632324,696.536804 
	C2485.673340,630.065796 2478.858398,566.676819 2441.833740,507.446991 
	C2437.959717,501.249695 2433.791748,495.105957 2428.932373,489.678558 
	C2411.664551,470.392120 2382.300537,467.937164 2361.936768,483.687317 
	C2341.922119,499.167297 2336.876465,527.551514 2350.307617,549.201294 
	C2351.184570,550.615173 2352.174072,551.961670 2353.146240,553.314209 
	C2378.733643,588.915466 2384.756836,628.285706 2371.059814,669.207336 
	C2348.127930,737.719604 2301.931885,784.494934 2232.636230,806.429504 
	C2200.525146,816.593811 2167.297119,814.863525 2134.695801,807.738098 
	C2068.773438,793.329834 2013.093140,760.925476 1969.673462,709.082397 
	C1946.287354,681.159424 1931.518799,648.240173 1921.309082,613.400818 
	C1900.147827,541.191223 1903.938843,469.624298 1930.047485,399.606079 
	C1944.025757,362.119171 1967.165161,329.660217 1994.450684,300.403442 
	C2048.284668,242.679901 2114.918945,206.749405 2190.417969,186.175797 
	C2243.555908,171.695679 2297.788818,165.860901 2352.700684,168.353546 
	C2466.572266,173.522598 2571.553223,206.187363 2664.230225,273.727966 
	C2756.615479,341.056000 2815.674072,430.673492 2839.432129,542.887939 
	C2842.801270,558.802063 2844.784912,575.009583 2847.617676,592.353882 
	C2853.523682,592.774292 2859.708496,593.339661 2865.906006,593.636353 
	C2928.352051,596.626831 2988.638428,609.304199 3046.291016,633.793518 
	C3096.480713,655.112610 3141.416260,684.487488 3181.610352,722.378784 
z"/>
</svg>