<svg width="269" height="178" viewBox="0 0 269 178" fill="none" xmlns="http://www.w3.org/2000/svg">
<g clip-path="url(#clip0_85_12)">
<path fill-rule="evenodd" clip-rule="evenodd" d="M223.136 38.068C243.815 40.9509 259.312 54.4846 265.759 74.7467C268.982 84.88 269.669 95.9167 267.989 106.377C266.309 116.728 262.262 126.857 255.574 135.042C249.683 142.261 242.03 147.564 233.052 150.197C230.603 150.91 228.094 151.432 225.563 151.763C221.821 152.258 218.019 152.285 214.245 151.981H214.136C214.108 151.981 214.054 151.981 214.026 151.954C211.604 151.682 209.237 151.187 206.951 150.497C206.951 150.524 206.924 150.551 206.924 150.606C204.721 157.279 200.509 162.959 195.06 167.381C188.645 172.543 180.742 175.812 172.647 177.156C164.334 178.527 155.606 177.95 147.648 175.122C139.968 172.402 133.498 167.817 128.595 161.697C121.903 167.131 113.316 170.427 104.917 171.58C99.4398 172.348 93.7945 172.239 88.3677 171.14C82.7496 170.041 77.3547 167.899 72.6199 164.661C64.2794 158.977 58.716 150.551 56.8722 140.885C56.8449 140.885 56.8175 140.885 56.7902 140.913C56.5717 140.94 56.3213 140.994 56.1028 141.022C55.9116 141.049 55.6885 141.076 55.4973 141.103C55.4426 141.103 55.388 141.103 55.3334 141.131C55.2787 141.131 55.2241 141.131 55.1695 141.158C40.0819 142.474 27.2797 136.849 17.6963 125.4C13.3166 120.183 9.87936 114.086 7.1523 107.662C4.73027 102.087 -2.99109 78.297 1.53428 72.7127C4.448 69.7617 9.29661 72.8762 20.2276 77.053C26.3419 79.3866 33.526 80.2401 38.5658 78.0155C40.8513 76.5309 42.9182 74.4743 44.8713 72.6083C49.3602 68.2681 53.4622 64.6179 59.408 62.3661C64.5571 60.4184 69.8974 60.0325 75.1831 60.6091C75.2924 52.4825 77.2773 44.5465 81.8755 37.5186C85.4539 32.057 90.3026 27.635 95.9433 24.3662C101.092 21.3744 106.874 19.3949 112.766 18.4642C117.833 17.6697 123.2 17.6425 128.24 18.6821C129.091 18.8456 129.92 19.0408 130.771 19.2042C135.643 12.0401 142.695 6.76462 151.008 3.58207C160.013 0.14983 169.979 -0.617431 179.476 0.808131C189.169 2.29271 198.611 6.10632 206.319 12.1763C214.828 18.8774 220.61 27.7712 223.141 38.068H223.136Z" fill="#FFFEFF" stroke="white" stroke-width="0.57" stroke-miterlimit="22.93"/>
<path d="M257.796 77.2755C252.456 60.4457 239.103 46.7984 217.104 45.8677L216.662 45.845C216.298 45.8268 215.998 45.5499 215.952 45.1867L215.893 44.7418C214.491 33.4871 208.845 24.7521 201.106 18.6867C194.527 13.5247 186.46 10.2559 178.169 9.02101C169.883 7.75889 161.347 8.49891 153.913 11.3273C145.609 14.4826 138.679 20.2348 134.901 28.7292C134.892 28.7519 134.882 28.7746 134.873 28.7973C133.284 33.1239 132.629 37.7819 133.07 42.381C133.539 47.1752 135.156 51.7243 137.924 55.6696C137.937 55.6877 137.951 55.7059 137.965 55.724C139.362 57.4992 141.038 59.0837 142.872 60.4184C146.037 62.7247 149.783 64.3728 153.64 65.0583C156.972 65.6621 160.578 65.5259 163.715 64.1231C164.762 63.6554 165.782 63.0789 166.715 62.4206C172.966 58.0803 177.163 48.7143 172.333 42.2947C170.931 40.4015 171.313 37.7093 173.216 36.311C175.115 34.9127 177.814 35.294 179.216 37.1917C181.748 40.5968 183.127 44.5511 183.155 48.7778C183.237 58.6887 176.107 67.9412 167.211 71.8956C162.476 74.0112 157.191 74.3381 152.123 73.4346C147.002 72.5266 142.021 70.3338 137.833 67.2829C135.301 65.4442 133.043 63.2741 131.113 60.8316C131.085 60.7771 131.031 60.7226 131.004 60.6681C127.261 55.3972 125.085 49.3272 124.507 42.9031C124.065 37.7229 124.684 32.4928 126.228 27.5397C126.364 27.0993 126.087 26.6453 125.631 26.5681C122.139 25.9598 118.133 25.9598 114.017 26.5954C109.337 27.3354 104.493 28.9289 100.086 31.4804C95.7066 34.0047 91.7731 37.4914 88.8275 41.9951C84.4751 48.6689 82.3035 57.59 84.12 69.1216L84.2429 69.9025C84.3294 70.4473 83.815 70.8922 83.2868 70.7424L82.5266 70.5245C64.3841 65.2535 57.4458 71.95 50.6441 78.5149C48.1401 80.9302 45.6316 83.3454 42.6314 85.2159L42.5494 85.2704L42.4948 85.2977C31.7277 90.4324 17.109 85.0616 9.5561 81.9471C9.00523 81.7201 8.42248 82.1877 8.52719 82.7689C8.8823 84.8073 9.33757 87.0274 9.89755 89.3564C12.2649 99.2128 16.5581 111.103 23.9927 119.997C30.9537 128.31 40.7192 133.989 54.3318 132.795C54.35 132.795 54.3682 132.795 54.3864 132.786C54.5457 132.759 54.7279 132.736 54.8826 132.736C54.8826 132.736 54.8826 132.736 54.8872 132.736C55.2378 132.686 55.5018 132.4 55.5291 132.046C55.6839 130.108 55.9707 128.169 56.4215 126.253C58.6523 116.864 64.7893 108.847 73.8764 105.196C77.5641 103.712 81.5022 103.081 85.4676 103.276C85.5768 103.276 85.6861 103.303 85.7999 103.303C87.8395 103.548 89.8473 103.962 91.8004 104.511C97.7462 106.077 103.032 109.124 106.201 113.682C109.064 117.527 110.494 122.439 109.752 128.428C109.447 130.925 107.134 132.736 104.603 132.409C102.071 132.105 100.282 129.799 100.61 127.275C101.848 117.545 93.1525 113.505 84.9076 112.429C84.8757 112.429 84.8484 112.424 84.8166 112.42C82.2443 112.315 79.7266 112.756 77.3456 113.714C71.0401 116.238 66.9382 121.895 65.3948 128.373C64.8485 130.666 64.5708 132.963 64.5434 135.229C64.5434 135.251 64.5434 135.274 64.5434 135.297C64.9668 144.236 69.4239 152.403 77.2636 157.747C81.0925 160.358 85.4129 162.056 89.9292 162.936C94.4455 163.844 99.153 163.899 103.724 163.295C114.049 161.869 123.574 156.844 128.641 149.457L129.132 148.726C129.46 148.24 130.198 148.295 130.444 148.826L130.812 149.62C135.051 158.655 142.212 164.366 150.334 167.249C156.968 169.583 164.265 170.05 171.176 168.897C178.087 167.744 184.611 164.97 189.733 160.852C193.812 157.579 196.972 153.411 198.729 148.531C198.852 148.195 198.707 147.823 198.402 147.636C196.285 146.352 194.281 144.831 192.651 143.283C188.468 139.328 185.244 134.334 183.678 128.786C182.604 124.995 182.331 121.073 182.963 117.2C183.323 115.057 183.874 112.919 184.589 110.885C187.093 103.83 191.969 97.1289 198.934 93.9191C205.076 91.0907 211.627 91.5311 217.682 94.2778C219.995 95.322 221.015 98.0687 219.968 100.343C218.92 102.65 216.166 103.667 213.885 102.622C210.279 100.974 206.478 100.534 202.79 102.236C196.763 105.01 193.07 112.397 192.051 118.653C190.73 126.861 195.684 134.852 202.349 139.301C206.259 141.771 210.525 143.146 214.905 143.641C218.265 143.914 221.429 143.859 224.402 143.478C226.496 143.174 228.586 142.738 230.625 142.161C238.169 139.909 244.338 135.487 249.046 129.722C254.636 122.912 258.215 114.208 259.699 104.983C261.242 95.8395 260.609 86.1194 257.8 77.28L257.796 77.2755Z" fill="#EA1B26" stroke="white" stroke-width="0.57" stroke-miterlimit="22.93"/>
</g>
<defs>
<clipPath id="clip0_85_12">
<rect width="269" height="178" fill="white"/>
</clipPath>
</defs>
</svg>
