<?xml version="1.0" encoding="UTF-8"?>
<svg xmlns="http://www.w3.org/2000/svg" version="1.1" viewBox="0 0 1000 2160">
  <defs>
    <style>
      .cls-1 {
        fill: #fffefe;
      }

      .cls-2 {
        fill: #ff0f0f;
      }
    </style>
  </defs>
  <!-- Generator: Adobe Illustrator 28.7.3, SVG Export Plug-In . SVG Version: 1.2.0 Build 164)  -->
  <g>
    <g id="Layer_1">
      <g>
        <path class="cls-1" d="M132.5,1152.1c-9.6-18.3-15.4-37.7-20.5-57.3-2.8-10.7-5.2-21.6-6.5-32.6-.9-7.2-1.5-14.5-.2-21.8.3-1.8.8-3.6,1.5-5.2,1.5-3.6,4.3-5.5,8.3-5.7,3.5-.2,6.9.5,10.3,1.4,9.5,2.6,18.7,6.3,27.9,9.9,8.7,3.3,17.2,6.9,26.3,8.8,10,2.1,20.1,2.8,30.2.9,4.8-1,9.3-2.7,13-6.1,5.2-4.8,10.5-9.5,15.7-14.4,7.4-7,14.9-13.8,23.4-19.4,12.5-8.2,26.2-13,41-14.4,6.7-.6,13.3-.7,20,0,.9,0,1.7,0,2.9.1,0-1.1,0-2.1.1-3.1.5-15.2,3.3-30,8.9-44.1,9.6-24.1,25.6-42.9,47.3-56.8,17.9-11.5,37.4-18.3,58.5-21.1,15.3-2,30.5-1.6,45.5,1.9,1.2.3,2.4.5,3.7.7.6-.8,1.2-1.7,1.8-2.5,14-19.3,32.4-33.1,54.4-42.2,15.3-6.3,31.2-9.9,47.7-11.1,36.2-2.5,70.2,4.9,101.6,23.1,20.5,11.9,37.4,27.8,50.1,47.9,7.7,12.3,13.4,25.4,17,39.5,0,.3.2.7.4,1.2,2.6.5,5.2.9,7.9,1.4,31.7,6,59,20.3,81.2,43.8,17.7,18.8,29.7,40.8,37.2,65.4,6.3,20.5,9.1,41.5,8.6,62.9-.6,26.5-5.7,52-16.5,76.3-10.8,24.3-26,45.2-47.4,61.3-17,12.9-36.2,21-57.2,24.8-14.1,2.5-28.3,3-42.5,1.5-6.5-.7-12.8-2.1-19.1-4-.2.5-.5,1-.7,1.4-7.2,20.6-20,37.1-37.2,50.3-17.8,13.6-38,22-59.9,26.3-12.8,2.5-25.8,3.4-38.9,2.5-31.5-2.1-59.5-12.8-82.9-34.4-2.2-2-4.2-4.1-6.2-6.3-2-2.1-3.8-4.3-5.8-6.6-.3.2-.7.3-1,.6-15.8,12.5-33.7,20.5-53.1,25.3-15.3,3.8-30.8,5.2-46.5,4.1-26.1-1.8-50.1-9.8-70.9-26.1-20.6-16.2-33.9-37.1-39.7-62.7-.2-.9-.4-1.8-.7-2.8-3.5.3-6.8.6-10.2.7-24,1.3-46.7-3.5-67.8-15.3-17.6-9.8-31.8-23.4-43.7-39.5-6.6-8.9-12.4-18.4-17.5-28.5M828.4,986.7c-10.3-9.7-22-17.4-35.1-22.9-15-6.4-30.7-9.7-47-10.5-1.6,0-3.2-.2-4.8-.3-.7-4.5-1.3-8.7-2.1-12.9-6.2-29.2-21.6-52.6-45.6-70.1-24.1-17.6-51.5-26.1-81.1-27.4-14.3-.6-28.4.9-42.3,4.6-19.7,5.4-37,14.7-51,29.7-7.1,7.6-13.1,16.1-16.8,25.8-6.8,18.2-7.8,36.9-2.3,55.7,2.7,9.1,6.5,17.6,12.6,24.9,11.3,13.5,25.8,21.9,43,25.7,8.5,1.9,17.1,2.3,25.5-.3,18-5.7,30.1-17.9,36-35.7,3.6-10.7,2-20.9-4.7-30.2-.3-.4-.5-.7-.7-1.1-3.5-5.6-2.2-13,3-17.1,5.3-4.1,12.9-3.5,17.4,1.6,1.3,1.4,2.4,3,3.4,4.6,9.6,15.4,11.4,31.9,6.5,49.2-4.1,14.3-12.2,26.2-23.1,36.1-17.6,15.9-38.2,22.4-61.7,19.3-14.6-1.9-28-7-40.5-14.8-10.2-6.4-19.4-14.2-26.4-24-11.3-15.6-17.4-33.3-19.1-52.4-1.1-12.7,0-25.3,3-37.7.8-3.3,1.7-6.5,2.6-9.8-.8-.2-1.4-.5-2.1-.5-3.4-.4-6.7-.9-10.1-1.1-21.9-1.1-42.6,3.6-61.9,13.9-13.5,7.2-25,16.9-33.9,29.4-11.7,16.3-17,34.8-17.9,54.6-.5,10.6.5,21.1,2.2,31.6.2,1,.2,2,.4,3.3-1.2-.3-2.2-.6-3.1-.8-4-1.1-8-2.3-12.1-3.2-10.8-2.5-21.7-3.9-32.8-2.9-10.2,1-19.7,4-28.4,9.4-7.5,4.6-14,10.5-20.4,16.5-6.5,6.2-12.8,12.5-19.8,18-4.6,3.5-9.4,6.4-15,8.1-6.7,2-13.5,3.1-20.5,3.3-10.4.3-20.6-1.1-30.7-3.4-13-2.9-25.5-7.4-37.7-12.4-1.2-.5-2.4-.9-3.9-1.6.2,1.5.3,2.6.5,3.7,1,4.8,1.9,9.7,2.9,14.5,4.4,19.9,10.5,39.2,19.2,57.6,7.7,16.4,17.2,31.7,30,44.8,11.7,12,25.3,21,41.3,26.2,13.4,4.4,27.2,5.3,41.1,4.3,1,0,2-.3,3.1-.5.2-1.6.4-3,.5-4.5,1.2-12.8,4.6-25.1,10.6-36.5,12.1-23,30.5-38.1,56-44.1,7.8-1.9,15.8-2.5,23.8-1.6,8.9,1,17.6,3.2,26,6.4,14,5.2,25.9,13.1,34.4,25.7,8.9,13.3,11.6,27.8,9.2,43.5-1.1,6.9-7.9,11.9-15.1,11-7.7-1-12.8-7.5-12.2-14.9.2-2.2.3-4.5.3-6.8,0-8.7-3.3-16-9.5-22.1-5.3-5.2-11.7-8.6-18.7-11-6.8-2.4-13.8-4.4-21.1-4.3-14.4.1-26.8,5.3-37,15.4-14.6,14.4-20,32.6-19.7,52.6.2,15.5,5.4,29.8,14.1,42.6,11.6,17,27.7,28.3,47.1,34.8,15.2,5.1,30.8,6.6,46.7,5.3,13.7-1.1,26.9-4.2,39.5-9.6,17.8-7.6,32.8-18.7,43.3-35.3.4-.7,1-1.3,1.5-2,.3.2.4.3.5.4.8,1.6,1.5,3.1,2.2,4.7,5.4,11.6,12.5,22,21.8,30.8,19.4,18.3,42.8,26.8,69,28.4,10.3.6,20.5,0,30.6-2,16-3,31-8.7,44.7-17.7,13.2-8.8,23.8-19.9,30.8-34.2,1.4-2.9,2.6-6,3.9-9.2-1-.7-1.8-1.2-2.6-1.7-9.5-5.9-17.9-13.1-24.9-21.9-16.9-21.4-24.4-45.3-18.7-72.5,3.6-17.1,10.7-32.6,22.3-45.8,15.5-17.5,34.5-26.4,58.3-23.5,7.6.9,15,3.1,21.8,6.5,5.3,2.7,7.8,7.3,7.5,13.2-.3,5.6-3.3,9.6-8.5,11.8-3.7,1.6-7.4,1.5-11.1-.2-5.2-2.3-10.6-3.9-16.3-4.2-9.1-.4-17,2.5-24.1,8.1-6.6,5.2-11.5,11.8-15.4,19.1-4.5,8.6-7.6,17.7-8.5,27.4-1.2,12.2,1.9,23.4,8.1,33.8,13.3,22.1,33.5,33.2,58.6,36.4,11.1,1.4,22.2.9,33.2-1,14.5-2.5,28.2-7.4,40.6-15.3,17.4-11,30.6-26,40.6-43.8,12.5-22.3,18.8-46.4,20.3-71.7,1.3-21.8-1-43.3-7.7-64.2-7.2-22.5-18.7-42.5-36.2-59.2Z"/>
        <path class="cls-2" d="M828.5,986.9c17.4,16.6,28.9,36.5,36.1,59,6.7,20.9,9,42.4,7.7,64.2-1.5,25.4-7.9,49.4-20.3,71.7-10,17.9-23.2,32.8-40.6,43.8-12.5,7.9-26.1,12.8-40.6,15.3-11,1.9-22.1,2.4-33.2,1-25-3.2-45.3-14.3-58.6-36.4-6.2-10.4-9.3-21.7-8.1-33.8.9-9.7,4-18.8,8.5-27.4,3.9-7.4,8.8-14,15.4-19.1,7.1-5.6,15-8.5,24.1-8.1,5.7.3,11.1,1.9,16.3,4.2,3.7,1.7,7.4,1.8,11.1.2,5.1-2.2,8.1-6.2,8.5-11.8.4-5.9-2.2-10.6-7.5-13.2-6.9-3.5-14.2-5.6-21.8-6.5-23.7-2.8-42.8,6.1-58.3,23.5-11.6,13.2-18.7,28.7-22.3,45.8-5.7,27.2,1.8,51.1,18.7,72.5,7,8.8,15.4,16,24.9,21.9.8.5,1.6,1,2.6,1.7-1.3,3.1-2.5,6.2-3.9,9.2-7,14.3-17.6,25.4-30.8,34.2-13.6,9.1-28.6,14.7-44.7,17.7-10.1,1.9-20.3,2.6-30.6,2-26.2-1.6-49.6-10.2-69-28.4-9.3-8.8-16.4-19.2-21.8-30.8-.7-1.6-1.5-3.1-2.2-4.7,0-.1-.2-.2-.5-.4-.5.7-1.1,1.3-1.5,2-10.5,16.6-25.5,27.7-43.3,35.3-12.6,5.4-25.8,8.5-39.5,9.6-15.9,1.3-31.5-.2-46.7-5.3-19.4-6.5-35.4-17.7-47.1-34.8-8.8-12.8-13.9-27.1-14.1-42.6-.3-19.9,5.1-38.1,19.7-52.6,10.2-10.1,22.6-15.2,37-15.4,7.3,0,14.2,1.9,21.1,4.3,6.9,2.4,13.4,5.8,18.7,11,6.2,6.1,9.4,13.4,9.5,22.1,0,2.3-.1,4.5-.3,6.8-.6,7.5,4.5,13.9,12.2,14.9,7.2,1,14-4.1,15.1-11,2.4-15.6-.3-30.2-9.2-43.5-8.5-12.6-20.4-20.5-34.4-25.7-8.4-3.1-17.1-5.4-26-6.4-8-.9-16-.3-23.8,1.6-25.5,6-43.9,21.2-56,44.1-6,11.4-9.4,23.7-10.6,36.5-.1,1.5-.3,2.9-.5,4.5-1.1.2-2.1.5-3.1.5-14,1-27.7,0-41.1-4.3-16-5.2-29.6-14.2-41.3-26.2-12.7-13.1-22.2-28.3-30-44.8-8.7-18.4-14.8-37.7-19.2-57.6-1.1-4.8-2-9.7-2.9-14.5-.2-1.1-.3-2.2-.5-3.7,1.6.6,2.8,1.1,3.9,1.6,12.3,5.1,24.8,9.5,37.7,12.4,10.1,2.3,20.3,3.7,30.7,3.4,7-.2,13.8-1.3,20.5-3.3,5.6-1.7,10.4-4.6,15-8.1,7.1-5.5,13.4-11.8,19.8-18,6.3-6.1,12.8-11.9,20.4-16.5,8.7-5.3,18.2-8.4,28.4-9.4,11.1-1.1,22,.4,32.8,2.9,4.1.9,8,2.1,12.1,3.2.9.2,1.8.5,3.1.8-.2-1.3-.2-2.3-.4-3.3-1.8-10.5-2.7-21-2.2-31.6.9-19.8,6.2-38.3,17.9-54.6,9-12.5,20.4-22.2,33.9-29.4,19.4-10.3,40-15,61.9-13.9,3.4.2,6.7.7,10.1,1.1.7,0,1.3.3,2.1.5-.9,3.4-1.8,6.6-2.6,9.8-3.1,12.4-4.1,25-3,37.7,1.7,19.1,7.9,36.8,19.1,52.4,7.1,9.8,16.2,17.6,26.4,24,12.4,7.8,25.9,12.9,40.5,14.8,23.5,3.1,44.1-3.4,61.7-19.3,11-9.9,19-21.8,23.1-36.1,5-17.3,3.2-33.8-6.5-49.2-1-1.6-2.1-3.2-3.4-4.6-4.5-5-12.1-5.7-17.4-1.6-5.2,4-6.5,11.4-3,17.1.2.4.5.7.7,1.1,6.7,9.3,8.2,19.5,4.7,30.2-6,17.8-18,30-36,35.7-8.4,2.6-17,2.2-25.5.3-17.2-3.8-31.7-12.2-43-25.7-6.1-7.3-9.9-15.8-12.6-24.9-5.5-18.8-4.5-37.4,2.3-55.7,3.6-9.8,9.7-18.2,16.8-25.8,14-15,31.4-24.4,51-29.7,13.8-3.8,28-5.3,42.3-4.6,29.7,1.3,57,9.9,81.1,27.4,24.1,17.5,39.4,40.9,45.6,70.1.9,4.1,1.4,8.4,2.1,12.9,1.5.1,3.1.3,4.8.3,16.3.8,32,4.1,47,10.5,13.1,5.6,24.8,13.2,35.2,23.1Z"/>
      </g>
    </g>
  </g>
</svg>