<svg width="270" height="245" viewBox="0 0 270 245" fill="none" xmlns="http://www.w3.org/2000/svg">
<path d="M141.635 227.865C200.265 227.865 247.795 180.499 247.795 122.071C247.795 63.6432 200.265 16.2779 141.635 16.2779C83.0045 16.2779 35.4751 63.6432 35.4751 122.071C35.4751 180.499 83.0045 227.865 141.635 227.865Z" fill="url(#paint0_radial_85_2)" fill-opacity="0.992126" stroke="#D45500" stroke-width="1.51181"/>
<g filter="url(#filter0_f_85_2)">
<path d="M150.053 16.3209C125.841 14.9473 102.001 21.4436 82.2728 34.7907C59.8752 50.0393 44.3683 73.0833 38.8531 99.3148C33.3379 125.546 38.2209 153.032 52.5256 176.275C47.8992 149.218 51.1143 121.583 61.8065 96.5032C72.4986 71.4234 90.2402 49.9018 113.02 34.3781C124.409 26.6904 136.874 20.6126 150.053 16.3209Z" fill="url(#paint1_linear_85_2)"/>
</g>
<path opacity="0.609" d="M142.804 93.8648L128.374 104.85L134.398 87.7791L119.456 77.4974L137.609 77.9321L142.804 60.5925L147.998 77.9321L166.152 77.4974L151.209 87.7791L157.234 104.85L142.804 93.8648Z" fill="#AA0000"/>
<path opacity="0.609" d="M102.112 156.576L87.7289 167.589L93.7765 150.53L78.9561 140.319L97.0019 140.691L102.225 123.367L107.331 140.656L125.379 140.161L110.489 150.473L116.42 167.491L102.112 156.576Z" fill="#AA0000"/>
<path opacity="0.609" d="M183.303 156.686L168.873 167.672L174.898 150.6L159.956 140.319L178.109 140.753L183.304 123.413L188.498 140.752L206.651 140.317L191.708 150.599L197.732 167.67L183.303 156.686Z" fill="#AA0000"/>
<defs>
<filter id="filter0_f_85_2" x="28.9859" y="8.48571" width="128.722" height="175.444" filterUnits="userSpaceOnUse" color-interpolation-filters="sRGB">
<feFlood flood-opacity="0" result="BackgroundImageFix"/>
<feBlend mode="normal" in="SourceGraphic" in2="BackgroundImageFix" result="shape"/>
<feGaussianBlur stdDeviation="3.82735" result="effect1_foregroundBlur_85_2"/>
</filter>
<radialGradient id="paint0_radial_85_2" cx="0" cy="0" r="1" gradientUnits="userSpaceOnUse" gradientTransform="translate(132.788 133.532) scale(105.987 99.2831)">
<stop stop-color="#FF7A2A"/>
<stop offset="0.796859" stop-color="#FFA033"/>
<stop offset="1" stop-color="#FFD542"/>
</radialGradient>
<linearGradient id="paint1_linear_85_2" x1="22.2688" y1="33.2628" x2="79.8302" y2="91.1716" gradientUnits="userSpaceOnUse">
<stop stop-color="white"/>
<stop offset="1" stop-color="white" stop-opacity="0"/>
</linearGradient>
</defs>
</svg>
