<?xml version="1.0" encoding="UTF-8"?>
<svg id="Calque_2" xmlns="http://www.w3.org/2000/svg" viewBox="0 0 380.28 228.12">
  <defs>
    <style>
      .cls-1 {
        fill: #d2d3d5;
      }

      .cls-2 {
        fill: #b0313f;
      }

      .cls-3, .cls-4 {
        fill: #7395b4;
      }

      .cls-5 {
        fill: #fff;
      }

      .cls-4 {
        mix-blend-mode: screen;
      }

      .cls-4, .cls-6, .cls-7 {
        isolation: isolate;
      }

      .cls-8, .cls-7 {
        mix-blend-mode: multiply;
      }

      .cls-7 {
        fill: #3c5265;
        opacity: .3;
      }

      .cls-9 {
        fill: #7f7f7f;
      }
    </style>
  </defs>
  <g id="Calque_1-2" data-name="Calque_1">
    <g class="cls-6">
      <g id="Calque_2-2" data-name="Calque_2">
        <g id="Layer_1">
          <g class="cls-8">
            <path class="cls-2" d="M263,40.08c0,21.15-17.14,38.29-38.29,38.29s-38.29-17.14-38.29-38.29S203.56,1.79,224.71,1.79s38.29,17.14,38.29,38.29h0Z"/>
            <g>
              <path class="cls-9" d="M210.81,15.68c-.79.13-1.44.65-1.81,1.34-.25.67-.27,1.45.22,1.92,0-.11.02-.23.05-.33.02-.57.43-1.15.89-1.5.88-.66,1.87.14,2.24.93.5,1.07-.3,2.23-1.21,2.72-.8.44-1.77.44-2.56,0-.64-.35-.98-1.02-1.37-1.59-.34-.5-.75-.93-1.22-1.3-.55-.45-1.2-.7-1.86-.77.33-.9.45-1.88.3-2.9-.52-3.57-4.23-5.4-7.55-5.17-.98.06-1.95.31-2.86.7.37-2.06-1.12-4.38-3.06-5.04-1.13-.39-2.8-.53-4.09-.06.14-.71.08-1.48-.1-2.13-.85-3.03-4.63-2.8-6.96-1.92-2.46.94-4.13,3.15-4.16,5.62-1.34-.47-3.05-.13-4.06.83-.39.37-.73.82-.95,1.31-.25-.07-.5-.13-.75-.17-1.66-.25-3.45.27-4.77,1.3-.85.67-1.39,1.59-1.63,2.59-1.67-.04-3.23.58-4.51,1.82-.7.67-1.16,1.54-1.35,2.45-.13,0-.26-.02-.37-.02-1.47-.06-2.99.49-4.07,1.49-.9.84-1.59,2.3-1.56,3.62-.16.18-.33.36-.52.51-.71.57-1.63.87-2.52.71-.85-.15-1.39-.93-1.25-1.77.08-.51.45-.99.92-1.2.17-.11.37-.15.57-.11h0s.03,0,.05,0c.17.02.29.09.37.19.02.02.04.04.06.06.21.23.21.57.09.85.16-.06.3-.13.43-.23.3-.33.44-.68.35-1.15-.13-.73-1.15-.96-1.75-.98-.86-.03-1.67.52-2.25,1.1-1.56,1.56-.92,3.73.76,4.87,1.46.99,3.74,1.02,5.35.22,1.01,2,4.24,2.3,6.16,2,1.35-.21,2.92-1.04,3.7-2.24,1.22,1.77,4.6,2.07,6.46,2.04,1.88-.03,4.45-.35,6.29-1.47,1.39,1.54,3.99,1.93,5.92,2,2.54.09,5.21-.53,7.23-2.1.88,1.44,2.2,2.3,3.9,2.91,1.93.7,4.03.86,6.04.5,2.22-.38,4.81-1.68,5.7-3.82.62.43,1.47.64,2.12.77,1.34.26,2.83.07,4.09-.43,2.03-.8,4.18-2.52,4.46-4.84.27-2.21-1.15-4.53-3.61-4.12v-.02Z"/>
              <path class="cls-5" d="M213.91,20.96c-.82,2.07-3.01,3.34-5.09,3.81-1.12.26-2.32.22-3.43-.03-.44-.1-.99-.28-1.46-.55-.1-.05-.19-.1-.28-.16-.14.29-.3.56-.49.81-1.19,1.86-3.52,2.83-5.8,3.16-1.86.27-3.76-.05-5.52-.68-1.68-.59-3.15-1.93-3.88-3.56-.19-.43-.34-.97-.34-1.45,0-.03-.04.02-.04.03-.09.83.11,1.58.47,2.23h0c-2.16,1.5-4.84,1.96-7.45,1.84-1.16-.05-2.3-.26-3.4-.64-.58-.2-1.13-.48-1.64-.82-.06-.04-.12-.09-.18-.14-.05-.03-.1-.07-.14-.11-.02-.02-.03-.03-.05-.04-.02-.02-.04-.04-.06-.05.55-.35,1.03-.84,1.3-1.44.4-.86.8-2.1-.03-2.83,0,0-.04.03-.03.04.43.8.34,1.6.03,2.43-.29.78-.89,1.3-1.57,1.74-.05.03-.11.06-.16.08-1.89,1-4.37,1.25-6.28,1.26-1.74.02-4.82-.26-6.05-1.83.37-.64.5-1.39.26-2.2-.35-1.16-1.56-1.8-2.7-1.51-.8.21-1.31,1.04-1.5,1.79-.23.94.3,1.76,1.19,2.01.46.13,1.02.14,1.4-.13-.39.18-.87.19-1.29.03-.33-.12-.58-.32-.76-.55-.7-.71-.26-2.1.39-2.65.8-.68,1.92-.26,2.58.38.23.23.39.48.49.75,0,0,0,.02.02.03.34.88.09,1.66-.42,2.3-.11.17-.24.34-.38.48-1.43,1.47-3.67,1.74-5.61,1.48-1.21-.16-2.69-.65-3.44-1.69-.04-.05-.07-.1-.11-.16-.02-.03-.04-.06-.05-.09-.16.06-.31.11-.48.14h-.02c-2.22.71-5.08-.07-6.09-2.23-.82-1.74.84-3.69,2.6-3.78.48-.02.96.13,1.35.41.66.46.36,1.22-.08,1.57.06-.31,0-.7-.11-.88-.25-.44-.93-.28-1.27-.11-.43.21-.71.66-.92,1.07-.62,1.19.3,2.34,1.51,2.43.64.05,1.35-.2,1.87-.55.4-.26.69-.59.97-.92.03.55.2,1.07.53,1.51-.52-1-.41-2.45.1-3.46.27-.68.7-1.3,1.24-1.76,1.09-.91,2.54-1.17,3.93-1.16.47,0,.92.03,1.38.11.42.07.84.19,1.21.39.2.11.39.25.54.42-.19-.31-.48-.56-.79-.73-.11-.06-.23-.13-.36-.19-.48-.16-1.01-.25-1.5-.29.23-1.06.8-2.02,1.73-2.79,1.07-.88,2.43-1.27,3.8-1.33-.34,1.74.23,3.66,1.71,4.8,2.09,1.61,5.91.78,6.56-1.95.77-3.27-3.87-5.24-5.68-2.46-.54.83-.53,1.93.41,2.42,0,0,.04-.03.03-.04-.73-.5-.77-1.26-.46-2.03.41-1.01,1.44-1.47,2.47-1.45,1.47.03,2.66,1.17,2.98,2.55.39,1.71-.89,2.95-2.43,3.35-1.26.33-2.6.07-3.66-.66-1.35-.93-1.89-2.51-1.74-4.02,0-.44.1-.88.29-1.27.31-.81.82-1.54,1.54-2.05,1.26-.91,2.96-1.16,4.47-.95.06,0,.12.02.18.03.15,0,.37.09.52.13.16.05.32.1.48.16.3.11.57.26.83.44.5.34,1,.77,1.28,1.32.15.29.26.64.29.96,0,.03.05-.02.05-.04,0-1.61-1.37-2.66-2.8-3.11.3-.65.83-1.22,1.45-1.59,1.1-.66,2.29-.61,3.44-.27.03.69.19,1.39.5,2.08.9,2.03,3.18,2.86,5.26,2.83.03,0,.09-.08.05-.08-1.6-.08-3.12-.51-4.26-1.69-.8-.81-1.18-1.92-1.26-3.05h0v-.3h-.02c0-.57.05-1.14.18-1.67.71-2.89,4.01-4.34,6.75-4.28,1.05.02,2.08.37,2.83,1.12.61.62.94,1.58.93,2.52.04.53-.06,1.08-.34,1.53-.04.06-.09.12-.13.17-.07.11-.14.21-.23.3-.47.51-1.17.74-1.88.75-.66.16-1.38.1-1.92-.23-.64-.4-.96-1.09-.91-1.78-.09-.94.67-1.74,1.7-1.79,1.06-.05,1.69.88,1.49,1.85,0,.03.03,0,.03-.02.42-1.61-1.11-2.45-2.48-1.78-1.17.57-1.3,2.17-.63,3.15.95,1.38,3.29,1.13,4.48.27.53-.38.86-.94,1.02-1.56,1.29-.4,2.93-.12,4.06.28,1.81.64,3.03,2.81,2.85,4.73-2.06.99-3.69,2.81-3.98,5.2-.22,1.77.65,3.68,2.41,4.25,1.34.44,3.3-.45,3.91-1.73.67-1.45-.38-2.96-1.9-3.16-.25-.04-.52,0-.76.07-.52.12-.96.48-1.26.96-.05.08-.09.18-.12.29-.04.23-.04.47.02.7.06.22.13.61.36.72.03.02.06.02.09.03-.34-.29-.39-.9-.32-1.3.09-.58.55-.95,1.07-1.16.62-.14,1.37.03,1.9.4.43.29.68.76.85,1.24.33.96-.44,1.78-1.19,2.24-1.74,1.06-3.66.27-4.45-1.52-1.3-2.94.77-5.58,3.34-6.87v.02c.09-.05.17-.09.26-.13v-.02c.7-.32,1.43-.54,2.13-.64,2.91-.41,6.16.74,7.53,3.46.5.98.65,1.99.54,2.96-.06,1.71-1.23,3.38-2.72,4.52,1.14-.73,2.04-1.78,2.56-3,.7.1,1.34.41,1.95.91.91.74,1.28,1.91,2.19,2.64,1.34,1.08,3.32.21,4.18-1.04.96-1.39.09-3.87-1.85-3.27-.65.2-1.31,1.01-1.43,1.76-.27-.73.13-1.75.84-2.18.83-.5,1.88-.4,2.71.04,1.65.87,1.87,3.15,1.25,4.7l-.03.05Z"/>
              <path class="cls-1" d="M160.61,17.53c-.15-.15-.33-.29-.51-.39-.38-.2-.79-.32-1.21-.39-.46-.07-.91-.1-1.38-.11-1.38,0-2.84.25-3.93,1.16-.54.46-.97,1.08-1.24,1.76-.47.92-.58,2.19-.22,3.16.02,0,.03.02.04.04-.48-2.48,1.75-4.88,4.1-5.48,1.44-.36,3.21-.37,4.42.4-.02-.05-.04-.11-.07-.17v.02Z"/>
              <path class="cls-1" d="M175.79,7.1c-.03-.2-.05-.4-.06-.6-1.15-.34-2.34-.39-3.44.27-.62.37-1.15.94-1.45,1.59.28.09.55.2.82.34,1.08-1.2,2.53-1.78,4.13-1.6h0Z"/>
              <path class="cls-1" d="M202.01,20.03c-.06.09-.12.16-.18.25.84-.52,1.79-.86,2.75-.46,1.2.5,2.01,1.46,3.09,2.15,1.49.94,3.65.85,4.59-.84.31-.55.52-1.37.48-2.12-.06.32-.17.62-.35.89-.86,1.25-2.84,2.12-4.18,1.04-.91-.73-1.28-1.9-2.19-2.64-.61-.5-1.26-.81-1.95-.91-.44,1.03-1.16,1.94-2.05,2.63h0Z"/>
              <path class="cls-1" d="M148.87,22.99c-1.21-.1-2.13-1.24-1.51-2.43.21-.41.49-.85.92-1.07.26-.13.7-.25,1.01-.12-.16-.27-.44-.35-.84-.22-.14.05-.27.1-.41.15-.26.14-.52.31-.7.55-.36.46-.62,1.03-.61,1.62.02,1.29.91,2.33,2.25,2.32,1.12,0,1.95-.55,2.87-1.11.06-.04.12-.03.18,0-.18-.35-.28-.73-.3-1.14-.28.33-.57.66-.97.92-.52.34-1.23.6-1.87.55l-.02-.02Z"/>
              <path class="cls-1" d="M162.39,22.03s-.02-.02-.02-.03c-.1-.27-.26-.52-.49-.75-.65-.64-1.77-1.05-2.58-.38-.18.15-.33.36-.46.59.58-.62,1.56-.82,2.34-.27,1.08.76.85,2.64.05,3.51-1.15,1.25-2.97,1.55-4.59,1.61h-.46c1.88.22,4.01-.09,5.39-1.5.14-.15.27-.31.38-.48.51-.64.76-1.42.42-2.3h.02Z"/>
              <path class="cls-1" d="M182.54,25c-1.18-.04-2.4-.14-3.54-.48-.48-.14-1.03-.27-1.46-.56-.36-.24-.69-.51-1.09-.69-.02,0-.04-.02-.05-.04-.28.58-.74,1.05-1.28,1.39.02.02.04.04.06.05.02.02.03.03.05.04.05.04.09.08.14.11.06.05.12.09.18.14.51.34,1.05.62,1.64.82,1.1.38,2.24.59,3.4.64,2.61.11,5.29-.35,7.45-1.84h0c-.17-.31-.3-.63-.38-.98-1.34,1.25-3.38,1.46-5.13,1.4h.01Z"/>
              <path class="cls-1" d="M203.69,24.05c.19-.55.34-1.16.27-1.7-.2,1.59-1.48,2.86-2.85,3.66-1.93,1.12-4.1,1.51-6.31,1.19-2.22-.32-4.9-1.11-6.18-3.13-.66-1.04-.87-2.33-.54-3.48-.3.53-.47,1.12-.49,1.74,0-.02.03-.03.03,0,0,.48.14,1.02.34,1.45.73,1.63,2.2,2.96,3.88,3.56,1.76.63,3.66.95,5.52.68,2.29-.33,4.61-1.3,5.8-3.16.19-.25.36-.52.49-.81,0,0,.02,0,.04.02h0Z"/>
              <path class="cls-1" d="M192.6,10.56c.37-.27.77-.5,1.19-.7.18-1.92-1.04-4.09-2.85-4.73-1.13-.4-2.77-.68-4.06-.28-.14.53-.39,1.01-.79,1.38,2.89-.93,6.53,1.24,6.51,4.34h0Z"/>
              <path class="cls-1" d="M176.38,22.83c.31-.83.4-1.63-.03-2.43-.03-.03-.06-.06-.1-.1,0,.53-.11,1.08-.32,1.6-.87,2.09-3.68,2.8-5.69,3.06-1.4.18-2.84.18-4.2-.25-1.27-.4-2.76-.85-3.34-2.07,0,.52-.13,1-.38,1.44,1.23,1.58,4.31,1.85,6.05,1.83,1.91-.02,4.39-.27,6.28-1.26.05-.02.11-.05.16-.08.67-.44,1.27-.96,1.57-1.74Z"/>
              <path class="cls-1" d="M193.75,10.22c-2.58,1.28-4.65,3.93-3.34,6.87.79,1.78,2.71,2.58,4.45,1.52.75-.46,1.52-1.28,1.19-2.24-.16-.48-.42-.95-.85-1.24-.53-.37-1.27-.54-1.9-.4-.03,0-.05.02-.08.03.28-.08.59-.05.92.13,1.16.68,1.14,2.49-.05,3.16-1.29.73-2.84.2-3.28-1.26-.58-1.88.34-3.82,1.77-5.04,2.92-2.48,8.94-2.4,10.24,1.77.65,2.12.46,4.55-.69,6.34,1.17-1.1,2.04-2.53,2.09-3.99.1-.97-.05-1.98-.54-2.96-1.38-2.72-4.63-3.86-7.53-3.46-.7.1-1.43.32-2.13.64v.02c-.09.04-.17.08-.26.13v-.02h-.01Z"/>
              <path class="cls-1" d="M176.02,6.6h0c.08,1.13.46,2.23,1.26,3.05.38.39.8.69,1.25.93-.02-.02-.05-.05-.08-.06-1.01-.9-1.52-2.23-1.46-3.57.14-2.84,2.39-5.56,5.42-5.44,1.34.06,2.46.52,3.08,1.77.47.95.28,2.23-.63,2.85-.93.64-2.37.63-3.12,0,.13.15.27.27.45.38.54.34,1.26.39,1.92.23.71,0,1.41-.24,1.88-.75.09-.09.16-.19.23-.3.05-.05.09-.11.13-.17.29-.44.38-.99.34-1.53,0-.94-.32-1.9-.93-2.52-.75-.75-1.78-1.1-2.83-1.12-2.74-.06-6.04,1.39-6.75,4.28-.13.54-.2,1.11-.18,1.67h.02v.3h0Z"/>
              <path class="cls-1" d="M165.46,16.76c1.05.74,2.4.99,3.66.66,1.54-.4,2.82-1.64,2.43-3.35-.32-1.38-1.5-2.52-2.98-2.55h-.21c.11.02.22.05.32.09,1.19.45,1.77,1.54,1.67,2.78-.24,3.02-4.63,3.27-5.61.57-.95-2.63,1.7-5.56,4.29-5.71,1.53-.09,3.09.29,4.12,1.48.18.21.32.44.43.67-.04-.29-.14-.6-.27-.85-.28-.55-.78-.98-1.28-1.32-.26-.18-.54-.33-.83-.44-.16-.06-.32-.11-.48-.16-.15-.04-.37-.14-.52-.13-.06,0-.12-.02-.18-.03-1.51-.21-3.21.05-4.47.95-.72.52-1.24,1.24-1.54,2.05-.19.39-.28.83-.29,1.27-.15,1.51.4,3.09,1.74,4.02Z"/>
              <path class="cls-1" d="M160.91,14.28c.6-.37,1.22-.7,1.9-.89.16-.04.44-.18.62-.12,0-.35.03-.7.1-1.04-1.37.05-2.72.45-3.8,1.33-.93.76-1.51,1.73-1.73,2.79.29.02.59.07.89.13.17-1,1.23-1.7,2.03-2.19h0Z"/>
            </g>
            <g>
              <path class="cls-9" d="M334.22,99.29c-.71.12-1.29.58-1.63,1.2-.23.61-.24,1.3.2,1.73,0-.1.02-.2.05-.3.02-.51.38-1.03.8-1.35.79-.59,1.68.12,2.02.84.45.96-.27,2-1.09,2.45-.72.39-1.59.39-2.3,0-.57-.31-.88-.92-1.23-1.43-.3-.45-.68-.83-1.1-1.17-.5-.4-1.08-.63-1.67-.69.29-.81.41-1.69.27-2.61-.47-3.21-3.81-4.85-6.79-4.65-.88.06-1.75.28-2.57.63.33-1.85-1.01-3.94-2.75-4.53-1.02-.35-2.51-.48-3.67-.06.13-.64.07-1.33-.09-1.92-.76-2.72-4.16-2.52-6.26-1.73-2.22.84-3.72,2.83-3.74,5.05-1.2-.42-2.74-.11-3.65.75-.35.33-.65.74-.85,1.18-.22-.07-.45-.12-.67-.15-1.49-.23-3.1.24-4.29,1.17-.76.6-1.25,1.43-1.46,2.33-1.5-.03-2.9.52-4.06,1.64-.62.61-1.04,1.38-1.21,2.21-.12,0-.23-.01-.34-.02-1.32-.05-2.69.44-3.66,1.34-.81.76-1.43,2.07-1.4,3.25-.15.16-.29.32-.47.46-.64.51-1.46.78-2.27.64-.76-.13-1.25-.84-1.12-1.59.07-.45.4-.89.82-1.08.15-.1.33-.13.51-.1h0s.03,0,.04.01c.15.02.26.08.34.17.01.02.04.03.06.05.19.21.19.51.08.76.14-.05.27-.12.38-.21.27-.3.39-.61.31-1.04-.12-.66-1.03-.86-1.57-.88-.77-.03-1.5.46-2.03.99-1.41,1.4-.83,3.35.69,4.38,1.31.89,3.36.91,4.81.2.9,1.8,3.81,2.07,5.54,1.8,1.21-.19,2.63-.93,3.32-2.01,1.1,1.6,4.14,1.86,5.81,1.83,1.69-.03,4-.32,5.65-1.32,1.25,1.39,3.59,1.74,5.32,1.8,2.28.08,4.68-.47,6.5-1.89.79,1.29,1.97,2.07,3.5,2.62,1.74.62,3.62.77,5.43.45,1.99-.35,4.32-1.51,5.12-3.44.56.38,1.32.58,1.9.69,1.2.23,2.55.06,3.68-.38,1.83-.72,3.76-2.27,4.01-4.35.24-1.99-1.03-4.07-3.24-3.71h.02Z"/>
              <path class="cls-5" d="M337.02,104.04c-.74,1.86-2.71,3-4.57,3.43-1.01.24-2.08.19-3.09-.02-.4-.09-.89-.25-1.31-.49-.09-.04-.17-.09-.25-.14-.12.26-.27.5-.44.73-1.07,1.67-3.16,2.54-5.22,2.84-1.68.24-3.38-.05-4.96-.61-1.51-.53-2.83-1.74-3.49-3.2-.17-.39-.3-.87-.3-1.3,0-.02-.03,0-.04.03-.08.75.09,1.42.42,2.01h0c-1.94,1.35-4.35,1.76-6.7,1.66-1.04-.04-2.07-.24-3.06-.58-.52-.18-1.01-.43-1.47-.73-.06-.04-.11-.08-.16-.12-.04-.03-.09-.07-.13-.1-.01,0-.03-.02-.04-.04-.02,0-.04-.03-.06-.05.5-.32.92-.75,1.17-1.29.36-.77.72-1.89-.03-2.54-.01,0-.03.02-.03.03.38.72.31,1.44.03,2.18-.26.7-.8,1.17-1.41,1.57-.05.02-.1.05-.15.07-1.7.9-3.93,1.12-5.65,1.13-1.56.02-4.33-.23-5.44-1.65.33-.58.45-1.25.23-1.98-.31-1.05-1.4-1.62-2.43-1.35-.72.19-1.18.93-1.35,1.61-.21.84.27,1.58,1.07,1.81.41.12.91.12,1.26-.12-.35.16-.78.17-1.16.03-.3-.11-.52-.29-.69-.5-.63-.64-.24-1.89.35-2.38.72-.61,1.73-.24,2.32.34.21.21.35.43.44.67,0,0,.01.02.02.03.3.79.08,1.5-.38,2.07-.1.15-.22.3-.35.43-1.29,1.32-3.3,1.57-5.04,1.33-1.09-.15-2.42-.58-3.09-1.52-.03-.04-.06-.09-.1-.14-.02-.03-.03-.05-.05-.08-.14.05-.28.1-.43.13h-.02c-2,.64-4.57-.06-5.48-2-.74-1.56.76-3.32,2.34-3.4.43-.02.87.12,1.22.36.59.41.32,1.09-.08,1.41.05-.28,0-.63-.09-.79-.23-.39-.83-.25-1.14-.1-.38.19-.64.59-.82.96-.55,1.07.27,2.1,1.36,2.19.57.05,1.22-.18,1.68-.49.36-.24.62-.53.87-.83.03.5.18.96.48,1.36-.47-.9-.37-2.2.09-3.11.24-.61.63-1.17,1.12-1.58.98-.82,2.29-1.06,3.53-1.05.42,0,.83.03,1.24.1.38.06.75.17,1.09.35.18.1.35.23.49.38-.17-.28-.43-.5-.71-.66-.1-.06-.21-.12-.32-.17-.43-.15-.9-.22-1.35-.26.2-.95.72-1.82,1.56-2.51.97-.79,2.19-1.15,3.42-1.19-.31,1.57.21,3.29,1.53,4.32,1.88,1.45,5.31.7,5.9-1.76.69-2.94-3.48-4.71-5.11-2.21-.48.74-.47,1.74.37,2.18.01,0,.04-.02.02-.03-.66-.45-.69-1.13-.41-1.83.37-.91,1.3-1.32,2.22-1.3,1.33.03,2.39,1.06,2.68,2.29.35,1.54-.8,2.66-2.18,3.02-1.13.3-2.34.07-3.29-.6-1.21-.84-1.7-2.25-1.57-3.61,0-.39.09-.79.26-1.14.27-.73.74-1.38,1.39-1.84,1.14-.82,2.66-1.05,4.02-.86.05,0,.11.02.16.03.13,0,.33.08.46.12.15.04.29.09.43.14.27.1.52.24.75.39.45.3.9.69,1.15,1.19.13.26.23.57.26.86,0,.02.04-.02.04-.03,0-1.45-1.23-2.39-2.52-2.8.27-.58.74-1.1,1.3-1.43.99-.59,2.06-.55,3.09-.24.03.62.17,1.25.45,1.87.81,1.83,2.86,2.57,4.73,2.54.03,0,.08-.07.04-.07-1.44-.07-2.8-.46-3.83-1.52-.72-.73-1.07-1.72-1.13-2.74h0v-.27h-.01c-.01-.51.05-1.02.16-1.51.64-2.6,3.6-3.9,6.07-3.85.95.02,1.87.33,2.54,1.01.55.55.85,1.42.84,2.26.03.48-.05.97-.31,1.37-.04.05-.08.11-.12.16-.06.1-.13.19-.21.27-.42.45-1.05.67-1.69.67-.6.14-1.24.09-1.73-.21-.58-.36-.86-.98-.82-1.6-.08-.84.6-1.56,1.52-1.61.95-.05,1.52.79,1.34,1.67,0,.02.03,0,.03-.02.38-1.45-1-2.2-2.23-1.6-1.05.51-1.17,1.95-.56,2.83.86,1.24,2.95,1.02,4.03.25.48-.35.77-.85.91-1.4,1.16-.36,2.63-.1,3.65.25,1.63.58,2.72,2.53,2.56,4.25-1.85.89-3.31,2.52-3.58,4.68-.19,1.59.59,3.31,2.17,3.82,1.21.39,2.97-.41,3.51-1.56.6-1.3-.35-2.66-1.71-2.85-.23-.03-.46,0-.69.06-.47.11-.86.43-1.13.86-.04.07-.08.16-.11.26-.04.21-.04.42.02.62.05.2.12.55.32.65.03.01.05.02.08.03-.31-.26-.35-.81-.29-1.17.08-.52.49-.86.96-1.04.56-.13,1.23.03,1.7.36.39.26.62.69.76,1.12.3.86-.4,1.6-1.07,2.01-1.57.95-3.29.24-4-1.36-1.17-2.64.69-5.02,3.01-6.17v.02c.08-.04.16-.08.23-.12h0c.63-.3,1.29-.5,1.92-.59,2.61-.36,5.54.67,6.77,3.11.45.88.58,1.79.49,2.66-.05,1.54-1.11,3.04-2.44,4.07,1.02-.66,1.84-1.6,2.3-2.7.63.09,1.21.36,1.76.81.82.67,1.15,1.72,1.97,2.38,1.2.97,2.99.19,3.76-.93.86-1.25.08-3.48-1.66-2.94-.58.18-1.18.91-1.29,1.58-.25-.66.12-1.58.75-1.96.75-.45,1.69-.36,2.44.03,1.48.78,1.68,2.83,1.13,4.23h.02Z"/>
              <path class="cls-1" d="M289.09,100.96c-.13-.14-.29-.26-.46-.35-.34-.18-.71-.29-1.09-.35-.41-.07-.82-.09-1.24-.1-1.24,0-2.55.23-3.53,1.05-.49.41-.87.97-1.12,1.58-.42.83-.52,1.97-.2,2.85.01,0,.02.02.03.03-.43-2.23,1.58-4.39,3.68-4.92,1.29-.32,2.89-.33,3.97.36-.02-.05-.04-.1-.06-.15h.02Z"/>
              <path class="cls-1" d="M302.74,91.59c-.03-.18-.05-.36-.06-.54-1.03-.3-2.1-.35-3.09.24-.56.33-1.03.85-1.3,1.43.25.08.5.18.74.3.97-1.08,2.27-1.6,3.71-1.44h0Z"/>
              <path class="cls-1" d="M326.32,103.21c-.05.08-.11.15-.17.22.75-.47,1.61-.77,2.47-.41,1.08.45,1.81,1.32,2.78,1.93,1.34.84,3.28.77,4.13-.75.28-.5.47-1.23.43-1.91-.05.29-.15.56-.32.8-.77,1.12-2.56,1.91-3.76.93-.82-.66-1.15-1.71-1.97-2.38-.55-.45-1.13-.73-1.76-.81-.39.93-1.04,1.74-1.85,2.37h.02Z"/>
              <path class="cls-1" d="M278.54,105.87c-1.09-.09-1.91-1.12-1.36-2.19.19-.37.44-.77.82-.96.23-.12.63-.22.91-.11-.15-.25-.4-.32-.76-.2-.12.04-.25.09-.37.13-.23.13-.47.28-.63.49-.32.41-.56.92-.55,1.46.02,1.16.81,2.1,2.02,2.09,1,0,1.75-.49,2.58-1,.06-.03.11-.03.16,0-.16-.32-.25-.66-.27-1.02-.25.3-.51.59-.87.83-.47.31-1.11.54-1.68.49h0Z"/>
              <path class="cls-1" d="M290.69,105s-.01-.02-.02-.03c-.09-.24-.23-.47-.44-.67-.59-.58-1.59-.95-2.32-.34-.16.13-.3.32-.41.53.52-.56,1.4-.74,2.11-.25.97.68.76,2.37.05,3.15-1.03,1.13-2.67,1.39-4.13,1.45h-.41c1.69.19,3.61-.08,4.85-1.35.13-.13.24-.28.35-.43.46-.58.68-1.28.38-2.07h0Z"/>
              <path class="cls-1" d="M308.8,107.67c-1.07-.04-2.16-.13-3.18-.43-.44-.13-.93-.25-1.31-.5-.32-.22-.62-.46-.98-.62-.02,0-.03-.02-.04-.03-.25.52-.67.95-1.15,1.25.02.02.04.04.06.05.01,0,.03.02.04.04.04.03.08.07.13.1.05.04.1.09.16.12.46.31.95.55,1.47.73.99.34,2.02.53,3.06.58,2.35.1,4.76-.31,6.7-1.66h0c-.15-.28-.27-.57-.34-.88-1.2,1.12-3.03,1.31-4.61,1.26h-.01Z"/>
              <path class="cls-1" d="M327.82,106.83c.17-.5.3-1.05.24-1.53-.18,1.43-1.33,2.57-2.56,3.29-1.74,1.01-3.68,1.36-5.67,1.07-2-.29-4.41-1-5.56-2.82-.59-.94-.78-2.1-.49-3.13-.27.47-.42,1.01-.44,1.56.01,0,.03-.03.03,0,0,.43.13.92.3,1.3.65,1.46,1.98,2.66,3.49,3.2,1.58.56,3.29.86,4.96.61,2.06-.29,4.14-1.17,5.22-2.84.17-.23.32-.47.44-.73.01,0,.02,0,.03.02h.01Z"/>
              <path class="cls-1" d="M317.86,94.69c.34-.24.69-.45,1.07-.63.16-1.72-.93-3.68-2.56-4.25-1.01-.36-2.49-.61-3.65-.25-.12.47-.35.91-.71,1.24,2.6-.84,5.87,1.11,5.86,3.9h-.01Z"/>
              <path class="cls-1" d="M303.27,105.72c.28-.74.36-1.47-.03-2.18l-.09-.09c0,.47-.09.97-.29,1.44-.78,1.88-3.31,2.52-5.12,2.75-1.26.16-2.55.16-3.78-.22-1.14-.36-2.48-.76-3-1.86,0,.46-.12.9-.34,1.29,1.11,1.42,3.88,1.66,5.44,1.65,1.72,0,3.95-.24,5.65-1.13.05-.02.1-.05.15-.07.61-.39,1.15-.86,1.41-1.57h0Z"/>
              <path class="cls-1" d="M318.89,94.38c-2.32,1.15-4.18,3.53-3.01,6.17.71,1.6,2.44,2.32,4,1.36.67-.41,1.37-1.15,1.07-2.01-.15-.43-.37-.85-.76-1.12-.47-.33-1.14-.48-1.7-.36-.02,0-.05.02-.07.03.25-.07.53-.05.83.12,1.05.61,1.02,2.24-.04,2.85-1.16.66-2.55.18-2.95-1.13-.52-1.69.3-3.43,1.59-4.53,2.63-2.23,8.04-2.16,9.2,1.59.59,1.91.41,4.09-.62,5.7,1.06-.99,1.83-2.28,1.88-3.59.09-.87-.04-1.78-.49-2.66-1.24-2.44-4.16-3.47-6.77-3.11-.63.09-1.29.29-1.92.58h0c-.08.04-.16.08-.23.13v-.02h0Z"/>
              <path class="cls-1" d="M302.95,91.13h-.01c.07,1.01.42,2.01,1.13,2.74.34.35.72.62,1.13.84-.02-.02-.05-.04-.07-.06-.91-.81-1.37-2-1.31-3.21.13-2.55,2.15-5,4.88-4.89,1.21.05,2.21.47,2.77,1.59.42.85.25,2.01-.56,2.57-.84.57-2.13.56-2.81,0,.12.13.24.24.4.34.49.3,1.13.35,1.73.21.64,0,1.27-.22,1.69-.67.08-.08.14-.17.21-.27.04-.05.09-.1.12-.16.26-.4.34-.89.31-1.37.01-.84-.29-1.71-.84-2.26-.67-.68-1.6-.99-2.54-1.01-2.46-.05-5.43,1.25-6.07,3.85-.12.48-.18,1-.16,1.51h.01v.27-.02Z"/>
              <path class="cls-1" d="M293.45,100.27c.95.66,2.16.89,3.29.6,1.38-.36,2.54-1.48,2.18-3.02-.29-1.24-1.35-2.27-2.68-2.29h-.19c.1.02.19.04.29.08,1.07.4,1.6,1.38,1.5,2.5-.21,2.71-4.16,2.94-5.04.51-.86-2.37,1.52-5,3.86-5.14,1.37-.08,2.77.26,3.7,1.34.17.19.29.39.39.6-.04-.26-.12-.54-.24-.77-.25-.49-.7-.88-1.15-1.19-.23-.16-.48-.3-.75-.39-.14-.05-.29-.1-.43-.14-.13-.04-.33-.13-.46-.12-.05-.01-.11-.02-.16-.03-1.36-.19-2.89.04-4.02.86-.65.46-1.11,1.12-1.39,1.84-.17.35-.25.75-.26,1.14-.13,1.36.36,2.77,1.57,3.61h-.01Z"/>
              <path class="cls-1" d="M289.36,98.04c.54-.33,1.09-.63,1.7-.8.15-.04.4-.16.56-.11,0-.31.02-.62.09-.93-1.23.05-2.45.4-3.42,1.19-.84.69-1.35,1.55-1.56,2.51.26.02.53.06.8.12.15-.9,1.11-1.52,1.82-1.97h.01Z"/>
            </g>
            <g>
              <path class="cls-9" d="M294.5,49c-.82.14-1.5.67-1.88,1.39-.26.7-.28,1.51.23,2,0-.12.02-.23.06-.34.02-.59.44-1.19.93-1.56.92-.69,1.95.14,2.33.97.52,1.12-.32,2.31-1.26,2.83-.84.46-1.84.46-2.66,0-.66-.36-1.02-1.06-1.42-1.65-.35-.52-.78-.96-1.27-1.36-.57-.46-1.24-.73-1.93-.8.34-.93.47-1.95.32-3.01-.54-3.71-4.4-5.61-7.84-5.38-1.02.07-2.03.32-2.97.73.38-2.14-1.17-4.55-3.18-5.24-1.18-.4-2.91-.55-4.25-.07.15-.74.08-1.54-.11-2.22-.88-3.15-4.81-2.91-7.23-2-2.56.97-4.3,3.27-4.32,5.84-1.39-.49-3.16-.13-4.22.86-.4.38-.76.85-.99,1.37-.26-.08-.52-.14-.77-.17-1.73-.26-3.59.28-4.95,1.35-.88.69-1.44,1.66-1.69,2.69-1.74-.04-3.36.6-4.69,1.89-.72.7-1.21,1.6-1.4,2.55-.14,0-.27-.02-.39-.02-1.53-.06-3.11.51-4.23,1.55-.94.87-1.65,2.39-1.62,3.76-.17.19-.34.37-.54.53-.74.59-1.69.9-2.62.74-.88-.16-1.44-.97-1.3-1.84.08-.53.47-1.03.95-1.25.17-.11.39-.16.59-.12h0s.03,0,.05.01c.18.02.3.1.39.2.02.02.04.04.06.06.22.24.22.59.09.88.16-.06.31-.14.44-.24.31-.34.45-.71.36-1.2-.14-.76-1.19-.99-1.82-1.02-.89-.03-1.74.54-2.34,1.14-1.63,1.62-.95,3.87.79,5.06,1.52,1.03,3.89,1.06,5.56.23,1.05,2.08,4.41,2.4,6.4,2.08,1.4-.22,3.04-1.08,3.84-2.33,1.27,1.84,4.78,2.15,6.72,2.12,1.95-.03,4.62-.37,6.53-1.52,1.45,1.6,4.15,2.01,6.15,2.08,2.64.09,5.41-.55,7.51-2.19.92,1.49,2.28,2.39,4.05,3.03,2.01.72,4.18.89,6.28.52,2.3-.4,5-1.75,5.92-3.97.65.44,1.53.67,2.2.8,1.39.27,2.94.07,4.25-.44,2.11-.83,4.34-2.62,4.63-5.03.28-2.3-1.19-4.71-3.75-4.28h.01Z"/>
              <path class="cls-5" d="M297.73,54.49c-.85,2.15-3.13,3.47-5.28,3.96-1.17.27-2.41.22-3.57-.03-.46-.1-1.03-.29-1.52-.57-.1-.05-.2-.1-.29-.16-.14.3-.31.58-.51.85-1.24,1.93-3.65,2.94-6.03,3.28-1.94.28-3.91-.06-5.74-.71-1.74-.62-3.27-2.01-4.03-3.7-.2-.45-.35-1.01-.35-1.51,0-.03-.04.02-.04.03-.09.86.11,1.64.49,2.32h0c-2.24,1.56-5.03,2.03-7.75,1.92-1.2-.05-2.39-.27-3.53-.67-.61-.21-1.17-.49-1.7-.85-.06-.04-.12-.1-.19-.14-.05-.03-.1-.08-.15-.11-.02-.02-.03-.03-.05-.04-.02-.02-.04-.04-.07-.06.58-.37,1.07-.87,1.35-1.49.42-.89.83-2.18-.03-2.94,0,0-.04.03-.03.04.44.83.35,1.67.03,2.53-.31.81-.93,1.36-1.63,1.81-.06.03-.11.06-.17.08-1.96,1.04-4.54,1.3-6.53,1.31-1.81.02-5.01-.27-6.29-1.9.38-.67.52-1.44.27-2.28-.36-1.21-1.62-1.88-2.81-1.57-.83.22-1.36,1.08-1.56,1.86-.24.97.31,1.82,1.23,2.09.48.13,1.05.14,1.45-.14-.41.19-.91.19-1.34.03-.35-.13-.61-.33-.79-.58-.73-.74-.27-2.18.41-2.75.84-.7,2-.27,2.68.39.24.24.4.5.51.78,0,0,0,.02.02.03.35.92.09,1.73-.44,2.4-.12.18-.25.35-.4.5-1.49,1.53-3.81,1.81-5.83,1.54-1.26-.17-2.79-.67-3.58-1.75-.04-.05-.07-.11-.11-.16-.02-.03-.04-.06-.06-.09-.16.06-.33.11-.5.15h-.02c-2.31.74-5.28-.07-6.33-2.32-.85-1.81.87-3.84,2.7-3.93.5-.03,1,.14,1.41.42.69.48.37,1.26-.09,1.63.06-.32,0-.73-.11-.91-.26-.45-.96-.29-1.32-.11-.44.22-.74.68-.95,1.11-.64,1.24.31,2.43,1.57,2.53.66.05,1.41-.21,1.94-.57.42-.27.72-.61,1.01-.95.03.58.21,1.12.55,1.57-.54-1.04-.43-2.54.1-3.6.28-.71.73-1.35,1.29-1.83,1.13-.95,2.64-1.22,4.08-1.21.49,0,.96.03,1.43.11.44.07.87.19,1.26.4.2.11.4.26.56.44-.2-.32-.5-.58-.82-.76-.12-.07-.24-.13-.37-.2-.5-.17-1.05-.26-1.56-.3.24-1.1.83-2.1,1.8-2.9,1.12-.91,2.53-1.32,3.95-1.38-.36,1.81.24,3.81,1.77,4.99,2.17,1.67,6.14.81,6.81-2.03.8-3.4-4.02-5.45-5.9-2.56-.56.86-.55,2.01.43,2.52,0,0,.04-.03.03-.04-.76-.52-.8-1.31-.48-2.11.42-1.05,1.5-1.53,2.57-1.51,1.53.03,2.76,1.22,3.09,2.65.41,1.78-.93,3.07-2.53,3.49-1.31.34-2.7.08-3.8-.69-1.4-.97-1.97-2.6-1.81-4.18,0-.46.1-.91.3-1.32.32-.84.85-1.6,1.6-2.13,1.31-.94,3.08-1.21,4.65-.99.06,0,.12.02.19.03.16,0,.38.1.54.14.17.05.34.1.5.16.31.11.6.27.87.46.52.35,1.04.8,1.33,1.37.15.3.27.66.3,1,0,.03.05-.02.05-.04,0-1.68-1.42-2.76-2.91-3.24.31-.67.86-1.27,1.5-1.65,1.14-.68,2.38-.63,3.57-.28.03.71.19,1.44.52,2.16.93,2.11,3.3,2.97,5.47,2.94.03,0,.09-.08.05-.08-1.66-.08-3.24-.53-4.42-1.76-.83-.85-1.23-1.99-1.31-3.17h0v-.31h-.02c0-.59.06-1.18.19-1.74.73-3,4.17-4.51,7.01-4.45,1.09.02,2.16.38,2.94,1.16.64.64.98,1.64.97,2.61.04.55-.06,1.12-.36,1.59-.04.06-.09.12-.14.18-.07.11-.15.22-.24.31-.48.53-1.21.77-1.95.78-.69.16-1.44.1-2-.24-.67-.42-1-1.13-.95-1.85-.09-.97.7-1.81,1.76-1.86,1.1-.05,1.76.92,1.55,1.93,0,.03.03,0,.03-.02.44-1.67-1.16-2.54-2.57-1.85-1.22.59-1.35,2.26-.65,3.27.99,1.44,3.41,1.18,4.66.29.55-.4.89-.98,1.06-1.62,1.34-.41,3.04-.12,4.22.29,1.89.67,3.14,2.92,2.96,4.92-2.14,1.03-3.83,2.92-4.14,5.41-.22,1.83.68,3.83,2.51,4.41,1.4.45,3.43-.47,4.06-1.8.7-1.51-.4-3.07-1.98-3.29-.26-.04-.54,0-.79.07-.54.13-1,.5-1.31,1-.05.08-.09.19-.13.3-.04.24-.04.48.02.72.06.23.14.64.37.75.03.02.06.02.09.03-.36-.3-.4-.94-.33-1.35.09-.6.57-.99,1.12-1.2.65-.15,1.42.03,1.97.41.45.3.71.79.88,1.29.34.99-.46,1.85-1.24,2.33-1.81,1.1-3.81.28-4.63-1.57-1.35-3.05.8-5.8,3.48-7.14v.02c.09-.05.18-.1.27-.13v-.02c.73-.33,1.49-.56,2.22-.67,3.02-.42,6.4.77,7.83,3.59.52,1.02.67,2.07.56,3.08-.06,1.78-1.28,3.52-2.82,4.7,1.18-.76,2.12-1.85,2.66-3.12.73.1,1.4.42,2.03.94.95.77,1.33,1.98,2.27,2.75,1.39,1.12,3.45.22,4.34-1.08,1-1.45.09-4.02-1.92-3.39-.67.21-1.36,1.05-1.49,1.83-.29-.76.14-1.82.87-2.27.86-.52,1.96-.42,2.82.04,1.71.91,1.95,3.27,1.3,4.89h.04Z"/>
              <path class="cls-1" d="M242.34,50.93c-.15-.16-.34-.3-.53-.41-.39-.21-.82-.33-1.26-.4-.48-.08-.95-.1-1.43-.11-1.44,0-2.95.26-4.08,1.21-.57.48-1.01,1.12-1.29,1.83-.48.96-.61,2.28-.23,3.29.02.01.03.02.04.04-.5-2.57,1.82-5.08,4.26-5.69,1.49-.37,3.34-.38,4.59.42-.02-.06-.04-.12-.07-.17h0Z"/>
              <path class="cls-1" d="M258.11,40.09c-.03-.21-.06-.41-.07-.62-1.19-.35-2.43-.4-3.57.28-.64.38-1.19.98-1.5,1.65.29.09.58.21.85.35,1.12-1.25,2.63-1.85,4.29-1.66h0Z"/>
              <path class="cls-1" d="M285.36,53.52c-.06.09-.13.17-.19.26.87-.54,1.86-.89,2.86-.48,1.25.52,2.09,1.52,3.21,2.23,1.55.97,3.79.89,4.77-.87.32-.58.54-1.43.5-2.2-.06.33-.17.65-.37.93-.89,1.3-2.95,2.2-4.34,1.08-.94-.76-1.33-1.97-2.27-2.75-.64-.52-1.31-.84-2.03-.94-.46,1.07-1.2,2.01-2.13,2.74h0Z"/>
              <path class="cls-1" d="M230.14,56.6c-1.26-.1-2.21-1.29-1.57-2.53.22-.42.51-.89.95-1.11.27-.14.72-.26,1.05-.13-.17-.29-.46-.36-.87-.23-.14.05-.29.1-.43.15-.27.15-.54.32-.73.57-.37.48-.64,1.07-.63,1.68.02,1.34.94,2.42,2.34,2.41,1.16,0,2.02-.57,2.98-1.15.07-.04.13-.03.19,0-.19-.36-.29-.76-.32-1.18-.29.35-.59.68-1.01.95-.54.36-1.28.62-1.94.57h0Z"/>
              <path class="cls-1" d="M244.18,55.6s-.02-.02-.02-.03c-.11-.28-.27-.54-.51-.78-.68-.67-1.84-1.1-2.68-.39-.18.16-.35.37-.48.62.6-.65,1.62-.86,2.43-.29,1.12.79.88,2.74.06,3.64-1.19,1.3-3.08,1.61-4.77,1.68h-.48c1.95.22,4.17-.09,5.6-1.56.15-.15.28-.32.4-.5.53-.67.79-1.48.44-2.4h0Z"/>
              <path class="cls-1" d="M265.12,58.69c-1.23-.04-2.5-.15-3.68-.5-.5-.15-1.07-.29-1.52-.58-.37-.25-.72-.53-1.14-.72-.02,0-.04-.02-.05-.04-.29.6-.77,1.09-1.33,1.45.02.02.04.04.07.06.02.02.03.03.05.04.05.04.1.08.15.11.06.05.12.1.19.14.53.35,1.09.64,1.7.85,1.14.39,2.33.61,3.53.67,2.71.12,5.5-.36,7.75-1.92h0c-.17-.33-.31-.66-.4-1.02-1.39,1.3-3.51,1.51-5.33,1.45h.01Z"/>
              <path class="cls-1" d="M287.1,57.71c.2-.57.35-1.21.28-1.77-.21,1.65-1.54,2.98-2.96,3.8-2.01,1.17-4.26,1.57-6.56,1.24-2.31-.34-5.09-1.15-6.42-3.25-.68-1.08-.9-2.42-.56-3.62-.31.55-.49,1.17-.51,1.81.01-.02.03-.03.03-.01,0,.5.15,1.06.35,1.51.76,1.69,2.29,3.08,4.03,3.7,1.83.65,3.8.99,5.74.71,2.38-.34,4.79-1.35,6.03-3.28.2-.26.37-.54.51-.85.01,0,.03.01.04.02h0Z"/>
              <path class="cls-1" d="M275.58,43.69c.39-.28.8-.52,1.24-.73.18-1.99-1.08-4.25-2.96-4.92-1.17-.41-2.88-.7-4.22-.29-.14.55-.41,1.05-.82,1.43,3-.97,6.79,1.29,6.77,4.51h0Z"/>
              <path class="cls-1" d="M258.73,56.43c.32-.86.41-1.7-.03-2.53-.03-.03-.07-.07-.1-.1,0,.55-.11,1.12-.33,1.66-.9,2.17-3.82,2.91-5.92,3.18-1.46.19-2.95.19-4.36-.26-1.32-.41-2.87-.88-3.47-2.15,0,.54-.14,1.04-.39,1.49,1.28,1.64,4.48,1.92,6.29,1.9,1.98-.02,4.57-.28,6.53-1.31.06-.03.11-.05.17-.08.7-.45,1.32-1,1.63-1.81h-.02Z"/>
              <path class="cls-1" d="M276.77,43.33c-2.68,1.33-4.83,4.08-3.48,7.14.82,1.85,2.82,2.68,4.63,1.57.78-.48,1.58-1.33,1.24-2.33-.17-.5-.43-.99-.88-1.29-.55-.38-1.32-.56-1.97-.41-.03,0-.05.03-.08.03.29-.08.62-.06.95.14,1.21.71,1.18,2.59-.05,3.29-1.34.76-2.95.21-3.41-1.31-.61-1.95.35-3.97,1.84-5.23,3.04-2.58,9.29-2.5,10.64,1.84.68,2.21.48,4.72-.72,6.58,1.22-1.14,2.12-2.63,2.17-4.15.11-1.01-.05-2.06-.56-3.08-1.43-2.82-4.81-4.01-7.83-3.59-.73.1-1.49.33-2.22.67v.02c-.09.04-.18.08-.27.13v-.02h0Z"/>
              <path class="cls-1" d="M258.35,39.57h0c.08,1.17.48,2.32,1.31,3.17.39.41.83.72,1.3.97-.03-.02-.06-.05-.08-.07-1.05-.93-1.58-2.31-1.51-3.71.15-2.95,2.49-5.78,5.63-5.66,1.4.06,2.55.55,3.2,1.84.49.98.29,2.32-.65,2.97-.97.66-2.46.65-3.24,0,.13.15.28.28.46.4.56.35,1.31.41,2,.24.74,0,1.47-.25,1.95-.78.09-.1.17-.2.24-.31.05-.06.1-.12.14-.18.3-.46.39-1.03.36-1.59.01-.97-.33-1.97-.97-2.61-.78-.78-1.85-1.14-2.94-1.16-2.85-.06-6.28,1.44-7.01,4.45-.13.56-.2,1.15-.19,1.74h.02v.31-.02Z"/>
              <path class="cls-1" d="M247.37,50.13c1.1.77,2.49,1.03,3.8.69,1.6-.42,2.94-1.71,2.53-3.49-.33-1.43-1.56-2.62-3.09-2.65h-.22c.12.02.22.05.33.09,1.23.46,1.84,1.6,1.74,2.89-.25,3.13-4.81,3.4-5.83.59-.99-2.74,1.76-5.78,4.46-5.94,1.59-.09,3.21.3,4.28,1.54.19.22.34.46.45.7-.04-.3-.14-.62-.28-.89-.29-.57-.81-1.02-1.33-1.37-.27-.18-.56-.34-.87-.46-.16-.06-.33-.12-.5-.16-.15-.04-.38-.15-.54-.14-.06-.01-.12-.03-.19-.03-1.57-.22-3.33.05-4.65.99-.75.54-1.29,1.29-1.6,2.13-.2.41-.29.86-.3,1.32-.15,1.57.41,3.21,1.81,4.18h0Z"/>
              <path class="cls-1" d="M242.65,47.56c.62-.39,1.26-.73,1.97-.93.17-.04.46-.19.65-.13,0-.36.03-.72.1-1.08-1.42.05-2.83.47-3.95,1.38-.97.79-1.57,1.8-1.8,2.9.3.03.61.07.92.13.18-1.04,1.28-1.76,2.11-2.28h0Z"/>
            </g>
            <g>
              <path class="cls-9" d="M136.22,74.19c-1.03.17-1.88.85-2.37,1.75-.33.88-.35,1.9.29,2.52,0-.15.03-.3.07-.43.03-.74.56-1.5,1.17-1.97,1.16-.87,2.45.18,2.94,1.22.66,1.4-.4,2.91-1.59,3.56-1.05.57-2.31.57-3.35,0-.83-.45-1.28-1.33-1.79-2.08-.44-.65-.99-1.21-1.6-1.71-.72-.58-1.57-.92-2.43-1,.43-1.18.59-2.46.4-3.79-.68-4.67-5.54-7.06-9.88-6.77-1.28.08-2.55.4-3.74.92.48-2.69-1.47-5.73-4.01-6.59-1.48-.51-3.66-.69-5.35-.08.18-.93.11-1.94-.14-2.79-1.11-3.97-6.06-3.67-9.11-2.51-3.22,1.22-5.41,4.12-5.44,7.35-1.75-.61-3.98-.16-5.31,1.09-.5.48-.95,1.07-1.24,1.72-.33-.1-.65-.17-.98-.22-2.17-.33-4.52.36-6.24,1.7-1.11.87-1.82,2.09-2.13,3.39-2.19-.05-4.23.76-5.9,2.38-.91.88-1.52,2.01-1.77,3.21-.17-.01-.34-.02-.49-.03-1.92-.08-3.92.64-5.32,1.95-1.18,1.1-2.08,3.01-2.04,4.73-.21.24-.43.47-.68.67-.93.75-2.13,1.13-3.3.93-1.11-.2-1.82-1.22-1.63-2.32.11-.66.59-1.29,1.2-1.57.22-.14.49-.2.75-.15h0s.04,0,.06.02c.22.02.38.12.49.25.02.03.05.05.08.08.27.31.28.75.12,1.11.21-.08.39-.17.56-.3.39-.43.57-.89.45-1.51-.18-.96-1.5-1.25-2.29-1.28-1.13-.04-2.19.67-2.95,1.44-2.05,2.04-1.2,4.88,1,6.37,1.91,1.3,4.89,1.33,7,.29,1.32,2.61,5.55,3.02,8.06,2.62,1.76-.28,3.83-1.36,4.84-2.93,1.59,2.32,6.02,2.71,8.45,2.67,2.46-.04,5.82-.46,8.23-1.92,1.82,2.02,5.22,2.53,7.74,2.61,3.32.11,6.81-.69,9.45-2.75,1.15,1.88,2.87,3.01,5.1,3.81,2.53.91,5.27,1.12,7.9.66,2.9-.5,6.29-2.2,7.45-5,.82.56,1.92.84,2.77,1,1.75.33,3.7.09,5.35-.56,2.66-1.05,5.46-3.3,5.83-6.33.35-2.89-1.5-5.93-4.72-5.39l.04-.04Z"/>
              <path class="cls-5" d="M140.29,81.1c-1.07,2.71-3.94,4.36-6.65,4.99-1.47.34-3.03.28-4.49-.04-.58-.13-1.3-.36-1.91-.72-.13-.06-.25-.13-.37-.21-.18.38-.39.73-.64,1.07-1.56,2.43-4.6,3.7-7.59,4.13-2.44.35-4.92-.07-7.22-.89-2.19-.78-4.12-2.52-5.07-4.66-.25-.57-.44-1.27-.44-1.9,0-.04-.05.02-.05.04-.11,1.08.14,2.06.62,2.92h-.01c-2.83,1.96-6.33,2.56-9.75,2.41-1.51-.06-3.01-.34-4.45-.84-.76-.26-1.48-.62-2.14-1.07-.08-.06-.15-.12-.23-.18-.06-.04-.13-.1-.19-.14l-.06-.06s-.06-.05-.08-.07c.73-.46,1.34-1.1,1.71-1.88.53-1.12,1.04-2.74-.04-3.7-.02-.01-.05.04-.04.05.56,1.04.44,2.1.04,3.18-.39,1.02-1.17,1.71-2.05,2.28-.07.04-.14.07-.21.1-2.47,1.3-5.72,1.63-8.22,1.65-2.28.02-6.3-.33-7.92-2.4.48-.84.65-1.81.34-2.88-.45-1.52-2.04-2.36-3.53-1.97-1.05.28-1.72,1.36-1.96,2.34-.3,1.22.39,2.3,1.55,2.63.6.17,1.33.18,1.83-.17-.51.24-1.14.24-1.69.04-.44-.16-.76-.41-1-.73-.91-.93-.34-2.74.51-3.47,1.05-.89,2.52-.34,3.37.49.31.3.5.63.64.98,0,.01.02.02.02.04.44,1.15.11,2.18-.55,3.02-.15.22-.32.44-.5.63-1.87,1.93-4.8,2.28-7.34,1.93-1.58-.21-3.52-.85-4.5-2.21-.05-.06-.09-.14-.14-.21-.02-.04-.05-.08-.07-.12-.21.08-.41.14-.63.18h-.02c-2.9.93-6.64-.09-7.97-2.92-1.07-2.27,1.1-4.83,3.4-4.95.63-.03,1.26.17,1.77.53.87.6.47,1.59-.11,2.06.07-.4,0-.91-.14-1.14-.33-.57-1.21-.37-1.66-.14-.56.28-.93.86-1.2,1.4-.81,1.56.39,3.06,1.98,3.18.83.07,1.77-.26,2.45-.71.52-.34.91-.77,1.27-1.2.04.73.26,1.4.69,1.97-.68-1.31-.54-3.2.13-4.53.36-.89.91-1.7,1.63-2.3,1.42-1.19,3.33-1.54,5.14-1.52.61,0,1.2.04,1.8.14.55.09,1.09.24,1.59.51.26.14.51.33.71.55-.25-.4-.63-.73-1.04-.96-.15-.08-.3-.17-.47-.25-.63-.22-1.32-.32-1.96-.38.3-1.38,1.05-2.65,2.27-3.65,1.41-1.15,3.18-1.67,4.97-1.74-.45,2.28.3,4.79,2.23,6.28,2.73,2.11,7.73,1.02,8.58-2.56,1.01-4.28-5.06-6.86-7.43-3.22-.7,1.08-.69,2.53.54,3.17.02,0,.05-.04.04-.05-.96-.65-1.01-1.64-.6-2.66.53-1.32,1.89-1.92,3.24-1.9,1.93.04,3.48,1.54,3.9,3.34.52,2.24-1.16,3.87-3.18,4.39-1.64.43-3.4.1-4.78-.87-1.76-1.22-2.48-3.28-2.28-5.26,0-.57.13-1.14.38-1.66.4-1.06,1.07-2.01,2.02-2.68,1.65-1.19,3.88-1.52,5.85-1.25.08.01.15.03.23.04.2-.01.48.12.67.17.21.06.42.13.63.21.39.14.75.34,1.09.57.66.44,1.31,1.01,1.68,1.73.19.38.34.83.38,1.26,0,.04.06-.02.06-.05,0-2.11-1.79-3.47-3.67-4.07.39-.85,1.08-1.6,1.89-2.08,1.44-.86,3-.79,4.5-.35.04.9.24,1.81.65,2.72,1.18,2.66,4.16,3.74,6.88,3.7.04,0,.11-.1.06-.1-2.09-.1-4.08-.67-5.57-2.21-1.04-1.07-1.55-2.51-1.65-3.99h0v-.39s-.02,0-.02-.01c-.02-.74.07-1.49.24-2.19.93-3.78,5.25-5.67,8.83-5.6,1.38.03,2.72.48,3.7,1.46.8.81,1.23,2.07,1.22,3.29.05.7-.07,1.42-.45,2-.05.08-.11.16-.18.23-.09.14-.19.28-.3.4-.61.66-1.53.97-2.46.98-.87.2-1.81.13-2.52-.31-.84-.52-1.26-1.43-1.2-2.33-.11-1.22.88-2.27,2.22-2.34,1.39-.07,2.21,1.15,1.95,2.43,0,.04.04,0,.04-.02.55-2.11-1.46-3.2-3.24-2.33-1.53.75-1.7,2.84-.82,4.12,1.25,1.81,4.3,1.48,5.86.36.7-.5,1.12-1.23,1.33-2.04,1.68-.52,3.83-.15,5.31.37,2.37.84,3.96,3.68,3.73,6.19-2.69,1.3-4.82,3.67-5.21,6.81-.28,2.31.85,4.82,3.16,5.56,1.76.57,4.32-.59,5.11-2.27.88-1.89-.5-3.87-2.49-4.14-.33-.05-.67,0-1,.09-.68.16-1.26.63-1.64,1.26-.06.1-.12.24-.16.38-.05.3-.05.61.02.91.07.29.18.8.47.94.04.02.08.03.11.04-.45-.38-.51-1.18-.42-1.7.12-.75.71-1.25,1.4-1.51.82-.18,1.79.04,2.48.52.56.38.9,1,1.11,1.62.43,1.25-.58,2.33-1.56,2.93-2.28,1.39-4.79.35-5.83-1.98-1.7-3.85,1-7.3,4.38-8.98v.02c.11-.06.23-.12.34-.17v-.02c.92-.42,1.87-.71,2.79-.84,3.8-.53,8.06.97,9.86,4.52.65,1.28.85,2.6.71,3.87-.08,2.24-1.62,4.43-3.55,5.92,1.49-.96,2.67-2.33,3.35-3.93.91.13,1.76.53,2.56,1.18,1.19.97,1.68,2.5,2.86,3.46,1.75,1.42,4.35.27,5.47-1.36,1.26-1.82.11-5.07-2.42-4.27-.85.26-1.71,1.32-1.87,2.3-.36-.96.17-2.29,1.1-2.85,1.09-.65,2.47-.53,3.55.05,2.15,1.14,2.45,4.12,1.64,6.15l-.03.07Z"/>
              <path class="cls-1" d="M70.55,76.62c-.19-.2-.43-.38-.67-.51-.49-.26-1.04-.42-1.59-.51-.6-.1-1.19-.13-1.8-.14-1.81-.01-3.72.33-5.14,1.52-.71.6-1.27,1.41-1.63,2.3-.61,1.21-.76,2.87-.29,4.14.02.02.04.03.05.05-.63-3.24,2.3-6.39,5.36-7.16,1.88-.47,4.2-.48,5.78.53-.02-.07-.06-.15-.09-.22h.02Z"/>
              <path class="cls-1" d="M90.41,62.98c-.04-.26-.07-.52-.08-.79-1.5-.44-3.06-.51-4.5.35-.81.48-1.5,1.23-1.89,2.08.36.12.73.26,1.07.44,1.41-1.57,3.31-2.33,5.4-2.09h0Z"/>
              <path class="cls-1" d="M124.72,79.89c-.07.11-.16.22-.24.32,1.1-.68,2.34-1.12,3.6-.6,1.57.65,2.63,1.91,4.04,2.81,1.95,1.22,4.77,1.12,6.01-1.09.41-.73.68-1.8.63-2.77-.07.42-.22.82-.46,1.17-1.12,1.63-3.72,2.78-5.47,1.36-1.19-.96-1.67-2.49-2.86-3.46-.8-.65-1.64-1.06-2.56-1.18-.57,1.35-1.51,2.53-2.69,3.45h0Z"/>
              <path class="cls-1" d="M55.19,83.76c-1.58-.13-2.78-1.62-1.98-3.18.27-.53.64-1.12,1.2-1.4.34-.17.91-.33,1.32-.16-.21-.36-.58-.46-1.1-.29-.18.06-.36.13-.54.19-.34.19-.68.4-.92.71-.47.6-.81,1.34-.8,2.12.03,1.69,1.18,3.05,2.94,3.04,1.46,0,2.55-.71,3.76-1.45.08-.05.16-.04.24-.01-.24-.46-.37-.96-.4-1.49-.36.43-.75.86-1.27,1.2-.68.45-1.61.78-2.45.71h0Z"/>
              <path class="cls-1" d="M72.88,82.5s-.02-.03-.02-.04c-.14-.35-.34-.68-.64-.98-.86-.84-2.32-1.38-3.37-.49-.23.2-.43.47-.6.78.76-.81,2.04-1.08,3.07-.36,1.42.99,1.11,3.45.07,4.59-1.5,1.64-3.88,2.03-6.01,2.11-.2,0-.4.01-.6.01,2.46.28,5.25-.11,7.05-1.97.19-.19.35-.41.5-.63.67-.84,1-1.86.55-3.02Z"/>
              <path class="cls-1" d="M99.23,86.39c-1.55-.06-3.14-.19-4.63-.63-.63-.19-1.35-.36-1.91-.73-.46-.32-.91-.67-1.43-.9-.03-.01-.05-.03-.06-.05-.37.75-.97,1.38-1.67,1.82.03.02.06.05.08.07l.06.06c.06.05.12.1.19.14.08.06.15.12.23.18.66.45,1.38.81,2.14,1.07,1.44.49,2.94.77,4.45.84,3.42.15,6.92-.45,9.75-2.41h0c-.22-.4-.39-.83-.5-1.28-1.75,1.63-4.42,1.91-6.71,1.83h0Z"/>
              <path class="cls-1" d="M126.91,85.16c.25-.72.44-1.52.35-2.23-.27,2.08-1.93,3.75-3.73,4.79-2.52,1.47-5.36,1.98-8.26,1.56-2.91-.42-6.41-1.45-8.08-4.1-.86-1.36-1.13-3.05-.71-4.56-.39.69-.62,1.47-.64,2.27.02-.02.04-.04.04-.02,0,.63.19,1.33.44,1.9.95,2.13,2.88,3.88,5.07,4.66,2.3.82,4.79,1.25,7.22.89,2.99-.43,6.03-1.7,7.59-4.13.25-.33.46-.69.64-1.07.02,0,.03.02.05.03h.02Z"/>
              <path class="cls-1" d="M112.41,67.5c.49-.35,1.01-.65,1.56-.92.23-2.51-1.36-5.35-3.73-6.19-1.48-.52-3.63-.89-5.31-.37-.18.69-.51,1.32-1.04,1.8,3.78-1.22,8.54,1.62,8.52,5.68Z"/>
              <path class="cls-1" d="M91.19,83.55c.41-1.08.52-2.14-.04-3.18l-.13-.13c.01.69-.14,1.41-.42,2.09-1.13,2.73-4.81,3.66-7.45,4-1.83.24-3.72.24-5.49-.32-1.66-.52-3.62-1.11-4.37-2.71.01.67-.17,1.31-.49,1.88,1.61,2.06,5.64,2.42,7.92,2.4,2.5-.02,5.75-.35,8.22-1.65.07-.03.14-.07.21-.1.88-.57,1.67-1.26,2.05-2.28h-.01Z"/>
              <path class="cls-1" d="M113.9,67.05c-3.37,1.68-6.08,5.14-4.38,8.98,1.04,2.33,3.55,3.37,5.83,1.98.98-.6,1.99-1.68,1.56-2.93-.21-.63-.54-1.24-1.11-1.62-.69-.48-1.67-.7-2.48-.52-.04.01-.07.03-.1.04.37-.1.78-.07,1.2.18,1.52.89,1.49,3.26-.06,4.14-1.68.96-3.71.26-4.3-1.65-.76-2.46.44-4.99,2.32-6.59,3.82-3.25,11.7-3.14,13.39,2.32.85,2.78.6,5.95-.91,8.29,1.54-1.44,2.67-3.31,2.74-5.23.14-1.27-.06-2.59-.71-3.87-1.8-3.55-6.06-5.05-9.86-4.52-.92.13-1.87.42-2.79.84v.02c-.11.05-.23.1-.34.17v-.02h0Z"/>
              <path class="cls-1" d="M90.72,62.32h-.02c.1,1.48.61,2.92,1.65,3.99.49.51,1.05.91,1.64,1.22-.03-.03-.07-.06-.1-.08-1.32-1.17-1.99-2.91-1.9-4.68.19-3.71,3.13-7.28,7.09-7.12,1.76.07,3.22.69,4.03,2.32.61,1.24.36,2.92-.82,3.73-1.22.83-3.1.82-4.08,0,.17.19.36.36.58.5.71.44,1.65.51,2.52.31.93-.01,1.85-.32,2.46-.98.11-.12.21-.25.3-.4.06-.07.12-.15.18-.23.37-.58.5-1.3.45-2,.02-1.22-.42-2.49-1.22-3.29-.98-.99-2.33-1.44-3.7-1.46-3.59-.08-7.91,1.82-8.83,5.6-.17.7-.26,1.45-.24,2.19,0,0,.01,0,.02.01,0,.13,0,.26.01.39l-.02-.02Z"/>
              <path class="cls-1" d="M76.89,75.62c1.38.97,3.14,1.3,4.78.87,2.01-.52,3.7-2.15,3.18-4.39-.41-1.8-1.97-3.3-3.9-3.34-.09,0-.18,0-.28.01.15.03.28.06.42.11,1.55.58,2.32,2.01,2.19,3.63-.31,3.95-6.06,4.28-7.34.75-1.24-3.45,2.22-7.27,5.62-7.48,2-.12,4.04.38,5.39,1.94.24.28.42.57.56.88-.05-.38-.18-.78-.35-1.12-.37-.72-1.02-1.28-1.68-1.73-.34-.23-.7-.43-1.09-.57-.21-.08-.42-.15-.63-.21-.19-.05-.48-.18-.67-.17-.08-.02-.16-.03-.23-.04-1.98-.28-4.2.06-5.85,1.25-.95.67-1.62,1.63-2.02,2.68-.25.51-.37,1.08-.38,1.66-.19,1.98.52,4.04,2.28,5.26h0Z"/>
              <path class="cls-1" d="M70.94,72.37c.78-.49,1.59-.92,2.48-1.16.21-.06.58-.24.82-.16,0-.45.04-.91.13-1.36-1.79.07-3.56.59-4.97,1.74-1.22,1-1.97,2.26-2.27,3.65.38.03.77.09,1.16.17.22-1.31,1.61-2.22,2.65-2.87h0Z"/>
            </g>
            <g>
              <path class="cls-3" d="M380.28,228.12c-15.45-13.08-38.9-33.25-63.79-55.89v-.02c-37.45-34.06-78.13-73.66-99.64-102.9-1.81,1.73-3.67,3.39-6.22,4.15-2.36.7-4.4.35-6.72-.34-2.53-.75-4.68-.94-7.15.08-1.04.43-2.11,1-3.28,1.16-5.28.7-8.88-3.56-14.19-1.58-4.81,1.8-6.82-2.13-10.25-3.98-21.88,28.95-63.22,68.07-101.23,101.67C40.79,194.35,15.48,215.43,0,228.12h380.28Z"/>
              <g>
                <path class="cls-4" d="M43.37,211.97c10.14-4.05,17.26-12.7,23.31-20.18,3.62-4.48,6.55-9.23,9.27-14.06-4.83,4.51-9.68,9.01-14.18,13.74-6.26,6.57-13.84,12.95-18.39,20.49h-.01Z"/>
                <path class="cls-4" d="M188.48,125.87c-.88,8.71-1.15,17.47-2.24,26.17-.67,5.33-1.61,10.63-1.99,15.98-.35,4.95-.64,10.38,1.49,15.12,2.63-4.03,3.19-8.93,3.48-13.42.3-4.74.11-9.49.3-14.23.27-6.8.96-13.48.44-20.29-.24-3.08-1.05-6.21-1.47-9.33h0Z"/>
                <path class="cls-4" d="M284.93,174.15c-3.45-2.55-7.06-4.97-10.66-7.41,11.79,14.24,23.7,28.43,37.77,41.22-5.87-12.7-14.78-24.7-27.11-33.81Z"/>
                <path class="cls-4" d="M234.3,152.17c-1.45-1.77-3.1-3.42-4.67-5.12,3.44,8.91,7.22,17.73,11.09,26.52,2.25,5.11,4.6,10.19,6.66,15.34,1.72,4.3,3.41,8.78,6.44,12.6-1.53-11.22-4.5-22.79-9.69-33.22-2.72-5.47-5.8-11.21-9.84-16.12h0Z"/>
                <path class="cls-4" d="M197.8,141.7c.62,6.49,2,12.96,3.8,19.27,2.32,8.15,5.3,16.28,9.65,23.87.61-8.13-1.23-16.35-4.09-24.11-2.41-6.56-5.54-12.95-9.36-19.03Z"/>
                <path class="cls-4" d="M99.57,211.68c6.66-4.29,9.39-12.19,13.03-18.17,5.61-9.23,10.88-18.66,15.78-28.16,6.93-13.42,12.84-27.27,20.03-40.61-9.21,12.48-17.48,25.43-25.44,38.49-9.38,15.39-20.97,31-23.39,48.45h0Z"/>
              </g>
              <path class="cls-5" d="M110.1,140.45c6.13-3.08,10.91-8.59,15.27-13.18,4.44-4.67,8.75-9.44,13.72-13.75.31-.27,1.04-.08.97.34-1.15,6.81-4.83,12.99-7.62,19.4,5.83-5.14,10.76-11,17.49-15.39.23-.15.58-.2.8,0,5.3,5.02,6.58,11.94,9.57,17.92,1.82,3.66,4.35,6.78,7.38,9.83,1.95,1.96,3.81,3.96,4.79,6.34,7.06-13.04,6.63-28.87,17.27-40.55.17-.18.51-.33.78-.16,4.26,2.69,7.63,6.82,9.73,10.84,2.85,5.45,1.12,11.7,5.12,16.82,1.92,2.46,4.29,4.65,6.24,7.09,1.74,2.18,2.92,4.49,3.95,6.95,2.19,5.24,3.82,10.69,7.09,15.56,2.11-10.87-.41-22,2.07-32.86.07-.3.55-.43.84-.27,3.55,1.84,6.02,4.69,8.98,7.1.52-9.92-4.03-19.15-6.56-28.72-.1-.37.4-.78.84-.52,13.06,7.58,21.11,19.27,32.9,27.96,11.98,8.82,22.43,19.33,36.43,26.1-2.61-7.68-7.44-14.65-10.72-22.11-27.98-26.66-54.57-54.12-70.56-75.86-1.81,1.73-3.67,3.39-6.22,4.15-2.36.7-4.4.35-6.72-.34-2.53-.75-4.68-.94-7.15.08-1.04.43-2.11,1-3.28,1.16-5.28.7-8.88-3.56-14.19-1.58-4.81,1.8-6.82-2.13-10.25-3.98-16.41,21.72-43.76,49.15-72.45,75.68,4.61-1.14,9.39-1.96,13.49-4.02v-.03Z"/>
              <g class="cls-8">
                <path class="cls-3" d="M163.22,85.93c-9.98,19.23-22.94,36.79-37.07,54.1-14.06,17.22-28.57,34.33-41.33,52.24-.87,1.22.87,1.2,1.57.35,14.33-17.64,28.23-35.51,42.58-53.14,13.91-17.09,26.6-34.44,35.83-53.65.53-1.11-1.23-.58-1.59.1h0Z"/>
                <path class="cls-3" d="M179.08,92.01c0-.75-1.46.08-1.48.58-.85,18.32-7.16,35.93-9.89,54.02-.17,1.14,1.54.24,1.79-.32,1.86-4.19,2.61-8.62,3.54-12.99,1-4.71,2.06-9.41,2.94-14.14,1.67-9.01,3.26-18,3.1-27.15h0Z"/>
                <path class="cls-3" d="M235.69,192.15c-3.09-8.25-7.14-16.25-10.23-24.5-3.05-8.14-6.31-16.23-9.41-24.37-3.18-8.37-5.9-16.86-8.51-25.35-2.55-8.3-5.67-16.64-7.1-25.13-.14-.82-1.57.17-1.5.75.94,8.24,3.48,16.38,5.73,24.44,2.34,8.38,4.82,16.73,7.78,24.98,3.07,8.57,6.56,17.04,9.76,25.58,3.16,8.43,6.44,17.22,11.5,25.03.62.96,2.26-.68,1.98-1.42h0Z"/>
                <path class="cls-3" d="M232.37,118.55c-2.56-5.74-7.22-10.85-10.58-16.29-3.54-5.74-6.91-11.62-10.13-17.48-.34-.62-1.56.42-1.32.95,5.22,11.64,11.1,24.16,19.97,34.3.8.91,2.41-.68,2.06-1.47h0Z"/>
                <path class="cls-3" d="M321.83,190.85c-12.57-14.55-28.1-27.02-42.12-40.56-7.33-7.08-14.26-14.43-21.45-21.6-3.75-3.74-7.56-7.43-11.35-11.14-3.84-3.77-8.07-7.34-11.44-11.42-.39-.47-1.39.38-1.09.78,5.38,7.37,12.7,14.07,19.32,20.69,7.52,7.51,14.63,15.29,22.08,22.85,6.79,6.88,14.32,13.34,21.53,19.91,7.79,7.11,15.07,14.74,23.52,21.33.41.32,1.29-.51,1-.85h0Z"/>
              </g>
              <path class="cls-7" d="M72.12,228.12c-1.54-.23-2.96-.62-3.93-1.33-2.36-1.73.1-5.45,1.18-7.21,2.18-3.55,5.17-6.76,7.22-10.34,3.59-6.25,7.68-12.32,11.53-18.46,7.77-12.37,15.38-24.83,21.74-37.74-15.1,16.33-26.62,34.65-40.36,51.74-2.64,3.29-5.2,6.61-7.83,9.9-2.41,3.02-5,6.03-8.48,8.28-6.52,4.21-14.77.39-21.27-2.04-.27-.1-.37-.45-.2-.64,1.99-2.25,4.24-4.32,6.29-6.52-6.04,3.83-12.84,7.13-20.03,9.03-.55.15-.94-.47-.55-.79,3.09-2.47,6.17-4.95,9.24-7.44,25.76-20.85,51.03-42.17,74.51-64.79,11.88-11.44,23.09-23.35,34.06-35.39,7.75-8.51,15.56-17.05,22.44-26.08-.11-.13-.15-.3-.01-.48,3.28-4.34,6.42-8.75,9.8-13.04.28-.35.88-.27,1.04.12,1.7,4.06-1.2,8.32-3.42,11.84-3.44,5.45-6.31,11.18-9.15,16.85-2.37,4.74-5.06,9.32-7.68,13.96s-5.11,9.48-5.65,14.62c3.7-4.1,6.45-8.73,8.93-13.41,2.44-4.59,5.03-9.15,7.4-13.76,3.73-7.28,6.72-16.15,14-21.64.28-.21.89-.16.95.21.79,4.75-1.38,9.12-2.4,13.7,2.25-3.27,4.61-6.49,7.16-9.62.29-.36,1.1-.25,1.06.25-.83,8.63-2.06,17.24-3.48,25.82h-.01c-1.36,8.18-2.38,16.54-4.84,24.55-2.19,7.08-5.4,14.03-8.42,20.89-2.42,5.51-5.14,11.2-10.05,15.54-.35.31-.97.06-.97-.34-.08-15.93,10.18-30.25,11.84-45.94-2.53,3.25-3.71,7.28-4.95,10.93-1.54,4.54-3.35,8.98-5.23,13.43-4.31,10.18-8.84,20.25-13.98,30.16-4.89,9.41-10.1,18.73-16.38,27.58-4.18,5.88-8.65,12.9-16.23,16.25-1.42.63-2.85,1.05-4.29,1.35h53.13c.89-8.86,1.79-17.73,3.02-26.56-.08-.08-.13-.17-.13-.29.08-9.28.5-18.63,3.08-27.69.91-3.2,1.64-6.46,2.63-9.64.82-2.62,1.79-5.36,4.09-7.38.3-.27.83-.11.95.21,5.6,15.5,4.39,32.69,2.4,48.61h0c-.89,7.11-2.11,15.46-5.53,22.74h21.28c-8.39-32.68-5.96-65.97-4.13-99.14-.14-6.69-.36-13.38-.4-20.07-.03-4.48-.06-8.98,0-13.46.05-3.54.38-7.03,2.15-10.3.16-.29.65-.28.89-.09,3.69,2.89,4.36,7.75,4.75,11.69.37,3.76.27,7.53.44,11.29.79-2.99,1.47-6,2.31-8.98.11-.38.84-.47,1.04-.11,4.26,7.7,4.42,16.3,6.57,24.45,2.56,9.71,6.15,19.39,9.81,28.86,1.75,4.52,4.28,8.82,5.89,13.38,1.2,3.4,2.01,6.97,2.74,10.46,1.09,5.24,2.82,12.37-.82,17.18v.02c-.18.23-.51.28-.79.16-10.31-4.45-17.48-11.89-24.88-19.06-1.35,5.24-1.16,10.58-1.04,15.92.1,4.55-.27,9.08-.3,13.62-.05,7.96.65,16.44-2.08,24.18h72.51c-5-4.85-7.19-11.49-11.06-16.9-5.97-8.35-11.4-16.67-16.06-25.57-2.62-5-5.21-10.01-7.7-15.07-6.69-10.47-12.27-21.49-16.32-32.8-2.19-6.13-4.05-12.43-5.65-18.68-1.41-5.49-2.52-11.16-1.39-16.74.08-.39.84-.46,1.04-.1,1.9,3.35,4.11,6.56,6.21,9.83-3.09-8.26-7.35-16.58-6.38-25.26.04-.38.61-.65.97-.32,3.84,3.53,6.02,8.09,8.06,12.45,2.39,5.1,4.65,10.16,8.09,14.86,8.76,11.97,18.55,23.39,28.15,34.9,4.59,5.5,9.41,10.88,13.77,16.51,3.41,4.41,7.06,9.05,9.06,14.05,1.76,4.39,2.72,9.04,3.05,13.65.29,4.14.31,8.54-1.38,12.5h0c-.14.31-.64.45-.95.19-5.51-4.64-10.88-9.65-15.28-15.04-1.73-2.11-3.2-4.36-4.91-6.48-1.46-1.82-3.13-3.96-5.47-5.15,2.85,4.53,4.7,9.42,6.55,14.28,1.52,3.98,3.53,7.8,5.26,11.72,3.06,6.97,7.13,15.52,5.69,23.17h66.5c-6.44-4.78-11.59-10.64-17.56-15.82-8.1-7.02-16.33-13.98-23.69-21.54-7.16-7.36-13.8-15.03-20.37-22.75-.12,0-.24-.05-.34-.15-7.51-7.33-14.92-14.79-21.07-22.95-3.09-4.11-5.99-8.29-9.2-12.35-2.69-3.4-5.33-6.89-6.44-10.89-.1-.37.4-.77.84-.52,5.74,3.22,10.01,7.77,14.48,12.08,5.12,4.95,10.71,9.54,16.37,14.07,10.44,8.35,20.74,16.79,30.56,25.62,17.48,15.72,35.2,33.76,40.19,55.2h44.37c-15.45-13.08-38.9-33.25-63.79-55.89v-.02c-37.45-34.06-78.13-73.66-99.64-102.9-1.81,1.73-3.67,3.39-6.22,4.15-2.36.7-4.4.35-6.72-.34-2.53-.75-4.68-.94-7.15.08-1.04.43-2.11,1-3.28,1.16-5.28.7-8.88-3.56-14.19-1.58-4.81,1.8-6.82-2.13-10.25-3.98-21.88,28.95-63.22,68.07-101.23,101.67C40.79,194.35,15.48,215.43,0,228.12h72.12ZM214.94,78.55h0c10.75,9.03,20.63,18.76,29.95,28.79,7.6,8.18,15.57,17.17,18.33,27.4.13.49-.52.73-.95.45-9.42-6.15-17.46-13.72-24.54-21.69-5.93-6.69-11.3-13.73-15.81-21.13-3.21-4.22-5.99-8.63-7.93-13.37-.19-.46.57-.77.95-.45Z"/>
            </g>
          </g>
        </g>
      </g>
    </g>
  </g>
</svg>