<?xml version="1.0" encoding="UTF-8"?>
<svg id="Calque_2" xmlns="http://www.w3.org/2000/svg" viewBox="0 0 980.85 1169.49">
  <defs>
    <style>
      .cls-1 {
        fill: #e6e9eb;
      }

      .cls-2 {
        fill: #1c2025;
      }

      .cls-3 {
        fill: #8ca5c5;
      }

      .cls-4 {
        fill: #121417;
      }

      .cls-5 {
        fill: #242a32;
      }

      .cls-6 {
        fill: #cfd3d8;
      }

      .cls-7 {
        fill: #bfc6cc;
      }

      .cls-8 {
        fill: #eceded;
      }

      .cls-9 {
        fill: #d1d5d9;
      }

      .cls-10 {
        fill: #101113;
      }

      .cls-11 {
        fill: #dbdee2;
      }

      .cls-12 {
        fill: #f0f3f6;
      }

      .cls-13 {
        fill: #0e0f10;
      }

      .cls-14 {
        fill: #e3e6e9;
      }

      .cls-15 {
        fill: #f1f4f7;
      }

      .cls-16 {
        fill: #eff0f3;
      }

      .cls-17 {
        fill: #16191d;
      }

      .cls-18 {
        fill: #1a1d20;
      }

      .cls-19 {
        fill: #ccd1d7;
      }

      .cls-20 {
        fill: #bdc2c8;
      }

      .cls-21 {
        fill: #131619;
      }

      .cls-22 {
        fill: #d7dade;
      }

      .cls-23 {
        fill: #131415;
      }

      .cls-24 {
        fill: #f2f3f5;
      }

      .cls-25 {
        fill: #dee0e3;
      }

      .cls-26 {
        fill: #b3b9bf;
      }

      .cls-27 {
        fill: #f2f5f8;
      }

      .cls-28 {
        fill: #0b0c0d;
      }

      .cls-29 {
        fill: #272829;
      }

      .cls-30 {
        fill: #818385;
      }

      .cls-31 {
        fill: #c3c9cf;
      }

      .cls-32 {
        fill: #0c0d0e;
      }

      .cls-33 {
        fill: #111316;
      }

      .cls-34 {
        fill: #37393a;
      }

      .cls-35 {
        fill: #c9ced4;
      }

      .cls-36 {
        fill: #14171b;
      }

      .cls-37 {
        fill: #171b1f;
      }

      .cls-38 {
        fill: #fefefe;
      }

      .cls-39 {
        fill: #a9322f;
      }

      .cls-40 {
        fill: #9ab6da;
      }
    </style>
  </defs>
  <g id="Layer_1">
    <g>
      <path class="cls-7" d="M687.68,251.26c93.61,211.82,187.22,423.64,280.82,636.2,2.46,10.41,1.37,19.66-4.38,27.85-2.92,4.16-6.89,7.58-10.38,11.34-156.08,68.98-312.17,137.95-468.82,206.76-.81-1.94-1.23-3.7-1.26-5.47-.11-6.17-.09-12.35.24-18.82,1.55-.85,2.75-1.41,3.95-1.94,140.5-62.09,281.01-124.18,421.51-186.27,2.41-1.06,4.84-2.09,7.2-3.26,18.11-8.91,25.67-29.62,17.53-48.06-48.08-109.05-96.14-218.11-144.26-327.15-34.83-78.93-69.74-157.82-104.6-236.74-.72-1.64-1.24-3.37-1.55-5.22.84-2,1.77-3.83,1.82-5.67.26-10.12.14-20.26.49-30.38.15-4.4,1.09-8.78,1.67-13.16M854.94,954.02c-.16.26-.32.52-.48.79.41-.3.82-.6,1.74-1.19.42-.31.85-.62,1.27-.92-.14-.18-.29-.35-.43-.53-.57.52-1.15,1.04-2.1,1.85M791.82,988.08c.53.49,1.06.98,1.59,1.48.15-.21.3-.42.45-.63-.76-.48-1.53-.95-2.5-1.64.07.08.14.15.46.8M846.22,955.73c.11-.49.22-.97.33-1.46-.27.02-.78.01-.78.06-.06.55-.05,1.12-.66,2.06-1,2.47-2.29,5.06,2.38,6.16.83.76,1.66,1.51,2.48,2.25,1.26-2.3,2.17-3.97,3.09-5.64-.18-.25-.36-.49-.54-.74-1.76,1.12-3.52,2.25-5.6,2.68-.4-1.7-.79-3.39-.69-5.38M827.73,968.26c-.06.32-.13.64-.64,1.5-.2,1.24-.39,2.48-.67,4.22l11.91-5.26c-2.07-.48-3.47-.81-4.05-.94-1.96.58-3.72,1.1-5.35,1.39.08-.16.13-.33.55-1.04.28-1.49.55-2.98.79-4.27-1.03,0-2.07.02-3.15.03.36,1.48.67,2.78.6,4.39M801.59,983.83c.11.12.21.26.35.35.12.08.39.18.41.15,1.11-1.76,2.36-3.46,3.23-5.34.42-.91.49-2.4,0-3.17-.43-.68-2.1-1.24-2.81-.93-1.49.66-2.71,1.93-4.66,3.22l-4.92.02.49.85c-2.12,1.34-4.25,2.69-6.18,3.91,1.67.37,4.1.39,4.26,1.01,1.09,4.1,3.29,1.84,5.24,1.83.29.6.58,1.19.88,1.79,0-.94.01-1.87.67-3.09.87-.38,1.73-.75,3.05-.6M808.33,976.57c1.21.52,2.42,1.03,4.27,1.82l-3.59,1.59c5.1.83,6.43-4.17,10.14-5.62-1.63-2.02-2.98-3.7-4.33-5.38-.45.2-.89.4-1.34.61.23,1.77.46,3.55.6,4.59-1.91-.62-4.06-1.32-6.21-2.02.06,1.25.12,2.5.46,4.41M850.88,955.11c-.64.55-1.28,1.1-1.93,1.65.34.3.68.6,1.02.89.49-.77.99-1.53.91-2.54M851.97,952.17l-1.69.66c.14.29.27.57.41.86.6-.53,1.2-1.05,1.28-1.52M856.85,958.33c0-.28.01-.57.02-.85-.25.03-.51.06-.76.09.12.33.23.66.74.76M854.36,961.09c.17.32.33.66.53.96.04.05.29-.04.45-.07-.18-.34-.35-.69-.98-.9Z"/>
      <path class="cls-31" d="M687.49,250.84c-.39,4.81-1.33,9.19-1.48,13.59-.34,10.12-.23,20.25-.49,30.38-.05,1.85-.99,3.67-2.11,5.32-34.79-77.53-68.98-154.87-103.19-232.2-9.18-20.76-28.98-28.4-49.69-19.29-13.1,5.76-26.23,11.44-39.48,16.82-.19-3.11-.19-5.88-.31-8.64-.26-6.16-.58-12.31-.87-18.46,19.6-8.66,39.2-17.32,59.55-25.99,10.36-2.1,19.69-1.62,27.87,4.36,4.11,3.01,7.57,6.91,11.33,10.4,32.89,74.43,65.79,148.87,98.87,223.72Z"/>
      <path class="cls-31" d="M27.11,242.85c28.34-12.52,56.68-25.05,85.6-37.4.81,2.25,1.17,4.32,1.23,6.4.18,6.83.25,13.66-.01,20.77-15.73,7.06-31.08,13.85-46.43,20.64-21.62,9.56-29.08,28.69-19.57,50.22,19.28,43.65,38.59,87.3,57.86,130.96,2.05,4.65,3.98,9.37,5.75,14.24-.34,1.26-.47,2.33-.6,3.75-.23,14.93-.43,29.51-.77,44.08-.03,1.39-1,2.77-1.53,4.15-32.49-73.53-64.99-147.06-97.49-221.32-1.22-8.21-.54-15.67,3.46-21.99,3.38-5.34,8.27-9.71,12.5-14.51Z"/>
      <path class="cls-20" d="M311.95,960.71c-30.5-69.01-60.99-138.02-91.38-207.64.42-1.66.98-2.72,1-3.78.16-10.59.04-21.19.42-31.77.18-5.02,1.3-10,2.3-14.64,14.98,33.77,29.58,67.23,44.34,100.61,15.89,35.94,31.93,71.81,47.61,107.86-.93,1.72-2.06,3.27-2.09,4.84-.31,13.45-.38,26.91-.66,40.36-.03,1.4-.99,2.78-1.52,4.17Z"/>
      <path class="cls-8" d="M202.51,713.07c-25.97-58.77-51.94-117.53-77.79-176.91.46-1.78,1.08-2.94,1.1-4.12.22-13.57.29-27.15.59-40.72.04-1.92,1.09-3.83,1.98-5.38,25.89,58.25,51.48,116.14,77.06,174.03.39.89.62,1.86.62,2.97-.65,1.22-1.28,2.25-1.3,3.3-.18,10.58-.08,21.18-.45,31.75-.17,5.04-1.18,10.06-1.82,15.08Z"/>
      <path class="cls-38" d="M426.81,1159.51l-22.6,9.99c-16.78-37.98-33.57-75.96-50.25-114.55.44-2.33,1.05-4.05,1.08-5.78.26-13.29.35-26.58.69-39.87.04-1.69,1.26-3.34,2.1-4.59,14.55,32.94,28.96,65.45,43.28,98,3.4,7.73,8.22,14.21,15.53,18.57,3.05,1.82,6.34,3.27,9.62,5.23.05,2.96-.08,5.57-.04,8.18.15,8.28.37,16.55.57,24.82Z"/>
      <path class="cls-31" d="M227.76,154.18c31.35-13.85,62.7-27.71,94.59-41.41.6,9.21.67,18.26.36,27.58-13.73,6.18-27.07,12.12-40.44,17.99-17.72,7.78-35.46,15.52-53.3,22.93-.14-3.94-.07-7.53-.23-11.12-.24-5.33-.64-10.65-.98-15.98Z"/>
      <path class="cls-8" d="M130.15,197.31c26.23-11.59,52.46-23.18,79.26-34.62.68,1.77.83,3.38.88,5,.25,7.3.48,14.61.33,22.18-26.94,11.94-53.49,23.61-80.16,34.94-.18-9.39-.25-18.45-.32-27.5Z"/>
      <path class="cls-38" d="M365.14,93.46c24.42-10.79,48.84-21.59,73.84-32.22.67,2.1.79,4.04.86,5.98.25,6.98.49,13.95.36,21.2-24.83,11.01-49.28,21.75-73.88,32.13-.39-2.11-.79-3.85-.84-5.61-.17-7.16-.23-14.32-.33-21.48Z"/>
      <path class="cls-11" d="M332.72,1007.71c-3.34-7.55-6.67-15.1-9.91-23.26.44-2.33,1.05-4.05,1.08-5.78.26-13.29.35-26.58.69-39.87.04-1.69,1.25-3.35,2.1-4.59,3.52,7.97,6.86,15.52,9.91,23.23-.75,1.29-1.59,2.42-1.61,3.56-.23,11.32-.18,22.66-.53,33.97-.13,4.26-1.13,8.5-1.74,12.74Z"/>
      <path class="cls-24" d="M357.66,1004.28c-.67,1.67-1.88,3.33-1.93,5.01-.34,13.29-.43,26.58-.69,39.87-.03,1.73-.64,3.45-1.27,5.36-3.63-7.37-6.97-14.92-10.2-23.08.44-2.33,1.05-4.05,1.08-5.78.26-13.29.35-26.58.69-39.87.04-1.69,1.26-3.34,2.1-4.59,3.52,7.97,6.87,15.53,10.21,23.08Z"/>
      <path class="cls-1" d="M347.28,980.78c-.67,1.67-1.88,3.33-1.93,5.02-.34,13.29-.43,26.58-.69,39.87-.03,1.73-.64,3.45-1.27,5.36-3.63-7.37-6.97-14.92-10.49-22.89.42-4.67,1.41-8.91,1.55-13.17.36-11.32.3-22.65.53-33.97.02-1.14.86-2.27,1.79-3.14,3.82,7.82,7.16,15.37,10.51,22.92Z"/>
      <path class="cls-6" d="M326.51,933.78c-.67,1.67-1.88,3.33-1.92,5.02-.34,13.29-.43,26.58-.69,39.87-.03,1.73-.64,3.45-1.27,5.36-3.63-7.37-6.97-14.92-10.49-22.89.34-1.81,1.3-3.19,1.33-4.59.28-13.45.35-26.91.66-40.36.04-1.58,1.17-3.13,2.28-4.42,3.69,7.52,6.9,14.77,10.11,22.01Z"/>
      <path class="cls-25" d="M202.69,713.49c.44-5.45,1.45-10.46,1.63-15.51.37-10.58.27-21.17.45-31.75.02-1.04.64-2.08,1.61-2.95,3.47,6.87,6.33,13.57,8.86,20.43-.83,1.8-1.74,3.43-1.78,5.07-.28,13.35-.35,26.7-.63,40.04-.03,1.38-1,2.75-1.53,4.12-2.8-6.35-5.61-12.69-8.6-19.46Z"/>
      <path class="cls-9" d="M211.48,733.37c.35-1.8,1.32-3.16,1.35-4.54.28-13.35.35-26.7.63-40.04.03-1.64.95-3.26,2.08-4.72,3.23,6.27,5.83,12.37,8.43,18.46-.69,5-1.81,9.98-1.99,14.99-.39,10.58-.26,21.18-.42,31.77-.02,1.06-.58,2.12-1.18,3.36-3.1-6.16-5.9-12.51-8.89-19.28Z"/>
      <path class="cls-25" d="M128.08,485.58c-.58,1.91-1.64,3.82-1.68,5.74-.3,13.57-.36,27.15-.59,40.72-.02,1.18-.64,2.34-1.29,3.7-2.85-5.56-5.38-11.31-7.82-17.66.44-2.33,1.05-4.04,1.08-5.77.25-13.42.35-26.84.65-40.26.03-1.53,1.08-3.04,1.95-4.2,2.76,6.15,5.23,11.93,7.69,17.72Z"/>
      <path class="cls-6" d="M120.1,467.5c-.58,1.52-1.62,3.03-1.66,4.56-.31,13.42-.4,26.84-.65,40.26-.03,1.72-.64,3.44-1.27,5.34-2.7-5.26-5.1-10.7-7.69-16.56.34-1.81,1.31-3.18,1.34-4.57.35-14.58.54-29.15.98-44.29.6-1,1-1.43,1.68-1.5,2.61,5.84,4.94,11.3,7.26,16.77Z"/>
      <path class="cls-35" d="M483.55,1109.42c.03,6.17,0,12.35.12,18.52.03,1.77.45,3.54.84,5.65-5.29,2.76-10.74,5.16-16.75,7.41-.67-1.93-.81-3.7-.86-5.48-.19-6.17-.35-12.34-.17-18.82,5.84-2.63,11.33-4.96,16.82-7.29Z"/>
      <path class="cls-22" d="M466.38,1117.01c.17,6.17.33,12.34.52,18.52.05,1.78.19,3.55.44,5.67-4.99,2.62-10.14,4.89-15.81,7-.61-3.09-.64-6.02-.76-8.95-.19-5.01-.43-10.03-.31-15.35,5.54-2.5,10.73-4.69,15.92-6.88Z"/>
      <path class="cls-19" d="M489.45,38.53c.71,5.97,1.03,12.12,1.29,18.28.12,2.76.11,5.53-.07,8.9-4.5,2.43-8.77,4.25-13.18,5.73-.24-1.96-.38-3.57-.43-5.19-.26-7.3-.5-14.61-.74-21.91l13.14-5.81Z"/>
      <path class="cls-16" d="M440.58,88.15c-.24-6.98-.48-13.95-.74-20.93-.07-1.94-.19-3.88-.44-6.17,3.79-2.08,7.73-3.82,12.24-5.39.79,2.58,1.12,4.98,1.19,7.4.19,6.5.27,13,.01,19.77-4.34,1.95-8.31,3.64-12.28,5.33Z"/>
      <path class="cls-22" d="M475.89,44.52c.67,7.12.9,14.42,1.16,21.72.06,1.62.19,3.23.06,5.45-4.2,2.29-8.17,3.98-12.29,5.32-.36-2.76-.68-5.17-.75-7.59-.19-6.5-.28-13-.42-19.5l12.23-5.41Z"/>
      <path class="cls-1" d="M450.11,1124.2c.22,5.01.46,10.02.65,15.04.11,2.93.15,5.86.33,9.14-4.13,2.22-8.36,4.1-13.14,5.81-.59-9.19-.65-18.22-.37-27.41,4.4-.96,8.46-1.77,12.52-2.58Z"/>
      <path class="cls-24" d="M437.25,1126.93c.06,9.03.12,18.06.29,27.44-3.23,1.82-6.56,3.29-10.32,4.95-.61-8.09-.83-16.36-.98-24.64-.05-2.61.09-5.22.38-8.27,3.7-.12,7.17.2,10.63.52Z"/>
      <path class="cls-24" d="M364.72,93.65c.52,6.97.58,14.13.75,21.29.04,1.76.44,3.5.47,5.89-4.18,2.31-8.16,3.99-12.24,5.32-.18-9.39-.25-18.44-.31-27.49l11.33-5.01Z"/>
      <path class="cls-14" d="M463.24,50.11c.55,6.31.64,12.82.83,19.31.07,2.41.39,4.82.37,7.85-3.89,2.17-7.55,3.73-11.22,5.28-.12-6.5-.2-13-.39-19.5-.07-2.41-.4-4.82-.77-7.58,3.48-1.96,7.12-3.57,11.17-5.36Z"/>
      <path class="cls-14" d="M352.98,98.84c.49,8.87.55,17.92.37,27.58-3.63,2.03-7,3.45-10.48,4.52-.18-9.39-.24-18.44-.31-27.49l10.43-4.61Z"/>
      <path class="cls-6" d="M323.09,140.07c-.07-9.05-.13-18.1-.31-27.49,2.93-1.69,5.96-3.03,9.53-4.21.59,9.21.66,18.26.36,27.58-3.44,1.56-6.51,2.84-9.58,4.12Z"/>
      <path class="cls-11" d="M333.03,135.68c-.07-9.05-.13-18.1-.31-27.49,2.93-1.69,5.96-3.03,9.42-4.55.48,8.87.55,17.92.36,27.58-3.33,1.9-6.4,3.18-9.47,4.46Z"/>
      <path class="cls-38" d="M588.43,26.69c-3.57-3.07-7.03-6.97-11.14-9.98-8.18-5.98-17.5-6.46-27.44-4.55,8.65-4.14,17.62-8.11,26.79-12.16,3.87,8.75,7.74,17.51,11.8,26.69Z"/>
      <path class="cls-38" d="M954.16,926.46c3.07-3.57,7.04-6.99,9.96-11.15,5.75-8.19,6.85-17.43,4.57-27.43,4.15,8.64,8.11,17.62,12.17,26.79-8.75,3.87-17.51,7.74-26.69,11.8Z"/>
      <path class="cls-25" d="M211,189.6c-.23-7.3-.46-14.61-.71-21.91-.06-1.61-.21-3.23-.46-5.19,2.59-1.56,5.33-2.77,8.64-3.8.79,2.25,1.16,4.32,1.22,6.41.18,6.83.25,13.66-.01,20.76-3.14,1.42-5.9,2.58-8.67,3.73Z"/>
      <path class="cls-9" d="M220.04,185.61c-.11-6.83-.18-13.67-.36-20.5-.05-2.08-.42-4.15-.81-6.59,2.58-1.57,5.32-2.78,8.47-4.17.75,5.14,1.15,10.47,1.39,15.8.16,3.58.09,7.18-.14,11.37-3.03,1.77-5.8,2.92-8.56,4.08Z"/>
      <path class="cls-38" d="M26.69,243.03c-3.8,4.61-8.7,8.99-12.08,14.33-4,6.32-4.68,13.79-3.65,21.57-3.75-7.77-7.32-15.84-10.97-24.1l26.69-11.8Z"/>
      <path class="cls-9" d="M114.3,232.34c-.11-6.83-.18-13.66-.36-20.49-.06-2.08-.42-4.15-.81-6.59,2.58-1.57,5.32-2.78,8.58-3.82.59,9.22.66,18.26.37,27.58-2.83,1.29-5.3,2.31-7.78,3.33Z"/>
      <path class="cls-25" d="M122.44,228.75c-.07-9.05-.13-18.09-.31-27.49,2.33-1.43,4.77-2.51,7.62-3.76.48,8.87.54,17.93.37,27.59-2.72,1.63-5.2,2.65-7.67,3.67Z"/>
      <path class="cls-28" d="M122.08,229.01c2.83-1.29,5.31-2.3,8.14-3.59,26.91-11.94,53.47-23.61,80.41-35.55,3.15-1.42,5.91-2.58,9.05-4,3.13-1.42,5.9-2.58,9.04-4,18.1-8.01,35.84-15.75,53.56-23.53,13.37-5.87,26.71-11.81,40.44-17.99,3.45-1.56,6.52-2.84,9.95-4.4,3.44-1.55,6.51-2.84,9.94-4.39,3.74-1.68,7.11-3.1,10.85-4.79,4.34-1.95,8.31-3.63,12.65-5.59,24.82-11.02,49.27-21.75,74.09-32.76,4.35-1.95,8.31-3.64,12.66-5.6,4.04-1.82,7.71-3.38,11.75-5.2,4.34-1.95,8.31-3.64,12.65-5.59,4.64-2.09,8.91-3.91,13.56-5.99,13.49-5.98,26.62-11.67,39.72-17.42,20.71-9.1,40.5-1.46,49.69,19.29,34.21,77.33,68.4,154.68,102.89,232.37.9,2.04,1.42,3.77,2.14,5.41,34.86,78.92,69.77,157.81,104.6,236.74,48.12,109.04,96.18,218.09,144.26,327.15,8.13,18.44.57,39.15-17.53,48.06-2.36,1.16-4.79,2.19-7.2,3.26-140.5,62.09-281.01,124.18-421.51,186.27-1.2.53-2.4,1.09-3.95,1.94-5.84,2.63-11.33,4.95-17.17,7.59-5.54,2.5-10.73,4.69-16.27,7.19-4.41,1.12-8.46,1.92-12.87,2.89-3.81-.16-7.27-.48-11.08-.71-3.52-1.53-6.81-2.97-9.86-4.79-7.31-4.37-12.13-10.84-15.53-18.57-14.32-32.55-28.73-65.06-43.28-98-3.52-7.97-6.86-15.52-10.38-23.5-3.52-7.97-6.86-15.53-10.39-23.5-3.52-7.97-6.86-15.53-10.39-23.5-3.39-7.67-6.59-14.92-9.98-22.59-16.16-36.32-32.2-72.19-48.09-108.13-14.76-33.38-29.36-66.84-44.34-100.61-2.91-6.44-5.51-12.54-8.42-18.98-3.16-7.05-6.02-13.75-9.18-20.79-.61-1.28-.84-2.25-1.23-3.14-25.58-57.89-51.17-115.78-77.06-174.03-2.76-6.14-5.23-11.93-7.99-18.08-2.62-5.83-4.95-11.3-7.51-17.41-.53-1.08-.83-1.52-1.13-1.96-1.98-4.69-3.91-9.4-5.96-14.05-19.27-43.66-38.57-87.3-57.86-130.96-9.51-21.53-2.05-40.66,19.57-50.22,15.35-6.79,30.7-13.58,46.43-20.64,2.85-1.29,5.32-2.31,8.15-3.6M278.7,629.3c-.16.15-.32.3-1.4.54-2.85.69-2.39,2.32-1.45,4.4,3.12,6.85,6.13,13.74,9.13,20.65.41.95.52,2.04.77,3.06-.41.13-.81.26-1.22.39-3.86-8.73-7.71-17.46-11.62-26.29-1.54.46-2.61.77-4.36,1.16-.43.47-.86.94-2.22,1.49-3.95.98-1.93,3.27-1.08,5.2,11.16,25.3,22.35,50.59,33.5,75.9.61,1.39.95,2.9,1.41,4.35-.48.15-.96.3-1.44.46-12.33-27.91-24.67-55.82-37.09-83.93-1.46.81-2.42,1.33-3.33,1.84,15.43,34.92,30.76,69.61,46.15,104.43,1.19-.46,2.11-.78,3-1.18,134.15-59.29,268.29-118.59,403.34-177.92,1.69-.66,3.37-1.32,5.85-2.3.46-.33.92-.65,1.94-1.43,3.21-.84,2.33-2.7,1.37-4.85-7.31-16.4-14.54-32.82-21.79-49.24l-2-4.52c.52-.23,1.04-.45,1.56-.68,8.39,18.98,16.77,37.96,25.09,56.77,5.33-.56,3.18-3.2,2.27-5.26-11.15-25.32-22.35-50.62-33.52-75.93-.65-1.47-1.16-3-1.74-4.51.49-.19.98-.38,1.47-.56,12.38,28,24.75,56.01,37.13,84.02,1.75-.49,2.83-.8,4.94-1.31.6-.33,1.2-.67,2.32-1.47.26-1.29,1.13-2.85.69-3.85-14.44-32.96-29.03-65.85-43.49-98.8-1.17-2.66-2.47-3.15-5.41-1.82-.55.32-1.11.65-2.37,1.43-132.93,58.75-265.86,117.5-398.79,176.27-1.94.86-3.79,1.91-6.35,2.93-.18.13-.36.25-.59.4,0,0-.05.02-.69.16M757.39,542.96c.23-1.35,1.05-2.96.6-4-14.4-32.89-28.96-65.7-43.39-98.58-1.15-2.62-2.44-3.23-5.41-1.88-.55.31-1.09.61-2.24,1.32-3.73.99-2.12,3.21-1.21,5.26,12.35,27.94,24.7,55.88,37.05,83.83,2.45,5.54,4.9,11.09,7.44,16.83,1.46-.42,2.68-.76,4.88-1.32.58-.33,1.16-.66,2.28-1.48M746.53,547.77c.26-1.29,1.13-2.85.69-3.84-14.44-32.96-29.03-65.85-43.49-98.79-1.17-2.66-2.46-3.15-5.23-1.88-.33.45-.67.9-1.9,1.35-4.04.7-2.75,2.98-1.69,5.37,12.37,27.91,24.69,55.84,37.03,83.76,2.45,5.54,4.9,11.08,7.43,16.82,1.46-.42,2.68-.76,4.88-1.32.58-.33,1.16-.66,2.27-1.46M244.65,644.32c-4.15.84-1.97,3.22-1.14,5.09,10.93,24.81,21.9,49.6,32.85,74.4,3.84,8.69,7.68,17.39,11.69,26.45,1.4-.62,2.54-1.12,4.15-2.43,1.59-.48,3.18-.96,4.76-1.43-15.61-35.32-30.91-69.95-46.36-104.9-1.31.76-2.4,1.4-4.04,2.23-.32.19-.65.39-1.91.58M280.98,753.22c1.69-.75,3.38-1.5,5.1-2.26-15.45-34.95-30.74-69.55-46.12-104.36l-3.64,1.61c.84,1.91,1.57,3.55,2.29,5.19,11.91,26.95,23.82,53.89,35.73,80.84,2.33,5.27,4.78,10.49,6.89,15.84.46,1.16-.28,2.79-.69,3.1-14.82-33.58-29.62-67.17-44.51-100.72-.55-1.24-1.95-2.1-2.95-3.14-.02,1.55-.56,3.32,0,4.62,14.28,32.56,28.71,65.05,42.99,97.61,1.06,2.41,2.37,3.19,4.9,1.67M854.49,940.42c19.43-8.59,38.87-17.15,58.28-25.79,2.39-1.06,4.81-2.23,6.9-3.78,13.56-10.03,16.9-25.84,9.19-43.28-42.85-97.01-85.73-194.01-128.6-291.01l-1.91-4.32c-175.13,77.39-349.74,154.56-524.49,231.78.82,1.85,1.48,3.36,2.15,4.86,43,97.3,86,194.61,129.01,291.91,8.67,19.61,26.65,26.48,46.39,17.75,134.06-59.24,268.12-118.49,403.08-178.13M170.4,400.45c21.34,48.3,42.69,96.59,64.06,144.97,133.1-58.82,265.7-117.42,398.37-176.05-37.35-84.52-74.59-168.78-111.88-253.16-132.84,58.71-265.46,117.31-398.37,176.05,15.89,35.95,31.65,71.62,47.81,108.19M282.15,707.58c5.57,12.6,11.14,25.21,16.64,37.66,4.67-.72,2.85-3.07,1.96-5.09-11.9-26.96-23.82-53.92-35.73-80.87-2.53-5.72-5.1-11.43-7.57-17.18-1.07-2.49-2.26-3.57-4.59-.8,9.6,21.73,19.25,43.56,29.29,66.28Z"/>
      <path class="cls-5" d="M808.18,976.23c-.2-1.58-.26-2.83-.31-4.08,2.15.7,4.3,1.4,6.21,2.02-.14-1.04-.37-2.82-.6-4.59.45-.2.89-.4,1.34-.61,1.35,1.68,2.7,3.36,4.33,5.38-3.71,1.45-5.05,6.45-10.14,5.62l3.59-1.59c-1.85-.79-3.06-1.3-4.41-2.15Z"/>
      <path class="cls-26" d="M797,985.11c-1.95.63-4.15,2.9-5.24-1.21-.17-.62-2.59-.65-4.26-1.01,1.93-1.22,4.05-2.57,6.18-3.91l-.49-.85c1.64,0,3.28-.01,5.48.2,1.2,1.8,1.84,3.39,2.48,4.97-.87.38-1.73.75-2.92,1.27-.32.14-.32.14-.33-.19-.21-1.7-.42-3.06-.73-5.11-1.68,1.61-2.79,2.68-3.97,3.83,1.45.77,2.62,1.4,3.79,2.02,0,0,0,0,0,0Z"/>
      <path class="cls-18" d="M801.37,983.56c-.86-1.85-1.5-3.44-2.39-5.37,1.08-1.37,2.3-2.64,3.79-3.3.71-.31,2.38.25,2.81.93.49.77.42,2.26,0,3.17-.86,1.88-2.11,3.58-3.23,5.34-.02.03-.29-.07-.41-.15-.13-.09-.23-.23-.57-.61Z"/>
      <path class="cls-29" d="M828.8,969.38c1.76-.52,3.53-1.04,5.49-1.62.57.13,1.97.46,4.05.94l-11.91,5.26c.27-1.73.47-2.98,1.2-4.42.75-.19.96-.18,1.18-.17Z"/>
      <path class="cls-26" d="M847.23,961.8c1.76-1.12,3.52-2.25,5.28-3.37.18.25.36.49.54.74-.91,1.67-1.83,3.34-3.09,5.64-.81-.74-1.64-1.49-2.61-2.61-.14-.36-.12-.4-.12-.4Z"/>
      <path class="cls-29" d="M828.11,967.94c-.31-1.29-.63-2.59-.99-4.07,1.08,0,2.12-.02,3.15-.03-.24,1.3-.51,2.79-1.22,4.34-.6-.04-.77-.14-.95-.24Z"/>
      <path class="cls-26" d="M845.72,956.02c.4,1.7.79,3.39,1.35,5.43.16.34.14.39.13.41-4.38-.41-3.1-2.99-1.79-5.65.31-.19.31-.19.31-.19Z"/>
      <path class="cls-26" d="M851.16,955.23c-.21.89-.7,1.65-1.19,2.42-.34-.3-.68-.6-1.02-.89.64-.55,1.28-1.1,2.21-1.53Z"/>
      <path class="cls-26" d="M852.23,952.14c-.34.49-.94,1.02-1.54,1.55-.14-.29-.27-.57-.41-.86.56-.22,1.13-.44,1.95-.69Z"/>
      <path class="cls-26" d="M797.9,984.71c0,.94-.02,1.87-.02,2.81-.29-.6-.58-1.19-.88-2.1,0-.31,0-.31.22-.41.38-.17.53-.23.68-.3,0,0,0,0,0,0Z"/>
      <path class="cls-26" d="M791.57,987.5c.76.48,1.53.95,2.29,1.43-.15.21-.3.42-.45.63-.53-.49-1.06-.98-1.72-1.76-.13-.29-.12-.29-.12-.29Z"/>
      <path class="cls-26" d="M845.71,956.02c0-.56-.01-1.13.05-1.68,0-.05.51-.04.78-.06-.11.49-.22.97-.58,1.6-.25.14-.26.14-.26.14Z"/>
      <path class="cls-26" d="M856.66,958.44c-.31-.21-.43-.54-.54-.88.25-.03.51-.06.76-.09,0,.28-.01.57-.21.97Z"/>
      <path class="cls-26" d="M854.59,961.02c.4.28.58.62.75.97-.15.03-.41.12-.45.07-.21-.3-.36-.64-.31-1.03Z"/>
      <path class="cls-26" d="M855.32,953.72c.57-.52,1.15-1.04,1.72-1.55.14.18.29.35.43.53-.42.31-.85.62-1.62,1.02-.35.1-.53,0-.53,0Z"/>
      <path class="cls-26" d="M855.6,953.86c-.32.35-.72.65-1.13.95.16-.26.32-.52.67-.94.19-.15.37-.06.47-.01Z"/>
      <path class="cls-29" d="M827.85,969.28c-.25-.39-.18-.7.07-1.18.37-.06.54.04.94.34.21.38.16.55.01.83-.28.1-.5.09-1.02.02Z"/>
      <path class="cls-26" d="M791.57,987.51c-.07-.07-.14-.15-.1-.12.11.11.11.11.1.12Z"/>
      <path class="cls-20" d="M111.54,448.68c.51.25.8.69,1.05,1.41-.44.71-.84,1.14-1.45,1.78-.08-.86.05-1.93.4-3.19Z"/>
      <path class="cls-40" d="M854.04,940.62c-134.51,59.44-268.57,118.69-402.63,177.93-19.74,8.72-37.72,1.86-46.39-17.75-43.01-97.3-86.01-194.61-129.01-291.91-.66-1.5-1.33-3.01-2.15-4.86,174.75-77.22,349.36-154.39,524.49-231.78l1.91,4.32c42.87,97,85.74,194,128.6,291.01,7.71,17.44,4.36,33.25-9.19,43.28-2.09,1.55-4.51,2.71-6.9,3.78-19.41,8.63-38.85,17.2-58.73,25.99M562.94,910.1c-1.85.98-3.7,1.96-6.41,3.39,5.73.87,15.64-3.9,16.47-7.46-1.69.59-3.19,1.1-5.11,1.32-.42-.29-.85-.58-1.09-1.5-1.1-2.15-2.2-4.3-3.36-6.56-.47.21.27.09.69-.35.64-.68,1.05-1.57,1.56-2.37-.99-.06-2.09-.43-2.95-.12-2.31.82-4.58,1.8-6.72,3-.69.39-.89,1.64-1.94,3.76,3.08-1.2,4.63-1.8,7.08-2.75-3.41,4.74-2.18,7.27,2.39,8.86,0,0,.18.35-.61.78M431.18,1022.25l-.8,9.43c.76.07,1.51.13,2.27.2,1.02-6.76,2.04-13.53,3.06-20.29-.66-.14-1.33-.29-1.99-.43-.98,3.52-1.96,7.05-3.6,10.04-.21-.78-.21-2.04-.68-2.26-1.66-.76-3.48-1.17-5.24-1.71-.31,1.81-.62,3.63-.94,5.44,1.81.21,3.62.6,5.42.54.73-.02,1.43-1.04,2.5-.98M906.34,872.71c-.24,3.2-.47,6.4-.71,9.6l2.16.21c1.02-6.75,2.05-13.51,3.07-20.26-.69-.13-1.39-.26-2.08-.4-.94,3.44-1.87,6.88-3.57,9.94-.46-2.87-1.93-5.35-5-4.19-2.87,1.08-3.82,3.73-1.44,6.59.17.2-.1.77-.98,1.51-5.49,3.93-10.23,2.69-14.26-3.35-.37.37-.74.74-1.11,1.11-.55,3.96-1.09,7.93-1.8,13.07,3.19-1.41,5.02-2.49,7-2.99,1.17-.3,2.71.02,3.82.57,1.72.85,3.23,2.15,4.83,3.26.67-1.91,1.59-3.78,1.96-5.75.38-2.04.21-4.18.79-6.99,2.33-.86,4.66-1.71,7.32-1.92M557.6,1027.92c-.38,2.86-.75,5.72-1.13,8.59.84.1,1.67.21,2.51.31,1.06-6.81,2.13-13.62,3.19-20.42-.76-.14-1.51-.28-2.27-.43-.82,3.8-1.64,7.59-2.99,10.69-.18-.8-.09-2-.58-2.34-1.51-1.03-3.25-1.73-4.9-2.56-.62,1.65-1.24,3.3-1.87,4.95,1.78.59,3.52,1.37,5.34,1.68.77.13,1.71-.74,2.69-.48M544.9,910.36c-.24,3.21-.48,6.42-.71,9.63.73.07,1.45.14,2.18.21,1.03-6.74,2.05-13.49,3.08-20.23-.69-.13-1.38-.26-2.07-.39-.96,3.42-1.91,6.84-3.3,9.54-1.23-1.31-2.26-3.05-3.77-3.75-.73-.34-2.96,1.02-3.42,2.09-.45,1.05,0,3.18.87,3.98,2.9,2.72,4.95.56,7.15-1.09M662.74,917.63c-.79-3.04-2.77-4.81-5.61-3.11-1.11.67-1.88,4.22-1.13,5.25,2.34,3.25,4.94,1.85,7.49-.22l-.73,9.51c.74.07,1.49.14,2.23.2,1.03-6.76,2.06-13.53,3.09-20.29-.68-.16-1.37-.32-2.05-.48-.82,3.08-1.65,6.16-3.28,9.14M577.59,897.04c-.33,2.88-.67,5.76-1,8.64.83.1,1.65.21,2.48.31,1.05-6.81,2.09-13.62,3.14-20.42l-2.14-.53c-.89,3.81-1.79,7.62-2.97,10.61-.34-.92-.42-2.17-1.08-2.69-1.2-.96-2.74-1.49-4.14-2.2-.76,1.73-1.9,3.42-2.04,5.2-.05.56,2.56,1.73,4.02,1.88,1.13.11,2.38-.94,3.74-.8M488.96,873.06c-.55-2.88-1.98-5.27-5.13-4.08-1.21.46-2.5,3.61-2.04,4.95,1.1,3.24,3.83,2.72,6.36,1.28.28-.16.6-.23,1.68-.05-.18,2.86-.36,5.71-.53,8.57.72.06,1.45.12,2.17.19,1.04-6.78,2.07-13.55,3.11-20.33-.67-.15-1.33-.29-2-.44-1.01,3.5-2.02,6.99-3.61,9.91M379.48,923.96c-.16,2.84-.33,5.67-.49,8.51l2.11.17c1.04-6.77,2.09-13.54,3.13-20.3-.69-.15-1.38-.31-2.07-.46-.46,1.69-.71,3.48-1.47,5.03-.52,1.06-1.74,1.78-2.9,1.97-1.8-.09-3.72-.56-5.34-.07-.55.17-1.03,3.53-.4,4.05,1.22,1.01,3.23,1.13,4.95,1.42.53.09,1.17-.44,2.48-.32M403.55,973.88c-.3,2.82-.6,5.63-.95,8.87,3.36-1.96,5.99-16.45,3.81-21.85-1.17,4.47-2.07,7.89-3.47,10.64-1.34-1.3-2.68-2.59-4.02-3.89-1.22,1.38-2.41,2.8-3.69,4.12-.35.36-1,.42-1.75-.08-4.81-4.53-11.25-4.9-15.84-.91-4.58,3.98-5.13,10.8-1.28,15.97,2.83,3.81,9.86,4.95,14.32,2.32,5.4-3.17,6.88-8.22,4.58-15.03,2.57-.21,5.13-.42,8.28-.15M644.35,867.53c-1.46,3.08-.73,5.89,2.4,6.76,1.56.43,4.61-.93,5.49-2.38,1.79-2.96.05-5.24-3.11-6.37-.26-.09-.42-.45.2-1.02,1.24-.96,2.47-1.91,3.71-2.87-.3-.3-.6-.61-.89-.91-4.72,2.09-9.44,4.17-14.16,6.26.19.54.39,1.08.58,1.61,1.89-.6,3.78-1.21,5.77-1.08M747.63,822.76c-1.31,1.91-2.67,3.8-3.93,5.74-.61.94-1.03,2-1.54,3,1.18-.05,2.56.3,3.49-.2,6.36-3.41,8.39-11.76,4.3-19.89-.78,1.28-.94,2.68-1.28,4.04-.6,2.42-1.31,4.81-2.06,6.5,0-1.13.27-2.34-.04-3.37-1.03-3.43-3.59-4.77-6.83-3.51-3,1.16-4.09,3.92-2.78,6.87,1.31,2.95,3.9,3.82,6.95,2.48,1.03-.45,1.9-1.25,3.72-1.67M686.1,972c-1.18,1.81-2.38,3.62-3.54,5.45-.68,1.07-1.3,2.17-1.94,3.26,1.28-.16,2.79.06,3.79-.55,6.32-3.88,7.86-10.06,4.35-19.63-.91,1.32-1.14,2.79-1.52,4.23-.64,2.4-1.37,4.77-2.16,6.44.08-.8.52-1.85.18-2.36-1.17-1.73-2.43-4.27-4.03-4.6-1.67-.33-4.52,1.1-5.46,2.62-.78,1.25-.17,4.51,1,5.51,1.32,1.13,3.95.91,6.02.92.82,0,1.64-.97,3.33-1.3M493.1,994.91c-.57-.72-1.14-1.44-2.61-1.96-3.29,1.44-6.63,2.78-9.84,4.38-.93.46-1.5,1.65-2.23,2.51,1.08.14,2.16.43,3.23.36.75-.05,1.46-.59,1.08-.42,1.48,2.57,2.39,5.23,4.22,6.83.74.65,5.03-.93,5.08-1.68.19-2.65-.76-5.39-1.38-8.63-.12.07.87-.48,2.45-1.39M452.53,1009.72c-3.29,1.44-6.63,2.79-9.84,4.39-.93.46-1.49,1.66-2.22,2.52,1.08.14,2.16.43,3.23.36.74-.05,1.44-.58.83-.31,1.75,2.68,2.9,5.28,4.85,6.93.63.53,4.75-1.28,4.87-2.31.29-2.38-.89-4.95-1.47-7.44-.5.04-.99.08-1.49.12,1.09-.64,2.17-1.28,3.85-2.28-.57-.72-1.14-1.44-2.61-1.97M306.82,815.87c-2.89,2.03-1.92,4.41-.79,6.97,9.89,22.27,19.72,44.57,29.57,66.86,2.94,6.66,3.36,6.84,9.88,3.96,157.09-69.42,314.17-138.84,471.25-208.26,6.05-2.67,6.6-4.06,3.9-10.17-9.57-21.69-19.16-43.38-28.75-65.06-2.97-6.71-3.91-7.05-10.83-3.99-69.28,30.61-138.56,61.23-207.84,91.85-88.55,39.14-177.1,78.29-266.4,117.85M535.56,923.42c3.24-6.41,2.07-12.82-2.96-16.2-4.17-2.81-10.87-1.9-14.45,1.96-4.37,4.7-4.29,11.74.17,15.98,4.43,4.21,11.36,3.71,17.24-1.74M523.35,1048.82c-1.96.87-3.87,1.85-5.88,2.58-2.95,1.07-2.79,2.57-.99,4.6,5.98-2.64,11.77-5.2,18.44-8.15-5.83-5.26-12.67-2.55-18.41-4.22,2.59-5.37,9.22-8.62,9.33-16.67-6.3,2.78-11.57,5.06-16.77,7.47-.68.31-1.04,1.32-1.54,2,.92.26,1.98.95,2.72.69,2.55-.89,4.98-2.11,7.45-3.2-1.25,2.94-3.18,5.09-4.78,7.46-.79,1.18-1.5,2.89-1.23,4.13.16.75,2.26,1.27,3.56,1.53,2.9.57,5.85.92,8.11,1.78M864.23,880.81c.79-.27,1.57-.54,3.49-1.19-2.77,3.39-4.79,5.72-6.65,8.17-2.25,2.96-1.44,4.86,2.21,5.19,3.15.29,6.32.36,9.49.52-1.97,1.78-4.04,2.65-6.07,3.6-3.1,1.45-3.08,1.47-1.2,4.75l18.31-8.09c-5.77-5.29-12.75-2.54-18.6-4.27,2.87-5.42,9.26-8.75,9.46-16.33-6.85,3.03-12.77,5.64-19.33,8.54,3.52,3.12,5.71-.19,8.9-.91M765.54,863.87l-1.48-3.36c-1.71,3.84-2.91,6.55-4.31,9.69-1.35-2.32-2.27-3.89-3.19-5.46-.68.24-1.35.47-2.03.71,2.21,5.9,4.43,11.81,6.64,17.71-.59.25-1.17.49-1.76.74-.8-1.25-1.74-2.43-2.37-3.77-1.68-3.57-3.13-7.24-4.89-10.77-.37-.74-1.62-1.04-2.47-1.54-.28.81-1.01,1.8-.77,2.4,2.01,5.02,3.95,10.1,6.43,14.9,1.24,2.41,3.94,4.12,6.55,1.92,1.36-1.15,1.71-3.56,2.31-5.47.18-.58-.35-1.37-.65-2.36,3.49.88,6.51,1.63,9.53,2.39.18-.56.36-1.12.54-1.68-3.65-1.98-7.29-3.96-10.93-5.94.98-3.45,1.82-6.44,2.83-10.11M502.35,984.8c1.04,2.41,2.25,4.77,3.05,7.26.32,1.01-.26,2.3-.44,3.47-1.13-.6-2.79-.91-3.3-1.84-1.66-3.01-2.78-6.31-4.36-9.37-.43-.84-1.74-1.23-2.64-1.83-.32.32-.63.64-.95.96,1.71,3.87,3.45,7.74,5.13,11.63,1.51,3.5,4.06,5.43,7.71,3.71,3.34-1.57,3.64-4.71,2.31-7.96-.94-2.28-2.15-4.46-2.89-6.79-.31-1,.28-2.29.47-3.45,1.14.61,2.76.93,3.33,1.88,1.42,2.38,2.28,5.09,3.53,7.58.68,1.36,1.72,2.53,2.6,3.79.6-.31,1.2-.62,1.8-.93-1.73-3.91-3.52-7.78-5.16-11.73-1.3-3.14-3.48-4.88-6.86-4.06-3.58.87-4.46,3.51-3.33,7.69M568.48,959.37c2.08,2.71,1.45,7.48,6.23,8.26-1.2-4.35-2.92-8.38-4.76-12.36-1.51-3.28-4-4.84-7.53-3.28-3.66,1.61-3.78,4.55-2.35,7.83,1.06,2.41,2.25,4.76,3.08,7.24.28.84-.36,2-.58,3.01-1.07-.43-2.69-.57-3.12-1.36-1.65-3.02-2.83-6.28-4.37-9.36-.49-.99-1.56-1.69-2.36-2.52-.44.31-.87.61-1.31.92,2.08,4.71,3.8,9.65,6.47,14.01.83,1.35,5.02,2.21,6.29,1.32,1.64-1.14,2.57-4.28,2.56-6.55,0-2.11-1.91-4.14-2.48-6.34-.42-1.61-.03-3.43,0-5.15,1.29,1.16,2.57,2.33,4.23,4.34M824.03,837.12c.11,2.18-.08,4.42.41,6.51.48,2.04,1.86,3.86,2.42,5.9.33,1.19-.19,2.6-.33,3.91-1.19-.76-2.87-1.26-3.49-2.35-1.61-2.84-2.66-5.99-4.15-8.92-.43-.84-1.56-1.33-2.36-1.98l-1.12.92c1.83,4.14,3.64,8.29,5.5,12.42,1.41,3.14,4.26,4.97,6.97,3.05,1.75-1.25,2.61-4.82,2.51-7.3-.1-2.44-2.12-4.75-2.85-7.26-.31-1.07.53-2.47.85-3.72.98.64,2.37,1.06,2.86,1.97,1.48,2.74,2.5,5.71,3.92,8.49.57,1.11,1.7,1.94,2.58,2.9.49-.33.98-.65,1.47-.98-1.68-3.8-3.32-7.62-5.05-11.4-2.3-5.05-4.63-5.69-10.13-2.17M693.06,960.65c1.13,2.55,2.28,5.1,3.38,7.67,1.47,3.43,3.81,5.6,7.61,3.82,3.78-1.77,3.58-5.01,2.11-8.36-.99-2.26-2.11-4.47-2.84-6.81-.27-.86.42-2.01.68-3.03,1.06.48,2.63.68,3.08,1.5,1.58,2.87,2.67,6,4.16,8.92.55,1.06,1.71,1.81,2.59,2.7.45-.32.89-.65,1.34-.97-1.76-3.99-3.47-8-5.3-11.95-1.42-3.06-3.7-4.34-7.13-3.22-3.86,1.26-3.83,4.1-2.9,7.14.67,2.18,2.02,4.17,2.62,6.36.41,1.5.07,3.21.06,4.82-1.25-.98-2.89-1.72-3.66-3-1.43-2.38-2.23-5.12-3.53-7.58-.52-1-1.65-1.68-2.5-2.51-.05,1.23-.09,2.46.22,4.5M735.25,958.44c4.31-1.9,8.61-3.81,13.26-5.86-2.82-4.83-5.69.66-8.27-.93-1.64-3.71-3.35-7.58-5.05-11.44,2.11-1.43,4.06-2.75,6.01-4.07-.32-.47-.64-.94-.96-1.42-5.38,2.38-10.76,4.75-16.14,7.13.09.52.18,1.03.26,1.55,2.39-.48,4.77-.96,7.18-1.44,1.77,4.01,3.47,7.85,5.23,11.85-2.15,1.21-4.07,2.29-5.98,3.36.04.49.08.99.13,1.48,1.16.05,2.33.11,4.33-.21M720.63,882.02c-2.55,1.94-7.09,1.34-8.54,6.55,3.15-1.07,5.25-1.79,7.29-2.48,1.88,4.25,3.63,8.22,5.49,12.43-1.51.67-2.88.98-3.84,1.79-.77.64-1.04,1.88-1.54,2.85.98.12,2.11.6,2.92.28,3.97-1.59,7.88-3.32,11.72-5.19.78-.38,1.16-1.59,1.72-2.41-1.08-.24-2.22-.81-3.24-.65-1.53.23-2.97.98-4.61,1.56-1.15-2.61-1.87-4.84-3.06-6.79-2.39-3.93-2.07-6.62,2.77-8,.6-.17.92-1.29,1.37-1.97-.21-.33-.43-.66-.64-.99-2.33.89-4.65,1.77-7.82,3.03M463.13,938.95c-4.25-.75-8.03,4.66-6.73,9.34,1.66,6,6.85,5.36,11.17,6.42,5.13-10.7,4.3-14.18-4.44-15.76M441.68,1068.91c-6.37,7.19-4.38,14.81,8.05,15.62.75-1.33,1.4-2.73,2.27-3.98,2.08-2.97,2.18-6.53-.28-8.51-2.49-2.01-6.25-2.43-10.05-3.12M609.09,807.96c-.3.77-1.03,1.71-.82,2.29,1.16,3.07,2.52,6.06,3.88,9.05,1.78,3.94.45,6.81-3.27,8.41-3.6,1.55-6.73,1.04-8.39-3.18-1.14-2.9-2.4-5.77-3.85-8.52-.39-.73-1.67-.99-2.55-1.46-.26.83-.96,1.85-.7,2.46,1.6,3.77,3.04,7.68,5.24,11.09,2.86,4.43,7.38,5.17,12.1,2.7,4.26-2.22,6.26-6.53,4.56-11.2-1.44-3.97-3.57-7.7-6.2-11.65M698.12,853.76c3.61-1.59,7.23-3.17,10.84-4.78,5.44-2.43,7.47-6.5,6.38-12.77-.83-4.8-5.89-10.19-10.48-9.3-5.94,1.16-11.54,4.07-17.29,6.23.24.7.47,1.4.71,2.09,1.38-.3,2.82-.43,4.12-.95,3.06-1.22,5.98-2.77,9.06-3.9,4.17-1.52,9.39,1.03,10.96,5.12,1.58,4.1-.31,8.77-4.4,10.67-3.43,1.59-6.92,3.05-10.37,4.61-1.87.84-2.9,1.85.47,2.97M740.09,894.63c1.18-2.44,2.37-4.87,3.6-7.41,3.16,1.05,5.92,1.96,9.43,3.12-.33-6.76-3.38-11.55-6.8-17.2-1.78,3.69-3.09,6.42-4.38,9.1q-8.6-2.31-9.67.15c2.66,1.18,5.33,2.35,8.53,3.77-1.04,2.28-2.14,4.29-2.8,6.44-.18.59.95,1.58,2.09,2.03M866.32,818.41c2.05,4.87,4.1,9.74,6.15,14.61-.6.25-1.21.5-1.81.75-.74-1.31-1.56-2.58-2.19-3.95-1.45-3.12-2.64-6.37-4.29-9.38-.53-.97-2.17-1.34-3.3-1.98-.3.42-.59.84-.89,1.26,2.25,5.08,4.33,10.24,6.8,15.21,1.37,2.75,3.83,4.11,6.96,2.57,2.94-1.45,3.2-3.92,2.03-6.66-1.94-4.52-3.9-9.02-5.96-13.49-1.31-2.83-2.63-2.47-3.5,1.05M713.7,903.88c-.04-.09-.07-.18-.11-.27.1.27.3.78.27.79-2.68,1.23-5.37,2.41-8.94,3.99.83-4.98,1.45-8.73,2.07-12.47-.65-.19-1.3-.39-1.95-.58-1.26,4.01-2.52,8.02-3.77,12-4.2-1.15-7.38-5.09-11.82-4.76-.2.51-.4,1.02-.59,1.52,3.22,2.09,6.44,4.18,9.99,6.48-1.18.7-1.87.92-2.28,1.39-.91,1.05-1.67,2.23-2.49,3.35,1.33-.05,2.8.25,3.98-.2,3.68-1.42,7.16-3.4,10.89-4.64,3.22-1.07,4.03-3.54,4.75-6.6M414.52,1040.48c5.08-1.53,8.1-4.8,8.57-10.2.45-5.15-1.9-8.86-6.13-11.48-4.66-2.88-17.71.68-21.56,5.84-.09.13.23.56.36.85.31.1.67.34.89.25,3.79-1.57,7.53-3.27,11.35-4.77,4.71-1.85,9.87.5,11.72,5.18,1.72,4.35-.19,8.8-4.74,10.87-3.95,1.8-7.94,3.52-11.91,5.27.18.53.35,1.07.53,1.6,3.83,1.22,6.66-2.26,10.91-3.42M488.55,1058.71c-.27-5.04-.54-10.09-.81-15.13-.77-.03-1.55-.07-2.32-.1-.42,2.76-.84,5.51-1.28,8.42l-6.49,2.87c-2.54-1.7-4.76-3.2-6.98-4.69-.43.53-.86,1.06-1.29,1.59,5.52,5.64,11.02,11.3,16.67,16.8.15.14,2.69-1.29,2.81-2.17.31-2.22-.13-4.54-.3-7.59M779.2,812.08c1.5-6.91-5.53-14.52-11.61-13.34-5.66,1.09-10.88,4.51-16.29,6.9.09.44.18.88.28,1.31,1.36-.2,2.81-.16,4.07-.64,3.06-1.18,5.98-2.72,9.04-3.89,4.66-1.78,9.34.41,11.21,5.07,1.8,4.48.01,8.66-4.67,10.78-3.97,1.8-7.97,3.53-11.96,5.29.09.51.18,1.03.27,1.54,1.1.02,2.33.37,3.29,0,3.06-1.16,5.95-2.81,9.05-3.87,4.16-1.42,6.54-4.14,7.34-9.16M668.22,985.93c.73-1.25,1.78-2.43,2.15-3.78,1.11-4.03-.39-7.18-4.16-8.86-3.7-1.65-7.08-1.58-9.46,2.59-2.83,4.95-.56,11,5.11,11.56,1.61.16,4.89,4.27,6.37-1.51M572.01,834.03c-2.9-.52-7.24-2.43-8.39-1.25-2.16,2.22-3.57,6.38-3.16,9.44.28,2.09,4.08,3.87,6.52,5.43,1.1.7,2.74.55,4.06.77q5.09-8.74.97-14.39M781.54,871.33c-1.8,1.49-3.68,2.9-5.34,4.53-.65.64-.81,1.79-1.19,2.7.86.2,1.9.81,2.54.53,6.81-2.97,13.59-6.03,20.28-9.26.61-.29.58-1.93.84-2.94-1.11-.19-2.48-.9-3.3-.49-3.16,1.57-6.14,3.49-9.54,5.49-1.81-4.09-3.04-7.3-4.64-10.32-.7-1.32-2.13-2.25-3.24-3.35.01,1.67-.34,3.46.13,5,.75,2.5,2.04,4.83,3.45,8.12M808.27,842.29c1.43,3.8,2.78,7.64,4.33,11.39,1.32,3.19.29,5.35-2.51,7-4.18,2.45-7.56,1.53-9.68-2.86-1.64-3.39-3.07-6.88-4.59-10.32-.61.26-1.22.52-1.83.79.78,5.4,2.42,10.67,6.3,14.77,4.52,4.78,13.06,2.44,15.25-3.82,1.38-3.96-2.72-14.82-7.26-16.93M655.05,932.75c.47-3.3.94-6.61,1.6-11.19-5.8,3.48-10.53,5.42-14.2-.7-.13-.22-2.54.31-2.64.76-.79,3.55-1.28,7.17-1.96,11.37,1.78-.54,2.45-.63,3-.93,3.94-2.13,7.73-3.87,10.59,1.63.21.4,2.24-.14,3.61-.93M461.08,1007.34c-1.59-3.32-3.17-6.65-4.76-9.97-.8.4-1.6.79-2.4,1.19,2.4,4.73,4.46,9.68,7.32,14.12,2.12,3.28,6.24,3.81,9.26,1.88,2.6-1.66,6.07-5.2,5.78-7.46-.69-5.28-3.41-10.31-5.4-15.4-.08-.2-1.14-.02-2.68,0,1.72,3.89,3.11,7.3,4.72,10.6,1.83,3.75,1.33,6.7-2.59,8.58-3.73,1.79-7.02,1.78-9.24-3.53M667.23,847.11c.77,6.25,5.28,15.32,9.53,17.04-1.94-4.38-3.48-7.85-5.01-11.33-2.42-5.53-1.32-9.45,3.24-11.62,4.79-2.27,9.58-.25,11.96,5.05,1.53,3.41,3.02,6.83,4.54,10.25.68-.3,1.36-.61,2.04-.91-1.52-3.45-3.31-6.81-4.51-10.36-2.36-6.97-6.62-7.67-11.15-7.55-5.45.14-8.48,2.74-10.65,9.42M742.74,933.28c1.46,3.31,2.83,6.67,4.41,9.93,1.92,3.96,4.97,5.94,9.56,4.96,4.88-1.04,8.71-4.26,7.97-8.51-.93-5.34-3.41-10.41-5.22-15.6-.67.18-1.34.37-2.02.55.01.92-.22,1.94.09,2.74,1.08,2.76,2.38,5.42,3.53,8.15,1.89,4.5.98,6.9-3.2,8.69-3.96,1.69-6.68.54-8.64-3.72-1.24-2.69-2.35-5.44-3.63-8.11-1-2.08-2.14-2.42-2.85.91M780.43,917.75c-.47,6.02,4.75,17.31,8.98,17.94-1.79-4.06-3.57-7.71-5-11.49-.66-1.75-1.13-3.84-.82-5.62.68-3.92,3.72-5.79,7.41-6.06,3.63-.27,6.77.98,8.38,4.71,1.66,3.86,3.39,7.68,5.08,11.52.67-.33,1.34-.65,2.01-.98-1.54-3.48-3.31-6.88-4.56-10.46-1.64-4.71-4.53-7.52-9.64-7.62-5.44-.1-9.51,2.08-11.83,8.06M549.51,1036.59c.22-2.19.44-4.37.81-8.04-6.49,5.51-11.35,3.98-15.54-2.01-.35.34-.71.69-1.06,1.03-.58,3.98-1.17,7.95-1.92,13.12,2.9-1.28,4.58-1.85,6.07-2.72,2.4-1.4,4.1-1.1,5.82,1.21.82,1.11,2.49,1.58,3.78,2.35.62-1.4,1.24-2.8,2.04-4.93M482.58,880.89c-.02-1.22-.04-2.43-.07-4.25-3.34,1.48-6.02,2.66-8.56,3.78-2.22-2.09-4.17-3.93-7.23-6.81-.87,5.31-1.52,9.28-2.35,14.38,3.17-1.4,5.02-2.49,7.02-3,1.16-.3,2.74.01,3.81.61,1.75.99,3.23,2.44,4.83,3.69.73-2.07,1.48-4.14,2.18-6.22.15-.46.14-.97.38-2.19M427.65,902.51c.42-2.94.83-5.89,1.25-8.83l-1.41-.39c-2.79,3.08-2.03,9.37-7.49,9.85-3.95.35-7.99-.4-11.99-.66-.1.32-.19.64-.29.96,2.38,1.24,4.75,2.47,7.14,3.72-.56,2.91-1.08,5.65-1.86,9.7,3.61-4.18,5.66-8.4,8.92-9.8,3.42-1.47,8-.24,12.07-.19.13-.24.25-.48.38-.72-2.05-1.05-4.11-2.11-6.72-3.64M361.21,930.81l2.6,5.88c-1.98.87-3.43,1.31-4.64,2.12-.75.51-1.14,1.56-1.69,2.37.97.15,2.1.7,2.88.38,4.12-1.65,8.19-3.45,12.18-5.39.72-.35.99-1.62,1.47-2.46-.99-.08-2.05-.41-2.96-.17-1.38.36-2.65,1.1-4.16,1.77l-5.38-12.18c2.11-1.56,4.02-2.98,5.93-4.4-.29-.4-.58-.8-.87-1.2l-16.25,7.18c.13.53.26,1.07.39,1.6,2.47-.58,4.94-1.16,7.72-1.81.83,1.87,1.61,3.65,2.78,6.29M619.74,1007.05c-1.3.72-2.61,1.44-4.37,2.41,3.06,1.54,11.96-1.24,18-5.09.76-.48,1.09-1.66,1.61-2.51l-.85-.81c-2.07.71-4.14,1.42-6.76,2.32.62-4.52,1.17-8.53,1.72-12.54-.64-.15-1.28-.31-1.92-.46-1.15,4.05-2.3,8.1-3.46,12.15-4.24-.75-7.28-5.53-12.31-3.87,2.53,2.28,5.33,3.94,8,5.79.59.41.7,1.51.34,2.61M462.1,1070.79c.49,1.33.97,2.67,1.53,4.19-1.57.69-2.91,1.03-3.91,1.81-.82.64-1.24,1.79-1.84,2.72,1,.06,2.13.44,2.98.11,3.07-1.18,6.12-2.46,9.03-3.99,1.68-.88,3.08-2.3,4.61-3.48-1.84.15-3.68.27-5.52.46-.62.06-1.22.28-2.03.47-1.82-4.13-3.58-8.09-5.32-12.04,2.28-1.48,4.29-2.79,6.3-4.1-.29-.41-.57-.82-.86-1.23l-16.38,7.24c.14.47.28.94.42,1.41,2.3-.59,4.59-1.19,7.33-1.89,1.06,2.4,2.18,4.94,3.68,8.33M734.05,834.46c-.55-.79-1.65-1.63-1.57-2.35.35-3.2,1.03-6.37,1.6-9.55l-2.27-.53c-1.07,4.06-2.15,8.11-3.23,12.2-4.2-1.88-8.05-3.6-11.91-5.33-.29.62-.58,1.23-.87,1.85,3.45,2.24,6.91,4.47,10.59,6.86-2.36,1.28-4.1,2.24-5.85,3.19.27.66.54,1.32.81,1.99,5.99-1.04,11.19-4.56,16.78-6.81.72-.29,1.02-1.64,1.51-2.5-.29-.26-.59-.51-.88-.77-1.35.49-2.7.98-4.72,1.76M475.36,929.36c-.55.79-1.11,1.58-1.66,2.38.88.12,1.82.5,2.62.3,1.52-.37,2.97-1.07,4.51-1.66l5.36,12.14c-2.2,1.57-4.18,2.98-6.16,4.39.36.47.72.93,1.07,1.4,5.45-2.41,10.9-4.82,16.35-7.22-.1-.57-.2-1.14-.3-1.71-2.54.53-5.08,1.07-7.54,1.59l-5.24-11.86c2.3-1.54,4.27-2.86,6.24-4.18-.37-.6-.74-1.2-1.11-1.8-4.45,1.96-8.89,3.93-14.14,6.25M816.69,917.09c-1.63-3.68-3.25-7.36-4.75-10.76,2.51-1.71,4.45-3.03,6.4-4.36-.3-.39-.6-.79-.9-1.18-5.37,2.37-10.74,4.75-16.11,7.12.13.47.26.95.39,1.42,2.38-.57,4.76-1.13,7.12-1.69,1.81,4.09,3.57,8.07,5.47,12.38-1.74.77-3.31,1.28-4.65,2.14-.62.39-.82,1.45-1.2,2.21.82.21,1.8.81,2.43.55,4.4-1.8,8.74-3.74,13.05-5.76.53-.25.71-1.23,1.06-1.87-.78-.31-1.61-.99-2.32-.87-1.85.29-3.66.93-5.97.68M568.72,1018.06c-.97,0-1.93,0-2.9.01-.12.38-.24.76-.37,1.14,3.46,2.22,6.91,4.45,10.9,7.01-1.66.73-2.66.97-3.38,1.55-.86.69-1.48,1.68-2.2,2.55,1.12.1,2.4.61,3.33.24,4.56-1.84,9.06-3.86,13.5-5.97.63-.3.88-1.41,1.31-2.14-.8-.23-1.69-.81-2.37-.63-1.49.4-2.87,1.19-4.92,2.1.73-4.81,1.34-8.83,1.96-12.86l-1.87-.51c-1.25,4.08-2.49,8.15-3.75,12.27-3.07-1.59-5.83-3.02-9.24-4.76M637.05,990.73c-.39,2.95-.79,5.9-1.35,10.07,3.36-4,5.41-8.38,8.76-9.86,3.43-1.53,8.11-.22,12.25-.16.05-.28.1-.56.16-.85-2.27-1.15-4.53-2.31-6.8-3.46.52-3.09,1.01-5.94,1.71-10.09-3.69,4.5-5.73,9.05-9.13,10.55-3.32,1.46-8.02-.2-12.11-.49-.08.39-.16.79-.24,1.18,2.04.93,4.09,1.85,6.75,3.11M553.29,838.66c-2.45,11.07-10.01,10.24-18.75,6.66.03.62.05,1.24.08,1.87,2.41,1.32,4.82,2.65,7.14,3.91-.53,2.87-1.05,5.7-1.78,9.7,3.64-4.21,5.71-8.49,9.02-9.92,3.42-1.48,8.04-.2,12.13-.13.14-.26.28-.53.43-.79-2.46-1.21-4.91-2.41-7.41-3.63.66-2.55,1.32-4.76,1.69-7.02.05-.29-1.4-.83-2.55-.65M448.84,948.37c-3.47,9.39-10.9,4.71-17.24,3.92-.04.51-.09,1.01-.13,1.52,2.31,1.23,4.62,2.45,6.86,3.65-.48,3.1-.91,5.9-1.35,8.7.47.12.95.24,1.42.36,2.83-3.06,2.02-9.4,7.61-9.79,3.93-.27,7.93.51,11.9.82.08-.37.16-.75.25-1.12-2.41-1.22-4.81-2.43-7.15-3.61.58-3.05,1.12-5.88,1.66-8.7-.5-.15-1.01-.3-1.51-.45-.7,1.34-1.4,2.68-2.33,4.71M435.38,969.23c-2.23-4.99-4.79,1.26-7.47-.46.54-3.78,1.12-7.78,1.69-11.77-.7-.16-1.39-.32-2.09-.48-1.1,4.16-2.2,8.32-3.26,12.32-4.1-1.95-7.89-3.76-11.69-5.57-.33.58-.66,1.15-.98,1.73,3.35,2.29,6.7,4.58,10.46,7.15-1.22.63-2.03.85-2.56,1.36-.9.85-1.62,1.88-2.42,2.84,1.29-.04,2.73.28,3.84-.18,4.71-1.94,9.33-4.12,14.49-6.95M615.97,880.19c.22-1.97.44-3.93.66-5.9-.64-.14-1.28-.29-1.91-.43-1.13,4.17-2.26,8.34-3.32,12.22-3.97-1.84-7.87-3.65-11.77-5.46-.3.57-.59,1.15-.89,1.72,3.35,2.29,6.7,4.58,10.44,7.13-1.34.67-2.19.88-2.73,1.41-.86.85-1.51,1.91-2.25,2.88,1.16-.02,2.44.29,3.44-.12,4.11-1.66,8.18-3.43,12.16-5.39,1.01-.5,1.6-1.85,2.39-2.82-1.12-.02-2.28-.22-3.36-.02-1.17.21-2.28.77-3.98,1.39.42-2.41.72-4.15,1.12-6.63M531.47,861.22c.48-3.41.96-6.83,1.44-10.24-.63-.09-1.27-.19-1.9-.28-1.13,4.11-2.26,8.21-3.32,12.09-4.05-1.93-7.88-3.75-11.7-5.57-.34.6-.69,1.19-1.03,1.79,3.43,2.3,6.86,4.59,10.78,7.21-1.55.68-2.4.88-3.01,1.37-.87.7-1.57,1.62-2.34,2.44,1.21.08,2.59.56,3.61.15,4.41-1.76,8.75-3.71,13.03-5.77.68-.33.91-1.58,1.34-2.4-.84-.09-1.68-.26-2.51-.26-1.53.01-3.06.13-4.39-.54M853.58,889.69c-1.52.28-3.05.56-3.67.67-1.89-1.37-3.17-2.3-4.46-3.23.08,1.58-.22,3.31.31,4.72,1.45,3.83,3.17,7.57,4.96,11.25.41.84,1.55,1.33,2.35,1.98.25-1.07.63-2.14.7-3.22.05-.75-.32-1.52-.5-2.29,2.31-1.44,4.34-3.25,4.57-5.26.16-1.37-2.22-3.02-4.26-4.63M514.78,980.1c5.02,1.92,9.83,4.11,11.34,11.36,2.12-4.86,3.57-8.19,5.03-11.52-.39-.19-.79-.39-1.18-.58-1.01,1.64-2.01,3.27-3.02,4.91-.41-.1-.81-.21-1.22-.31.83-3.54,1.66-7.09,2.49-10.63-.36-.41-.72-.81-1.08-1.22-4.22,2.46-8.45,4.92-12.36,8M538.96,980.69c-1.05,1-2.1,2.01-3.15,3.01.88.36,1.98,1.25,2.6,1,5.31-2.18,10.57-4.51,15.77-6.95.59-.27.76-1.44,1.12-2.2-.92-.28-1.98-1-2.75-.77-2.01.61-3.9,1.63-6.28,2.68-1.71-3.88-3.19-7.5-4.94-10.99-.51-1.01-1.82-1.62-2.77-2.42.04,1.27-.26,2.66.17,3.78,1.35,3.5,2.97,6.89,4.61,10.59-1.38.74-2.49,1.33-4.39,2.27M851.94,840.17c-.01-.82-.03-1.63-.06-3.63-1.73,2.64-2.78,4.24-3.83,5.83-.39-.15-.78-.29-1.16-.44.86-3.56,1.72-7.12,2.69-11.1l-14.09,6.23c5.47,2.57,10.13,5.04,11.25,11.48.55-.02,1.1-.04,1.65-.07,1.11-2.53,2.22-5.06,3.56-8.3M674.14,911.03c5.51-2.24,7.43-.45,8.25,7.7-2,1.31-3.99,2.61-5.98,3.92.28.38.55.76.83,1.14,6.83-1.02,7.95-2.06,8.91-8.36,1.93.84,3.85,1.67,5.76,2.49.34-.56.68-1.11,1.03-1.67-4.14-2.99-8.3-5.94-12.4-8.98-3.6-2.67-6.06.69-8.98,1.59.6.83,1.19,1.67,2.59,2.18M517.95,870.33c-3.85-2.79-7.44-6.15-11.67-8.12-2.06-.96-5.35.63-8.04,1.25-.32.07-.37,1.3-.54,2,2.05-.36,4.11-.73,6.16-1.08.16-.03.33.02,1.22.09,1.23,2.77,2.59,5.87,3.74,8.47-2.41,1.94-4.12,3.32-5.83,4.7.3.37.61.75.91,1.12,4.71-.94,8.6-2.72,8.21-8.9,1.74,1.04,2.94,1.98,4.3,2.43.46.15,1.33-.95,1.54-1.96M630.64,810.36c4.09,2.45,8.17,4.9,12.68,7.59,1.57-5.53,2.83-9.95,4.34-15.25-6.19,2.74-11.26,4.98-17.02,7.66M813.15,794.7c.21,1.56.43,3.12.63,4.58-2.1,1.11-3.92,2.07-5.89,3.12,4.1,3.23,8.21.11,9.51-6.55,1.98.71,3.96,1.42,5.95,2.14.23-.51.46-1.01.69-1.52-4.45-3.17-8.65-6.84-13.48-9.26-1.76-.88-5.02,1.18-7.55,2.02-.21.07-.09,1.12-.12,1.72,1.89-.34,3.78-.67,5.68-1.01.32-.06.64-.08,1.13-.15,1.02,1.33,2.1,2.73,3.45,4.91M796.6,801.62c.29-1.33.59-2.66.95-4.32-6.01,2.66-11.5,5.08-17.52,7.74,4.88,2.22,9.12,4.14,13.71,6.23.97-3.36,1.78-6.15,2.85-9.65M826.56,909.11c3.51,1.56,7.02,3.12,10.82,4.81,1.4-4.88,2.64-9.19,4.14-14.39-5.89,2.6-10.93,4.81-15.92,7.13-.19.09.17,1.37.97,2.44M431.29,1071.13c-2.12.87-4.26,1.68-6.35,2.61-5.26,2.33-5.39,4.82.44,9.61-.57-2.78-.96-4.64-1.41-6.83.99-.44,1.99-1.05,3.06-1.31,1.4-.34,2.87-.42,4.31-.61-.74,1.07-1.92,2.06-2.13,3.23-.36,2.03-.72,4.44.09,6.14.43.9,3.94,1.45,4.92.69,1.19-.92,1.93-3.57,1.55-5.15-.68-2.8-2.34-5.37-4.48-8.38M778.66,926.43c-3.7-8.37-5.41-8.59-15.02-1.55,1.12,2.07,2.26,4.2,3.4,6.32l1.15-.59c-.51-1.79-1.02-3.58-1.5-5.29l8.85-3.91c-1.08,2.12-1.3,3.35-2.01,3.81-2.68,1.74-3.61,4.13-1.76,6.59.89,1.17,3.44,1.98,4.92,1.63,3.21-.77,3.67-3.31,1.96-7M397.75,915.64l2.24,5.08c-2.36,1.04-4.23,1.7-5.9,2.69-.73.43-1.04,1.57-1.54,2.39.82.17,1.8.71,2.45.45,5.16-2.16,10.28-4.42,15.35-6.79.61-.28.83-1.4,1.23-2.13-.8-.22-1.72-.82-2.36-.6-2.1.72-4.11,1.74-6.38,2.74-1.11-2.51-1.97-4.45-2.82-6.39-.87-1.96-1.64-3.97-2.65-5.84-.37-.68-1.33-1.03-2.03-1.54-.25.92-.92,1.98-.67,2.74.7,2.18,1.78,4.24,3.08,7.21M859.5,843.56c6.59-3.54,7.37-5.77,4.4-12.55-1.32-3-2.53-6.06-4.06-8.96-.44-.82-1.83-1.14-2.78-1.69-.21,1.09-.87,2.35-.54,3.25,1.11,3.08,2.43,6.1,3.93,9.01,1.48,2.87,1.51,5.15-1.3,7.29-.62.48-.28,2.22.35,3.64M635.08,868.4c-2.29-.57-4.65-1.72-6.85-1.47-1.02.12-2.47,2.97-2.42,4.55.09,3.03,1.92,5.31,5.4,4.69,3.94-.7,5.39-3.21,3.87-7.77M724.12,952.71c-1.31-3.22-3.87-4.93-6.88-3.27-1.6.88-2.99,3.9-2.77,5.76.18,1.48,2.85,3.61,4.56,3.77,3.33.3,5.39-1.84,5.1-6.26M448.01,894.44l-4.65-10.51c-3.01,5.91,2.47,8.97,1.71,13.34-1.47.65-3.11,1.34-4.73,2.1-1.53.71-3.03,1.49-4.9,2.42,3.41,2.02,13.3-1.82,13.63-4.69.07-.57-.44-1.21-1.06-2.66M584.43,956.34c.1-3.44-1.39-6.03-4.95-5.7-1.83.17-4.72,2.08-4.92,3.53-.27,1.88,1.12,4.96,2.74,5.93,2.91,1.74,5.59.19,7.14-3.76M506.57,1046.98c-1.54-2.81-3.98-4.46-6.82-2.69-1.54.96-3.03,3.73-2.76,5.37.29,1.73,2.8,4.42,4.21,4.35,3.27-.17,6.44-1.78,5.36-7.03M595.56,884.12c-2.36.21-4.99-.11-6.98.87-.96.48-1.57,4.32-.82,5.04,1.6,1.53,4.57,3.21,6.31,2.67,4-1.24,4.13-4.57,1.48-8.58M626.12,935.63c1.99,2.65,4.84,3.59,7.17,1.38,1.33-1.26,1.94-4.5,1.28-6.24-.52-1.39-3.62-2.83-5.3-2.56-3.44.55-4.67,3.25-3.16,7.42M458.68,882.96c-5.12-.22-8.08,1.96-6.88,5.44.6,1.74,2.38,3.93,3.95,4.23,1.59.3,4.88-1.24,5.1-2.41.4-2.12-.93-4.56-2.17-7.27M593.38,838.66c1.94-1.03,3.87-2.07,5.81-3.1-.19-.37-.38-.75-.57-1.12-1.89.54-3.78,1.09-4.5,1.3-1.57-2.67-2.45-4.92-4.04-6.44-.49-.47-4.24,1.2-4.19,1.65.26,2.46,1.24,4.84,2.07,7.57-.97.62-2.79,1.77-4.61,2.93.26.44.51.88.77,1.32,2.8-1.24,5.6-2.47,9.27-4.1M625.3,809.81c-3.85-1.09-7.08-.24-7.51,4.06-.17,1.68,1.63,4.37,3.24,5.17,1.32.65,4.21-.27,5.48-1.47,2.41-2.27,1.62-4.98-1.21-7.76M780.55,802.96c4.65-1.99,9.34-3.89,13.91-6.05.79-.37,1.07-1.84,1.58-2.8-.97-.17-2.1-.76-2.88-.45-4.24,1.7-8.46,3.5-12.51,5.6-.72.37-.63,2.3-.1,3.7M840.1,898.13c-.04-3.08-1.76-2.52-3.63-1.69-3.91,1.74-7.88,3.37-11.71,5.26-.89.44-1.36,1.73-2.02,2.63,1.1.18,2.39.82,3.28.46,4.57-1.87,9.03-3.99,14.09-6.66M655.51,849.79c-3.35,6.75,4.17,6.82,6.17,11.18.46-3.36,1.03-5.76,1.07-8.16.06-3.88-2.46-5.13-7.24-3.01M448.2,1009.31q4.48-1.99,4.11-4.5c-4.77,2.11-9.54,4.22-14.31,6.33.21.61.43,1.22.64,1.83,2.91-1.1,5.83-2.19,9.56-3.65M490.64,990.44c-.28-.86-.57-1.71-.85-2.57-4.67,2.07-9.35,4.13-14.02,6.2.35.82.7,1.63,1.04,2.45,4.39-1.89,8.77-3.79,13.83-6.07M622.56,942.61l-5.27-11.92c-.63.19-1.26.38-1.89.57,1.18,3.61,2.37,7.22,3.61,11.02-3.27,1.66-6.43,3.26-10.52,5.33,1.74.62,2.25,1,2.54.88,3.77-1.61,7.5-3.3,11.52-5.88M645.57,801.43c.7-3.12-.97-2.78-2.89-1.95-4.05,1.77-8.13,3.48-12.09,5.43-.83.41-1.2,1.76-1.78,2.68,1,.03,2.12.38,2.96.04,4.39-1.81,8.7-3.8,13.8-6.2M605.74,817.17c.76,1.46,1.52,2.91,2.28,4.37.69-.27,1.38-.54,2.08-.8-1.24-3.15-2.39-6.34-3.81-9.41-.22-.48-1.65-.41-3.47-.79,1.17,2.66,1.89,4.27,2.93,6.63M645.89,857.45c-3.4,1.5-6.8,3-10.19,4.51.31.65.63,1.3.94,1.95,4.79-2.12,9.58-4.23,14.37-6.35-.11-.44-.22-.88-.32-1.31-1.31.28-2.62.55-4.79,1.21M463.73,1006.67c.69-.46,2.02-1.19,1.96-1.35-1.26-3.2-2.68-6.33-4.07-9.48-.61.21-1.23.42-1.84.63-.39,3.56,2.16,6.44,3.96,10.2M752.97,940c2.87-3.72-1.42-5.98-1.94-9.02-.11-.63-1.57-1.03-2.41-1.53-.22.28-.43.57-.65.85,1.42,3.21,2.84,6.43,4.99,9.7M584.73,826.09c-1.36.7-2.73,1.39-5.34,2.72,5.17,2.11,7.79-1.09,10.79-2.05.87-.28,1.38-1.66,2.05-2.54l-.93-1.04c-1.91.84-3.82,1.69-6.58,2.91M804.93,848.6c1.39,1.97,1.12,5.52,5.29,6.14-1.86-4.21-3.31-7.48-4.75-10.75-.44.1-.88.21-1.31.31.15,1.18.29,2.36.78,4.3M805.09,856c-1.46-6.78-3.02-9.12-7.16-8.9,2.36,3.45,4.39,6.43,7.16,8.9M604.83,821.74c-1.35-3.07-2.71-6.13-4.06-9.2-.49.08-.98.16-1.47.23.03,1.23-.42,2.84.19,3.62,1.68,2.13.34,6.57,4.86,6.5.14,0,.28-.16.49-1.16M467.54,1002.41c.74.65,1.48,1.3,2.23,1.94.19-.94.75-2,.49-2.8-.64-2.02-1.52-4-2.58-5.83-.45-.78-1.61-1.15-2.45-1.71-.33.31-.66.63-.99.94.98,2.21,1.95,4.42,3.3,7.46M752.85,928.94c1.86,2.81,1.42,7.33,5.96,8.27-.64-3.14-1.77-5.98-3.2-8.66-.26-.49-1.72-.34-2.76.4Z"/>
      <path class="cls-12" d="M170.2,400c-15.96-36.12-31.73-71.79-47.61-107.74,132.92-58.74,265.53-117.34,398.37-176.05,37.29,84.38,74.53,168.64,111.88,253.16-132.67,58.63-265.27,117.23-398.37,176.05-21.38-48.38-42.72-96.67-64.26-145.42M391.86,449.25c2.12,1.63,4.24,3.27,7.35,5.67-6.67,2.95-12.15,5.45-17.7,7.79-2.69,1.14-4.56,2.1-2.93,5.74,1.7,3.81,3.8,2.54,6.31,1.44,29.21-12.93,58.43-25.85,87.66-38.74,2.39-1.05,4.38-1.74,2.89-5.3-1.61-3.83-3.61-2.74-6.16-1.57-5.44,2.49-10.93,4.86-17.6,7.8,2.86-34.44,5.61-67.49,8.49-102.08,27.45,20.94,53.66,40.93,80.87,61.69-7.12,3.15-13.04,5.85-19.04,8.37-2.41,1.02-3.21,2.15-2.21,4.87,1.35,3.68,3.18,3.64,6.36,2.22,27.97-12.48,56.01-24.81,84.01-37.22,1.25-.55,2.39-1.37,4.08-2.35-3.86-3.16-6.91-5.03-11.49-2.72-6.46,3.26-13.25,5.86-19.82,8.91-2.64,1.22-4.57,1.2-7.12-.72-36.29-27.15-72.68-54.18-109.12-81.13-2.39-1.77-3.21-3.39-2.94-6.43,3.32-38.11,6.49-76.23,9.59-114.36.24-2.99,1.24-4.65,4.08-5.84,9.42-3.94,18.57-8.54,28.09-12.18,5.75-2.2,6.62-6.4,7.31-12.17-31.16,13.77-61.7,27.27-92.22,40.75q2.45,8.07,9.47,4.97c9.94-4.39,19.88-8.8,29.83-13.16,1.25-.55,2.59-.88,4.82-1.63-3.16,36.98-6.25,73.05-9.44,110.41-30.58-22.87-59.8-44.73-90.04-67.34,3.39-1.5,5.69-2.65,8.08-3.54,3.07-1.14,4.63-2.43,2.97-6.17-1.68-3.78-3.58-3.76-6.89-2.27-21.79,9.76-43.66,19.36-65.5,29.01-7.23,3.2-14.41,6.5-21.71,9.54-3.4,1.42-2.67,3.35-1.61,5.9,1.12,2.68,2.31,4.25,5.47,2.58,2.68-1.42,5.54-2.5,9.44-4.22-3.43,37.14-6.74,72.97-10.18,110.28-30.01-22.49-58.89-44.13-88.49-66.31,2.41-1.23,3.78-2.02,5.23-2.66,10.38-4.61,20.75-9.27,31.19-13.74,3.01-1.29,3.9-2.62,2.53-5.95-1.58-3.84-3.42-3.87-6.8-2.36-27.82,12.42-55.7,24.69-83.57,37-.9.4-2.21.6-2.58,1.3-.45.85-.38,2.99-.08,3.08,3.45,1.04,6.47,3.71,10.69,1.72,9.82-4.65,19.88-8.78,29.76-13.32,2.57-1.18,4.33-1.03,6.63.72,30.26,23.13,60.64,46.12,90.87,69.3,1.49,1.14,2.83,3.78,2.68,5.59-3.67,45.82-7.51,91.63-11.53,137.42-.15,1.75-2.01,4-3.67,4.84-6.17,3.1-12.49,5.99-18.95,8.42-4.96,1.87-6.3,5.55-6.99,10.67,1.43-.17,2.58-.05,3.49-.45,28.79-12.67,57.55-25.4,86.33-38.08,2.21-.97,2.95-2.07,1.99-4.54-1.21-3.1-2.64-4.07-5.89-2.46-5.23,2.59-10.65,4.78-17.13,7.64,2.59-33.81,5.06-66.16,7.65-99.98,25.08,18.94,48.86,36.9,73.17,55.35Z"/>
      <path class="cls-27" d="M732.35,554.23c-1.09.31-2.17.62-3.92,1.11-12.38-28.01-24.76-56.02-37.13-84.02-.49.19-.98.38-1.47.56.58,1.5,1.09,3.04,1.74,4.51,11.17,25.31,22.36,50.61,33.52,75.93.91,2.06,3.06,4.7-2.27,5.26-8.31-18.81-16.7-37.79-25.09-56.77-.52.23-1.04.45-1.56.68l2,4.52c7.26,16.42,14.49,32.85,21.79,49.24.96,2.15,1.84,4-1.93,4.73-4.45-8.94-8.35-17.75-12.24-26.57-.71.31-1.43.62-2.14.93,3.92,8.86,7.83,17.73,11.36,26.76-1.49-.59-3.05-1.11-3.6-2.16-1.81-3.46-3.18-7.14-4.87-10.67-.51-1.08-1.48-1.95-2.23-2.91-.51.29-1.03.57-1.54.86,2.37,5.88,4.75,11.77,7.12,17.65-134.14,59.3-268.29,118.59-402.43,177.88-.89.39-1.82.71-3,1.18-15.39-34.82-30.72-69.51-46.15-104.43.91-.5,1.87-1.03,3.33-1.84,12.42,28.11,24.76,56.02,37.09,83.93.48-.15.96-.3,1.44-.46-.46-1.45-.8-2.97-1.41-4.35-11.15-25.31-22.34-50.59-33.5-75.9-.85-1.93-2.87-4.22,1.68-4.79,8.81,19,17.03,37.59,25.24,56.18.56-.22,1.13-.44,1.69-.66-.49-1.4-.9-2.83-1.5-4.19-2.56-5.87-5.2-11.71-7.75-17.59-5.15-11.9-10.26-23.81-15.38-35.72,1.07-.31,2.13-.63,3.67-1.09,3.9,8.84,7.76,17.56,11.62,26.29.41-.13.81-.26,1.22-.39-.25-1.02-.36-2.11-.77-3.06-3-6.9-6.01-13.8-9.13-20.65-.95-2.08-1.4-3.7,2.03-3.99,3.28,5.35,4.16,11.43,8.28,15.49.54-.31,1.07-.61,1.61-.92-2.38-5.38-4.75-10.76-7.13-16.14,1.89-.96,3.75-2.02,5.69-2.88,132.92-58.77,265.86-117.52,399.43-176.17,15.8,34.3,30.95,68.5,46.09,102.7.26.59.34,1.26.5,1.89Z"/>
      <path class="cls-14" d="M754.12,544.65c-1.22.35-2.44.69-3.9,1.11-2.54-5.75-4.99-11.29-7.44-16.83-12.35-27.94-24.7-55.88-37.05-83.83-.91-2.06-2.52-4.28,1.79-5.13,15.35,33.45,30.12,66.76,44.87,100.09.66,1.49,1.15,3.06,1.72,4.59Z"/>
      <path class="cls-14" d="M743.28,549.44c-1.22.35-2.43.69-3.9,1.11-2.54-5.74-4.98-11.28-7.43-16.82-12.34-27.92-24.67-55.85-37.03-83.76-1.06-2.39-2.35-4.67,2.24-4.92,15.04,33.26,29.53,66.07,44,98.88.79,1.8,1.42,3.67,2.12,5.51Z"/>
      <path class="cls-15" d="M280.78,754.29c.19-1.41.92-3.05.46-4.2-2.12-5.35-4.56-10.58-6.89-15.84-11.91-26.95-23.82-53.89-35.73-80.84-.73-1.64-1.45-3.28-2.29-5.19l3.64-1.61c15.38,34.81,30.67,69.41,46.12,104.36-1.72.76-3.41,1.51-5.22,2.75-.12.5-.09.57-.09.57Z"/>
      <path class="cls-15" d="M247.1,643.56c1.1-.64,2.2-1.28,3.5-2.05,15.44,34.95,30.75,69.58,46.36,104.9-1.58.48-3.17.96-5,1.87-.24.44-.25.51.28.53.22-1.49.16-3.11-.44-4.49-4.37-10.09-8.83-20.13-13.29-30.18-10.46-23.53-20.94-47.06-31.41-70.58Z"/>
      <path class="cls-14" d="M291.72,748.79s0-.08.02-.11c-1.14.47-2.28.98-3.68,1.59-4.01-9.07-7.85-17.76-11.69-26.45-10.96-24.8-21.93-49.59-32.85-74.4-.82-1.87-3-4.25,1.72-4.64,15.88,34.97,31.18,69.49,46.49,104.01Z"/>
      <path class="cls-27" d="M688.12,448.25c2.31-1.48,3.61-.99,4.77,1.67,14.46,32.95,29.05,65.84,43.49,98.8.43.99-.43,2.55-1.31,3.79-1.47-1.83-2.36-3.59-3.16-5.39-14.61-32.95-29.2-65.91-43.8-98.87Z"/>
      <path class="cls-27" d="M698.96,443.44c2.31-1.46,3.61-.97,4.77,1.69,14.46,32.95,29.05,65.84,43.49,98.79.43.99-.43,2.55-1.31,3.79-1.4-1.68-2.23-3.29-2.96-4.94-14.67-33.11-29.33-66.22-44-99.33Z"/>
      <path class="cls-14" d="M281.95,707.13c-9.84-22.27-19.49-44.09-29.09-65.83,2.34-2.77,3.53-1.69,4.59.8,2.47,5.75,5.04,11.45,7.57,17.18,11.91,26.96,23.83,53.91,35.73,80.87.89,2.02,2.71,4.37-1.96,5.09-5.5-12.45-11.07-25.05-16.84-38.11Z"/>
      <path class="cls-27" d="M709.81,438.66c2.35-1.51,3.64-.9,4.79,1.73,14.43,32.87,28.99,65.69,43.39,98.58.46,1.05-.37,2.66-1.22,3.96-1.47-1.83-2.37-3.59-3.16-5.39-14.61-32.95-29.2-65.91-43.8-98.87Z"/>
      <path class="cls-25" d="M280.66,753.74c.11.55.08.48.12.49-2.34.52-3.65-.26-4.7-2.67-14.28-32.56-28.71-65.06-42.99-97.61-.57-1.29-.03-3.07,0-4.62,1,1.04,2.4,1.9,2.95,3.14,14.89,33.55,29.69,67.14,44.63,101.27Z"/>
      <path class="cls-29" d="M687.8,448.17c14.91,33.03,29.51,65.99,44.12,98.94.8,1.8,1.69,3.56,2.89,5.63-.25.62-.84.96-1.95,1.39-.67-.54-.75-1.21-1.01-1.8-15.14-34.2-30.29-68.4-45.74-102.93.26-.66.82-.98,1.69-1.23Z"/>
      <path class="cls-29" d="M709.5,438.58c14.91,33.03,29.5,65.99,44.11,98.95.8,1.8,1.69,3.56,2.89,5.63-.23.62-.81.95-1.88,1.38-1.06-1.43-1.55-3-2.21-4.49-14.75-33.32-29.52-66.63-44.57-100.29.26-.65.81-.95,1.66-1.18Z"/>
      <path class="cls-29" d="M698.73,443.35c14.89,33.21,29.55,66.32,44.23,99.43.73,1.65,1.56,3.26,2.69,5.18-.23.62-.81.95-1.88,1.38-1.2-1.73-1.82-3.6-2.62-5.4-14.47-32.81-28.97-65.62-43.55-98.88.23-.9.57-1.35,1.13-1.71Z"/>
      <path class="cls-29" d="M292.24,748.81c-15.83-34.53-31.14-69.05-46.54-104.03.22-.65.55-.84,1.14-1.13,10.74,23.43,21.21,46.96,31.67,70.49,4.46,10.04,8.92,20.09,13.29,30.18.6,1.38.66,3,.44,4.49Z"/>
      <path class="cls-34" d="M268.9,633.16c5.47,11.87,10.58,23.78,15.73,35.68,2.55,5.88,5.19,11.71,7.75,17.59.59,1.36,1,2.79,1.5,4.19-.56.22-1.13.44-1.69.66-8.21-18.59-16.43-37.18-24.78-56.22.3-.92.73-1.39,1.5-1.9Z"/>
      <path class="cls-30" d="M710.35,563.86c-2.83-5.86-5.2-11.75-7.58-17.63.51-.29,1.03-.57,1.54-.86.76.97,1.72,1.83,2.23,2.91,1.68,3.53,3.06,7.21,4.87,10.67.55,1.05,2.11,1.56,3.8,2.34.61.2.63.38.65.56-1.69.66-3.37,1.32-5.51,2.01Z"/>
      <path class="cls-29" d="M716.25,561.69c-.42-.02-.44-.2-.66-.57-4.11-9.05-8.03-17.91-11.95-26.78.71-.31,1.43-.62,2.14-.93,3.9,8.81,7.79,17.63,11.96,26.79-.18.68-.64,1-1.5,1.49Z"/>
      <path class="cls-30" d="M280.31,628.71c2.71,5.35,5.08,10.73,7.46,16.11-.54.31-1.07.61-1.61.92-4.12-4.06-5-10.13-7.82-15.53.03-.61.19-.76.68-.77.35-.01.39-.17.42-.32.18-.13.36-.25.87-.41Z"/>
      <path class="cls-34" d="M279.41,629.13c0,.14-.04.3-.07.24,0-.21.05-.23.07-.24Z"/>
      <path class="cls-7" d="M797.9,984.38c-.15.41-.3.47-.68.64-1.4-.52-2.57-1.15-4.02-1.92,1.18-1.14,2.29-2.21,3.97-3.83.31,2.05.52,3.41.73,5.11Z"/>
      <path class="cls-18" d="M307.19,815.67c88.93-39.35,177.48-78.5,266.03-117.65,69.28-30.62,138.56-61.23,207.84-91.85,6.91-3.06,7.86-2.72,10.83,3.99,9.59,21.68,19.18,43.37,28.75,65.06,2.7,6.11,2.15,7.5-3.9,10.17-157.08,69.42-314.17,138.84-471.25,208.26-6.52,2.88-6.94,2.7-9.88-3.96-9.85-22.29-19.69-44.59-29.57-66.86-1.13-2.55-2.11-4.94,1.16-7.17M489.61,826.14c109.72-48.49,219.44-96.97,329.19-145.47-10.91-24.7-21.58-48.83-32.21-72.88-159.72,70.58-319.08,141.01-478.45,211.44,10.79,24.42,21.4,48.44,32.21,72.88,49.64-21.94,99-43.75,149.26-65.96Z"/>
      <path class="cls-4" d="M535.3,923.68c-5.61,5.18-12.55,5.68-16.97,1.47-4.47-4.25-4.54-11.28-.17-15.98,3.58-3.86,10.28-4.76,14.45-1.96,5.02,3.38,6.19,9.79,2.69,16.46M524.47,916.44l-2.38-5.38c-.48-.04-.96-.08-1.43-.12-.95,2.56-1.91,5.13-2.86,7.69.38.26.76.52,1.15.78,1.7-.75,3.41-1.51,5.53-2.97M525.98,919.94c-2.07.61-4.14,1.22-6.21,1.83-.06.6-.11,1.2-.17,1.8,2.77.85,5.54,1.7,8.78,2.7-.22-1.42-.21-1.77-.33-2.06-.5-1.21-1.04-2.4-2.07-4.28M527.09,908.56q-2.6,1.08.69,6.3l5.88-2.6c-2.4-1.48-4.09-2.52-6.57-3.7M533.88,921.13c.26-1.66.51-3.31.84-5.4l-5.8,2.56,2.69,6.08c.83-1.07,1.39-1.8,2.28-3.24Z"/>
      <path class="cls-4" d="M394.87,974.81c2.7,6.03,1.22,11.08-4.18,14.25-4.46,2.62-11.49,1.48-14.32-2.32-3.85-5.17-3.3-11.99,1.28-15.97,4.59-3.99,11.03-3.62,16.12,1.56.55,1.26.83,1.87,1.1,2.48M378.96,974.64c-.71,2.16-1.42,4.33-2.45,7.46,3.18-1.41,5.11-2.26,8.29-3.66-2.21-1.83-3.73-3.09-5.84-3.8M380.94,983.27c-.6.86-1.19,1.73-1.79,2.59,2.51.89,5.03,1.78,7.54,2.67.18-.46.36-.91.54-1.37-1.64-1.66-.46-6.71-6.29-3.89M386.92,977.18l6.21-2.74c-3.86-1.73-6.33-2.84-10.05-4.52,1.49,3.37,2.27,5.14,3.84,7.26M389.14,984.05c.42.74.84,1.49,2.03,3.59,1.15-3.92,1.9-6.45,2.64-8.98-2.94.86-7.32.01-4.66,5.39Z"/>
      <path class="cls-10" d="M523.69,1048.62c-2.59-.65-5.54-.99-8.44-1.57-1.3-.26-3.39-.78-3.56-1.53-.27-1.25.44-2.95,1.23-4.13,1.6-2.37,3.53-4.52,4.78-7.46-2.47,1.09-4.9,2.31-7.45,3.2-.74.26-1.8-.43-2.72-.69.51-.69.87-1.69,1.54-2,5.2-2.41,10.47-4.69,16.77-7.47-.1,8.05-6.74,11.31-9.33,16.67,5.74,1.67,12.58-1.04,18.41,4.22-6.68,2.95-12.47,5.51-18.44,8.15-1.8-2.04-1.96-3.53.99-4.6,2.01-.73,3.92-1.71,6.21-2.79Z"/>
      <path class="cls-33" d="M863.85,880.98c-2.81.55-5,3.86-8.52.75,6.56-2.9,12.48-5.52,19.33-8.54-.2,7.57-6.59,10.9-9.46,16.33,5.85,1.73,12.83-1.03,18.6,4.27l-18.31,8.09c-1.88-3.28-1.89-3.31,1.2-4.75,2.03-.95,4.09-1.82,6.07-3.6-3.16-.17-6.33-.23-9.49-.52-3.65-.34-4.46-2.23-2.21-5.19,1.86-2.45,3.88-4.78,6.65-8.17-1.92.66-2.71.92-3.87,1.36Z"/>
      <path class="cls-36" d="M765.45,864.21c-.93,3.33-1.78,6.33-2.75,9.77,3.64,1.98,7.28,3.96,10.93,5.94-.18.56-.36,1.12-.54,1.68-3.02-.76-6.04-1.52-9.53-2.39.29.99.83,1.79.65,2.36-.6,1.91-.95,4.33-2.31,5.47-2.61,2.2-5.31.49-6.55-1.92-2.48-4.8-4.42-9.87-6.43-14.9-.24-.6.49-1.59.77-2.4.85.5,2.1.8,2.47,1.54,1.75,3.53,3.21,7.2,4.89,10.77.63,1.33,1.57,2.51,2.37,3.77.59-.25,1.17-.49,1.76-.74-2.21-5.9-4.43-11.81-6.64-17.71.68-.24,1.35-.47,2.03-.71.92,1.57,1.83,3.14,3.19,5.46,1.4-3.14,2.6-5.85,4.31-9.69.75,1.71,1.12,2.53,1.4,3.7Z"/>
      <path class="cls-2" d="M502.24,984.4c-1.02-3.78-.15-6.42,3.44-7.29,3.38-.82,5.56.92,6.86,4.06,1.63,3.94,3.43,7.82,5.16,11.73-.6.31-1.2.62-1.8.93-.88-1.26-1.91-2.44-2.6-3.79-1.26-2.49-2.11-5.2-3.53-7.58-.57-.95-2.19-1.27-3.33-1.88-.18,1.16-.78,2.45-.47,3.45.73,2.34,1.95,4.52,2.89,6.79,1.34,3.25,1.04,6.39-2.31,7.96-3.65,1.72-6.2-.21-7.71-3.71-1.68-3.89-3.42-7.75-5.13-11.63.32-.32.63-.64.95-.96.9.6,2.21.99,2.64,1.83,1.58,3.06,2.71,6.36,4.36,9.37.52.94,2.17,1.25,3.3,1.84.17-1.17.76-2.46.44-3.47-.79-2.49-2-4.85-3.15-7.66Z"/>
      <path class="cls-2" d="M568.29,958.95c-1.47-1.59-2.76-2.75-4.05-3.92-.03,1.73-.42,3.54,0,5.15.57,2.2,2.47,4.23,2.48,6.34,0,2.27-.92,5.4-2.56,6.55-1.28.89-5.46.03-6.29-1.32-2.67-4.35-4.38-9.29-6.47-14.01.44-.31.87-.61,1.31-.92.8.83,1.86,1.54,2.36,2.52,1.54,3.08,2.72,6.35,4.37,9.36.43.79,2.05.92,3.12,1.36.22-1.01.86-2.16.58-3.01-.83-2.48-2.03-4.84-3.08-7.24-1.44-3.28-1.32-6.21,2.35-7.83,3.52-1.55,6.02,0,7.53,3.28,1.83,3.98,3.56,8.01,4.76,12.36-4.78-.78-4.15-5.56-6.41-8.69Z"/>
      <path class="cls-2" d="M824.28,836.83c5.25-3.23,7.58-2.59,9.88,2.46,1.72,3.78,3.37,7.6,5.05,11.4-.49.33-.98.65-1.47.98-.88-.96-2.01-1.78-2.58-2.9-1.42-2.77-2.44-5.75-3.92-8.49-.49-.91-1.88-1.33-2.86-1.97-.32,1.25-1.16,2.65-.85,3.72.72,2.5,2.75,4.81,2.85,7.26.1,2.48-.76,6.05-2.51,7.3-2.71,1.93-5.55.09-6.97-3.05-1.86-4.13-3.67-8.28-5.5-12.42l1.12-.92c.81.65,1.93,1.14,2.36,1.98,1.48,2.92,2.54,6.08,4.15,8.92.62,1.09,2.29,1.58,3.49,2.35.14-1.31.65-2.73.33-3.91-.56-2.04-1.94-3.86-2.42-5.9-.49-2.09-.3-4.34-.15-6.81Z"/>
      <path class="cls-18" d="M692.88,960.24c-.13-1.64-.09-2.87-.04-4.1.85.83,1.98,1.51,2.5,2.51,1.29,2.47,2.1,5.21,3.53,7.58.76,1.27,2.41,2.01,3.66,3,0-1.61.35-3.32-.06-4.82-.6-2.2-1.95-4.18-2.62-6.36-.94-3.04-.96-5.88,2.9-7.14,3.43-1.12,5.71.16,7.13,3.22,1.83,3.96,3.54,7.97,5.3,11.95-.45.32-.89.65-1.34.97-.88-.89-2.05-1.64-2.59-2.7-1.5-2.92-2.59-6.05-4.16-8.92-.45-.82-2.02-1.02-3.08-1.5-.25,1.02-.95,2.18-.68,3.03.73,2.34,1.85,4.56,2.84,6.81,1.47,3.35,1.67,6.59-2.11,8.36-3.8,1.77-6.13-.39-7.61-3.82-1.1-2.57-2.25-5.11-3.56-8.07Z"/>
      <path class="cls-18" d="M734.83,958.62c-1.58.13-2.75.08-3.91.03-.04-.49-.08-.99-.13-1.48,1.92-1.08,3.83-2.15,5.98-3.36-1.77-3.99-3.46-7.84-5.23-11.85-2.41.48-4.8.96-7.18,1.44-.09-.52-.18-1.03-.26-1.55,5.38-2.38,10.76-4.75,16.14-7.13.32.47.64.94.96,1.42-1.95,1.32-3.89,2.64-6.01,4.07,1.71,3.86,3.42,7.73,5.05,11.44,2.59,1.59,5.46-3.9,8.27.93-4.65,2.05-8.95,3.96-13.68,6.05Z"/>
      <path class="cls-2" d="M721.05,881.84c2.75-1.07,5.07-1.96,7.4-2.84.21.33.43.66.64.99-.45.68-.77,1.8-1.37,1.97-4.83,1.39-5.16,4.08-2.77,8,1.19,1.94,1.9,4.17,3.06,6.79,1.64-.58,3.09-1.33,4.61-1.56,1.02-.16,2.16.41,3.24.65-.56.83-.94,2.03-1.72,2.41-3.84,1.87-7.76,3.6-11.72,5.19-.81.32-1.94-.17-2.92-.28.49-.97.77-2.21,1.54-2.85.96-.8,2.33-1.12,3.84-1.79-1.86-4.21-3.61-8.18-5.49-12.43-2.04.69-4.14,1.41-7.29,2.48,1.45-5.2,5.99-4.6,8.96-6.73Z"/>
      <path class="cls-36" d="M463.5,938.92c8.37,1.61,9.21,5.09,4.07,15.79-4.33-1.06-9.51-.42-11.17-6.42-1.3-4.68,2.48-10.09,7.1-9.37Z"/>
      <path class="cls-36" d="M441.98,1068.7c3.5.91,7.26,1.33,9.75,3.33,2.45,1.98,2.35,5.55.28,8.51-.87,1.25-1.52,2.65-2.27,3.98-12.44-.81-14.42-8.43-7.76-15.83Z"/>
      <path class="cls-2" d="M609.49,808.01c2.23,3.89,4.36,7.62,5.8,11.59,1.7,4.67-.3,8.99-4.56,11.2-4.73,2.46-9.25,1.73-12.1-2.7-2.2-3.41-3.65-7.33-5.24-11.09-.26-.61.44-1.63.7-2.46.87.47,2.16.73,2.55,1.46,1.45,2.75,2.71,5.62,3.85,8.52,1.66,4.22,4.79,4.73,8.39,3.18,3.72-1.6,5.05-4.47,3.27-8.41-1.35-2.99-2.72-5.99-3.88-9.05-.22-.58.52-1.52,1.22-2.24Z"/>
      <path class="cls-18" d="M697.71,853.88c-2.97-1.23-1.93-2.24-.07-3.09,3.45-1.56,6.94-3.02,10.37-4.61,4.09-1.89,5.98-6.57,4.4-10.67-1.58-4.1-6.79-6.65-10.96-5.12-3.08,1.13-6.01,2.68-9.06,3.9-1.29.51-2.74.64-4.12.95-.24-.7-.47-1.4-.71-2.09,5.75-2.16,11.35-5.07,17.29-6.23,4.59-.9,9.65,4.49,10.48,9.3,1.08,6.27-.94,10.34-6.38,12.77-3.61,1.61-7.23,3.19-11.24,4.89Z"/>
      <path class="cls-37" d="M739.78,894.81c-.83-.63-1.96-1.62-1.78-2.21.66-2.15,1.76-4.16,2.8-6.44-3.2-1.42-5.87-2.59-8.53-3.77q1.06-2.46,9.67-.15c1.29-2.67,2.6-5.41,4.38-9.1,3.41,5.65,6.47,10.44,6.8,17.2-3.51-1.16-6.27-2.07-9.43-3.12-1.23,2.54-2.41,4.97-3.9,7.59Z"/>
      <path class="cls-2" d="M866.21,817.99c.99-3.1,2.31-3.46,3.61-.63,2.06,4.46,4.02,8.97,5.96,13.49,1.17,2.74.91,5.2-2.03,6.66-3.13,1.55-5.59.19-6.96-2.57-2.47-4.97-4.55-10.13-6.8-15.21.3-.42.59-.84.89-1.26,1.13.64,2.77,1.01,3.3,1.98,1.65,3.01,2.84,6.26,4.29,9.38.63,1.36,1.46,2.63,2.19,3.95.6-.25,1.21-.5,1.81-.75-2.05-4.87-4.1-9.74-6.26-15.03Z"/>
      <path class="cls-2" d="M713.77,904.07c-.79,2.86-1.6,5.33-4.82,6.4-3.73,1.24-7.21,3.22-10.89,4.64-1.18.45-2.64.16-3.98.2.82-1.13,1.59-2.3,2.49-3.35.4-.47,1.09-.69,2.28-1.39-3.55-2.3-6.77-4.39-9.99-6.48.2-.51.4-1.02.59-1.52,4.44-.32,7.62,3.61,11.82,4.76,1.25-3.98,2.51-7.99,3.77-12,.65.19,1.3.39,1.95.58-.62,3.75-1.24,7.49-2.07,12.47,3.57-1.58,6.26-2.77,8.94-3.99.02-.01-.18-.52-.27-.79.04.09.07.18.18.46Z"/>
      <path class="cls-18" d="M414.09,1040.67c-3.83.98-6.66,4.46-10.49,3.23-.18-.53-.35-1.07-.53-1.6,3.97-1.75,7.96-3.48,11.91-5.27,4.55-2.07,6.46-6.52,4.74-10.87-1.85-4.68-7.01-7.03-11.72-5.18-3.82,1.5-7.56,3.2-11.35,4.77-.22.09-.58-.16-.89-.25-.13-.29-.45-.73-.36-.85,3.84-5.15,16.9-8.72,21.56-5.84,4.23,2.62,6.58,6.33,6.13,11.48-.47,5.39-3.48,8.67-8.99,10.39Z"/>
      <path class="cls-10" d="M488.56,1059.09c.15,2.67.59,4.99.29,7.21-.12.88-2.66,2.31-2.81,2.17-5.65-5.51-11.15-11.16-16.67-16.8.43-.53.86-1.06,1.29-1.59,2.22,1.49,4.45,2.99,6.98,4.69l6.49-2.87c.44-2.91.86-5.66,1.28-8.42.77.03,1.55.07,2.32.1.27,5.04.54,10.09.82,15.52M485.36,1060.27c-.2-1.4-.4-2.8-.64-4.43l-5.33,2.36c2.1,2,3.83,3.63,6.07,5.76-.08-1.65-.12-2.29-.1-3.68Z"/>
      <path class="cls-37" d="M779.19,812.47c-.79,4.63-3.17,7.35-7.33,8.78-3.09,1.06-5.98,2.7-9.05,3.87-.96.36-2.19.02-3.29,0-.09-.51-.18-1.03-.27-1.54,3.99-1.76,7.99-3.5,11.96-5.29,4.68-2.12,6.47-6.29,4.67-10.78-1.87-4.66-6.54-6.85-11.21-5.07-3.06,1.17-5.98,2.71-9.04,3.89-1.25.48-2.7.44-4.07.64-.09-.44-.18-.88-.28-1.31,5.41-2.39,10.63-5.81,16.29-6.9,6.08-1.17,13.11,6.43,11.6,13.73Z"/>
      <path class="cls-2" d="M668.03,986.23c-1.28,5.47-4.56,1.36-6.17,1.2-5.66-.56-7.94-6.61-5.11-11.56,2.39-4.17,5.76-4.24,9.46-2.59,3.77,1.68,5.27,4.83,4.16,8.86-.37,1.35-1.41,2.53-2.35,4.09M659.54,977.24c-1.77,5.42-1.22,6.5,3.81,6.95-1.06-2.41-2.08-4.7-3.81-6.95Z"/>
      <path class="cls-18" d="M572.29,834.25q3.84,5.43-1.26,14.17c-1.32-.22-2.96-.06-4.06-.77-2.45-1.57-6.24-3.34-6.52-5.43-.41-3.07,1-7.23,3.16-9.44,1.15-1.18,5.49.73,8.68,1.47M571.79,837.83c-1.31-.76-2.61-1.52-4.78-2.79l3.5,7.92c.34-.02.68-.04,1.03-.06.17-1.46.34-2.92.26-5.07Z"/>
      <path class="cls-5" d="M781.36,870.89c-1.24-2.85-2.52-5.18-3.27-7.68-.46-1.54-.11-3.32-.13-5,1.1,1.1,2.54,2.03,3.24,3.35,1.6,3.02,2.84,6.23,4.64,10.32,3.4-2,6.38-3.92,9.54-5.49.82-.41,2.18.3,3.3.49-.26,1.01-.23,2.65-.84,2.94-6.69,3.23-13.47,6.29-20.28,9.26-.65.28-1.69-.33-2.54-.53.38-.92.53-2.06,1.19-2.7,1.66-1.63,3.55-3.03,5.17-4.97Z"/>
      <path class="cls-37" d="M808.58,841.99c4.22,2.42,8.32,13.27,6.94,17.23-2.19,6.26-10.73,8.6-15.25,3.82-3.87-4.09-5.51-9.36-6.3-14.77.61-.26,1.22-.52,1.83-.79,1.52,3.44,2.95,6.93,4.59,10.32,2.12,4.39,5.5,5.32,9.68,2.86,2.8-1.65,3.83-3.81,2.51-7-1.55-3.75-2.89-7.59-4.01-11.69Z"/>
      <path class="cls-36" d="M654.95,933.09c-1.28.45-3.31.99-3.51.59-2.87-5.5-6.65-3.76-10.59-1.63-.55.3-1.22.39-3,.93.68-4.2,1.17-7.82,1.96-11.37.1-.46,2.5-.99,2.64-.76,3.67,6.12,8.4,4.18,14.2.7-.65,4.59-1.13,7.89-1.7,11.53Z"/>
      <path class="cls-17" d="M461.27,1007.75c2.04,4.9,5.33,4.92,9.06,3.12,3.92-1.88,4.42-4.83,2.59-8.58-1.61-3.3-3-6.71-4.72-10.6,1.55-.01,2.61-.2,2.68,0,1.99,5.09,4.7,10.12,5.4,15.4.3,2.26-3.18,5.81-5.78,7.46-3.02,1.93-7.15,1.4-9.26-1.88-2.86-4.44-4.92-9.39-7.32-14.12.8-.4,1.6-.79,2.4-1.19,1.59,3.32,3.17,6.65,4.94,10.38Z"/>
      <path class="cls-37" d="M667.33,846.73c2.07-6.31,5.1-8.91,10.55-9.05,4.53-.11,8.79.59,11.15,7.55,1.2,3.56,2.99,6.91,4.51,10.36-.68.3-1.36.61-2.04.91-1.51-3.42-3-6.84-4.54-10.25-2.38-5.3-7.18-7.32-11.96-5.05-4.56,2.16-5.67,6.09-3.24,11.62,1.53,3.48,3.07,6.95,5.01,11.33-4.26-1.73-8.76-10.79-9.44-17.42Z"/>
      <path class="cls-4" d="M742.59,932.85c.86-2.9,2.01-2.56,3.01-.48,1.28,2.67,2.39,5.42,3.63,8.11,1.96,4.26,4.69,5.41,8.64,3.72,4.18-1.79,5.09-4.19,3.2-8.69-1.15-2.73-2.46-5.4-3.53-8.15-.31-.8-.08-1.82-.09-2.74.67-.18,1.34-.37,2.02-.55,1.81,5.19,4.28,10.26,5.22,15.6.74,4.26-3.09,7.48-7.97,8.51-4.59.97-7.64-1-9.56-4.96-1.58-3.26-2.95-6.62-4.56-10.36Z"/>
      <path class="cls-33" d="M898.52,875.34c-.07,2.1.09,4.24-.28,6.28-.36,1.97-1.28,3.84-1.96,5.75-1.6-1.11-3.11-2.4-4.83-3.26-1.12-.55-2.66-.87-3.82-.57-1.98.51-3.82,1.58-7,2.99.71-5.14,1.26-9.11,1.8-13.07.37-.37.74-.74,1.11-1.11,4.03,6.04,8.77,7.27,14.65,3.16.39-.18.34-.18.34-.18Z"/>
      <path class="cls-37" d="M780.54,917.38c2.21-5.62,6.27-7.79,11.72-7.7,5.11.09,8,2.9,9.64,7.62,1.24,3.58,3.02,6.98,4.56,10.46-.67.33-1.34.65-2.01.98-1.7-3.84-3.42-7.67-5.08-11.52-1.6-3.72-4.75-4.97-8.38-4.71-3.69.27-6.72,2.14-7.41,6.06-.31,1.78.16,3.87.82,5.62,1.43,3.78,3.21,7.43,5,11.49-4.22-.62-9.44-11.92-8.86-18.3Z"/>
      <path class="cls-21" d="M549.42,1036.96c-.71,1.77-1.33,3.17-1.95,4.57-1.29-.76-2.95-1.24-3.78-2.35-1.72-2.31-3.43-2.62-5.82-1.21-1.49.88-3.17,1.44-6.07,2.72.76-5.17,1.34-9.14,1.92-13.12.35-.34.71-.69,1.06-1.03,4.18,6,9.05,7.52,15.54,2.01-.37,3.66-.59,5.85-.9,8.4Z"/>
      <path class="cls-4" d="M482.49,881.25c-.15.85-.14,1.37-.29,1.82-.7,2.08-1.45,4.15-2.18,6.22-1.6-1.26-3.08-2.71-4.83-3.69-1.07-.6-2.65-.91-3.81-.61-2,.51-3.85,1.6-7.02,3,.83-5.1,1.48-9.06,2.35-14.38,3.06,2.89,5.01,4.72,7.23,6.81,2.54-1.12,5.22-2.31,8.56-3.78.03,1.82.05,3.04-.01,4.61Z"/>
      <path class="cls-37" d="M427.93,902.75c2.33,1.29,4.39,2.34,6.44,3.4-.13.24-.25.48-.38.72-4.07-.05-8.66-1.28-12.07.19-3.26,1.4-5.31,5.62-8.92,9.8.78-4.05,1.3-6.8,1.86-9.7-2.39-1.24-4.77-2.48-7.14-3.72.1-.32.19-.64.29-.96,4,.26,8.04,1.01,11.99.66,5.46-.48,4.7-6.77,7.49-9.85l1.41.39c-.42,2.94-.83,5.89-.97,9.07Z"/>
      <path class="cls-4" d="M361.02,930.38c-.98-2.21-1.76-3.99-2.59-5.86-2.78.65-5.25,1.23-7.72,1.81-.13-.53-.26-1.07-.39-1.6l16.25-7.18c.29.4.58.8.87,1.2-1.91,1.42-3.82,2.84-5.93,4.4l5.38,12.18c1.52-.67,2.79-1.42,4.16-1.77.91-.24,1.97.09,2.96.17-.48.84-.75,2.11-1.47,2.46-3.99,1.94-8.06,3.74-12.18,5.39-.78.31-1.91-.23-2.88-.38.55-.81.93-1.87,1.69-2.37,1.21-.81,2.66-1.25,4.64-2.12-.93-2.1-1.76-3.99-2.79-6.31Z"/>
      <path class="cls-21" d="M620.08,1006.88c.01-.94-.1-2.04-.69-2.45-2.67-1.85-5.47-3.52-8-5.79,5.03-1.66,8.06,3.13,12.31,3.87,1.15-4.05,2.3-8.1,3.46-12.15.64.15,1.28.31,1.92.46-.55,4.01-1.1,8.01-1.72,12.54,2.62-.9,4.69-1.61,6.76-2.32l.85.81c-.53.85-.85,2.02-1.61,2.51-6.04,3.85-14.94,6.62-18,5.09,1.76-.97,3.07-1.69,4.71-2.57Z"/>
      <path class="cls-17" d="M461.91,1070.36l-3.49-7.9c-2.74.71-5.03,1.3-7.33,1.89-.14-.47-.28-.94-.42-1.41l16.38-7.24c.29.41.57.82.86,1.23-2.01,1.31-4.02,2.61-6.3,4.1,1.74,3.95,3.5,7.91,5.32,12.04.81-.19,1.41-.4,2.03-.47,1.84-.18,3.68-.31,5.52-.46-1.53,1.18-2.93,2.6-4.61,3.48-2.91,1.52-5.96,2.8-9.03,3.99-.85.33-1.98-.06-2.98-.11.6-.93,1.02-2.08,1.84-2.72,1-.78,2.34-1.11,3.91-1.81-.55-1.52-1.04-2.85-1.71-4.61Z"/>
      <path class="cls-21" d="M734.39,834.31c1.69-.64,3.04-1.12,4.38-1.61.29.26.59.51.88.77-.49.86-.79,2.21-1.51,2.5-5.59,2.25-10.8,5.76-16.78,6.81-.27-.66-.54-1.32-.81-1.99,1.75-.95,3.49-1.9,5.85-3.19-3.68-2.38-7.14-4.62-10.59-6.86.29-.62.58-1.23.87-1.85,3.85,1.73,7.71,3.45,11.91,5.33,1.08-4.09,2.16-8.15,3.23-12.2l2.27.53c-.56,3.18-1.25,6.35-1.6,9.55-.08.72,1.02,1.56,1.91,2.2Z"/>
      <path class="cls-21" d="M475.76,929.18c4.85-2.14,9.29-4.11,13.74-6.07.37.6.74,1.2,1.11,1.8-1.97,1.32-3.94,2.64-6.24,4.18l5.24,11.86c2.46-.52,5-1.05,7.54-1.59.1.57.2,1.14.3,1.71-5.45,2.41-10.9,4.82-16.35,7.22-.36-.47-.72-.93-1.07-1.4,1.98-1.41,3.96-2.82,6.16-4.39l-5.36-12.14c-1.54.59-2.98,1.29-4.51,1.66-.8.2-1.74-.18-2.62-.3.55-.79,1.11-1.58,2.06-2.55Z"/>
      <path class="cls-17" d="M816.94,917.46c2.07-.12,3.87-.76,5.72-1.05.71-.11,1.55.56,2.32.87-.34.64-.53,1.62-1.06,1.87-4.3,2.02-8.65,3.96-13.05,5.76-.63.26-1.61-.35-2.43-.55.39-.76.58-1.82,1.2-2.21,1.35-.85,2.91-1.36,4.65-2.14-1.9-4.3-3.66-8.29-5.47-12.38-2.36.56-4.74,1.13-7.12,1.69-.13-.47-.26-.95-.39-1.42,5.37-2.37,10.74-4.75,16.11-7.12.3.39.6.79.9,1.18-1.94,1.32-3.89,2.65-6.4,4.36,1.5,3.4,3.13,7.08,5,11.14Z"/>
      <path class="cls-21" d="M569.05,1018.21c3.08,1.58,5.84,3.01,8.91,4.6,1.26-4.12,2.5-8.19,3.75-12.27l1.87.51c-.61,4.02-1.23,8.05-1.96,12.86,2.05-.91,3.43-1.7,4.92-2.1.68-.18,1.57.4,2.37.63-.43.73-.68,1.84-1.31,2.14-4.45,2.11-8.94,4.13-13.5,5.97-.93.37-2.21-.13-3.33-.24.72-.86,1.34-1.85,2.2-2.55.72-.58,1.72-.82,3.38-1.55-3.99-2.56-7.44-4.79-10.9-7.01.12-.38.24-.76.37-1.14.97,0,1.93,0,3.22.14Z"/>
      <path class="cls-21" d="M636.74,990.57c-2.35-1.09-4.4-2.02-6.44-2.95.08-.39.16-.79.24-1.18,4.09.29,8.79,1.96,12.11.49,3.39-1.49,5.44-6.05,9.13-10.55-.7,4.15-1.19,6.99-1.71,10.09,2.27,1.15,4.54,2.31,6.8,3.46-.05.28-.1.56-.16.85-4.14-.06-8.82-1.37-12.25.16-3.34,1.49-5.39,5.87-8.76,9.86.56-4.17.95-7.12,1.04-10.24Z"/>
      <path class="cls-21" d="M553.49,838.35c.95.12,2.4.66,2.35.95-.37,2.25-1.03,4.46-1.69,7.02,2.49,1.22,4.95,2.43,7.41,3.63-.14.26-.28.53-.43.79-4.09-.07-8.71-1.35-12.13.13-3.3,1.43-5.38,5.7-9.02,9.92.73-4,1.25-6.84,1.78-9.7-2.31-1.27-4.72-2.59-7.14-3.91-.03-.62-.05-1.24-.08-1.87,8.73,3.58,16.29,4.41,18.94-6.96Z"/>
      <path class="cls-17" d="M448.95,948.02c.81-1.69,1.51-3.03,2.21-4.36.5.15,1.01.3,1.51.45-.54,2.83-1.08,5.65-1.66,8.7,2.34,1.18,4.74,2.4,7.15,3.61-.08.37-.16.75-.25,1.12-3.97-.31-7.97-1.1-11.9-.82-5.59.39-4.77,6.74-7.61,9.79-.47-.12-.95-.24-1.42-.36.43-2.8.87-5.6,1.35-8.7-2.25-1.19-4.55-2.42-6.86-3.65.04-.51.09-1.01.13-1.52,6.34.79,13.76,5.47,17.35-4.27Z"/>
      <path class="cls-33" d="M435.12,969.6c-4.91,2.46-9.52,4.64-14.23,6.58-1.12.46-2.55.14-3.84.18.8-.96,1.52-1.99,2.42-2.84.54-.51,1.34-.73,2.56-1.36-3.76-2.57-7.11-4.86-10.46-7.15.33-.58.66-1.15.98-1.73,3.79,1.81,7.59,3.61,11.69,5.57,1.06-4,2.16-8.16,3.26-12.32.7.16,1.39.32,2.09.48-.57,3.99-1.15,7.99-1.69,11.77,2.68,1.72,5.23-4.53,7.21.83Z"/>
      <path class="cls-4" d="M615.92,880.56c-.35,2.11-.65,3.85-1.07,6.26,1.7-.61,2.81-1.18,3.98-1.39,1.09-.19,2.24,0,3.36.02-.79.96-1.38,2.32-2.39,2.82-3.97,1.96-8.05,3.73-12.16,5.39-1,.4-2.29.1-3.44.12.74-.97,1.39-2.03,2.25-2.88.54-.53,1.39-.74,2.73-1.41-3.73-2.55-7.08-4.84-10.44-7.13.3-.57.59-1.15.89-1.72,3.9,1.81,7.79,3.61,11.77,5.46,1.05-3.88,2.18-8.05,3.32-12.22.64.14,1.28.29,1.91.43-.22,1.97-.44,3.93-.72,6.27Z"/>
      <path class="cls-33" d="M531.37,861.59c1.43.3,2.96.18,4.49.17.84,0,1.67.17,2.51.26-.44.82-.67,2.07-1.34,2.4-4.28,2.06-8.62,4.01-13.03,5.77-1.02.41-2.4-.08-3.61-.15.77-.83,1.46-1.74,2.34-2.44.61-.49,1.46-.69,3.01-1.37-3.92-2.62-7.35-4.92-10.78-7.21.34-.6.69-1.19,1.03-1.79,3.83,1.82,7.65,3.65,11.7,5.57,1.07-3.88,2.19-7.98,3.32-12.09.63.09,1.27.19,1.9.28-.48,3.41-.96,6.83-1.54,10.62Z"/>
      <path class="cls-18" d="M853.98,889.73c1.64,1.57,4.02,3.22,3.86,4.59-.23,2.01-2.26,3.81-4.57,5.26.18.76.56,1.54.5,2.29-.07,1.08-.45,2.15-.7,3.22-.8-.65-1.94-1.14-2.35-1.98-1.79-3.69-3.52-7.42-4.96-11.25-.53-1.41-.23-3.14-.31-4.72,1.28.93,2.57,1.86,4.46,3.23.62-.11,2.14-.39,4.07-.63Z"/>
      <path class="cls-21" d="M514.63,979.79c4.07-2.77,8.29-5.23,12.51-7.69.36.41.72.81,1.08,1.22-.83,3.54-1.66,7.09-2.49,10.63.41.1.81.21,1.22.31,1.01-1.64,2.01-3.27,3.02-4.91.39.19.79.39,1.18.58-1.45,3.33-2.91,6.66-5.03,11.52-1.52-7.25-6.32-9.44-11.5-11.67Z"/>
      <path class="cls-18" d="M539.35,980.52c1.5-.77,2.62-1.36,4-2.1-1.63-3.7-3.26-7.09-4.61-10.59-.43-1.12-.14-2.51-.17-3.78.94.8,2.26,1.41,2.77,2.42,1.75,3.49,3.23,7.12,4.94,10.99,2.38-1.05,4.27-2.07,6.28-2.68.77-.23,1.82.48,2.75.77-.36.75-.53,1.92-1.12,2.2-5.2,2.43-10.45,4.77-15.77,6.95-.63.26-1.73-.64-2.6-1,1.05-1,2.1-2.01,3.54-3.18Z"/>
      <path class="cls-21" d="M851.83,840.53c-1.22,2.89-2.34,5.42-3.45,7.94-.55.02-1.1.04-1.65.07-1.11-6.44-5.78-8.9-11.25-11.48l14.09-6.23c-.96,3.98-1.83,7.54-2.69,11.1.39.15.78.29,1.16.44,1.05-1.6,2.1-3.2,3.83-5.83.03,2,.04,2.81-.06,3.99Z"/>
      <path class="cls-21" d="M673.74,911.19c-1-.67-1.59-1.5-2.19-2.34,2.92-.91,5.38-4.26,8.98-1.59,4.1,3.04,8.26,5.99,12.4,8.98-.34.56-.68,1.11-1.03,1.67-1.91-.83-3.83-1.66-5.76-2.49-.96,6.3-2.08,7.34-8.91,8.36-.28-.38-.55-.76-.83-1.14,1.99-1.3,3.99-2.61,5.98-3.92-.82-8.15-2.75-9.94-8.65-7.53Z"/>
      <path class="cls-21" d="M518.19,870.57c-.45.77-1.32,1.87-1.78,1.71-1.36-.45-2.56-1.4-4.3-2.43.39,6.18-3.5,7.96-8.21,8.9-.3-.37-.61-.75-.91-1.12,1.71-1.38,3.42-2.76,5.83-4.7-1.15-2.6-2.52-5.69-3.74-8.47-.89-.07-1.06-.12-1.22-.09-2.06.35-4.11.72-6.16,1.08.17-.69.22-1.93.54-2,2.69-.62,5.98-2.21,8.04-1.25,4.23,1.97,7.82,5.33,11.91,8.36Z"/>
      <path class="cls-4" d="M630.99,810.14c5.41-2.46,10.47-4.7,16.67-7.44-1.51,5.3-2.77,9.72-4.34,15.25-4.5-2.7-8.59-5.15-12.33-7.82Z"/>
      <path class="cls-4" d="M813.01,794.31c-1.22-1.79-2.29-3.19-3.31-4.52-.5.06-.82.09-1.13.15-1.89.33-3.78.67-5.68,1.01.03-.6-.09-1.65.12-1.72,2.53-.84,5.79-2.9,7.55-2.02,4.83,2.42,9.03,6.08,13.48,9.26-.23.51-.46,1.01-.69,1.52-1.99-.71-3.98-1.43-5.95-2.14-1.3,6.66-5.41,9.78-9.51,6.55,1.98-1.05,3.8-2.01,5.89-3.12-.2-1.45-.41-3.01-.77-4.97Z"/>
      <path class="cls-33" d="M796.47,801.97c-.94,3.14-1.75,5.94-2.72,9.3-4.59-2.09-8.83-4.01-13.71-6.23,6.02-2.66,11.5-5.08,17.52-7.74-.37,1.66-.66,2.99-1.08,4.67Z"/>
      <path class="cls-4" d="M454.55,1012.04c-1.09.64-2.17,1.28-3.26,1.92.5-.04.99-.08,1.49-.12.58,2.49,1.76,5.05,1.47,7.44-.13,1.03-4.24,2.84-4.87,2.31-1.95-1.65-3.1-4.25-4.85-6.93.61-.27-.1.27-.83.31-1.06.07-2.15-.22-3.23-.36.73-.86,1.29-2.06,2.22-2.52,3.21-1.6,6.55-2.94,10.43-4.17.87.85,1.15,1.48,1.43,2.11Z"/>
      <path class="cls-33" d="M492.51,995.27c-.99.55-1.98,1.1-1.86,1.04.62,3.24,1.57,5.98,1.38,8.63-.05.75-4.34,2.33-5.08,1.68-1.84-1.6-2.75-4.26-4.22-6.83.38-.17-.33.37-1.08.42-1.06.07-2.15-.22-3.23-.36.73-.86,1.3-2.05,2.23-2.51,3.21-1.6,6.55-2.94,10.43-4.17.87.85,1.15,1.48,1.43,2.11Z"/>
      <path class="cls-13" d="M826.22,908.95c-.45-.9-.82-2.18-.62-2.27,4.99-2.33,10.03-4.53,15.92-7.13-1.49,5.19-2.73,9.51-4.14,14.39-3.8-1.69-7.31-3.25-11.16-4.98Z"/>
      <path class="cls-4" d="M431.73,1071.3c1.7,2.84,3.36,5.4,4.04,8.2.38,1.58-.35,4.23-1.55,5.15-.98.76-4.49.21-4.92-.69-.81-1.69-.46-4.11-.09-6.14.21-1.16,1.38-2.16,2.13-3.23-1.44.19-2.91.26-4.31.61-1.08.26-2.07.87-3.06,1.31.45,2.19.83,4.05,1.41,6.83-5.83-4.79-5.7-7.29-.44-9.61,2.09-.93,4.24-1.74,6.8-2.44Z"/>
      <path class="cls-21" d="M778.84,926.84c1.52,3.28,1.06,5.82-2.14,6.59-1.48.36-4.04-.45-4.92-1.63-1.85-2.46-.93-4.85,1.76-6.59.71-.46.93-1.68,2.01-3.81l-8.85,3.91c.49,1.71.99,3.5,1.5,5.29l-1.15.59c-1.14-2.12-2.29-4.25-3.4-6.32,9.6-7.04,11.32-6.82,15.2,1.95Z"/>
      <path class="cls-13" d="M397.56,915.22c-1.12-2.54-2.19-4.6-2.9-6.78-.25-.76.42-1.82.67-2.74.69.5,1.66.86,2.03,1.54,1.02,1.87,1.79,3.88,2.65,5.84.86,1.94,1.71,3.88,2.82,6.39,2.27-1,4.27-2.02,6.38-2.74.64-.22,1.57.38,2.36.6-.4.73-.62,1.84-1.23,2.13-5.07,2.37-10.19,4.63-15.35,6.79-.64.27-1.62-.28-2.45-.45.5-.82.81-1.95,1.54-2.39,1.67-.99,3.54-1.65,5.9-2.69-.83-1.88-1.54-3.48-2.43-5.5Z"/>
      <path class="cls-36" d="M859.13,843.43c-.26-1.29-.61-3.04.01-3.51,2.81-2.15,2.78-4.42,1.3-7.29-1.5-2.91-2.82-5.93-3.93-9.01-.32-.9.33-2.16.54-3.25.95.55,2.35.87,2.78,1.69,1.53,2.89,2.74,5.95,4.06,8.96,2.97,6.78,2.18,9.01-4.77,12.42Z"/>
      <path class="cls-36" d="M685.17,971.91c.69-2.38,1.43-4.76,2.06-7.16.38-1.44.61-2.91,1.52-4.23,3.51,9.57,1.98,15.75-4.35,19.63-1,.61-2.51.39-3.79.55.65-1.09,1.27-2.19,1.94-3.26,1.16-1.83,2.36-3.63,3.08-5.52-.46-.07-.48-.01-.48-.01Z"/>
      <path class="cls-37" d="M685.21,971.82c-.8.5-1.62,1.48-2.44,1.47-2.06,0-4.69.21-6.02-.92-1.17-1-1.78-4.27-1-5.51.95-1.52,3.8-2.95,5.46-2.62,1.61.32,2.86,2.87,4.03,4.6.35.51-.09,1.56-.13,2.72.05.36.07.3.08.27Z"/>
      <path class="cls-17" d="M746.7,822.66c.66-2.4,1.37-4.79,1.98-7.21.34-1.36.5-2.77,1.28-4.04,4.09,8.13,2.07,16.48-4.3,19.89-.93.5-2.32.16-3.49.2.51-1,.93-2.06,1.54-3,1.26-1.95,2.61-3.83,3.48-5.82-.45-.08-.48-.02-.48-.02Z"/>
      <path class="cls-37" d="M746.74,822.57c-.93.61-1.81,1.4-2.83,1.85-3.04,1.35-5.64.47-6.95-2.48-1.31-2.95-.22-5.71,2.78-6.87,3.24-1.26,5.8.08,6.83,3.51.31,1.03.04,2.24.08,3.72.04.35.07.29.08.26Z"/>
      <path class="cls-33" d="M635.25,868.73c1.34,4.23-.11,6.74-4.05,7.44-3.47.61-5.31-1.66-5.4-4.69-.05-1.58,1.4-4.44,2.42-4.55,2.2-.25,4.56.9,7.03,1.8Z"/>
      <path class="cls-33" d="M724.15,953.08c.25,4.04-1.8,6.18-5.13,5.89-1.71-.15-4.38-2.28-4.56-3.77-.22-1.85,1.17-4.87,2.77-5.76,3.01-1.66,5.57.05,6.92,3.64Z"/>
      <path class="cls-2" d="M448.2,894.86c.43,1.03.93,1.66.87,2.23-.33,2.87-10.22,6.7-13.63,4.69,1.88-.93,3.38-1.71,4.9-2.42,1.62-.76,3.26-1.45,4.73-2.1.76-4.36-4.72-7.43-1.71-13.34,1.92,4.35,3.29,7.43,4.83,10.94Z"/>
      <path class="cls-4" d="M563.53,908.93c-4.55-1.2-5.78-3.73-2.36-8.47-2.45.95-4,1.56-7.08,2.75,1.05-2.12,1.25-3.37,1.94-3.76,2.13-1.2,4.41-2.18,6.72-3,.86-.31,1.96.06,2.95.12-.51.8-.92,1.69-1.56,2.37-.41.44-1.16.56-.69.35,1.16,2.26,2.26,4.41,2.99,7.07-1.21,1.2-2.06,1.88-2.91,2.57Z"/>
      <path class="cls-33" d="M584.35,956.71c-1.47,3.58-4.15,5.13-7.06,3.39-1.62-.97-3.01-4.05-2.74-5.93.21-1.44,3.09-3.36,4.92-3.53,3.56-.33,5.05,2.26,4.88,6.07Z"/>
      <path class="cls-10" d="M506.66,1047.36c.99,4.88-2.18,6.48-5.45,6.65-1.42.07-3.92-2.62-4.21-4.35-.28-1.65,1.22-4.42,2.76-5.37,2.84-1.77,5.28-.12,6.91,3.07Z"/>
      <path class="cls-33" d="M595.8,884.44c2.41,3.69,2.28,7.02-1.72,8.26-1.74.54-4.71-1.14-6.31-2.67-.76-.72-.14-4.56.82-5.04,1.98-.98,4.61-.66,7.21-.55Z"/>
      <path class="cls-33" d="M625.96,935.28c-1.35-3.82-.12-6.52,3.32-7.07,1.68-.27,4.77,1.17,5.3,2.56.66,1.75.05,4.99-1.28,6.24-2.33,2.21-5.18,1.27-7.34-1.73Z"/>
      <path class="cls-10" d="M459,883.16c.92,2.51,2.25,4.95,1.85,7.06-.22,1.17-3.51,2.71-5.1,2.41-1.57-.3-3.35-2.5-3.95-4.23-1.2-3.47,1.76-5.66,7.2-5.24Z"/>
      <path class="cls-13" d="M592.94,838.85c-3.24,1.43-6.04,2.67-8.84,3.9-.26-.44-.51-.88-.77-1.32,1.82-1.16,3.64-2.31,4.61-2.93-.83-2.73-1.8-5.11-2.07-7.57-.05-.45,3.7-2.12,4.19-1.65,1.59,1.52,2.47,3.78,4.04,6.44.72-.21,2.61-.75,4.5-1.3.19.37.38.75.57,1.12-1.94,1.03-3.87,2.07-6.24,3.29Z"/>
      <path class="cls-4" d="M625.58,810.09c2.55,2.51,3.34,5.21.93,7.49-1.27,1.2-4.16,2.12-5.48,1.47-1.61-.8-3.41-3.49-3.24-5.17.44-4.3,3.67-5.14,7.79-3.78Z"/>
      <path class="cls-5" d="M780.15,802.87c-.12-1.3-.21-3.23.51-3.6,4.05-2.1,8.27-3.89,12.51-5.6.77-.31,1.91.28,2.88.45-.51.96-.79,2.42-1.58,2.8-4.57,2.16-9.26,4.06-14.32,5.95Z"/>
      <path class="cls-36" d="M839.82,898.45c-4.78,2.35-9.24,4.48-13.81,6.34-.88.36-2.17-.28-3.28-.46.66-.9,1.13-2.19,2.02-2.63,3.84-1.89,7.8-3.52,11.71-5.26,1.87-.83,3.59-1.4,3.36,2.01Z"/>
      <path class="cls-13" d="M648.51,864.86c.21.23.37.59.63.69,3.16,1.13,4.9,3.41,3.11,6.37-.88,1.45-3.93,2.81-5.49,2.38-3.13-.87-3.86-3.68-2.1-7.27,1.49-1.06,2.67-1.61,3.85-2.16Z"/>
      <path class="cls-17" d="M655.76,849.51c4.54-1.83,7.06-.58,7,3.3-.04,2.41-.61,4.81-1.07,8.16-2-4.36-9.52-4.43-5.92-11.46Z"/>
      <path class="cls-5" d="M447.79,1009.49c-3.32,1.28-6.24,2.37-9.15,3.47-.21-.61-.43-1.22-.64-1.83,4.77-2.11,9.55-4.22,14.31-6.33q.37,2.51-4.52,4.68Z"/>
      <path class="cls-5" d="M490.31,990.64c-4.72,2.09-9.11,3.98-13.5,5.88-.35-.82-.7-1.63-1.04-2.45,4.67-2.07,9.35-4.13,14.02-6.2.28.86.57,1.71.52,2.77Z"/>
      <path class="cls-36" d="M622.43,943.07c-3.88,2.12-7.62,3.81-11.38,5.42-.29.13-.81-.26-2.54-.88,4.09-2.07,7.25-3.67,10.52-5.33-1.25-3.81-2.43-7.42-3.61-11.02.63-.19,1.26-.38,1.89-.57,1.76,3.97,3.51,7.95,5.13,12.38Z"/>
      <path class="cls-21" d="M403.44,972.21c.9-3.43,1.8-6.85,2.97-11.32,2.19,5.4-.45,19.9-3.81,21.85.34-3.23.65-6.05.64-9.08-.31-.21-.36-.17-.01-.21.31-.48.26-.93.22-1.35,0,.03-.02.1-.02.1Z"/>
      <path class="cls-18" d="M378.05,919.56c.9-.87,2.12-1.59,2.64-2.65.75-1.55,1-3.34,1.47-5.03.69.15,1.38.31,2.07.46-1.04,6.77-2.09,13.54-3.13,20.3l-2.11-.17c.16-2.84.33-5.67.13-8.67-.36-.15-.42-.15-.05-.15.31-.47.25-.93.21-1.36.02.04-.05.1.27-.17-.16-.72-.63-1.17-1.22-1.85-.17-.39-.22-.55-.27-.72Z"/>
      <path class="cls-17" d="M489.54,873.64c1.01-3.5,2.02-6.99,3.03-10.49.67.15,1.33.29,2,.44-1.04,6.78-2.07,13.55-3.11,20.33-.72-.06-1.45-.12-2.17-.19.18-2.86.36-5.71.14-8.68-.4-.11-.46-.11-.06-.1.32-.46.23-.94.17-1.39.02.02,0,.08,0,.08Z"/>
      <path class="cls-37" d="M577.39,896.47l2.68-11.43,2.14.53c-1.05,6.81-2.09,13.62-3.14,20.42-.83-.1-1.65-.21-2.48-.31.33-2.88.67-5.76.91-8.95-.09-.31-.12-.26-.12-.26Z"/>
      <path class="cls-17" d="M663.55,917.73c.82-3.08,1.65-6.16,2.47-9.24.68.16,1.37.32,2.05.48-1.03,6.76-2.06,13.53-3.09,20.29-.74-.07-1.49-.14-2.23-.2.24-3.17.49-6.34.5-9.77-.23-.25-.3-.23.03-.28.3-.49.27-.93.25-1.35.02.02,0,.07,0,.07Z"/>
      <path class="cls-36" d="M544.5,909.84c.96-3.42,1.91-6.84,2.87-10.27.69.13,1.38.26,2.07.39-1.03,6.74-2.05,13.49-3.08,20.23-.73-.07-1.45-.14-2.18-.21.24-3.21.48-6.42.53-9.92-.18-.29-.22-.22-.22-.22Z"/>
      <path class="cls-21" d="M557.43,1027.36c.82-3.8,1.64-7.59,2.47-11.39.76.14,1.51.28,2.27.43-1.06,6.81-2.13,13.62-3.19,20.42-.84-.1-1.67-.21-2.51-.31.38-2.86.75-5.72,1.05-8.9-.08-.31-.09-.25-.09-.25Z"/>
      <path class="cls-17" d="M905.97,872.17c.94-3.44,1.87-6.88,2.81-10.31.69.13,1.39.26,2.08.4-1.02,6.75-2.05,13.51-3.07,20.26l-2.16-.21c.24-3.2.47-6.4.53-9.9-.17-.3-.2-.25-.2-.25Z"/>
      <path class="cls-37" d="M430.77,1021.73c.98-3.52,1.96-7.05,2.94-10.57.66.14,1.33.29,1.99.43-1.02,6.76-2.04,13.53-3.06,20.29-.76-.07-1.51-.13-2.27-.2.27-3.14.54-6.29.61-9.72-.19-.28-.22-.23-.22-.23Z"/>
      <path class="cls-4" d="M645.19,801.67c-4.72,2.17-9.04,4.15-13.42,5.96-.84.35-1.97,0-2.96-.04.58-.92.95-2.27,1.78-2.68,3.96-1.95,8.04-3.66,12.09-5.43,1.93-.84,3.59-1.18,2.51,2.19Z"/>
      <path class="cls-33" d="M395.07,974.42c-.47-.22-.75-.84-1.18-1.74.35-.49,1-.56,1.35-.92,1.28-1.32,2.47-2.74,3.69-4.12,1.34,1.3,2.68,2.59,4.27,4.23.25.34.26.27-.04.34-.29.47-.28.88-.27,1.28,0,0,.06-.04.07-.07-2.55.18-5.12.39-7.88.99Z"/>
      <path class="cls-4" d="M906.01,872.09c-2.32.83-4.65,1.69-7.24,2.9-.25.36-.2.35-.19.37.08-.38.36-.95.19-1.15-2.38-2.86-1.43-5.5,1.44-6.59,3.08-1.16,4.54,1.31,5.38,4.37.38.19.4.13.41.1Z"/>
      <path class="cls-33" d="M663.03,919c-2.1,2.62-4.7,4.02-7.03.77-.75-1.04.02-4.59,1.13-5.25,2.84-1.7,4.82.07,6.02,3.16.41.05.42,0,.05.01-.32.46-.28.92-.24,1.37,0,0,.07-.02.08-.06Z"/>
      <path class="cls-4" d="M489.04,874.91c-.29.08-.62.15-.9.31-2.53,1.44-5.26,1.96-6.36-1.28-.46-1.34.84-4.5,2.04-4.95,3.15-1.2,4.59,1.2,5.42,4.37.29.29.31.23-.03.28-.31.47-.28.89-.25,1.3,0,0,.06,0,.07-.03Z"/>
      <path class="cls-33" d="M377.92,919.22c.18.5.24.66.55,1.36.42.96.59,1.39.75,1.81,0,0,.07-.05-.21.07-.3.48-.31.84-.31,1.19,0,0,.06,0,.06-.03-.59.22-1.23.75-1.76.66-1.72-.3-3.73-.41-4.95-1.42-.63-.52-.15-3.88.4-4.05,1.63-.49,3.54-.02,5.47.41Z"/>
      <path class="cls-4" d="M430.8,1021.65c-.7.54-1.4,1.55-2.13,1.58-1.8.06-3.61-.33-5.42-.54.31-1.81.62-3.63.94-5.44,1.76.54,3.58.95,5.24,1.71.47.22.47,1.48,1.01,2.52.33.27.36.21.37.18Z"/>
      <path class="cls-33" d="M557.46,1027.27c-.85.39-1.78,1.26-2.55,1.13-1.82-.31-3.57-1.09-5.34-1.68.62-1.65,1.24-3.3,1.87-4.95,1.65.83,3.39,1.53,4.9,2.56.49.34.4,1.53.84,2.69.26.35.28.29.29.26Z"/>
      <path class="cls-33" d="M577.42,896.39c-1.19.51-2.44,1.56-3.57,1.45-1.46-.14-4.07-1.32-4.02-1.88.15-1.78,1.29-3.47,2.04-5.2,1.4.71,2.94,1.24,4.14,2.2.66.53.74,1.77,1.22,3.1.14.41.17.35.18.32Z"/>
      <path class="cls-5" d="M605.58,816.81c-.88-1.99-1.59-3.6-2.77-6.26,1.82.38,3.25.31,3.47.79,1.42,3.07,2.57,6.26,3.81,9.41-.69.27-1.38.54-2.08.8-.76-1.46-1.52-2.91-2.44-4.74Z"/>
      <path class="cls-37" d="M646.32,857.26c1.74-.47,3.05-.74,4.36-1.02.11.44.22.88.32,1.31-4.79,2.12-9.58,4.23-14.37,6.35-.31-.65-.63-1.3-.94-1.95,3.4-1.5,6.8-3,10.62-4.69Z"/>
      <path class="cls-18" d="M648.93,864.69c-1.6.72-2.77,1.27-4.32,1.96-2.25.75-4.14,1.36-6.03,1.96-.19-.54-.39-1.08-.58-1.61,4.72-2.09,9.44-4.17,14.16-6.26.3.3.6.61.89.91-1.24.96-2.47,1.91-4.12,3.04Z"/>
      <path class="cls-5" d="M463.43,1006.38c-1.49-3.48-4.04-6.35-3.65-9.92.61-.21,1.23-.42,1.84-.63,1.39,3.15,2.82,6.28,4.07,9.48.07.17-1.27.89-2.26,1.07Z"/>
      <path class="cls-5" d="M752.61,939.97c-1.79-3.24-3.21-6.46-4.63-9.67.22-.28.43-.57.65-.85.84.51,2.3.9,2.41,1.53.52,3.04,4.8,5.3,1.57,8.99Z"/>
      <path class="cls-13" d="M544.54,909.74c-1.84,2.26-3.9,4.43-6.79,1.7-.86-.81-1.32-2.94-.87-3.98.46-1.06,2.69-2.42,3.42-2.09,1.51.7,2.54,2.44,3.99,4.11.22.36.25.3.26.26Z"/>
      <path class="cls-28" d="M568.32,907.64c1.49-.52,2.98-1.03,4.68-1.62-.83,3.57-10.74,8.33-16.47,7.46,2.71-1.43,4.56-2.41,7.22-3.66,2.07-.91,3.32-1.55,4.57-2.18Z"/>
      <path class="cls-21" d="M585.16,825.9c2.34-1.03,4.25-1.88,6.16-2.72l.93,1.04c-.67.88-1.19,2.26-2.05,2.54-3,.97-5.62,4.17-10.79,2.05,2.62-1.33,3.98-2.03,5.76-2.91Z"/>
      <path class="cls-2" d="M804.76,848.22c-.32-1.56-.46-2.74-.61-3.92.44-.1.88-.21,1.31-.31,1.45,3.27,2.89,6.54,4.75,10.75-4.16-.61-3.9-4.16-5.46-6.52Z"/>
      <path class="cls-21" d="M804.72,856.26c-2.4-2.72-4.44-5.71-6.8-9.15,4.14-.23,5.7,2.12,6.8,9.15Z"/>
      <path class="cls-21" d="M604.79,822.19c-.18.54-.31.7-.45.7-4.52.07-3.18-4.37-4.86-6.5-.61-.77-.16-2.39-.19-3.62.49-.08.98-.16,1.47-.23,1.35,3.07,2.71,6.13,4.03,9.65Z"/>
      <path class="cls-21" d="M467.36,1001.99c-1.16-2.63-2.14-4.83-3.11-7.04.33-.31.66-.63.99-.94.84.56,1.99.93,2.45,1.71,1.06,1.83,1.94,3.82,2.58,5.83.25.8-.3,1.86-.49,2.8-.74-.65-1.48-1.3-2.41-2.36Z"/>
      <path class="cls-17" d="M752.92,928.5c.98-.3,2.43-.44,2.69.05,1.42,2.68,2.55,5.52,3.2,8.66-4.54-.94-4.1-5.45-5.89-8.71Z"/>
      <path class="cls-30" d="M568.11,907.49c-1.03.78-2.29,1.42-3.96,2.12-.42.06-.6-.29-.61-.49.84-.88,1.69-1.57,2.8-2.45.7.09,1.12.38,1.76.82Z"/>
      <path class="cls-13" d="M454.85,1011.86c-.58-.45-.86-1.08-1.28-2.03.43.41,1,1.13,1.28,2.03Z"/>
      <path class="cls-13" d="M492.81,995.09c-.58-.45-.86-1.08-1.27-2.03.43.41,1,1.13,1.27,2.03Z"/>
      <path class="cls-32" d="M391.59,449c-24.05-18.2-47.82-36.16-72.9-55.1-2.59,33.82-5.06,66.17-7.65,99.98,6.48-2.86,11.9-5.06,17.13-7.64,3.25-1.61,4.68-.63,5.89,2.46.96,2.47.22,3.56-1.99,4.54-28.79,12.67-57.55,25.41-86.33,38.08-.92.4-2.06.28-3.49.45.69-5.12,2.03-8.8,6.99-10.67,6.46-2.44,12.78-5.32,18.95-8.42,1.66-.83,3.51-3.09,3.67-4.84,4.02-45.79,7.86-91.6,11.53-137.42.15-1.82-1.19-4.45-2.68-5.59-30.23-23.18-60.61-46.17-90.87-69.3-2.3-1.76-4.06-1.91-6.63-.72-9.87,4.54-19.94,8.67-29.76,13.32-4.22,2-7.23-.67-10.69-1.72-.3-.09-.38-2.23.08-3.08.37-.69,1.68-.9,2.58-1.3,27.86-12.32,55.75-24.58,83.57-37,3.38-1.51,5.22-1.48,6.8,2.36,1.37,3.33.48,4.66-2.53,5.95-10.44,4.47-20.81,9.13-31.19,13.74-1.44.64-2.82,1.43-5.23,2.66,29.6,22.18,58.48,43.83,88.49,66.31,3.44-37.31,6.75-73.13,10.18-110.28-3.9,1.72-6.76,2.8-9.44,4.22-3.16,1.67-4.35.11-5.47-2.58-1.06-2.54-1.79-4.48,1.61-5.9,7.3-3.04,14.48-6.34,21.71-9.54,21.84-9.65,43.7-19.25,65.5-29.01,3.32-1.49,5.22-1.51,6.89,2.27,1.65,3.74.1,5.04-2.97,6.17-2.4.89-4.69,2.04-8.08,3.54,30.23,22.61,59.46,44.47,90.04,67.34,3.19-37.36,6.28-73.43,9.44-110.41-2.24.75-3.58,1.08-4.82,1.63-9.95,4.37-19.89,8.77-29.83,13.16q-7.02,3.1-9.47-4.97c30.52-13.49,61.06-26.98,92.22-40.75-.69,5.77-1.57,9.97-7.31,12.17-9.52,3.64-18.68,8.24-28.09,12.18-2.85,1.19-3.84,2.85-4.08,5.84-3.09,38.13-6.27,76.25-9.59,114.36-.27,3.04.55,4.67,2.94,6.43,36.44,26.95,72.83,53.98,109.12,81.13,2.55,1.91,4.48,1.94,7.12.72,6.57-3.05,13.36-5.65,19.82-8.91,4.57-2.31,7.62-.43,11.49,2.72-1.69.99-2.83,1.8-4.08,2.35-28.01,12.4-56.04,24.74-84.01,37.22-3.18,1.42-5.01,1.46-6.36-2.22-1-2.72-.2-3.86,2.21-4.87,5.99-2.53,11.91-5.23,19.04-8.37-27.22-20.76-53.42-40.75-80.87-61.69-2.88,34.59-5.62,67.64-8.49,102.08,6.67-2.95,12.16-5.31,17.6-7.8,2.55-1.17,4.55-2.26,6.16,1.57,1.49,3.56-.5,4.25-2.89,5.3-29.23,12.89-58.45,25.81-87.66,38.74-2.5,1.11-4.6,2.38-6.31-1.44-1.63-3.64.24-4.6,2.93-5.74,5.55-2.34,11.03-4.84,17.7-7.79-3.11-2.4-5.23-4.03-7.62-5.91M328.67,266.29c-3.16,36.01-6.2,72.03-9.59,108.02-.53,5.62.61,9.12,5.38,12.69,27.25,20.36,54.2,41.11,81.17,61.84,2.49,1.91,4.49,1.89,7.17.66,7.92-3.66,15.88-7.25,23.95-10.56,3.33-1.36,4.64-3.26,4.96-6.89,3.1-35.19,6.36-70.37,9.75-105.54.29-3.03-1.01-4.42-3.08-6.01-21.13-16.19-42.21-32.44-63.31-48.67-15.63-12.02-31.24-24.07-46.93-36.01-1.59-1.21-3.65-1.79-5.5-2.66-.5,1.8-1.27,3.57-1.45,5.41-.89,8.99-1.63,18-2.52,27.73Z"/>
      <path class="cls-12" d="M489.16,826.34c-49.81,22.01-99.17,43.82-148.81,65.76-10.8-24.44-21.42-48.46-32.21-72.88,159.37-70.43,318.73-140.85,478.45-211.44,10.63,24.04,21.29,48.18,32.21,72.88-109.75,48.5-219.47,96.99-329.64,145.67M375.96,852.53c-5.29-11.97-10.58-23.94-15.99-36.19,6.86-3.03,12.99-5.74,19.27-8.52l-2.28-5.16c-14.82,6.55-29.49,13.03-44.28,19.57.92,1.83,1.7,3.38,2.69,5.34,6.53-2.89,12.76-5.64,19.1-8.44,5.63,12.73,11.06,25.03,16.72,37.83-6.57,2.9-12.93,5.71-19.39,8.57,1.1,2.21,1.96,3.92,2.9,5.81,14.86-6.57,29.4-12.99,43.96-19.43l-2.7-6.11c-3.36,1.48-6.45,2.99-9.65,4.22-3.25,1.25-6.6,2.22-10.34,2.5M661.23,684.39c-1.18,1.54-3.07,2.93-3.42,4.64-1.42,6.89-2.48,13.87-3.43,20.85-.26,1.91.31,3.93.55,6.48,7.28-3.22,13.75-5.97,20.13-8.95,2.29-1.07,3.75-.95,5.47,1.1,3.26,3.86,6.77,7.54,10.39,11.07,1.09,1.07,3.22,2.27,4.3,1.86,1.44-.54,3-2.44,3.32-4,1.46-7.22,2.6-14.51,3.62-21.81.24-1.71-.45-3.55-.79-5.88-6.85,3.03-12.95,5.48-18.81,8.41-3.32,1.66-5.32,1.33-7.85-1.57-3.89-4.47-8.46-8.34-13.47-12.18M509.28,793.26c.15.93.31,1.86.76,4.57,2.27-2.73,4.09-4.22,4.99-6.15,2.44-5.19,4.42-10.61,6.75-15.85.54-1.21,1.6-2.44,2.75-3.09,10.23-5.75,20.61-10.14,31.98-2.59,1.32.88,3.03,1.41,4.62,1.6,2.01.25,4.08,0,6.13-.05.19-.76.37-1.52.56-2.28-7.01-3.09-14.02-6.18-21.14-9.31,1.19-4.27,2.47-8.18,3.34-12.17.85-3.89,3.7-7.57,1.31-13.55-2.04,2.85-4.01,4.49-4.53,6.51-3.27,12.78-10.08,22.06-23.64,24.95-2.08.44-4.47.8-6.42.21-5.5-1.65-10.78-4-16.27-5.67-1.75-.53-3.87.19-5.83.33-.11.69-.21,1.39-.32,2.08,6.95,3.06,13.9,6.12,21.06,9.28-2.01,6.95-3.97,13.72-6.11,21.17M763.84,650.31c1.3.49,2.98.62,3.85,1.52,7.27,7.63,11.17,16.72,11.14,27.92-5.48,2.42-11.27,4.98-17.31,7.65.93,1.82,1.63,3.19,2.36,4.62,5.39-2.38,10.51-4.27,15.23-6.9,2.15-1.2,4.53-3.64,4.99-5.89.91-4.5.57-9.25.75-14.01.94.57,2.18,1.27,3.38,2.05,3.71,2.41,7.28,5.07,11.17,7.16,1.14.61,3.14-.39,4.74-.65-.26-.96-.21-2.36-.84-2.83-11.57-8.56-23.18-17.06-34.92-25.4-1.27-.9-3.6-1.41-4.97-.88-5.8,2.22-11.42,4.9-17.19,7.45l2.21,5c4.98-2.2,9.77-4.32,15.42-6.81M465.09,796.34c2.23,5.04,4.46,10.08,6.84,15.49-8.05,3.56-15.52,6.86-23.17,10.24l2.48,5.6c17.6-7.78,34.96-15.45,52.19-23.07l-2.62-5.92c-7.75,3.43-15.17,6.71-22.9,10.12-5.91-13.38-11.61-26.27-17.37-39.3l-6.13,2.71c3.5,7.92,6.88,15.57,10.66,24.13M619.17,713.64c-2.15,8.91,1.99,16.06,10.12,17.49,7.35,1.29,14.6-4.14,15.45-11.58.66-5.74-3.35-11.95-8.89-13.8-6.48-2.16-12.27.38-16.67,7.9M587.34,751.5c-4.91,2.17-9.81,4.34-14.88,6.57,1.09,2.18,1.86,3.72,2.62,5.23,11.69-5.16,22.92-10.13,34.03-15.04-5.1-11.55-10.1-22.86-15.17-34.33-2.01,1.01-3.55,1.78-5.44,2.73,4.29,9.72,8.45,19.12,12.69,28.71l-13.85,6.12M730.97,688.73c1.63-10.53,3.28-21.06,4.86-31.59.77-5.12.17-5.63-5.47-4.67-2.47,16.89-5.01,33.88-7.33,50.9-.2,1.48,1.04,3.16,1.61,4.74,1.3-1.37,3.34-2.56,3.74-4.15,1.19-4.75,1.73-9.67,2.59-15.23M417.79,807.22c-1.65,11.19-3.38,22.37-4.85,33.58-.18,1.34,1.06,2.86,1.64,4.3,1.27-1.19,3.44-2.22,3.68-3.59,2.74-16.16,5.26-32.35,7.58-48.57.17-1.21-1.35-3.46-2.56-3.9-2.6-.93-3.1,1.16-3.37,3.36-.58,4.72-1.38,9.4-2.12,14.82M708.73,685.85c4.93.97,8.88-.61,11.17-5.07,2.03-3.95,1.76-7.96-1.5-11.35-2.85-2.96-6.24-4.04-10.27-2.68-4.17,1.41-6.66,4.27-6.89,8.63-.25,4.93,2.04,8.46,7.48,10.47M404.49,803.79c-4.61-1.51-8.5-.22-11.37,3.47-2.67,3.44-2.63,7.28-.43,11.06,2.14,3.67,5.47,5.15,9.53,4.72,4.56-.48,7.51-3.16,8.52-7.64,1.16-5.17-.91-8.91-6.25-11.62Z"/>
      <path class="cls-3" d="M524.26,916.79c-1.91,1.11-3.62,1.86-5.32,2.61-.38-.26-.76-.52-1.15-.78.95-2.56,1.91-5.13,2.86-7.69.48.04.96.08,1.43.12.79,1.79,1.59,3.59,2.17,5.74Z"/>
      <path class="cls-3" d="M526.23,920.27c.78,1.54,1.32,2.73,1.82,3.94.12.29.11.64.33,2.06-3.24-1-6.01-1.85-8.78-2.7.06-.6.11-1.2.17-1.8,2.07-.61,4.14-1.22,6.46-1.5Z"/>
      <path class="cls-40" d="M527.48,908.63c2.08,1.11,3.78,2.16,6.18,3.64l-5.88,2.6q-3.28-5.23-.3-6.23Z"/>
      <path class="cls-3" d="M533.72,921.49c-.73,1.08-1.29,1.81-2.11,2.89l-2.69-6.08,5.8-2.56c-.32,2.09-.58,3.75-1,5.76Z"/>
      <path class="cls-3" d="M379.25,974.36c1.82.98,3.34,2.25,5.55,4.08-3.18,1.4-5.11,2.26-8.29,3.66,1.03-3.14,1.74-5.3,2.74-7.74Z"/>
      <path class="cls-3" d="M381.32,983.1c5.45-2.65,4.27,2.4,5.91,4.06-.18.46-.36.91-.54,1.37-2.51-.89-5.03-1.78-7.54-2.67.6-.86,1.19-1.73,2.17-2.76Z"/>
      <path class="cls-40" d="M386.52,977c-1.18-1.94-1.96-3.71-3.45-7.09,3.72,1.67,6.19,2.78,10.05,4.52-3.12,1.38-4.66,2.06-6.61,2.57Z"/>
      <path class="cls-3" d="M388.97,983.67c-2.49-5,1.89-4.16,4.83-5.01-.74,2.53-1.49,5.06-2.64,8.98-1.18-2.1-1.61-2.84-2.19-3.96Z"/>
      <path class="cls-3" d="M485.33,1060.65c0,1.02.04,1.67.13,3.31-2.24-2.13-3.97-3.76-6.07-5.76l5.33-2.36c.23,1.63.44,3.03.61,4.8Z"/>
      <path class="cls-3" d="M659.91,977.22c1.37,2.27,2.39,4.56,3.45,6.97-5.04-.45-5.58-1.53-3.45-6.97Z"/>
      <path class="cls-3" d="M571.91,838.17c-.04,1.81-.21,3.27-.38,4.73-.34.02-.68.04-1.03.06l-3.5-7.92c2.17,1.27,3.48,2.03,4.91,3.14Z"/>
      <path class="cls-40" d="M403.23,973.46c-.36-.37-.38-.78-.09-1.28.35.35.39.8.09,1.28Z"/>
      <path class="cls-40" d="M379.55,922.13c-.49-.16-.65-.58-.97-1.31.33.14.81.59.97,1.31Z"/>
      <path class="cls-40" d="M379.07,923.66c-.37-.36-.36-.72-.08-1.24.33.31.39.77.08,1.24Z"/>
      <path class="cls-40" d="M489.37,874.95c-.43-.43-.46-.85-.17-1.34.41.41.49.88.17,1.34Z"/>
      <path class="cls-40" d="M663.29,919.02c-.38-.41-.42-.86-.11-1.34.38.41.41.85.11,1.34Z"/>
      <path class="cls-39" d="M328.71,265.93c.84-9.36,1.58-18.37,2.47-27.36.18-1.83.95-3.61,1.45-5.41,1.84.87,3.91,1.45,5.5,2.66,15.69,11.94,31.3,23.99,46.93,36.01,21.1,16.23,42.18,32.48,63.31,48.67,2.07,1.58,3.37,2.97,3.08,6.01-3.38,35.17-6.64,70.35-9.75,105.54-.32,3.63-1.63,5.53-4.96,6.89-8.07,3.31-16.03,6.9-23.95,10.56-2.67,1.24-4.68,1.26-7.17-.66-26.97-20.73-53.92-41.48-81.17-61.84-4.77-3.56-5.91-7.06-5.38-12.69,3.39-35.99,6.43-72.01,9.64-108.38Z"/>
      <path class="cls-32" d="M376.17,852.94c3.52-.69,6.88-1.66,10.12-2.91,3.2-1.23,6.29-2.74,9.65-4.22l2.7,6.11c-14.56,6.44-29.09,12.86-43.96,19.43-.94-1.89-1.8-3.6-2.9-5.81,6.46-2.86,12.83-5.67,19.39-8.57-5.65-12.8-11.09-25.09-16.72-37.83-6.34,2.8-12.57,5.56-19.1,8.44-.99-1.96-1.77-3.52-2.69-5.34,14.79-6.54,29.46-13.02,44.28-19.57l2.28,5.16c-6.28,2.77-12.41,5.48-19.27,8.52,5.41,12.25,10.7,24.22,16.21,36.59Z"/>
      <path class="cls-10" d="M661.59,684.25c4.65,3.98,9.22,7.86,13.11,12.33,2.53,2.91,4.53,3.23,7.85,1.57,5.86-2.93,11.96-5.38,18.81-8.41.34,2.33,1.03,4.17.79,5.88-1.02,7.3-2.16,14.59-3.62,21.81-.31,1.56-1.88,3.46-3.32,4-1.08.4-3.21-.8-4.3-1.86-3.62-3.53-7.12-7.21-10.39-11.07-1.73-2.04-3.18-2.17-5.47-1.1-6.37,2.98-12.85,5.74-20.13,8.95-.24-2.55-.81-4.57-.55-6.48.95-6.98,2.01-13.95,3.43-20.85.35-1.71,2.24-3.1,3.78-4.78M667.71,696.89c-1.2-1.01-2.4-2.02-4.06-3.42-1.14,4.91-2.14,9.21-3.27,14.11,4.7-2.08,8.59-3.79,12.89-5.7-1.91-1.74-3.44-3.14-5.56-4.99M688.22,709.33c1.4,1.39,2.8,2.79,4.64,4.61,1.09-5.43,2.03-10.13,3.12-15.56-4.65,2.05-8.35,3.69-12.45,5.5,1.49,1.69,2.87,3.25,4.7,5.44Z"/>
      <path class="cls-23" d="M509.37,792.91c2.05-7.11,4.01-13.88,6.02-20.83-7.16-3.15-14.11-6.22-21.06-9.28.11-.69.21-1.39.32-2.08,1.95-.15,4.08-.86,5.83-.33,5.49,1.67,10.78,4.02,16.27,5.67,1.95.59,4.34.23,6.42-.21,13.56-2.89,20.37-12.17,23.64-24.95.52-2.02,2.49-3.66,4.53-6.51,2.39,5.97-.46,9.66-1.31,13.55-.87,3.99-2.15,7.9-3.34,12.17,7.11,3.13,14.12,6.22,21.14,9.31-.19.76-.37,1.52-.56,2.28-2.04.04-4.12.3-6.13.05-1.59-.2-3.3-.72-4.62-1.6-11.37-7.56-21.74-3.16-31.98,2.59-1.15.64-2.21,1.88-2.75,3.09-2.34,5.25-4.31,10.66-6.75,15.85-.9,1.92-2.72,3.41-4.99,6.15-.45-2.71-.61-3.64-.67-4.91Z"/>
      <path class="cls-10" d="M763.41,650.5c-5.22,2.31-10.01,4.42-14.99,6.62l-2.21-5c5.77-2.55,11.39-5.23,17.19-7.45,1.37-.53,3.7-.02,4.97.88,11.73,8.34,23.35,16.84,34.92,25.4.63.47.57,1.86.84,2.83-1.61.26-3.61,1.26-4.74.65-3.88-2.08-7.46-4.74-11.17-7.16-1.2-.78-2.44-1.48-3.38-2.05-.18,4.76.16,9.51-.75,14.01-.46,2.25-2.83,4.69-4.99,5.89-4.71,2.63-9.84,4.52-15.23,6.9-.73-1.43-1.43-2.8-2.36-4.62,6.05-2.67,11.83-5.23,17.31-7.65.03-11.2-3.87-20.29-11.14-27.92-.86-.91-2.54-1.03-4.28-1.33Z"/>
      <path class="cls-32" d="M464.89,795.89c-3.58-8.11-6.97-15.76-10.46-23.68l6.13-2.71c5.76,13.03,11.45,25.92,17.37,39.3,7.73-3.41,15.15-6.69,22.9-10.12l2.62,5.92c-17.23,7.61-34.6,15.29-52.19,23.07l-2.48-5.6c7.65-3.38,15.11-6.68,23.17-10.24-2.39-5.4-4.62-10.45-7.04-15.94Z"/>
      <path class="cls-32" d="M619.31,713.3c4.26-7.17,10.04-9.71,16.53-7.55,5.55,1.85,9.55,8.06,8.89,13.8-.85,7.45-8.09,12.88-15.45,11.58-8.13-1.43-12.27-8.58-9.97-17.84Z"/>
      <path class="cls-28" d="M587.79,751.3l13.4-5.92c-4.24-9.59-8.39-18.99-12.69-28.71,1.89-.95,3.43-1.72,5.44-2.73,5.07,11.47,10.07,22.78,15.17,34.33-11.11,4.91-22.35,9.88-34.03,15.04-.76-1.51-1.53-3.05-2.62-5.23,5.06-2.24,9.97-4.41,15.33-6.77Z"/>
      <path class="cls-10" d="M730.95,689.09c-.82,5.21-1.37,10.12-2.56,14.87-.4,1.6-2.45,2.78-3.74,4.15-.57-1.59-1.82-3.26-1.61-4.74,2.32-17.02,4.87-34.01,7.33-50.9,5.64-.96,6.24-.46,5.47,4.67-1.58,10.54-3.24,21.06-4.89,31.95Z"/>
      <path class="cls-10" d="M417.8,806.86c.72-5.06,1.53-9.75,2.1-14.46.27-2.2.78-4.29,3.37-3.36,1.21.43,2.73,2.69,2.56,3.9-2.32,16.22-4.84,32.42-7.58,48.57-.23,1.36-2.4,2.4-3.68,3.59-.58-1.44-1.81-2.96-1.64-4.3,1.47-11.21,3.2-22.39,4.86-33.94Z"/>
      <path class="cls-13" d="M708.36,685.76c-5.07-1.91-7.37-5.45-7.12-10.38.22-4.36,2.72-7.22,6.89-8.63,4.03-1.36,7.42-.28,10.27,2.68,3.25,3.38,3.53,7.39,1.5,11.35-2.29,4.46-6.24,6.04-11.54,4.97Z"/>
      <path class="cls-13" d="M404.85,803.93c4.98,2.56,7.05,6.31,5.89,11.48-1.01,4.48-3.96,7.16-8.52,7.64-4.06.43-7.39-1.05-9.53-4.72-2.2-3.78-2.25-7.62.43-11.06,2.87-3.7,6.77-4.98,11.73-3.34Z"/>
      <path class="cls-11" d="M668,697.12c1.83,1.62,3.36,3.02,5.26,4.76-4.31,1.9-8.2,3.62-12.89,5.7,1.14-4.9,2.14-9.2,3.27-14.11,1.66,1.4,2.86,2.41,4.36,3.65Z"/>
      <path class="cls-14" d="M687.99,709.02c-1.61-1.88-2.99-3.44-4.48-5.13,4.1-1.81,7.81-3.45,12.45-5.5-1.09,5.43-2.03,10.12-3.12,15.56-1.83-1.82-3.23-3.22-4.86-4.92Z"/>
    </g>
  </g>
</svg>