<?xml version="1.0" encoding="UTF-8"?>
<svg id="Calque_2" xmlns="http://www.w3.org/2000/svg" viewBox="0 0 630.43 1000">
  <defs>
    <style>
      .cls-1 {
        fill: #e6e9eb;
      }

      .cls-2 {
        fill: #1c2025;
      }

      .cls-3 {
        fill: #8ca5c5;
      }

      .cls-4 {
        fill: #121417;
      }

      .cls-5 {
        fill: #242a32;
      }

      .cls-6 {
        fill: #cfd3d8;
      }

      .cls-7 {
        fill: #bfc6cc;
      }

      .cls-8 {
        fill: #eceded;
      }

      .cls-9 {
        fill: #d1d5d9;
      }

      .cls-10 {
        fill: #101113;
      }

      .cls-11 {
        fill: #dbdee2;
      }

      .cls-12 {
        fill: #f0f3f6;
      }

      .cls-13 {
        fill: #0e0f10;
      }

      .cls-14 {
        fill: #e3e6e9;
      }

      .cls-15 {
        fill: #f1f4f7;
      }

      .cls-16 {
        fill: #eff0f3;
      }

      .cls-17 {
        fill: #16191d;
      }

      .cls-18 {
        fill: #1a1d20;
      }

      .cls-19 {
        fill: #ccd1d7;
      }

      .cls-20 {
        fill: #bdc2c8;
      }

      .cls-21 {
        fill: #131619;
      }

      .cls-22 {
        fill: #d7dade;
      }

      .cls-23 {
        fill: #131415;
      }

      .cls-24 {
        fill: #f2f3f5;
      }

      .cls-25 {
        fill: #dee0e3;
      }

      .cls-26 {
        fill: #b3b9bf;
      }

      .cls-27 {
        fill: #f2f5f8;
      }

      .cls-28 {
        fill: #0b0c0d;
      }

      .cls-29 {
        fill: #272829;
      }

      .cls-30 {
        fill: #818385;
      }

      .cls-31 {
        fill: #c3c9cf;
      }

      .cls-32 {
        fill: #0c0d0e;
      }

      .cls-33 {
        fill: #111316;
      }

      .cls-34 {
        fill: #37393a;
      }

      .cls-35 {
        fill: #c9ced4;
      }

      .cls-36 {
        fill: #14171b;
      }

      .cls-37 {
        fill: #171b1f;
      }

      .cls-38 {
        fill: #fefefe;
      }

      .cls-39 {
        fill: #a9322f;
      }

      .cls-40 {
        fill: #9ab6da;
      }
    </style>
  </defs>
  <g id="Layer_1">
    <g>
      <path class="cls-7" d="M630.43,274.7c0,231.58,0,463.16-.3,695.42-1.96,10.52-6.69,18.53-15.27,23.7-4.35,2.62-9.36,4.15-14.08,6.17-170.65,0-341.29,0-512.39-.38.05-2.1.37-3.88,1.06-5.51,2.39-5.69,4.91-11.33,7.83-17.12,1.76-.15,3.08-.18,4.4-.18,153.61,0,307.22,0,460.84,0,2.63,0,5.27.04,7.9-.07,20.17-.83,35.45-16.72,35.47-36.87.1-119.18.22-238.36.29-357.54.05-86.27,0-172.55.02-258.82,0-1.79.23-3.58.7-5.4,1.57-1.49,3.17-2.78,3.96-4.45,4.33-9.15,8.32-18.47,12.73-27.59,1.92-3.97,4.54-7.59,6.84-11.37M499.36,985.1c-.25.18-.5.35-.75.53.49-.11.99-.22,2.07-.38.51-.11,1.02-.22,1.54-.33-.06-.22-.12-.44-.18-.66-.73.24-1.47.48-2.67.84M427.86,990.75c.29.67.57,1.33.86,2,.22-.13.44-.26.66-.4-.51-.74-1.01-1.49-1.63-2.51.03.1.07.19.1.91M490.7,983.14c.3-.4.59-.8.89-1.2-.26-.09-.72-.3-.74-.26-.28.48-.5,1-1.44,1.62-1.92,1.86-4.14,3.7-.31,6.6.45,1.03.91,2.05,1.35,3.06,2.08-1.59,3.59-2.75,5.11-3.91-.07-.3-.13-.6-.2-.89-2.07.32-4.13.63-6.21.19.32-1.71.65-3.42,1.54-5.2M468.72,987.13c-.19.26-.37.53-1.19,1.11-.68,1.06-1.36,2.11-2.31,3.59h13.02c-1.7-1.28-2.85-2.14-3.32-2.5-2.03-.26-3.85-.5-5.45-.89.14-.12.25-.25.92-.73.85-1.25,1.71-2.5,2.45-3.59-.95-.41-1.9-.82-2.89-1.25-.27,1.5-.51,2.81-1.22,4.26M438.52,990.8c.06.15.09.32.18.46.08.13.29.32.31.3,1.73-1.16,3.56-2.21,5.11-3.58.75-.66,1.42-2,1.28-2.9-.12-.79-1.42-1.98-2.19-1.98-1.63,0-3.25.67-5.57,1.06l-4.51-1.97.1.97c-2.49.37-4.97.74-7.23,1.08,1.38,1.01,3.59,2.01,3.49,2.65-.66,4.19,2.27,3.01,4.06,3.79.03.66.05,1.33.08,1.99.39-.85.77-1.71,1.86-2.56.94,0,1.89.01,3.03.68M447.61,986.88c.9.96,1.8,1.92,3.17,3.39h-3.92c4.33,2.82,7.57-1.21,11.55-1.04-.67-2.51-1.23-4.59-1.79-6.67-.49,0-.98,0-1.47.01-.5,1.72-1.01,3.43-1.31,4.44-1.49-1.34-3.18-2.85-4.86-4.35-.45,1.16-.9,2.33-1.37,4.22M495.21,984.46c-.81.24-1.62.49-2.43.73.19.41.38.82.57,1.23.76-.5,1.52-1,1.86-1.96M497.39,982.21l-1.82-.08c.01.32.02.63.03.95.76-.24,1.53-.48,1.79-.87M499.37,989.81c.12-.26.24-.51.36-.77-.24-.07-.49-.15-.73-.22-.03.35-.05.7.37.99M495.98,991.33c.03.37.03.74.1,1.1.01.07.28.08.44.12-.02-.39-.04-.77-.54-1.22Z"/>
      <path class="cls-31" d="M630.43,274.24c-2.3,4.24-4.93,7.86-6.84,11.83-4.4,9.12-8.4,18.43-12.73,27.59-.79,1.67-2.39,2.96-4.08,4.01-.49-84.97-.5-169.54-.53-254.1,0-22.7-15.02-37.69-37.65-37.73-14.31-.03-28.61-.14-42.91-.58,1.08-2.92,2.2-5.45,3.21-8.03,2.25-5.73,4.45-11.49,6.67-17.24,21.43,0,42.86,0,64.98.3,10.33,2.27,18.67,6.48,23.73,15.25,2.54,4.41,4.13,9.38,6.16,14.1v244.6Z"/>
      <path class="cls-31" d="M29.64,0c30.98,0,61.96,0,93.41.39-.17,2.38-.67,4.43-1.46,6.35-2.59,6.32-5.29,12.6-8.41,18.99-17.24.11-34.02.11-50.81.12-23.64,0-38.2,14.49-38.2,38.03,0,47.72,0,95.45-.01,143.17,0,5.09-.15,10.18-.5,15.35-.82,1.02-1.37,1.94-2.06,3.19-6.25,13.56-12.32,26.82-18.53,40.01-.59,1.26-2.03,2.13-3.08,3.18C0,188.39,0,108,.29,26.94c2.21-8,5.84-14.55,12.06-18.72C17.59,4.7,23.84,2.68,29.64,0Z"/>
      <path class="cls-20" d="M0,771.74c0-75.45,0-150.9.34-226.86,1.05-1.35,2-2.09,2.44-3.05,4.43-9.62,8.6-19.37,13.23-28.89,2.19-4.51,5.23-8.62,8.02-12.47.05,36.94-.12,73.44-.11,109.94,0,39.29.18,78.59-.05,117.9-1.54,1.19-3.2,2.16-3.87,3.58-5.72,12.18-11.22,24.46-16.92,36.65-.59,1.27-2.03,2.14-3.07,3.2Z"/>
      <path class="cls-8" d="M0,500.99c0-64.25,0-128.5.36-193.25,1.14-1.44,2.18-2.25,2.67-3.32,5.69-12.33,11.24-24.72,17-37.01.82-1.74,2.55-3.06,3.98-4.12.14,63.74.15,127.04.14,190.33,0,.97-.18,1.95-.64,2.96-1.09.85-2.08,1.54-2.52,2.49-4.44,9.61-8.63,19.34-13.24,28.86C5.56,492.47,2.61,496.65,0,500.99Z"/>
      <path class="cls-38" d="M24.7,1000H0C0,958.48,0,916.95.34,874.92c1.35-1.95,2.59-3.28,3.32-4.85,5.61-12.05,11.06-24.17,16.75-36.19.72-1.53,2.5-2.55,3.78-3.35,0,36.01.03,71.57-.02,107.13-.01,8.45,1.78,16.32,6.7,23.27,2.06,2.9,4.48,5.55,6.69,8.68-1.15,2.73-2.33,5.06-3.34,7.47-3.21,7.63-6.35,15.29-9.52,22.93Z"/>
      <path class="cls-31" d="M249.01,0c34.28,0,68.55,0,103.25.36-3.17,8.66-6.77,16.97-10.82,25.37-15.06.11-29.66.14-44.26.11-19.35-.04-38.71-.14-58.02-.57,1.46-3.66,2.98-6.92,4.28-10.26,1.93-4.97,3.72-10,5.56-15.01Z"/>
      <path class="cls-8" d="M142.29,0c28.68,0,57.35,0,86.49.38-.1,1.89-.61,3.43-1.21,4.93-2.72,6.78-5.47,13.55-8.66,20.42-29.46.03-58.47-.03-87.44-.44,3.63-8.66,7.23-16.97,10.83-25.28Z"/>
      <path class="cls-38" d="M399.21,0c26.7,0,53.4,0,80.56.37-.24,2.19-.91,4.01-1.63,5.82-2.59,6.48-5.19,12.96-8.24,19.53-27.16.03-53.86-.03-80.57-.48.49-2.08.83-3.85,1.5-5.47,2.74-6.62,5.57-13.19,8.37-19.78Z"/>
      <path class="cls-11" d="M0,823.12c0-8.26,0-16.51.34-25.28,1.35-1.95,2.59-3.28,3.32-4.85,5.61-12.05,11.06-24.17,16.75-36.19.72-1.53,2.5-2.55,3.78-3.35,0,8.72,0,16.97-.32,25.25-1.21.87-2.43,1.57-2.91,2.6-4.79,10.26-9.32,20.65-14.22,30.86-1.85,3.84-4.47,7.31-6.74,10.95Z"/>
      <path class="cls-24" d="M24.21,830.07c-1.29,1.26-3.07,2.28-3.79,3.81-5.68,12.02-11.14,24.14-16.75,36.19-.73,1.57-1.98,2.9-3.32,4.39-.34-8.2-.34-16.46,0-25.23,1.35-1.95,2.59-3.28,3.32-4.85,5.61-12.05,11.06-24.17,16.75-36.19.72-1.53,2.5-2.55,3.78-3.35,0,8.72,0,16.98.01,25.23Z"/>
      <path class="cls-1" d="M24.2,804.38c-1.29,1.26-3.07,2.28-3.79,3.81-5.68,12.02-11.14,24.14-16.75,36.19-.73,1.57-1.98,2.9-3.32,4.39C0,840.56,0,832.3,0,823.59c2.27-4.1,4.89-7.57,6.74-11.42,4.9-10.21,9.43-20.59,14.22-30.86.48-1.04,1.7-1.73,2.9-2.14.33,8.7.34,16.96.34,25.21Z"/>
      <path class="cls-6" d="M24.2,752.99c-1.29,1.26-3.07,2.28-3.79,3.81-5.68,12.01-11.14,24.14-16.75,36.19-.73,1.57-1.98,2.9-3.32,4.39C0,789.18,0,780.92,0,772.2c1.04-1.52,2.48-2.39,3.07-3.66,5.7-12.19,11.2-24.47,16.92-36.65.67-1.43,2.33-2.39,3.87-3.12.34,8.37.34,16.3.35,24.22Z"/>
      <path class="cls-25" d="M0,501.45c2.61-4.81,5.56-8.98,7.76-13.52,4.61-9.53,8.8-19.25,13.24-28.86.44-.95,1.43-1.64,2.66-2.05.4,7.68.3,14.96-.16,22.27-1.48,1.32-2.98,2.43-3.67,3.92-5.65,12.09-11.11,24.28-16.76,36.37-.59,1.25-2.02,2.11-3.07,3.15,0-6.94,0-13.88,0-21.28Z"/>
      <path class="cls-9" d="M0,523.19c1.04-1.5,2.48-2.36,3.07-3.61,5.65-12.09,11.11-24.28,16.76-36.37.7-1.49,2.19-2.6,3.81-3.47.42,7.04.33,13.67.25,20.29-2.65,4.29-5.69,8.4-7.88,12.91-4.63,9.52-8.8,19.27-13.23,28.89-.44.96-1.39,1.7-2.44,2.59C0,537.53,0,530.59,0,523.19Z"/>
      <path class="cls-25" d="M23.88,262.83c-1.31,1.51-3.04,2.83-3.86,4.57-5.76,12.29-11.31,24.68-17,37.01-.49,1.07-1.53,1.89-2.67,2.86C0,301.03,0,294.75.34,287.96c1.35-1.95,2.59-3.27,3.32-4.84,5.66-12.17,11.17-24.41,16.87-36.56.65-1.39,2.22-2.34,3.48-3.05.04,6.74-.04,13.03-.13,19.31Z"/>
      <path class="cls-6" d="M23.89,243.07c-1.14,1.16-2.71,2.11-3.36,3.5-5.7,12.15-11.21,24.39-16.87,36.56-.73,1.56-1.97,2.89-3.32,4.37C0,281.6,0,275.65,0,269.24c1.05-1.51,2.48-2.38,3.08-3.64,6.21-13.19,12.28-26.45,18.8-40.12.95-.67,1.49-.9,2.14-.69.03,6.39-.05,12.33-.13,18.28Z"/>
      <path class="cls-35" d="M96.85,977.12c-2.47,5.66-4.99,11.3-7.38,16.99-.69,1.63-1.02,3.42-1.52,5.51-5.96.38-11.91.38-18.31,0,.17-2.04.76-3.71,1.43-5.36,2.32-5.72,4.67-11.43,7.46-17.28,6.41-.05,12.37.04,18.33.13Z"/>
      <path class="cls-22" d="M78.08,977.12c-2.34,5.71-4.69,11.42-7.01,17.15-.67,1.65-1.26,3.32-1.89,5.36-5.63.37-11.25.37-17.29,0,.7-3.07,1.85-5.77,2.93-8.49,1.85-4.66,3.66-9.35,5.92-14.16,6.08-.05,11.71.05,17.34.14Z"/>
      <path class="cls-19" d="M535.11,0c-1.76,5.75-3.95,11.5-6.21,17.24-1.01,2.57-2.13,5.1-3.66,8.11-5.1.4-9.74.34-14.37-.09.57-1.89,1.1-3.42,1.7-4.92,2.71-6.78,5.45-13.56,8.18-20.34h14.36Z"/>
      <path class="cls-16" d="M470.35,25.63c2.6-6.48,5.2-12.96,7.79-19.44.72-1.8,1.39-3.63,2.09-5.82,4.31-.37,8.62-.37,13.38.01-.32,2.68-.99,5.01-1.9,7.25-2.45,6.02-5.01,12-7.98,18.08-4.76.03-9.07-.03-13.38-.09Z"/>
      <path class="cls-22" d="M520.29,0c-2.27,6.78-5,13.56-7.72,20.34-.6,1.5-1.13,3.03-2.15,5.01-4.77.4-9.08.34-13.39-.11.79-2.67,1.47-5,2.38-7.24,2.45-6.02,4.99-12.01,7.5-18h13.37Z"/>
      <path class="cls-1" d="M60.29,977.12c-1.82,4.67-3.63,9.36-5.48,14.02-1.08,2.72-2.23,5.42-3.39,8.49-4.67.37-9.31.37-14.36,0,3.17-8.64,6.77-16.93,10.74-25.22,4.42.9,8.45,1.8,12.49,2.7Z"/>
      <path class="cls-24" d="M47.42,974.43c-3.6,8.29-7.19,16.57-10.82,25.22-3.69.36-7.34.36-11.44.36,2.71-7.65,5.85-15.3,9.06-22.93,1.01-2.4,2.19-4.74,3.69-7.41,3.44,1.38,6.48,3.08,9.52,4.77Z"/>
      <path class="cls-24" d="M398.75,0c-2.34,6.59-5.18,13.16-7.92,19.78-.67,1.62-1.01,3.38-1.95,5.57-4.76.42-9.07.35-13.34-.08,3.64-8.66,7.23-16.97,10.83-25.27h12.39Z"/>
      <path class="cls-14" d="M506.46,0c-2.05,6-4.59,11.98-7.04,18-.91,2.24-1.59,4.57-2.83,7.33-4.43.42-8.42.36-12.4.3,2.52-5.99,5.07-11.97,7.53-17.99.91-2.24,1.58-4.57,2.36-7.25,3.98-.39,7.95-.39,12.39-.39Z"/>
      <path class="cls-14" d="M385.91,0c-3.14,8.31-6.73,16.61-10.82,25.38-4.14.39-7.8.32-11.41-.1,3.64-8.66,7.23-16.97,10.83-25.27h11.4Z"/>
      <path class="cls-6" d="M341.9,25.63c3.6-8.3,7.19-16.61,10.83-25.27,3.36-.36,6.68-.36,10.42,0-3.18,8.66-6.78,16.97-10.82,25.37-3.77.03-7.1-.03-10.43-.1Z"/>
      <path class="cls-11" d="M352.77,25.63c3.6-8.3,7.19-16.61,10.83-25.27,3.36-.36,6.68-.36,10.45-.36-3.14,8.31-6.74,16.61-10.82,25.37-3.81.39-7.14.32-10.47.26Z"/>
      <path class="cls-38" d="M630.43,29.18c-2.02-4.25-3.61-9.22-6.16-13.63-5.06-8.78-13.4-12.98-23.26-15.25,9.58-.3,19.39-.3,29.42-.3v29.18Z"/>
      <path class="cls-38" d="M601.25,1000c4.25-2.02,9.26-3.55,13.62-6.17,8.57-5.17,13.31-13.18,15.27-23.25.3,9.58.3,19.39.3,29.42h-29.18Z"/>
      <path class="cls-25" d="M219.36,25.63c2.74-6.77,5.48-13.55,8.21-20.33.6-1.5,1.12-3.03,1.68-4.93,3-.38,5.99-.38,9.44.01-.19,2.38-.69,4.43-1.48,6.35-2.6,6.32-5.3,12.6-8.4,18.98-3.44.03-6.44-.03-9.44-.09Z"/>
      <path class="cls-9" d="M229.24,25.63c2.66-6.29,5.36-12.57,7.96-18.89.79-1.93,1.29-3.97,1.93-6.35,3-.39,5.99-.39,9.43-.39-1.4,5.01-3.18,10.04-5.11,15.01-1.3,3.34-2.82,6.6-4.72,10.35-3.48.39-6.48.33-9.48.27Z"/>
      <path class="cls-38" d="M29.18,0c-5.34,2.68-11.59,4.7-16.84,8.22C6.13,12.39,2.49,18.94.29,26.48,0,17.86,0,9.03,0,0h29.18Z"/>
      <path class="cls-9" d="M113.64,25.63c2.66-6.29,5.36-12.57,7.95-18.89.79-1.93,1.29-3.97,1.92-6.35,2.99-.39,5.99-.39,9.39-.02-3.19,8.67-6.78,16.97-10.81,25.37-3.11.03-5.78-.03-8.46-.1Z"/>
      <path class="cls-25" d="M122.53,25.64c3.6-8.3,7.19-16.6,10.83-25.27,2.71-.36,5.38-.36,8.49-.36-3.15,8.31-6.75,16.62-10.82,25.38-3.15.39-5.82.32-8.5.25Z"/>
      <path class="cls-28" d="M122.1,25.74c3.11-.03,5.78.04,8.89,0,29.44-.04,58.45.02,87.92-.02,3.45-.03,6.45.03,9.9,0,3.44-.03,6.44.03,9.88,0,19.8-.01,39.15.08,58.5.12,14.6.03,29.2,0,44.26-.11,3.78-.03,7.11.03,10.88,0,3.77-.03,7.1.03,10.87,0,4.1-.03,7.76.04,11.86,0,4.76-.03,9.07.04,13.83,0,27.15-.04,53.86.02,81.01-.01,4.77-.03,9.08.03,13.84,0,4.43-.03,8.41.03,12.85,0,4.76-.03,9.07.03,13.83,0,5.09-.03,9.73.03,14.82,0,14.76-.02,29.07.09,43.37.12,22.62.05,37.64,15.03,37.65,37.73.03,84.56.04,169.12.18,254.13,0,2.23-.23,4.02-.23,5.81-.02,86.27.02,172.55-.02,258.82-.06,119.18-.18,238.36-.29,357.54-.02,20.16-15.3,36.04-35.47,36.87-2.63.11-5.27.07-7.9.07-153.61,0-307.22,0-460.84,0-1.32,0-2.63.03-4.4.18-6.41.04-12.37-.05-18.77,0-6.08.04-11.71-.05-17.79,0-4.48-.76-8.52-1.66-12.94-2.56-3.42-1.69-6.46-3.38-9.85-5.13-2.61-2.82-5.03-5.47-7.08-8.37-4.92-6.95-6.71-14.82-6.7-23.27.05-35.56.02-71.12.02-107.13,0-8.71,0-16.97,0-25.69,0-8.72,0-16.97,0-25.69,0-8.72,0-16.97,0-25.69,0-8.39,0-16.31,0-24.7-.1-39.75-.27-79.05-.28-118.34,0-36.5.16-73,.11-109.94-.05-7.07.03-13.7-.02-20.77-.04-7.72.05-15,0-22.73-.04-1.42.14-2.39.14-3.37,0-63.29,0-126.59-.14-190.33-.04-6.74.04-13.03,0-19.76-.04-6.39.04-12.34.17-18.96-.05-1.2-.14-1.73-.24-2.25.08-5.09.22-10.18.23-15.26.02-47.72,0-95.45.01-143.17,0-23.53,14.56-38.02,38.2-38.03,16.79,0,33.57-.01,50.81-.12,3.13-.03,5.8.03,8.91,0M103.55,455.17c-.21.07-.42.14-1.5-.07-2.88-.52-3.13,1.15-3.1,3.44.09,7.52.06,15.05,0,22.58,0,1.04-.34,2.08-.53,3.11-.42-.05-.85-.09-1.27-.14v-28.74c-1.6-.21-2.7-.35-4.46-.71-.58.26-1.17.51-2.63.46-4.01-.7-3.09,2.21-3.09,4.32-.02,27.65,0,55.31-.04,82.96,0,1.52-.31,3.04-.47,4.55-.5-.05-1-.11-1.5-.16v-91.76c-1.66.15-2.75.24-3.79.33v114.18c1.27.06,2.25.14,3.22.14,146.66,0,293.33-.02,440.84.29,1.81.08,3.62.15,6.28.26.55-.11,1.1-.23,2.36-.52,3.28.53,3.22-1.53,3.21-3.88-.05-17.95-.03-35.9-.03-53.85v-4.95c.57,0,1.13,0,1.7,0v62.07c5.1,1.64,4.2-1.64,4.2-3.89.03-27.67.02-55.33.04-83,0-1.61.15-3.22.23-4.82.52.03,1.05.05,1.57.08v91.86c1.8.25,2.91.41,5.04.8.68-.06,1.36-.13,2.72-.41.76-1.08,2.18-2.16,2.19-3.24.12-35.98.06-71.96.16-107.95,0-2.91-.98-3.88-4.21-3.85-.64.07-1.27.14-2.74.35-145.34,0-290.67.01-436.01.03-2.12,0-4.24.22-6.99.12-.22.04-.43.09-.7.13,0,0-.05,0-.7-.13M576.3,569.69c.75-1.14,2.16-2.28,2.16-3.42.12-35.9.07-71.8.16-107.7,0-2.86-.92-3.94-4.19-3.9-.62.06-1.25.12-2.58.31-3.81-.6-3.24,2.08-3.24,4.32,0,30.55,0,61.1,0,91.65v18.41c1.5.21,2.76.39,5,.77.66-.07,1.33-.14,2.69-.43M564.42,569.7c.76-1.08,2.19-2.15,2.19-3.24.12-35.98.06-71.96.16-107.94,0-2.9-.98-3.88-4.03-3.83-.49.28-.98.55-2.28.46-3.98-.99-3.72,1.62-3.72,4.23.03,30.53.02,61.05.02,91.58v18.39c1.51.21,2.76.38,5,.77.66-.07,1.33-.14,2.67-.42M66.34,455.15c-4.13-.91-3.1,2.15-3.11,4.2-.03,27.11-.02,54.22-.02,81.33,0,9.5,0,19.01,0,28.92,1.53,0,2.78,0,4.78-.54,1.65.2,3.3.41,4.93.61v-114.69c-1.5.17-2.77.31-4.59.41-.37.05-.75.09-1.98-.24M55.55,569.44h5.58v-114.1h-3.97c0,2.08,0,3.88,0,5.67,0,29.46,0,58.92,0,88.38,0,5.76.13,11.53-.1,17.28-.05,1.25-1.38,2.44-1.88,2.55.02-36.71.06-73.41,0-110.12,0-1.36-.93-2.71-1.43-4.07-.65,1.41-1.86,2.81-1.86,4.22-.1,35.55-.04,71.11-.14,106.66,0,2.63.88,3.87,3.81,3.51M504.45,972.48c21.24,0,42.49.02,63.73-.03,2.62,0,5.3-.1,7.84-.67,16.45-3.7,25.9-16.8,25.9-35.87.02-106.05,0-212.11,0-318.16v-4.72H28.51c0,2.03,0,3.67,0,5.31,0,106.38,0,212.77,0,319.15,0,21.44,13.67,34.99,35.25,34.99,146.56,0,293.13,0,440.68,0M97,202.08v158.49h435.54V83.79H97c0,39.3,0,78.3,0,118.29M75.07,528.16v41.17c4.56,1.23,3.85-1.66,3.85-3.86.01-29.47,0-58.94,0-88.41,0-6.26-.05-12.51.02-18.77.03-2.71-.62-4.18-3.88-2.59v72.46Z"/>
      <path class="cls-5" d="M447.62,986.52c.46-1.53.91-2.69,1.36-3.86,1.68,1.51,3.37,3.01,4.86,4.35.3-1.01.8-2.73,1.31-4.44.49,0,.98,0,1.47-.01.56,2.08,1.12,4.16,1.79,6.67-3.98-.17-7.22,3.86-11.55,1.04h3.92c-1.37-1.47-2.27-2.43-3.16-3.75Z"/>
      <path class="cls-26" d="M433.8,990.11c-2.04-.21-4.97.97-4.31-3.22.1-.64-2.11-1.64-3.49-2.65,2.26-.34,4.75-.71,7.23-1.08l-.1-.97c1.5.66,3,1.31,4.93,2.39.37,2.13.31,3.84.26,5.55-.94,0-1.89-.01-3.19-.02-.35,0-.35,0-.22-.31.49-1.64.86-2.97,1.4-4.97-2.19.8-3.63,1.33-5.18,1.89,1.01,1.29,1.83,2.34,2.65,3.38,0,0,0,0,0,0Z"/>
      <path class="cls-18" d="M438.42,990.47c-.04-2.04.02-3.75-.01-5.88,1.54-.82,3.17-1.49,4.8-1.49.78,0,2.07,1.19,2.19,1.98.14.9-.53,2.24-1.28,2.9-1.55,1.37-3.38,2.42-5.11,3.58-.03.02-.23-.18-.31-.3-.09-.14-.12-.3-.28-.79Z"/>
      <path class="cls-29" d="M469.25,988.58c1.82.24,3.65.48,5.67.74.47.35,1.62,1.22,3.32,2.5h-13.02c.95-1.48,1.63-2.53,2.89-3.56.76.13.95.22,1.15.32Z"/>
      <path class="cls-26" d="M489.17,989.1c2.07-.32,4.13-.63,6.2-.95.07.3.13.6.2.89-1.51,1.16-3.02,2.32-5.11,3.91-.45-1-.9-2.03-1.34-3.44.02-.38.05-.42.05-.42Z"/>
      <path class="cls-29" d="M469.2,986.99c.24-1.31.47-2.62.74-4.12.99.43,1.95.84,2.89,1.25-.74,1.09-1.6,2.34-2.87,3.47-.53-.28-.65-.44-.77-.6Z"/>
      <path class="cls-26" d="M490.12,983.21c-.32,1.71-.65,3.42-.96,5.51,0,.38-.03.41-.05.43-3.85-2.14-1.62-3.99.65-5.9.36-.05.36-.04.36-.04Z"/>
      <path class="cls-26" d="M495.42,984.68c-.55.73-1.31,1.23-2.07,1.73-.19-.41-.38-.82-.57-1.23.81-.24,1.62-.49,2.64-.5Z"/>
      <path class="cls-26" d="M497.64,982.29c-.51.31-1.27.55-2.04.79-.01-.32-.02-.63-.03-.95.61.03,1.21.05,2.07.16Z"/>
      <path class="cls-26" d="M434.78,990.12c-.39.85-.77,1.71-1.16,2.56-.03-.66-.05-1.33.05-2.28.13-.29.12-.28.37-.28.41,0,.58,0,.74,0,0,0,0,0,0,0Z"/>
      <path class="cls-26" d="M427.87,990.11c.51.74,1.01,1.49,1.52,2.23-.22.13-.44.26-.66.4-.29-.67-.57-1.33-.86-2.31,0-.31,0-.32,0-.32Z"/>
      <path class="cls-26" d="M490.12,983.2c.23-.51.44-1.04.73-1.52.03-.04.49.17.74.26-.3.4-.59.8-1.17,1.23-.29.03-.29.03-.29.02Z"/>
      <path class="cls-26" d="M499.15,989.84c-.2-.32-.17-.67-.14-1.02.24.07.49.15.73.22-.12.26-.24.51-.59.8Z"/>
      <path class="cls-26" d="M496.21,991.36c.26.42.28.8.3,1.19-.15-.04-.42-.06-.44-.12-.07-.36-.07-.73.14-1.07Z"/>
      <path class="cls-26" d="M499.83,984.99c.73-.24,1.47-.48,2.2-.73.06.22.12.44.18.66-.51.11-1.02.22-1.89.28-.36-.05-.49-.21-.49-.21Z"/>
      <path class="cls-26" d="M500.03,985.22c-.43.19-.92.3-1.42.41.25-.18.5-.35.99-.59.24-.06.37.1.43.18Z"/>
      <path class="cls-29" d="M468.42,988.11c-.07-.45.12-.72.54-1.05.36.09.48.26.72.69.04.43-.07.57-.32.76-.3-.02-.49-.12-.94-.4Z"/>
      <path class="cls-26" d="M427.86,990.12c-.04-.1-.07-.19-.05-.15.05.14.05.15.05.15Z"/>
      <path class="cls-20" d="M23.67,222.4c.36.43.45.96.39,1.71-.69.47-1.23.7-2.05,1.05.28-.82.83-1.74,1.65-2.76Z"/>
      <path class="cls-40" d="M503.95,972.48c-147.06,0-293.62,0-440.19,0-21.58,0-35.25-13.55-35.25-34.99,0-106.38,0-212.77,0-319.15,0-1.64,0-3.29,0-5.31h573.42v4.72c0,106.05,0,212.11,0,318.16,0,19.07-9.45,32.18-25.9,35.87-2.54.57-5.22.66-7.84.67-21.24.05-42.49.03-64.22.03M250.03,826.9c-2.09.15-4.17.29-7.23.51,4.89,3.11,15.88,2.76,18.08-.17-1.79-.15-3.36-.28-5.21-.86-.27-.44-.54-.88-.39-1.81-.14-2.41-.28-4.83-.42-7.36-.52,0,.22.19.77-.04.86-.36,1.59-1.01,2.38-1.54-.88-.46-1.74-1.23-2.65-1.3-2.44-.18-4.92-.2-7.36.03-.78.07-1.47,1.14-3.29,2.66,3.3.15,4.97.23,7.59.34-5.04,2.96-4.94,5.77-1.4,9.07,0,0,.02.39-.88.46M84.18,876.22l-4.55,8.3c.66.37,1.33.73,1.99,1.1,3.67-5.77,7.34-11.55,11-17.32-.55-.4-1.1-.8-1.65-1.2-2.32,2.83-4.64,5.65-7.36,7.73.12-.8.63-1.95.29-2.34-1.21-1.37-2.71-2.47-4.1-3.68-1.02,1.53-2.04,3.07-3.06,4.6,1.57.92,3.07,2.02,4.74,2.69.68.27,1.73-.37,2.69.12M579.24,931.51c-1.51,2.83-3.02,5.66-4.52,8.49l1.89,1.06c3.67-5.76,7.33-11.53,11-17.29-.58-.4-1.16-.8-1.74-1.2-2.25,2.77-4.49,5.53-7.28,7.65.74-2.82.4-5.67-2.88-5.85-3.07-.17-5,1.87-3.98,5.44.07.25-.41.66-1.51.98-6.61,1.37-10.44-1.67-11.69-8.83-.49.19-.97.38-1.46.57-2.1,3.4-4.2,6.81-6.93,11.22,3.49,0,5.6-.24,7.62.09,1.19.2,2.47,1.11,3.26,2.07,1.23,1.48,2.09,3.27,3.1,4.93,1.39-1.48,2.99-2.81,4.11-4.47,1.17-1.71,1.88-3.74,3.55-6.07,2.48.16,4.96.32,7.47,1.21M197.52,932.51c-1.5,2.47-3,4.93-4.51,7.4.72.43,1.44.87,2.17,1.3,3.72-5.8,7.45-11.59,11.17-17.39-.63-.44-1.27-.87-1.9-1.31-2.29,3.14-4.57,6.28-7.06,8.57.16-.81.73-1.86.41-2.37-.97-1.55-2.27-2.89-3.45-4.32-1.24,1.26-2.47,2.51-3.71,3.77,1.39,1.26,2.66,2.68,4.21,3.7.65.43,1.86.01,2.65.65M233.43,819.84c-1.52,2.84-3.03,5.68-4.55,8.52.64.36,1.27.72,1.91,1.07,3.66-5.75,7.33-11.51,10.99-17.26-.58-.4-1.16-.8-1.74-1.2-2.26,2.74-4.52,5.49-6.88,7.39-.59-1.69-.84-3.7-1.94-4.95-.53-.6-3.12-.26-3.97.53-.84.78-1.28,2.91-.82,4,1.55,3.66,4.31,2.51,6.98,1.9M338.27,874.13c.51-3.1-.59-5.52-3.87-5.11-1.29.16-3.42,3.1-3.16,4.35.82,3.91,3.77,3.68,6.94,2.82l-4.51,8.41c.65.36,1.3.73,1.96,1.09,3.68-5.77,7.35-11.54,11.03-17.31-.56-.42-1.12-.85-1.68-1.27-2,2.49-4,4.97-6.69,7.03M268.72,820.88c-1.47,2.5-2.94,5-4.41,7.5.71.43,1.43.86,2.14,1.29,3.71-5.8,7.42-11.61,11.12-17.41l-1.74-1.35c-2.36,3.12-4.72,6.25-7.01,8.51.06-.98.49-2.15.1-2.9-.71-1.36-1.91-2.47-2.9-3.69-1.39,1.27-3.12,2.36-3.97,3.93-.27.49,1.64,2.62,2.92,3.34.99.56,2.56.1,3.74.79M197.34,763.12c.66-2.85.32-5.63-3.05-5.81-1.29-.07-3.74,2.29-3.87,3.71-.3,3.41,2.4,4.04,5.3,3.74.32-.03.64.04,1.56.63-1.32,2.54-2.63,5.08-3.95,7.62.64.35,1.27.7,1.91,1.05,3.69-5.78,7.37-11.56,11.06-17.34-.55-.4-1.1-.8-1.65-1.21-2.34,2.79-4.67,5.58-7.31,7.61M76.63,765.42c-1.3,2.53-2.59,5.06-3.89,7.59l1.86,1.01c3.69-5.77,7.38-11.54,11.07-17.31-.57-.42-1.14-.84-1.71-1.26-1.11,1.36-2.06,2.9-3.38,4.01-.9.76-2.3.92-3.44.63-1.61-.81-3.17-2.01-4.86-2.22-.57-.07-2.37,2.81-2,3.54.71,1.42,2.5,2.34,3.95,3.3.45.3,1.25.07,2.4.71M78.46,820.81c-1.41,2.45-2.83,4.91-4.45,7.73,3.86-.43,12.13-12.62,12.32-18.45-2.88,3.61-5.09,6.38-7.47,8.33-.7-1.73-1.4-3.46-2.1-5.18-1.68.77-3.33,1.59-5.04,2.27-.46.19-1.08-.01-1.57-.78-2.57-6.09-8.31-9.03-14.12-7.24-5.8,1.79-9.06,7.81-7.63,14.09,1.05,4.63,7.02,8.51,12.16,7.92,6.22-.72,9.62-4.74,10.26-11.9,2.43.84,4.87,1.69,7.64,3.21M341.71,820.87c-2.58,2.23-3.05,5.1-.53,7.15,1.25,1.03,4.59,1.02,5.98.04,2.83-1.98,2.17-4.78-.27-7.08-.2-.19-.2-.58.6-.85,1.52-.38,3.03-.75,4.55-1.13-.15-.4-.3-.8-.45-1.2h-15.48c-.04.57-.08,1.14-.12,1.71,1.97.21,3.94.42,5.72,1.35M454.27,821.66c-1.97,1.22-3.98,2.39-5.91,3.67-.93.61-1.75,1.41-2.62,2.13,1.09.43,2.22,1.31,3.28,1.23,7.2-.54,12.43-7.36,11.97-16.45-1.23.85-1.94,2.07-2.8,3.18-1.53,1.97-3.14,3.87-4.51,5.12.46-1.03,1.19-2.03,1.33-3.1.44-3.56-1.36-5.81-4.83-5.97-3.22-.15-5.33,1.94-5.32,5.16,0,3.23,2.02,5.08,5.35,5.07,1.12,0,2.24-.37,4.07-.02M337.66,933.3c-1.81,1.18-3.64,2.35-5.44,3.55-1.05.7-2.06,1.46-3.09,2.19,1.23.37,2.53,1.19,3.69,1.03,7.35-.99,11.25-6.03,11.91-16.2-1.36.84-2.17,2.09-3.1,3.25-1.55,1.94-3.18,3.81-4.58,5.02.4-.7,1.22-1.48,1.11-2.09-.38-2.05-.49-4.89-1.83-5.83-1.39-.98-4.57-.82-6.06.19-1.22.83-1.98,4.06-1.32,5.45.75,1.57,3.25,2.43,5.13,3.27.75.33,1.89-.23,3.57.16M151.88,876.24c-.23-.89-.46-1.78-1.6-2.85-3.59-.01-7.19-.13-10.77.03-1.04.05-2.04.91-3.05,1.4.93.56,1.8,1.27,2.8,1.63.7.26,1.57.05,1.15.05.31,2.95.07,5.75,1.1,7.96.42.89,4.98,1.18,5.33.52,1.24-2.35,1.48-5.23,2.23-8.45-.14.01.99-.09,2.8-.28M108.78,873.39c-3.59-.01-7.19-.13-10.78.03-1.04.05-2.04.91-3.05,1.4.93.56,1.81,1.27,2.81,1.63.69.26,1.56.05.89.05.52,3.16.52,6,1.64,8.3.36.74,4.86.75,5.39-.15,1.23-2.06,1.19-4.88,1.66-7.39-.47-.16-.94-.33-1.41-.49,1.25-.15,2.51-.29,4.44-.53-.23-.89-.46-1.78-1.6-2.86M53.85,637.19c-3.47.69-3.54,3.26-3.54,6.05.04,24.37.02,48.74.02,73.11,0,7.28.31,7.61,7.44,7.61,171.74,0,343.48,0,515.22,0,6.62,0,7.68-1.05,7.68-7.73.02-23.71.01-47.42,0-71.13,0-7.34-.73-8.03-8.29-8.03-75.74,0-151.49,0-227.23,0-96.82,0-193.64.03-291.31.11M219.61,828.02c5.55-4.56,7.07-10.89,3.84-16.01-2.68-4.25-9.18-6.13-14.01-4.05-5.9,2.53-8.67,9-6.3,14.69,2.35,5.64,8.89,7.98,16.47,5.38M157.75,937.79c-2.14,0-4.29.13-6.42-.01-3.13-.21-3.59,1.22-2.77,3.81h20.16c-3.21-7.17-10.56-7.46-15.14-11.3,4.54-3.86,11.92-4.16,15.27-11.48-6.89,0-12.63-.05-18.36.06-.75.01-1.48.79-2.22,1.21.73.6,1.43,1.67,2.21,1.73,2.69.22,5.4.08,8.11.08-2.33,2.18-4.97,3.37-7.39,4.89-1.2.76-2.54,2.03-2.8,3.28-.15.75,1.55,2.07,2.64,2.83,2.42,1.7,4.98,3.21,6.7,4.9M537.46,921.89c.83.07,1.65.14,3.67.32-3.9,1.98-6.7,3.29-9.39,4.78-3.25,1.8-3.28,3.86-.08,5.64,2.76,1.54,5.64,2.88,8.46,4.31-2.53.83-4.77.79-7.01.84-3.42.07-3.42.1-3.02,3.86h20.02c-3.14-7.17-10.63-7.48-15.29-11.42,4.82-3.8,12.01-4.26,15.25-11.11h-21.14c1.96,4.27,5.3,2.13,8.51,2.76M454.03,866.51v-3.67c-3.11,2.82-5.31,4.81-7.86,7.12-.3-2.67-.51-4.47-.71-6.28-.71-.06-1.43-.12-2.14-.17-.36,6.3-.72,12.59-1.09,18.89-.64-.01-1.27-.02-1.91-.03-.22-1.47-.61-2.93-.64-4.4-.09-3.94.06-7.89-.12-11.82-.04-.82-1.06-1.61-1.64-2.41-.58.63-1.65,1.24-1.67,1.88-.19,5.41-.47,10.84-.14,16.22.16,2.71,1.94,5.36,5.22,4.4,1.71-.5,3.01-2.57,4.33-4.07.4-.45.23-1.4.36-2.42,2.84,2.21,5.29,4.12,7.75,6.04.39-.44.78-.88,1.18-1.32-2.53-3.29-5.07-6.57-7.6-9.85,2.29-2.76,4.27-5.15,6.68-8.1M164.42,870.73c-.02,2.63.13,5.27-.15,7.87-.11,1.05-1.17,2-1.8,3-.79-1-2.18-1.96-2.28-3.02-.3-3.42,0-6.9-.2-10.33-.06-.94-1.09-1.83-1.68-2.74-.42.17-.84.33-1.25.5,0,4.24.03,8.47,0,12.71-.03,3.82,1.52,6.61,5.56,6.51,3.69-.09,5.24-2.84,5.33-6.35.06-2.46-.17-4.95.11-7.38.12-1.04,1.18-1.98,1.82-2.97.8,1.02,2.15,1.97,2.28,3.06.34,2.75.02,5.58.17,8.36.08,1.52.55,3.01.84,4.52.68-.04,1.35-.08,2.03-.12,0-4.27-.08-8.54.02-12.81.08-3.4-1.21-5.87-4.63-6.49-3.63-.66-5.5,1.4-6.15,5.68M235.18,874.2c.81,3.32-1.7,7.43,2.36,10.08.66-4.46.72-8.85.65-13.23-.06-3.61-1.71-6.04-5.56-6.04-4,0-5.3,2.63-5.31,6.21,0,2.63.13,5.27-.11,7.87-.08.88-1.14,1.68-1.75,2.51-.81-.83-2.23-1.61-2.31-2.5-.29-3.42-.05-6.89-.22-10.33-.05-1.1-.74-2.18-1.14-3.26-.52.1-1.05.2-1.57.31,0,5.15-.43,10.36.25,15.42.21,1.57,3.69,4.05,5.22,3.76,1.96-.38,4.07-2.87,4.98-4.95.85-1.93-.07-4.56.3-6.8.27-1.64,1.36-3.15,2.08-4.71.71,1.59,1.41,3.17,2.12,5.68M518.34,865.68c-.78,2.04-1.86,4.01-2.26,6.12-.39,2.06.14,4.29-.17,6.37-.18,1.22-1.23,2.3-1.88,3.45-.78-1.18-2.12-2.31-2.24-3.56-.32-3.25-.01-6.56-.19-9.83-.05-.94-.88-1.85-1.36-2.77l-1.4.39c0,4.53-.02,9.06,0,13.58.02,3.44,1.88,6.27,5.14,5.6,2.11-.43,4.33-3.36,5.24-5.66.9-2.27-.02-5.21.33-7.79.15-1.1,1.48-2.05,2.28-3.06.64.98,1.74,1.93,1.82,2.96.25,3.1-.02,6.24.15,9.35.07,1.25.77,2.46,1.19,3.69.58-.1,1.16-.2,1.74-.3,0-4.16.04-8.31,0-12.47-.06-5.55-1.93-7.08-8.39-6.08M348.62,925.73c0,2.79.02,5.59,0,8.38-.04,3.73,1.22,6.66,5.41,6.57,4.18-.09,5.3-3.13,5.31-6.79,0-2.46-.12-4.95.16-7.38.1-.89,1.2-1.67,1.85-2.5.77.87,2.13,1.69,2.21,2.62.28,3.26.01,6.57.2,9.84.07,1.19.83,2.35,1.28,3.52.54-.12,1.08-.23,1.62-.35,0-4.36.06-8.72-.02-13.08-.06-3.38-1.63-5.47-5.22-5.83-4.04-.41-5.16,2.2-5.53,5.36-.27,2.27.16,4.63-.17,6.88-.23,1.54-1.23,2.96-1.89,4.43-.74-1.4-1.95-2.75-2.13-4.22-.35-2.75.02-5.58-.16-8.36-.08-1.13-.83-2.21-1.28-3.31-.54,1.11-1.08,2.22-1.62,4.21M388.1,940.76h14.5c-.63-5.56-5.47-1.7-7.19-4.2v-12.51c2.51-.46,4.83-.88,7.14-1.3-.1-.56-.2-1.12-.3-1.68h-17.64c-.13.51-.26,1.01-.38,1.52,2.38.53,4.75,1.05,7.15,1.59v12.95c-2.46.24-4.64.45-6.83.66-.16.47-.32.94-.48,1.41,1.04.52,2.08,1.04,4.04,1.56M405.61,864.96c-3.12.75-7.03-1.64-10.46,2.54,3.32.29,5.52.49,7.67.68v13.59c-1.65,0-3.03-.26-4.23.08-.96.28-1.71,1.3-2.56,1.99.85.5,1.69,1.41,2.55,1.44,4.27.15,8.55.15,12.82,0,.87-.03,1.7-.98,2.55-1.51-.89-.66-1.7-1.64-2.7-1.91-1.49-.4-3.12-.31-4.85-.44,0-2.85.25-5.18-.05-7.44-.6-4.56.78-6.89,5.77-6.2.61.08,1.36-.81,2.05-1.25-.06-.39-.12-.77-.18-1.16-2.49-.13-4.97-.26-8.38-.39M147.08,812.94c-3.59-2.4-9.23,1.02-9.93,5.82-.91,6.16,4.1,7.67,7.63,10.39,9.02-7.71,9.66-11.23,2.31-16.21M74.93,923.15c-8.73,4-9.99,11.77,1.05,17.54,1.22-.91,2.39-1.94,3.69-2.72,3.1-1.87,4.63-5.09,3.19-7.9-1.46-2.84-4.73-4.75-7.93-6.92M333.53,752.13c-.58.59-1.64,1.15-1.67,1.76-.18,3.28-.14,6.56-.11,9.85.04,4.33-2.34,6.41-6.39,6.37-3.92-.04-6.58-1.77-6.39-6.3.13-3.12.14-6.25-.08-9.35-.06-.82-1.13-1.58-1.74-2.36-.57.65-1.63,1.3-1.64,1.97-.06,4.09-.32,8.26.31,12.27.82,5.21,4.66,7.71,9.98,7.37,4.79-.31,8.36-3.45,8.7-8.4.29-4.22-.15-8.49-.97-13.16M396.45,830.01c3.95,0,7.9.03,11.84.01,5.96-.02,9.46-2.93,11-9.1,1.18-4.73-1.26-11.7-5.82-12.74-5.9-1.34-12.2-.94-18.33-1.3-.07.73-.13,1.47-.2,2.2,1.38.28,2.76.75,4.15.8,3.29.12,6.59-.12,9.87.1,4.43.29,8.17,4.73,7.96,9.12-.21,4.39-3.83,7.9-8.34,7.98-3.78.06-7.57,0-11.35.03-2.05.02-3.4.52-.78,2.91M418.32,884.35c2.07-1.75,4.13-3.5,6.28-5.32,2.47,2.23,4.62,4.18,7.36,6.66,2.43-6.32,1.58-11.94.74-18.48-3.12,2.66-5.43,4.63-7.68,6.55q-6.93-5.59-8.9-3.77c1.96,2.15,3.92,4.31,6.28,6.89-1.87,1.67-3.69,3.06-5.16,4.76-.4.47.23,1.83,1.09,2.7M564.59,865.67c-.09,5.28-.19,10.57-.28,15.85-.65-.01-1.31-.03-1.96-.04-.14-1.5-.38-3-.41-4.5-.06-3.44.16-6.9-.13-10.31-.09-1.1-1.44-2.1-2.21-3.15-.44.27-.88.53-1.32.8,0,5.56-.18,11.12.07,16.66.14,3.07,1.84,5.31,5.33,5.16,3.28-.14,4.51-2.29,4.54-5.27.06-4.91.08-9.83,0-14.75-.05-3.12-1.4-3.32-3.63-.45M390.44,882.15c0-.1,0-.19.01-.29-.02.29-.04.83-.07.83-2.95.04-5.89.04-9.79.04,2.77-4.22,4.85-7.4,6.94-10.57-.52-.44-1.03-.88-1.55-1.32-2.77,3.16-5.54,6.32-8.3,9.46-3.38-2.75-4.69-7.64-8.88-9.13-.39.38-.77.77-1.16,1.15,2.1,3.21,4.2,6.42,6.51,9.97-1.37.16-2.09.08-2.64.35-1.25.6-2.43,1.36-3.64,2.06,1.24.5,2.46,1.36,3.72,1.42,3.94.19,7.92-.22,11.84.16,3.38.32,5.12-1.61,7.01-4.11M61.57,886.16c5.27.66,9.35-1.12,11.96-5.86,2.49-4.53,1.84-8.88-.97-12.98-3.1-4.52-16.48-6.53-22.08-3.37-.14.08-.02.61-.02.93.25.21.48.58.71.59,4.1.09,8.21.05,12.31.23,5.05.21,8.82,4.44,8.62,9.48-.19,4.68-3.73,7.97-8.73,8.03-4.34.05-8.68,0-13.02,0-.06.56-.11,1.12-.17,1.68,3.01,2.66,7.01.63,11.36,1.28M121.92,932.76c1.79-4.72,3.58-9.45,5.37-14.17-.69-.34-1.39-.69-2.08-1.03-1.5,2.35-3,4.7-4.58,7.18h-7.1c-1.63-2.58-3.06-4.85-4.49-7.11-.61.31-1.22.62-1.83.93,2.77,7.39,5.51,14.79,8.45,22.11.08.19,2.98-.09,3.45-.85,1.18-1.91,1.71-4.21,2.8-7.06M487.46,824.66c4.16-5.72.81-15.51-5.23-16.9-5.62-1.29-11.77-.28-17.69-.28-.09.44-.19.88-.28,1.31,1.33.37,2.64.99,3.98,1.06,3.27.16,6.57-.07,9.84.09,4.99.25,8.38,4.14,8.2,9.16-.17,4.83-3.49,7.92-8.63,7.97-4.36.04-8.72,0-13.08,0-.13.51-.25,1.01-.38,1.52,1,.47,1.98,1.28,3.01,1.34,3.27.17,6.58-.16,9.84.12,4.38.38,7.66-1.14,10.42-5.41M315.68,938.81c1.18-.85,2.6-1.5,3.49-2.59,2.64-3.24,2.55-6.72-.22-9.79-2.72-3.01-5.83-4.31-9.7-1.45-4.59,3.38-4.96,9.84,0,12.64,1.41.8,2.75,5.88,6.44,1.19M289.08,760.98c-2.44-1.65-5.64-5.15-7.17-4.53-2.87,1.16-5.84,4.39-6.71,7.36-.59,2.02,2.17,5.18,3.77,7.61.72,1.08,2.29,1.61,3.4,2.34q8.19-5.94,6.71-12.77M465.65,879.8c-2.25.64-4.54,1.16-6.72,1.98-.85.32-1.46,1.31-2.18,1.99.7.53,1.41,1.51,2.11,1.51,7.43.04,14.87-.02,22.3-.27.68-.02,1.31-1.53,1.96-2.35-.94-.63-1.91-1.82-2.82-1.78-3.52.16-7.02.71-10.94,1.17,0-4.47.17-7.9-.08-11.31-.11-1.49-1.04-2.92-1.61-4.37-.66,1.54-1.71,3.03-1.9,4.62-.32,2.59-.09,5.24-.13,8.82M501.83,864.04c-.22,4.06-.54,8.11-.65,12.17-.09,3.45-1.9,5.01-5.13,5.39-4.81.56-7.54-1.66-7.7-6.53-.13-3.76-.02-7.53-.02-11.3-.66,0-1.33-.01-1.99-.02-1.47,5.26-2.1,10.74-.21,16.05,2.2,6.2,10.96,7.51,15.49,2.67,2.87-3.06,3.5-14.65.21-18.42M325.13,884.85c1.77-2.83,3.53-5.66,5.99-9.59-6.71.84-11.82.7-12.71-6.38-.03-.26-2.44-.75-2.72-.37-2.16,2.93-4.07,6.04-6.39,9.6,1.85.22,2.49.41,3.12.36,4.46-.36,8.63-.42,9.03,5.77.03.45,2.1.77,3.68.61M117.56,874.67c-.11-3.68-.22-7.36-.32-11.05-.89.04-1.79.08-2.68.11.28,5.3.16,10.66.99,15.87.61,3.86,4.17,6,7.71,5.46,3.04-.46,7.66-2.3,8.3-4.49,1.5-5.11,1.05-10.81,1.29-16.27,0-.21-1.03-.47-2.45-1.09,0,4.25-.11,7.93.03,11.61.16,4.17-1.49,6.66-5.84,6.8-4.14.13-7.14-1.21-7.02-6.96M370.89,811.44c-1.82,6.03-1.36,16.14,1.83,19.44,0-4.79,0-8.59,0-12.39.02-6.03,2.61-9.18,7.66-9.31,5.29-.14,8.87,3.65,8.9,9.46.02,3.74,0,7.47,0,11.21.74,0,1.49,0,2.23,0,0-3.77-.28-7.56.06-11.3.66-7.32-2.95-9.69-7.14-11.41-5.04-2.08-8.87-.92-13.55,4.32M405.12,920.78c0,3.62-.11,7.25.02,10.86.16,4.4,2.15,7.44,6.73,8.4,4.88,1.03,9.69-.37,10.73-4.57,1.3-5.26,1.09-10.9,1.53-16.37-.69-.1-1.38-.21-2.07-.31-.36.85-.99,1.68-1.03,2.54-.13,2.96-.01,5.92-.07,8.89-.09,4.88-1.89,6.71-6.44,6.65-4.3-.05-6.33-2.2-6.4-6.89-.05-2.96.05-5.93-.04-8.89-.07-2.3-.98-3.08-2.98-.32M445.87,921.81c-2.86,5.32-2.65,17.76.96,20.03,0-4.44-.15-8.49.07-12.53.1-1.86.51-3.97,1.52-5.47,2.21-3.31,5.75-3.79,9.23-2.55,3.43,1.22,5.8,3.64,5.76,7.69-.04,4.2,0,8.4,0,12.59.74-.03,1.49-.05,2.23-.08,0-3.8-.25-7.63.06-11.41.41-4.97-1.1-8.71-5.74-10.86-4.94-2.29-9.54-1.95-14.08,2.59M186.62,937.17c1.09-1.91,2.17-3.82,3.99-7.02-8.16,2.42-11.99-.94-13.4-8.12-.46.17-.93.34-1.39.51-2.14,3.4-4.28,6.8-7.06,11.22,3.17,0,4.93.16,6.65-.04,2.76-.32,4.2.65,4.84,3.46.3,1.34,1.64,2.45,2.51,3.67,1.13-1.03,2.27-2.06,3.86-3.69M188.33,767.7c.47-1.12.94-2.24,1.65-3.92h-9.36c-1.19-2.81-2.22-5.28-3.86-9.16-2.94,4.51-5.14,7.88-7.96,12.2,3.47,0,5.6-.25,7.63.09,1.18.2,2.5,1.12,3.24,2.1,1.2,1.61,1.97,3.54,2.92,5.33,1.51-1.6,3.03-3.18,4.51-4.8.33-.36.52-.83,1.23-1.85M129.36,765.27c1.57-2.52,3.14-5.05,4.71-7.57l-1.13-.93c-3.8,1.69-5.65,7.75-10.84,5.98-3.75-1.28-7.15-3.6-10.7-5.45-.22.25-.44.51-.66.76,1.67,2.09,3.35,4.18,5.03,6.29-1.68,2.43-3.27,4.73-5.62,8.12,4.99-2.36,8.57-5.39,12.12-5.36,3.72.04,7.41,3.02,11.12,4.71.21-.17.43-.34.64-.51-1.45-1.79-2.9-3.59-4.68-6.04M57.15,764.3v6.43c-2.16,0-3.67-.18-5.1.07-.89.16-1.67.97-2.5,1.49.83.53,1.64,1.49,2.48,1.52,4.44.15,8.89.16,13.32,0,.8-.03,1.56-1.08,2.34-1.66-.88-.47-1.71-1.2-2.64-1.35-1.4-.23-2.87-.06-4.53-.06v-13.31c2.56-.58,4.88-1.1,7.2-1.63-.1-.48-.21-.96-.31-1.45h-17.77c-.1.54-.19,1.08-.29,1.62,2.49.47,4.98.93,7.79,1.46,0,2.04,0,3.99,0,6.88M262.8,938.53c-1.48.13-2.97.26-4.97.43,2.18,2.64,11.44,3.7,18.52,2.62.89-.14,1.66-1.08,2.49-1.64l-.45-1.09c-2.18-.19-4.36-.37-7.12-.61,2.4-3.89,4.52-7.33,6.64-10.77-.52-.4-1.05-.8-1.57-1.2-2.69,3.24-5.38,6.48-8.07,9.71-3.58-2.4-4.43-8-9.69-8.52,1.4,3.11,3.29,5.76,4.98,8.53.37.61.03,1.66-.74,2.53M92.85,933.12c-.09,1.42-.19,2.84-.3,4.44-1.72,0-3.08-.23-4.31.07-1.01.25-1.86,1.14-2.79,1.74.89.46,1.77,1.26,2.68,1.31,3.28.16,6.59.22,9.87,0,1.89-.13,3.75-.86,5.62-1.32-1.74-.61-3.48-1.24-5.23-1.81-.59-.19-1.23-.24-2.04-.39v-13.16c2.68-.43,5.05-.82,7.42-1.2-.1-.49-.19-.98-.29-1.47h-17.91c-.06.49-.12.97-.19,1.46,2.34.39,4.68.77,7.47,1.23,0,2.63,0,5.4,0,9.11M437.12,826.88c-.19-.94-.85-2.16-.49-2.79,1.62-2.79,3.52-5.41,5.32-8.09l-1.86-1.4c-2.62,3.28-5.24,6.55-7.89,9.86-3.08-3.42-5.91-6.55-8.73-9.69-.51.45-1.03.89-1.54,1.34,2.25,3.44,4.51,6.88,6.91,10.55-2.68.22-4.66.39-6.64.55-.02.71-.04,1.43-.06,2.14,5.9,1.46,12.08.35,18.1.56.78.03,1.59-1.09,2.39-1.67-.16-.35-.33-.71-.49-1.06-1.43-.1-2.86-.2-5.03-.3M162.14,809.12c-.83.5-1.65,1-2.48,1.5.75.46,1.46,1.19,2.27,1.33,1.54.27,3.15.22,4.79.3v13.27c-2.64.54-5.03,1.04-7.41,1.53.14.57.28,1.14.42,1.71h17.87c.14-.56.28-1.13.42-1.69-2.54-.54-5.08-1.08-7.54-1.6v-12.97c2.73-.48,5.06-.89,7.4-1.3-.1-.7-.2-1.4-.29-2.09-4.86,0-9.72,0-15.46,0M479.31,935.86v-11.76c2.99-.55,5.3-.98,7.61-1.4-.11-.48-.23-.96-.34-1.44h-17.61c-.07.49-.15.97-.22,1.46,2.41.44,4.81.89,7.2,1.33v13.53c-1.91,0-3.54-.16-5.12.07-.73.11-1.33,1-1.99,1.54.66.52,1.32,1.47,2,1.48,4.75.13,9.51.11,14.26,0,.58-.01,1.15-.83,1.72-1.28-.59-.6-1.08-1.55-1.77-1.74-1.81-.48-3.72-.63-5.74-1.79M211.69,927.99c-.88-.39-1.77-.77-2.65-1.16-.27.3-.53.6-.8.89,2.26,3.43,4.53,6.86,7.14,10.82-1.81,0-2.83-.19-3.72.05-1.07.29-2.03.94-3.05,1.44.98.55,1.95,1.53,2.95,1.56,4.92.16,9.84.13,14.76,0,.7-.02,1.38-.93,2.07-1.43-.63-.54-1.21-1.43-1.91-1.53-1.52-.24-3.11-.07-5.35-.07,2.61-4.1,4.8-7.53,6.99-10.97l-1.51-1.23c-2.79,3.23-5.58,6.45-8.39,9.71-2.16-2.69-4.11-5.12-6.53-8.09M285.22,930.61c-1.55,2.54-3.11,5.08-5.3,8.67,4.69-2.3,8.34-5.47,12-5.48,3.75-.01,7.51,3.08,11.27,4.81.16-.24.32-.47.49-.71-1.61-1.97-3.21-3.94-4.82-5.91,1.73-2.62,3.32-5.02,5.64-8.54-5.19,2.62-8.9,5.96-12.61,5.96-3.63,0-7.25-3.43-10.88-5.35-.23.33-.47.66-.7.98,1.5,1.67,2.99,3.35,4.92,5.58M270.09,757.65c-6.72,9.14-13.3,5.32-19.84-1.48-.23.58-.46,1.16-.68,1.74,1.67,2.18,3.34,4.37,4.94,6.47-1.64,2.41-3.26,4.79-5.55,8.15,5.03-2.38,8.66-5.45,12.26-5.43,3.73.03,7.43,3.06,11.15,4.78.24-.18.47-.37.71-.55-1.76-2.1-3.52-4.19-5.31-6.32,1.63-2.07,3.13-3.82,4.38-5.73.16-.25-.95-1.32-2.07-1.62M130.2,815.78c-6.97,7.18-11.87-.1-17.35-3.38-.24.44-.49.89-.73,1.33,1.62,2.05,3.23,4.11,4.8,6.11-1.7,2.65-3.22,5.03-4.75,7.41.38.3.77.61,1.15.91,3.83-1.65,5.64-7.79,10.92-5.88,3.7,1.34,7.05,3.67,10.56,5.56.23-.31.45-.62.68-.92-1.71-2.08-3.42-4.17-5.08-6.19,1.76-2.55,3.4-4.92,5.04-7.29-.4-.34-.8-.68-1.2-1.02-1.18.94-2.36,1.88-4.03,3.37M109.46,829.43c-.02-5.46-4.89-.78-6.64-3.44,2.03-3.24,4.17-6.66,6.3-10.08-.57-.43-1.15-.85-1.72-1.28-2.69,3.36-5.38,6.72-7.97,9.95-2.96-3.44-5.7-6.63-8.44-9.82-.53.4-1.07.79-1.6,1.19,2.14,3.45,4.28,6.9,6.67,10.77-1.37.08-2.2-.04-2.89.21-1.17.42-2.25,1.07-3.36,1.62,1.2.48,2.38,1.36,3.59,1.39,5.09.13,10.19,0,16.06-.5M310.63,820.98c1-1.71,1.99-3.42,2.99-5.13-.53-.39-1.05-.78-1.58-1.17-2.72,3.36-5.44,6.72-7.97,9.84-2.89-3.29-5.72-6.52-8.56-9.75-.5.41-1,.81-1.51,1.22,2.14,3.45,4.28,6.9,6.66,10.74-1.5.07-2.36-.08-3.07.19-1.13.43-2.16,1.14-3.23,1.72,1.07.45,2.12,1.25,3.2,1.29,4.43.15,8.87.17,13.3-.02,1.13-.05,2.22-1.05,3.32-1.61-1.02-.48-2-1.12-3.07-1.38-1.16-.28-2.4-.22-4.2-.34,1.35-2.03,2.33-3.51,3.7-5.61M241.01,769.47c1.82-2.93,3.64-5.86,5.46-8.79-.54-.34-1.08-.68-1.63-1.02-2.69,3.3-5.38,6.6-7.92,9.71-2.92-3.4-5.69-6.61-8.45-9.83-.55.41-1.11.81-1.66,1.22,2.21,3.49,4.42,6.97,6.94,10.96-1.69,0-2.55-.16-3.31.04-1.08.29-2.09.85-3.12,1.29,1.08.56,2.14,1.56,3.24,1.6,4.75.18,9.5.15,14.25,0,.75-.02,1.47-1.08,2.2-1.65-.73-.42-1.43-.92-2.19-1.25-1.4-.61-2.85-1.12-3.79-2.27M524.12,925.71c-1.51-.36-3.01-.72-3.63-.87-1.17-2.02-1.97-3.39-2.77-4.76-.57,1.48-1.54,2.94-1.63,4.45-.23,4.09-.16,8.2,0,12.3.03.94.88,1.84,1.35,2.76.66-.88,1.44-1.7,1.95-2.66.35-.66.32-1.52.46-2.3,2.69-.39,5.28-1.21,6.3-2.96.7-1.19-.8-3.66-2.03-5.96M177.69,871.46c3.82,3.79,7.33,7.73,5.78,14.97,3.9-3.59,6.58-6.05,9.25-8.51-.28-.34-.56-.67-.85-1.01-1.58,1.09-3.16,2.18-4.74,3.27-.33-.26-.66-.52-.99-.78,2.19-2.91,4.38-5.81,6.57-8.72-.17-.52-.33-1.04-.5-1.55-4.86.54-9.72,1.09-14.54,2.33M199.56,881.78c-1.36.49-2.73.99-4.09,1.48.66.69,1.3,1.95,1.98,1.97,5.74.16,11.49.14,17.23.02.65-.01,1.28-1.02,1.91-1.56-.73-.63-1.41-1.71-2.21-1.81-2.08-.26-4.22-.09-6.83-.09,0-4.24.12-8.15-.07-12.05-.06-1.13-1.01-2.22-1.55-3.33-.48,1.17-1.31,2.33-1.37,3.53-.18,3.75-.07,7.5-.07,11.54-1.56.12-2.82.21-4.93.3M542.64,879.76c.32-.75.64-1.5,1.42-3.34-2.65,1.71-4.26,2.75-5.86,3.79-.3-.29-.59-.58-.89-.87,2.23-2.91,4.45-5.81,6.94-9.06h-15.41c3.96,4.57,7.23,8.7,5.65,15.04.51.2,1.02.4,1.54.61,2.04-1.86,4.08-3.73,6.61-6.15M351.37,872.7c5.94.18,6.98,2.59,4.44,10.38-2.36.39-4.71.78-7.06,1.16.1.46.2.92.3,1.37,6.66,1.83,8.11,1.33,11.53-4.04,1.43,1.55,2.85,3.08,4.26,4.61.54-.37,1.07-.74,1.61-1.11-2.57-4.41-5.19-8.79-7.71-13.23-2.22-3.9-5.82-1.82-8.86-2.17.21,1,.42,2.01,1.49,3.04M224.96,772.34c-2.4-4.11-4.31-8.63-7.39-12.14-1.5-1.71-5.15-1.58-7.86-2.11-.32-.06-.86,1.04-1.3,1.61,2.03.5,4.05,1,6.07,1.5.15.04.29.15,1.08.58v9.26c-2.99.8-5.11,1.37-7.23,1.94.13.46.25.93.38,1.39,4.69,1.04,8.97.99,11.1-4.83,1.17,1.65,1.89,3,2.95,3.96.36.32,1.6-.33,2.2-1.17M352.27,763.04c2.75,3.89,5.5,7.78,8.53,12.07,3.67-4.42,6.61-7.96,10.13-12.2-6.77,0-12.31,0-18.66.13M525.54,822.49c-.44,1.52-.87,3.03-1.28,4.44-2.37.17-4.42.31-6.65.47,2.44,4.61,7.47,3.42,11.35-2.15,1.52,1.45,3.05,2.9,4.58,4.36.42-.37.83-.74,1.25-1.11-2.79-4.7-5.15-9.75-8.59-13.92-1.25-1.52-5.07-.95-7.72-1.2-.22-.02-.53.99-.8,1.52,1.87.46,3.73.91,5.6,1.37.31.08.61.18,1.09.32.4,1.63.82,3.34,1.18,5.89M507.6,822.13c.81-1.1,1.61-2.2,2.62-3.57h-19.15c3.56,4,6.66,7.47,10.02,11.24,2.25-2.68,4.12-4.91,6.51-7.67M491.55,932.56c2.58,2.85,5.16,5.69,7.95,8.77,3.25-3.89,6.13-7.34,9.6-11.49-6.44,0-11.94-.02-17.45.09-.21,0-.4,1.33-.1,2.62M64.52,920.98c-2.29-.06-4.58-.18-6.87-.18-5.75,0-6.88,2.23-3.48,8.97.6-2.77,1-4.63,1.47-6.81,1.09,0,2.24-.15,3.33.04,1.42.25,2.79.78,4.19,1.19-1.11.68-2.59,1.11-3.25,2.09-1.15,1.71-2.45,3.77-2.39,5.65.03,1,3.01,2.92,4.22,2.62,1.46-.36,3.2-2.49,3.5-4.09.52-2.84.03-5.86-.71-9.47M440.74,929.04c0-9.15-1.48-10.04-13.11-7.48.18,2.35.37,4.75.56,7.15l1.29-.08c.26-1.84.52-3.69.76-5.45h9.68c-1.85,1.51-2.54,2.54-3.38,2.67-3.16.51-4.97,2.32-4.27,5.31.34,1.43,2.35,3.2,3.84,3.48,3.25.59,4.69-1.55,4.63-5.61M96.7,765.2v5.55c-2.58,0-4.56-.16-6.49.07-.84.1-1.58,1.02-2.37,1.56.69.49,1.36,1.38,2.06,1.4,5.59.12,11.19.12,16.78,0,.67-.01,1.33-.94,1.99-1.45-.64-.53-1.24-1.45-1.92-1.5-2.22-.19-4.46-.07-6.94-.07,0-2.75,0-4.87,0-6.99,0-2.14.11-4.29-.07-6.41-.06-.77-.8-1.49-1.23-2.23-.6.74-1.64,1.44-1.72,2.23-.24,2.28-.09,4.6-.09,7.84M548.18,885.91c7.45-.57,9.07-2.29,9.1-9.7.01-3.28.14-6.57-.09-9.83-.07-.93-1.21-1.78-1.86-2.67-.63.92-1.74,1.8-1.81,2.75-.23,3.26-.24,6.56-.05,9.83.19,3.23-.7,5.32-4.14,6.14-.76.18-1.15,1.92-1.15,3.47M332.87,817.92c-1.87-1.45-3.56-3.45-5.67-4.12-.98-.31-3.46,1.72-4.05,3.18-1.14,2.81-.39,5.63,3.04,6.47,3.88.96,6.22-.75,6.69-5.54M380.23,931.02c.1-3.47-1.55-6.08-4.98-5.77-1.82.16-4.32,2.36-4.86,4.15-.44,1.43,1.14,4.45,2.65,5.29,2.93,1.62,5.67.49,7.19-3.66M151.24,766.12v-11.5c-5.14,4.19-1.37,9.21-3.83,12.89-1.6,0-3.39-.03-5.18,0-1.69.04-3.37.14-5.46.23,2.3,3.22,12.9,3.71,14.36,1.22.29-.49.08-1.28.11-2.86M251,877.88c1.48-3.11,1.16-6.08-2.23-7.21-1.75-.59-5.16,0-5.93,1.24-1.01,1.61-.98,4.99.11,6.53,1.96,2.77,5.04,2.44,8.05-.55M143.15,929.32c-.28-3.19-1.84-5.68-5.15-5.22-1.79.25-4.28,2.18-4.69,3.8-.43,1.7.77,5.18,2.1,5.68,3.06,1.16,6.61.98,7.75-4.26M290.38,816.32c-2.25-.76-4.52-2.12-6.73-2.02-1.07.05-3.18,3.31-2.78,4.28.85,2.04,2.89,4.78,4.69,4.99,4.16.48,5.62-2.51,4.82-7.25M297.5,875.79c.75,3.23,2.98,5.24,6,4.16,1.72-.61,3.59-3.33,3.7-5.19.08-1.48-2.16-4.05-3.81-4.48-3.37-.88-5.59,1.08-5.89,5.51M165.64,759.93c-4.6-2.27-8.19-1.47-8.49,2.19-.15,1.83.59,4.56,1.9,5.47,1.33.92,4.96.84,5.63-.14,1.22-1.77.99-4.54.96-7.52M306.75,773.86c2.19-.16,4.38-.33,6.57-.49-.02-.42-.04-.84-.07-1.25-1.95-.27-3.9-.53-4.64-.64-.35-3.07-.25-5.49-1.09-7.53-.26-.63-4.36-.61-4.5-.19-.75,2.36-.82,4.93-1.17,7.76-1.14.17-3.27.49-5.4.82.06.51.11,1.01.17,1.52,3.06,0,6.12,0,10.14,0M347.61,760.38c-3.08-2.55-6.37-3.08-8.51.67-.84,1.47-.28,4.66.87,6.04.94,1.13,3.96,1.46,5.61.87,3.12-1.1,3.49-3.9,2.03-7.58M492.38,816.87c5.06.06,10.12.22,15.17.09.87-.02,1.72-1.25,2.58-1.92-.82-.55-1.62-1.55-2.45-1.57-4.57-.15-9.15-.22-13.71.06-.81.05-1.5,1.85-1.59,3.34M508.38,927.98c1.21-2.84-.59-3.02-2.64-3.01-4.28,0-8.57-.1-12.84.08-.99.04-1.94,1.03-2.91,1.59.94.61,1.86,1.72,2.81,1.75,4.93.14,9.87,0,15.58-.4M359.08,809.16c-5.79,4.82,1.06,7.92,1.12,12.71,1.78-2.88,3.27-4.85,4.28-7.03,1.63-3.52-.17-5.69-5.41-5.68M104.98,871.27q4.9,0,5.58-2.46h-15.65c-.05.64-.1,1.29-.15,1.93,3.11.17,6.22.35,10.22.52M151.43,871.16c.09-.9.17-1.8.26-2.7h-15.33c-.01.89-.02,1.77-.03,2.66,4.78.04,9.56.08,15.11.03M291.43,880.74v-13.03c-.65-.08-1.31-.16-1.96-.24-.38,3.78-.75,7.56-1.15,11.54-3.66.19-7.2.38-11.78.62,1.34,1.27,1.65,1.83,1.97,1.83,4.1.05,8.2.01,12.91-.72M369.54,760.9c1.9-2.57.24-2.94-1.86-2.95-4.42-.02-8.84-.11-13.26.08-.93.04-1.81,1.13-2.71,1.74.9.43,1.79,1.21,2.69,1.23,4.74.12,9.49.05,15.13-.1M326.74,759.2c.11,1.64.21,3.28.32,4.92.74.03,1.48.07,2.22.1.14-3.38.38-6.77.32-10.15,0-.53-1.35-1.04-2.86-2.12,0,2.9,0,4.67,0,7.25M347.18,812.27h-11.15c.02.72.05,1.44.07,2.16h15.71c.08-.44.16-.89.23-1.33-1.31-.28-2.62-.55-4.87-.83M120.26,875.13c.81-.15,2.33-.27,2.34-.45.14-3.43.1-6.88.1-10.32-.65-.06-1.29-.11-1.94-.17-1.8,3.1-.62,6.76-.51,10.93M411.76,931.06c4.13-2.24,1.12-6.04,1.87-9.03.16-.62-1.02-1.58-1.58-2.38-.31.17-.63.35-.94.52,0,3.51,0,7.03.65,10.89M303.93,758.86c-1.53.09-3.06.17-5.99.33,3.88,4.03,7.57,2.15,10.7,2.48.91.1,1.93-.96,2.91-1.49l-.43-1.32c-2.09,0-4.18,0-7.2,0M496.24,868.47c.47,2.37-1.21,5.51,2.36,7.75v-11.76c-.44-.08-.89-.16-1.33-.25-.34,1.14-.68,2.28-1.03,4.25M493.39,875.3c1.4-6.79.92-9.57-2.96-11.03.76,4.11,1.42,7.66,2.96,11.03M324.07,763.01v-10.05c-.48-.13-.96-.25-1.44-.38-.47,1.14-1.54,2.43-1.29,3.38.68,2.63-2.35,6.15,1.81,7.91.13.05.32-.03.92-.86M125.47,872.78c.42.89.83,1.79,1.25,2.68.55-.79,1.49-1.53,1.58-2.37.23-2.11.23-4.27,0-6.38-.1-.9-1.01-1.7-1.55-2.55-.43.15-.86.31-1.29.46,0,2.41,0,4.83,0,8.16M416.13,920.9c.57,3.33-1.66,7.27,2.11,9.97.68-3.13.8-6.19.58-9.22-.04-.55-1.43-1.01-2.69-.75Z"/>
      <path class="cls-12" d="M97,201.58v-117.79h435.54v276.78H97c0-52.89,0-105.69,0-158.99M279.84,336.22c1.28,2.35,2.56,4.7,4.44,8.16-7.29,0-13.32.07-19.34-.03-2.92-.05-5.02.08-5,4.07.02,4.18,2.45,3.86,5.19,3.86,31.95-.02,63.89-.02,95.84,0,2.61,0,4.71.18,4.79-3.68.08-4.15-2.19-3.96-5-3.92-5.98.08-11.96.02-19.25.02,16.54-30.35,32.41-59.46,49.02-89.94,16.64,30.25,32.53,59.12,49.04,89.11-7.79,0-14.29.07-20.8-.04-2.61-.04-3.8.67-3.99,3.56-.25,3.91,1.43,4.62,4.92,4.6,30.63-.11,61.26-.06,91.89-.08,1.37,0,2.74-.29,4.68-.51-2.26-4.45-4.29-7.39-9.4-7.13-7.23.37-14.49,0-21.73.14-2.91.05-4.66-.75-6.23-3.53-22.22-39.5-44.58-78.93-67.01-118.31-1.47-2.58-1.56-4.4-.09-7.07,18.44-33.51,36.75-67.1,54.99-100.72,1.43-2.64,3.01-3.75,6.09-3.69,10.21.2,20.44-.3,30.62.22,6.14.31,8.64-3.18,11.61-8.18h-100.82q-1.02,8.37,6.65,8.37c10.87,0,21.74-.01,32.61.02,1.36,0,2.72.24,5.07.46-17.84,32.54-35.24,64.29-53.26,97.17-18.72-33.28-36.62-65.09-55.13-97.99,3.71,0,6.27-.13,8.82.03,3.27.2,5.22-.36,5.21-4.44,0-4.14-1.75-4.88-5.39-4.86-23.88.12-47.75.06-71.63.06-7.9,0-15.81.12-23.71-.05-3.68-.08-3.8,1.99-3.85,4.74-.06,2.91.4,4.82,3.96,4.57,3.03-.21,6.08-.04,10.34-.04-18.15,32.59-35.66,64.02-53.89,96.75-18.36-32.7-36.03-64.17-54.13-96.42,2.7-.15,4.28-.32,5.85-.32,11.36-.02,22.73-.09,34.09.04,3.27.04,4.63-.82,4.72-4.42.11-4.15-1.57-4.92-5.27-4.91-30.46.12-60.93.07-91.39.07-.99,0-2.27-.34-2.89.14-.76.59-1.55,2.58-1.32,2.78,2.74,2.35,4.42,6.01,9.08,5.89,10.86-.29,21.74,0,32.6-.16,2.83-.04,4.38.8,5.77,3.34,18.33,33.39,36.82,66.7,55.1,100.12.9,1.65,1.06,4.6.19,6.2-21.88,40.43-43.9,80.77-66.09,121.03-.85,1.53-3.46,2.85-5.31,2.94-6.9.35-13.84.43-20.74.04-5.3-.3-8.01,2.53-10.71,6.94,1.38.42,2.38,1,3.38,1,31.45.05,62.91.03,94.36.07,2.42,0,3.54-.7,3.66-3.34.15-3.32-.77-4.79-4.39-4.64-5.83.25-11.68.07-18.76.07,16.03-29.88,31.37-58.47,47.41-88.36,15.28,27.46,29.77,53.5,44.55,80.2Z"/>
      <path class="cls-27" d="M548.83,569.87c-1.12-.16-2.24-.32-4.03-.57v-91.86c-.52-.03-1.05-.05-1.57-.08-.08,1.61-.23,3.22-.23,4.82-.02,27.67,0,55.33-.04,83,0,2.25.9,5.53-4.2,3.89v-62.07c-.57,0-1.13,0-1.7,0v4.95c0,17.95-.02,35.9.03,53.85,0,2.35.06,4.41-3.67,3.54-.46-9.97-.46-19.61-.46-29.25-.78,0-1.56,0-2.33-.01,0,9.69,0,19.38-.43,29.06-1.12-1.14-2.34-2.25-2.42-3.43-.25-3.89-.03-7.82-.14-11.72-.03-1.2-.56-2.38-.87-3.57-.59.05-1.17.11-1.76.16l-.62,19.03c-146.66.01-293.33.03-439.99.04-.97,0-1.95-.08-3.22-.14v-114.18c1.04-.09,2.13-.19,3.79-.33v91.76c.5.05,1,.11,1.5.16.16-1.52.47-3.04.47-4.55.03-27.65.01-55.31.04-82.96,0-2.11-.92-5.02,3.47-3.7.38,20.94.38,41.27.38,61.59.6.03,1.21.05,1.81.08.11-1.48.32-2.96.33-4.44.04-6.41-.02-12.81.02-19.22.1-12.96.24-25.92.37-38.89,1.1.14,2.2.29,3.8.49v28.74c.42.05.85.09,1.27.14.18-1.04.52-2.08.53-3.11.05-7.53.08-15.05,0-22.58-.03-2.28.22-3.95,3.47-2.82.84,6.22-.81,12.14,1.31,17.51.61-.06,1.23-.13,1.84-.19v-17.64c2.12-.12,4.24-.33,6.37-.33,145.34-.02,290.67-.03,436.55.32.58,37.76.62,75.16.64,112.57,0,.64-.2,1.29-.31,1.93Z"/>
      <path class="cls-14" d="M572.62,569.91c-1.25-.18-2.51-.35-4.01-.56v-18.41c0-30.55,0-61.1,0-91.65,0-2.25-.58-4.93,3.71-3.96.52,36.8.56,73.24.58,109.68,0,1.63-.18,3.26-.28,4.9Z"/>
      <path class="cls-14" d="M560.77,569.91c-1.25-.17-2.51-.35-4.01-.56v-18.39c0-30.53.01-61.05-.02-91.58,0-2.61-.26-5.22,4.03-3.59.31,36.5.3,72.36.28,108.23,0,1.96-.18,3.93-.28,5.89Z"/>
      <path class="cls-15" d="M54.93,570.34c.74-1.22,2.07-2.41,2.12-3.66.23-5.75.1-11.52.1-17.28,0-29.46,0-58.92,0-88.38,0-1.79,0-3.59,0-5.67h3.97v114.1c-1.88,0-3.73,0-5.89.41-.31.41-.31.49-.31.49Z"/>
      <path class="cls-15" d="M68.89,455.44c1.26-.14,2.53-.29,4.03-.46v114.69c-1.63-.2-3.28-.41-5.33-.31-.4.3-.43.37.04.59.8-1.28,1.4-2.78,1.41-4.28.08-10.99.06-21.98.04-32.98-.05-25.75-.13-51.5-.2-77.25Z"/>
      <path class="cls-14" d="M67.16,569.73s.04-.07.06-.1c-1.23-.03-2.48-.03-4.01-.03,0-9.91,0-19.42,0-28.92,0-27.11-.01-54.22.02-81.33,0-2.04-1.03-5.1,3.44-3.55.39,38.41.43,76.17.48,113.93Z"/>
      <path class="cls-27" d="M551.21,455.06c2.71-.42,3.7.55,3.69,3.46-.09,35.98-.04,71.96-.16,107.95,0,1.08-1.43,2.16-2.73,2.94-.6-2.27-.71-4.24-.71-6.21-.04-36.05-.07-72.09-.1-108.14Z"/>
      <path class="cls-27" d="M563.08,455.05c2.7-.4,3.69.57,3.68,3.48-.09,35.98-.04,71.96-.16,107.94,0,1.08-1.43,2.16-2.73,2.94-.6-2.1-.7-3.91-.71-5.72-.04-36.21-.06-72.43-.09-108.64Z"/>
      <path class="cls-14" d="M75.07,527.67v-71.97c3.26-1.59,3.91-.12,3.88,2.59-.07,6.26-.02,12.51-.02,18.77,0,29.47,0,58.94,0,88.41,0,2.21.71,5.1-3.85,3.86v-41.66Z"/>
      <path class="cls-27" d="M574.93,455.05c2.76-.43,3.69.65,3.68,3.51-.09,35.9-.04,71.8-.16,107.7,0,1.14-1.41,2.28-2.72,3.12-.61-2.27-.71-4.24-.72-6.21-.04-36.05-.07-72.09-.09-108.14Z"/>
      <path class="cls-25" d="M55.05,569.78c-.12.55-.12.47-.09.49-2.35-.47-3.23-1.71-3.22-4.34.1-35.55.04-71.11.14-106.66,0-1.41,1.21-2.82,1.86-4.22.5,1.36,1.43,2.71,1.43,4.07.06,36.71.02,73.41-.12,110.67Z"/>
      <path class="cls-29" d="M550.95,454.86c.29,36.24.32,72.29.36,108.33,0,1.97.11,3.94.37,6.32-.48.47-1.16.53-2.34.48-.4-.76-.2-1.41-.2-2.05-.02-37.4-.06-74.81-.23-112.63.51-.49,1.14-.57,2.04-.44Z"/>
      <path class="cls-29" d="M574.68,454.86c.28,36.24.31,72.29.35,108.33,0,1.97.11,3.94.37,6.32-.46.47-1.12.54-2.28.51-.39-1.74-.21-3.37-.21-5-.02-36.44-.06-72.88-.23-109.75.5-.49,1.12-.54,2-.41Z"/>
      <path class="cls-29" d="M562.91,454.87c.2,36.39.22,72.6.26,108.82,0,1.81.11,3.61.37,5.82-.46.47-1.12.54-2.28.51-.39-2.07-.21-4.03-.21-6,.03-35.86.03-71.73.13-108.04.58-.73,1.07-1.01,1.73-1.11Z"/>
      <path class="cls-29" d="M67.63,569.95c-.52-37.99-.57-75.75-.52-113.97.47-.5.84-.55,1.5-.57.35,25.77.42,51.53.48,77.28.02,10.99.04,21.98-.04,32.98-.01,1.51-.61,3.01-1.41,4.28Z"/>
      <path class="cls-34" d="M93.03,454.74c.2,13.07.06,26.03-.04,38.99-.05,6.41.01,12.81-.02,19.22,0,1.48-.21,2.96-.33,4.44-.6-.03-1.21-.05-1.81-.08,0-20.32,0-40.65.06-61.44.64-.72,1.23-.98,2.14-1.13Z"/>
      <path class="cls-30" d="M524.82,569.79c-.22-6.51,0-12.85.2-19.19.59-.05,1.17-.11,1.76-.16.3,1.19.83,2.37.87,3.57.11,3.91-.12,7.83.14,11.72.08,1.18,1.3,2.28,2.52,3.68.48.43.42.6.37.78-1.81-.08-3.62-.15-5.85-.39Z"/>
      <path class="cls-29" d="M531.09,570.2c-.37-.19-.32-.36-.37-.79-.11-9.94-.11-19.63-.11-29.32.78,0,1.56,0,2.33.01,0,9.64,0,19.27.11,29.34-.44.54-.99.66-1.97.75Z"/>
      <path class="cls-30" d="M105.26,455.28c.31,5.99.31,11.87.31,17.75-.61.06-1.23.13-1.84.19-2.13-5.38-.47-11.29-.88-17.37.27-.54.48-.61.93-.43.33.13.42,0,.51-.13.22-.04.43-.09.96-.02Z"/>
      <path class="cls-34" d="M104.27,455.3c-.07.13-.16.26-.16.19.09-.19.14-.19.16-.19Z"/>
      <path class="cls-7" d="M434.92,989.81c-.3.31-.46.31-.88.31-1.07-1.05-1.88-2.09-2.9-3.38,1.54-.56,2.99-1.09,5.18-1.89-.55,2-.91,3.33-1.4,4.97Z"/>
      <path class="cls-18" d="M54.28,637.15c97.24-.05,194.06-.07,290.88-.08,75.74,0,151.49,0,227.23,0,7.56,0,8.29.69,8.29,8.03.01,23.71.01,47.42,0,71.13,0,6.68-1.07,7.73-7.68,7.73-171.74,0-343.48,0-515.22,0-7.12,0-7.44-.33-7.44-7.61,0-24.37.02-48.74-.02-73.11,0-2.79.07-5.37,3.96-6.09M216.9,720.46h359.9v-79.68c-174.62,0-348.85,0-523.08,0v79.68h163.19Z"/>
      <path class="cls-4" d="M219.26,828.15c-7.23,2.47-13.77.13-16.12-5.51-2.37-5.69.4-12.15,6.3-14.69,4.84-2.08,11.33-.2,14.01,4.05,3.23,5.12,1.71,11.45-4.19,16.15M212.28,817.15v-5.88c-.42-.23-.84-.46-1.26-.69l-5.72,5.88c.24.39.49.79.73,1.18,1.86,0,3.73,0,6.26-.48M212.25,820.96c-2.14-.28-4.28-.56-6.42-.83-.29.53-.59,1.05-.88,1.58,2.19,1.9,4.38,3.8,6.94,6.02.38-1.39.53-1.7.53-2.01.03-1.31.02-2.62-.17-4.75M217.86,811q-2.81-.07-1.92,6.04h6.43c-1.6-2.32-2.72-3.96-4.51-6.04M219,825.25c.9-1.41,1.81-2.82,2.95-4.6h-6.34v6.65c1.19-.65,2-1.09,3.39-2.04Z"/>
      <path class="cls-4" d="M70.15,818.15c.03,6.61-3.37,10.63-9.59,11.35-5.14.59-11.11-3.29-12.16-7.92-1.43-6.28,1.83-12.3,7.63-14.09,5.81-1.79,11.55,1.15,14.11,7.94,0,1.38,0,2.05,0,2.72M55.66,811.56c-1.52,1.69-3.05,3.38-5.26,5.84h9.06c-1.28-2.57-2.16-4.34-3.81-5.84M53.99,820.26c-.89.55-1.79,1.1-2.68,1.65,1.94,1.83,3.88,3.66,5.82,5.49.35-.35.7-.69,1.04-1.04-.83-2.18,2.29-6.32-4.18-6.1M61.92,817.1h6.79c-2.83-3.15-4.64-5.16-7.37-8.19,0,3.69,0,5.62.58,8.19M61.17,824.29c.08.85.17,1.7.4,4.1,2.64-3.12,4.34-5.13,6.04-7.14-3.04-.41-6.7-2.95-6.45,3.05Z"/>
      <path class="cls-10" d="M158.14,937.73c-2.11-1.64-4.67-3.15-7.09-4.85-1.08-.76-2.79-2.08-2.64-2.83.25-1.25,1.59-2.53,2.8-3.28,2.42-1.52,5.05-2.71,7.39-4.89-2.7,0-5.42.13-8.11-.08-.78-.06-1.47-1.13-2.21-1.73.74-.42,1.47-1.2,2.22-1.21,5.74-.1,11.47-.06,18.36-.06-3.35,7.32-10.73,7.62-15.27,11.48,4.57,3.84,11.93,4.14,15.14,11.3h-20.16c-.82-2.59-.36-4.02,2.77-3.81,2.13.14,4.28.02,6.81-.04Z"/>
      <path class="cls-33" d="M537.04,921.89c-2.8-.63-6.14,1.51-8.09-2.76h21.14c-3.24,6.85-10.43,7.31-15.25,11.11,4.65,3.94,12.15,4.25,15.29,11.42h-20.02c-.39-3.76-.39-3.79,3.02-3.86,2.24-.05,4.48,0,7.01-.84-2.83-1.43-5.7-2.77-8.46-4.31-3.21-1.79-3.18-3.84.08-5.64,2.69-1.49,5.48-2.81,9.39-4.78-2.02-.18-2.85-.25-4.09-.32Z"/>
      <path class="cls-36" d="M453.81,866.79c-2.2,2.67-4.18,5.07-6.47,7.83,2.53,3.28,5.06,6.56,7.6,9.85-.39.44-.78.88-1.18,1.32-2.46-1.91-4.91-3.83-7.75-6.04-.13,1.02.04,1.97-.36,2.42-1.32,1.51-2.62,3.57-4.33,4.07-3.27.96-5.05-1.69-5.22-4.4-.33-5.39-.05-10.82.14-16.22.02-.65,1.09-1.26,1.67-1.88.57.8,1.6,1.58,1.64,2.41.18,3.93.02,7.88.12,11.82.03,1.47.42,2.93.64,4.4.64.01,1.27.02,1.91.03.36-6.3.72-12.59,1.09-18.89.71.06,1.43.12,2.14.17.2,1.81.41,3.61.71,6.28,2.55-2.31,4.75-4.3,7.86-7.12,0,1.87,0,2.77-.21,3.95Z"/>
      <path class="cls-2" d="M164.48,870.32c.59-3.87,2.46-5.93,6.09-5.27,3.42.62,4.71,3.09,4.63,6.49-.1,4.27-.02,8.54-.02,12.81-.68.04-1.35.08-2.03.12-.29-1.51-.77-3-.84-4.52-.14-2.79.17-5.61-.17-8.36-.13-1.1-1.49-2.05-2.28-3.06-.64.99-1.7,1.92-1.82,2.97-.27,2.43-.05,4.92-.11,7.38-.09,3.51-1.63,6.26-5.33,6.35-4.03.09-5.59-2.69-5.56-6.51.04-4.24,0-8.47,0-12.71.42-.17.84-.33,1.25-.5.59.91,1.62,1.8,1.68,2.74.21,3.44-.1,6.91.2,10.33.09,1.07,1.48,2.02,2.28,3.02.63-1,1.69-1.95,1.8-3,.28-2.6.13-5.25.21-8.28Z"/>
      <path class="cls-2" d="M235.18,873.74c-.71-2.05-1.41-3.63-2.12-5.22-.72,1.57-1.81,3.07-2.08,4.71-.37,2.24.55,4.87-.3,6.8-.91,2.08-3.02,4.57-4.98,4.95-1.53.3-5.01-2.18-5.22-3.76-.68-5.06-.25-10.27-.25-15.42.52-.1,1.05-.2,1.57-.31.4,1.09,1.08,2.16,1.14,3.26.16,3.44-.07,6.91.22,10.33.08.89,1.5,1.67,2.31,2.5.61-.84,1.67-1.63,1.75-2.51.24-2.6.1-5.25.11-7.87,0-3.58,1.31-6.22,5.31-6.21,3.85,0,5.5,2.44,5.56,6.04.07,4.38.02,8.77-.65,13.23-4.05-2.65-1.55-6.76-2.36-10.54Z"/>
      <path class="cls-2" d="M518.69,865.52c6.11-.84,7.98.69,8.04,6.24.05,4.15,0,8.31,0,12.47-.58.1-1.16.2-1.74.3-.41-1.23-1.12-2.44-1.19-3.69-.17-3.11.09-6.25-.15-9.35-.08-1.03-1.19-1.97-1.82-2.96-.8,1.02-2.13,1.96-2.28,3.06-.35,2.58.57,5.51-.33,7.79-.91,2.31-3.14,5.23-5.24,5.66-3.26.67-5.12-2.16-5.14-5.6-.03-4.53,0-9.06,0-13.58l1.4-.39c.48.92,1.31,1.82,1.36,2.77.17,3.27-.14,6.58.19,9.83.12,1.25,1.46,2.37,2.24,3.56.66-1.14,1.7-2.23,1.88-3.45.31-2.09-.22-4.31.17-6.37.4-2.11,1.48-4.09,2.61-6.29Z"/>
      <path class="cls-18" d="M348.62,925.29c.54-1.55,1.08-2.66,1.62-3.77.45,1.1,1.2,2.18,1.28,3.31.19,2.78-.18,5.61.16,8.36.19,1.47,1.39,2.82,2.13,4.22.66-1.47,1.67-2.9,1.89-4.43.33-2.25-.09-4.61.17-6.88.37-3.15,1.5-5.77,5.53-5.36,3.59.36,5.16,2.45,5.22,5.83.08,4.36.02,8.72.02,13.08-.54.12-1.08.23-1.62.35-.45-1.17-1.21-2.33-1.28-3.52-.19-3.28.08-6.58-.2-9.84-.08-.93-1.44-1.75-2.21-2.62-.64.83-1.74,1.61-1.85,2.5-.28,2.43-.15,4.92-.16,7.38,0,3.66-1.13,6.71-5.31,6.79-4.2.09-5.45-2.84-5.41-6.57.03-2.79,0-5.59,0-8.82Z"/>
      <path class="cls-18" d="M387.64,940.76c-1.5-.52-2.54-1.04-3.59-1.56.16-.47.32-.94.48-1.41,2.19-.21,4.37-.42,6.83-.66v-12.95c-2.4-.53-4.78-1.06-7.15-1.59.13-.51.26-1.01.38-1.52h17.64c.1.56.2,1.12.3,1.68-2.31.42-4.63.84-7.14,1.3v12.51c1.72,2.5,6.57-1.36,7.19,4.2-5.08,0-9.79,0-14.96,0Z"/>
      <path class="cls-2" d="M406.07,864.96c2.95.13,5.43.26,7.92.39.06.39.12.77.18,1.16-.69.44-1.43,1.33-2.05,1.25-4.98-.69-6.37,1.65-5.77,6.2.3,2.26.05,4.59.05,7.44,1.73.13,3.36.03,4.85.44,1,.27,1.81,1.25,2.7,1.91-.85.53-1.68,1.48-2.55,1.51-4.27.16-8.55.16-12.82,0-.87-.03-1.7-.94-2.55-1.44.84-.69,1.59-1.71,2.56-1.99,1.21-.35,2.59-.08,4.23-.08v-13.59c-2.15-.19-4.35-.38-7.67-.68,3.43-4.17,7.34-1.79,10.92-2.54Z"/>
      <path class="cls-36" d="M147.43,813.06c7,4.85,6.36,8.37-2.66,16.08-3.53-2.72-8.53-4.23-7.63-10.39.71-4.8,6.34-8.22,10.28-5.7Z"/>
      <path class="cls-36" d="M75.29,923.07c2.84,2.24,6.11,4.15,7.57,6.99,1.44,2.8-.09,6.02-3.19,7.9-1.3.79-2.46,1.81-3.69,2.73-11.05-5.77-9.79-13.54-.7-17.62Z"/>
      <path class="cls-2" d="M333.88,752.34c.47,4.46.91,8.73.62,12.95-.34,4.96-3.91,8.1-8.7,8.4-5.32.34-9.16-2.16-9.98-7.37-.63-4.01-.37-8.17-.31-12.27.01-.66,1.07-1.31,1.64-1.97.61.79,1.68,1.54,1.74,2.36.21,3.11.21,6.24.08,9.35-.18,4.53,2.47,6.26,6.39,6.3,4.05.04,6.43-2.05,6.39-6.37-.03-3.28-.07-6.57.11-9.85.03-.62,1.09-1.18,2.02-1.55Z"/>
      <path class="cls-18" d="M396.03,829.95c-2.21-2.33-.86-2.83,1.19-2.85,3.78-.03,7.57.04,11.35-.03,4.51-.08,8.12-3.59,8.34-7.98.21-4.38-3.53-8.82-7.96-9.12-3.28-.22-6.58.03-9.87-.1-1.39-.05-2.77-.52-4.15-.8.07-.73.13-1.47.2-2.2,6.13.35,12.43-.05,18.33,1.3,4.56,1.04,7.01,8.01,5.82,12.74-1.54,6.17-5.04,9.08-11,9.1-3.95.01-7.9,0-12.26-.07Z"/>
      <path class="cls-37" d="M417.96,884.39c-.51-.91-1.14-2.28-.73-2.74,1.47-1.7,3.29-3.09,5.16-4.76-2.36-2.59-4.32-4.74-6.28-6.89q1.97-1.82,8.9,3.77c2.26-1.93,4.57-3.89,7.68-6.55.84,6.54,1.7,12.16-.74,18.48-2.74-2.48-4.89-4.43-7.36-6.66-2.15,1.82-4.22,3.57-6.64,5.36Z"/>
      <path class="cls-2" d="M564.66,865.23c2.16-2.44,3.51-2.23,3.56.89.08,4.91.05,9.83,0,14.75-.03,2.98-1.27,5.13-4.54,5.27-3.49.15-5.19-2.09-5.33-5.16-.25-5.54-.07-11.11-.07-16.66.44-.27.88-.53,1.32-.8.77,1.05,2.12,2.04,2.21,3.15.29,3.42.07,6.87.13,10.31.03,1.5.27,3,.41,4.5.65.01,1.31.03,1.96.04.09-5.28.19-10.57.35-16.28Z"/>
      <path class="cls-2" d="M390.43,882.36c-1.88,2.3-3.62,4.23-7,3.91-3.91-.38-7.9.03-11.84-.16-1.26-.06-2.48-.93-3.72-1.42,1.21-.7,2.38-1.46,3.64-2.06.56-.26,1.28-.19,2.64-.35-2.32-3.54-4.41-6.75-6.51-9.97.39-.38.77-.77,1.16-1.15,4.19,1.5,5.51,6.38,8.88,9.13,2.75-3.14,5.52-6.3,8.3-9.46.52.44,1.03.88,1.55,1.32-2.08,3.18-4.17,6.35-6.94,10.57,3.9,0,6.85,0,9.79-.04.03,0,.05-.54.07-.83,0,.1,0,.19-.02.5Z"/>
      <path class="cls-18" d="M61.11,886.16c-3.9-.65-7.89,1.38-10.9-1.28.06-.56.11-1.12.17-1.68,4.34,0,8.68.04,13.02,0,5-.05,8.54-3.35,8.73-8.03.2-5.03-3.57-9.26-8.62-9.48-4.1-.17-8.21-.13-12.31-.23-.24,0-.46-.38-.71-.59,0-.32-.12-.85.02-.93,5.6-3.16,18.98-1.15,22.08,3.37,2.81,4.1,3.46,8.45.97,12.98-2.61,4.74-6.69,6.52-12.42,5.86Z"/>
      <path class="cls-10" d="M121.78,933.11c-.94,2.5-1.48,4.8-2.65,6.71-.47.75-3.37,1.04-3.45.85-2.94-7.32-5.69-14.72-8.45-22.11.61-.31,1.22-.62,1.83-.93,1.43,2.27,2.86,4.53,4.49,7.11h7.1c1.58-2.48,3.08-4.83,4.58-7.18.69.34,1.39.69,2.08,1.03-1.79,4.72-3.58,9.45-5.52,14.52M118.37,932.9c.38-1.36.76-2.72,1.21-4.31h-5.83c1.12,2.68,2.03,4.87,3.22,7.72.59-1.54.82-2.15,1.4-3.41Z"/>
      <path class="cls-37" d="M487.29,825.01c-2.59,3.92-5.87,5.44-10.25,5.06-3.26-.28-6.57.05-9.84-.12-1.02-.05-2.01-.87-3.01-1.34.13-.51.25-1.01.38-1.52,4.36,0,8.72.03,13.08,0,5.14-.04,8.46-3.14,8.63-7.97.18-5.02-3.21-8.91-8.2-9.16-3.27-.17-6.57.07-9.84-.09-1.34-.06-2.65-.69-3.98-1.06.09-.44.19-.88.28-1.31,5.92,0,12.07-1.02,17.69.28,6.04,1.39,9.39,11.18,5.06,17.24Z"/>
      <path class="cls-2" d="M315.38,939.02c-3.38,4.48-4.72-.6-6.13-1.4-4.96-2.8-4.59-9.25,0-12.64,3.87-2.85,6.99-1.55,9.7,1.45,2.77,3.07,2.87,6.54.22,9.79-.89,1.09-2.31,1.74-3.8,2.79M311.26,927.36c-3.81,4.25-3.74,5.45.68,7.9,0-2.63,0-5.14-.68-7.9Z"/>
      <path class="cls-18" d="M289.25,761.3q1.31,6.52-6.88,12.45c-1.12-.73-2.68-1.26-3.4-2.34-1.61-2.42-4.36-5.58-3.77-7.61.86-2.97,3.84-6.21,6.71-7.36,1.53-.62,4.73,2.89,7.34,4.85M287.34,764.37c-.89-1.22-1.77-2.45-3.25-4.48v8.66c.32.12.64.24.96.36.74-1.27,1.49-2.53,2.29-4.54Z"/>
      <path class="cls-5" d="M465.67,879.32c.02-3.1-.21-5.76.11-8.35.2-1.59,1.24-3.08,1.9-4.62.56,1.46,1.5,2.88,1.61,4.37.24,3.41.08,6.85.08,11.31,3.92-.45,7.42-1.01,10.94-1.17.91-.04,1.88,1.15,2.82,1.78-.65.82-1.28,2.33-1.96,2.35-7.43.25-14.86.3-22.3.27-.71,0-1.41-.98-2.11-1.51.72-.68,1.32-1.67,2.18-1.99,2.18-.82,4.47-1.34,6.73-2.46Z"/>
      <path class="cls-37" d="M502.24,863.89c2.88,3.92,2.25,15.5-.62,18.57-4.53,4.85-13.29,3.53-15.49-2.67-1.89-5.31-1.26-10.79.21-16.05.66,0,1.33.01,1.99.02,0,3.77-.1,7.54.02,11.3.16,4.87,2.89,7.09,7.7,6.53,3.23-.37,5.04-1.93,5.13-5.39.1-4.06.42-8.11,1.06-12.32Z"/>
      <path class="cls-36" d="M324.9,885.12c-1.35-.11-3.42-.43-3.45-.88-.4-6.19-4.57-6.13-9.03-5.77-.62.05-1.27-.14-3.12-.36,2.32-3.57,4.23-6.68,6.39-9.6.28-.38,2.69.11,2.72.37.88,7.09,6,7.22,12.71,6.38-2.45,3.93-4.22,6.76-6.21,9.86Z"/>
      <path class="cls-17" d="M117.57,875.12c-.12,5.31,2.88,6.65,7.02,6.52,4.34-.14,5.99-2.63,5.84-6.8-.14-3.67-.03-7.35-.03-11.61,1.42.61,2.46.87,2.45,1.09-.24,5.46.21,11.15-1.29,16.27-.64,2.19-5.26,4.03-8.3,4.49-3.54.54-7.1-1.61-7.71-5.46-.82-5.21-.7-10.58-.99-15.87.89-.04,1.79-.08,2.68-.11.11,3.68.22,7.36.33,11.49Z"/>
      <path class="cls-37" d="M371.13,811.13c4.44-4.93,8.27-6.09,13.31-4.01,4.19,1.73,7.8,4.09,7.14,11.41-.34,3.74-.06,7.53-.06,11.3-.74,0-1.49,0-2.23,0,0-3.74.02-7.47,0-11.21-.03-5.81-3.61-9.59-8.9-9.46-5.05.13-7.64,3.28-7.66,9.31-.01,3.8,0,7.6,0,12.39-3.19-3.3-3.65-13.41-1.59-19.75Z"/>
      <path class="cls-4" d="M405.16,920.32c1.96-2.3,2.87-1.53,2.94.78.09,2.96-.01,5.93.04,8.89.08,4.69,2.1,6.84,6.4,6.89,4.55.06,6.35-1.78,6.44-6.65.05-2.96-.06-5.93.07-8.89.04-.86.67-1.7,1.03-2.54.69.1,1.38.21,2.07.31-.44,5.47-.23,11.11-1.53,16.37-1.04,4.19-5.85,5.59-10.73,4.57-4.59-.96-6.58-4-6.73-8.4-.13-3.62-.02-7.24.02-11.32Z"/>
      <path class="cls-33" d="M571.02,930.75c-.91,1.89-1.63,3.91-2.8,5.63-1.13,1.66-2.72,2.99-4.11,4.47-1.02-1.66-1.87-3.45-3.1-4.93-.8-.96-2.08-1.87-3.26-2.07-2.02-.34-4.13-.09-7.62-.09,2.73-4.42,4.83-7.82,6.93-11.22.49-.19.97-.38,1.46-.57,1.25,7.15,5.08,10.2,12.12,8.81.43-.01.38-.03.38-.03Z"/>
      <path class="cls-37" d="M446.13,921.52c4.29-4.25,8.89-4.59,13.83-2.3,4.64,2.15,6.15,5.89,5.74,10.86-.31,3.78-.06,7.6-.06,11.41-.74.03-1.49.05-2.23.08,0-4.2-.03-8.4,0-12.59.04-4.05-2.33-6.47-5.76-7.69-3.48-1.24-7.01-.76-9.23,2.55-1.01,1.51-1.42,3.61-1.52,5.47-.22,4.04-.07,8.1-.07,12.53-3.61-2.28-3.82-14.72-.71-20.32Z"/>
      <path class="cls-21" d="M186.39,937.47c-1.36,1.33-2.5,2.36-3.63,3.39-.87-1.22-2.2-2.33-2.51-3.67-.63-2.81-2.08-3.78-4.84-3.46-1.72.2-3.48.04-6.65.04,2.78-4.42,4.92-7.82,7.06-11.22.46-.17.93-.34,1.39-.51,1.4,7.18,5.24,10.54,13.4,8.12-1.82,3.2-2.91,5.11-4.22,7.32Z"/>
      <path class="cls-4" d="M188.11,767.99c-.48.72-.68,1.19-1,1.55-1.48,1.62-3,3.21-4.51,4.8-.95-1.79-1.72-3.72-2.92-5.33-.73-.98-2.05-1.9-3.24-2.1-2.03-.34-4.17-.09-7.63-.09,2.82-4.32,5.02-7.69,7.96-12.2,1.64,3.88,2.67,6.34,3.86,9.16h9.36c-.71,1.68-1.18,2.8-1.88,4.22Z"/>
      <path class="cls-37" d="M129.52,765.6c1.61,2.12,3.06,3.92,4.52,5.71-.21.17-.43.34-.64.51-3.71-1.69-7.4-4.67-11.12-4.71-3.55-.04-7.13,3-12.12,5.36,2.35-3.39,3.94-5.69,5.62-8.12-1.68-2.1-3.36-4.2-5.03-6.29.22-.25.44-.51.66-.76,3.55,1.86,6.95,4.18,10.7,5.45,5.19,1.77,7.04-4.29,10.84-5.98l1.13.93c-1.57,2.52-3.14,5.05-4.55,7.9Z"/>
      <path class="cls-4" d="M57.15,763.83c0-2.42,0-4.37,0-6.41-2.81-.53-5.3-.99-7.79-1.46.1-.54.19-1.08.29-1.62h17.77c.1.48.21.96.31,1.45-2.32.52-4.64,1.05-7.2,1.63v13.31c1.66,0,3.12-.17,4.53.06.93.15,1.76.88,2.64,1.35-.78.58-1.54,1.63-2.34,1.66-4.44.16-8.89.16-13.32,0-.84-.03-1.65-.99-2.48-1.52.83-.52,1.61-1.33,2.5-1.49,1.43-.25,2.93-.07,5.1-.07,0-2.29,0-4.36,0-6.9Z"/>
      <path class="cls-21" d="M263.18,938.52c.39-.86.74-1.91.36-2.52-1.69-2.77-3.58-5.42-4.98-8.53,5.27.52,6.11,6.12,9.7,8.52,2.69-3.24,5.38-6.48,8.07-9.72.52.4,1.05.8,1.57,1.2-2.12,3.44-4.24,6.89-6.64,10.77,2.76.24,4.94.42,7.12.61l.45,1.09c-.83.57-1.6,1.51-2.49,1.64-7.08,1.07-16.34.02-18.52-2.62,2-.18,3.49-.31,5.35-.45Z"/>
      <path class="cls-17" d="M92.85,932.65v-8.64c-2.79-.46-5.13-.84-7.47-1.23.06-.49.12-.97.19-1.46h17.91c.1.49.19.98.29,1.47-2.37.38-4.73.77-7.42,1.2v13.16c.81.15,1.45.2,2.04.39,1.75.57,3.49,1.21,5.23,1.81-1.87.46-3.72,1.19-5.62,1.32-3.28.22-6.58.16-9.87,0-.91-.04-1.79-.85-2.68-1.31.92-.61,1.78-1.49,2.79-1.74,1.23-.3,2.59-.07,4.31-.07.11-1.61.2-3.03.3-4.91Z"/>
      <path class="cls-21" d="M437.49,826.88c1.8.1,3.23.2,4.66.3.16.35.33.71.49,1.06-.8.59-1.61,1.7-2.39,1.67-6.02-.21-12.21.91-18.1-.56.02-.71.04-1.43.06-2.14,1.98-.16,3.96-.33,6.64-.55-2.4-3.67-4.66-7.11-6.91-10.55.51-.45,1.03-.89,1.54-1.34,2.83,3.14,5.65,6.27,8.73,9.69,2.65-3.31,5.27-6.58,7.89-9.86l1.86,1.4c-1.8,2.68-3.71,5.3-5.32,8.09-.36.62.3,1.84.86,2.79Z"/>
      <path class="cls-21" d="M162.58,809.12c5.3,0,10.16,0,15.02,0,.1.7.2,1.4.29,2.09-2.34.41-4.67.82-7.4,1.3v12.97c2.46.52,5,1.06,7.54,1.6-.14.56-.28,1.13-.42,1.69h-17.87c-.14-.57-.28-1.14-.42-1.71,2.38-.49,4.76-.98,7.41-1.53v-13.27c-1.64-.08-3.25-.03-4.79-.3-.81-.14-1.52-.87-2.27-1.33.83-.5,1.65-1,2.92-1.5Z"/>
      <path class="cls-17" d="M479.38,936.31c1.94.72,3.85.87,5.66,1.35.7.18,1.19,1.14,1.77,1.74-.57.45-1.14,1.27-1.72,1.28-4.75.11-9.51.13-14.26,0-.68-.02-1.33-.97-2-1.48.66-.54,1.27-1.43,1.99-1.54,1.58-.24,3.21-.07,5.12-.07v-13.53c-2.38-.44-4.79-.88-7.2-1.33.07-.49.15-.97.22-1.46h17.61c.11.48.23.96.34,1.44-2.31.43-4.63.85-7.61,1.4,0,3.71,0,7.74.07,12.21Z"/>
      <path class="cls-21" d="M211.92,928.26c2.18,2.7,4.13,5.12,6.29,7.81,2.82-3.26,5.6-6.48,8.39-9.71l1.51,1.23c-2.19,3.43-4.37,6.87-6.99,10.97,2.24,0,3.82-.16,5.35.07.7.11,1.28,1,1.91,1.53-.69.5-1.36,1.41-2.07,1.43-4.92.13-9.85.16-14.76,0-1-.03-1.97-1.02-2.95-1.56,1.01-.5,1.98-1.15,3.05-1.44.9-.24,1.91-.05,3.72-.05-2.61-3.96-4.87-7.39-7.14-10.82.27-.3.53-.6.8-.89.88.39,1.77.77,2.89,1.43Z"/>
      <path class="cls-21" d="M285.01,930.33c-1.71-1.95-3.21-3.63-4.7-5.3.23-.33.47-.66.7-.98,3.62,1.92,7.25,5.34,10.88,5.35,3.71,0,7.42-3.33,12.61-5.96-2.32,3.51-3.91,5.92-5.64,8.54,1.61,1.97,3.22,3.94,4.82,5.91-.16.24-.32.47-.49.71-3.76-1.73-7.52-4.82-11.27-4.81-3.66.01-7.31,3.19-12,5.48,2.19-3.59,3.75-6.13,5.08-8.95Z"/>
      <path class="cls-21" d="M270.39,757.46c.82.5,1.93,1.57,1.77,1.82-1.25,1.91-2.75,3.66-4.38,5.73,1.79,2.13,3.55,4.22,5.31,6.32-.24.18-.47.37-.71.55-3.72-1.72-7.42-4.75-11.15-4.78-3.6-.03-7.22,3.04-12.26,5.43,2.29-3.36,3.91-5.74,5.55-8.15-1.6-2.1-3.27-4.28-4.94-6.47.23-.58.46-1.16.68-1.74,6.54,6.8,13.12,10.62,20.14,1.29Z"/>
      <path class="cls-17" d="M130.45,815.51c1.43-1.21,2.61-2.16,3.79-3.1.4.34.8.68,1.2,1.02-1.64,2.37-3.27,4.74-5.04,7.29,1.66,2.03,3.37,4.11,5.08,6.19-.23.31-.45.62-.68.92-3.51-1.89-6.85-4.22-10.56-5.56-5.27-1.91-7.09,4.23-10.92,5.88-.38-.3-.77-.61-1.15-.91,1.53-2.38,3.05-4.77,4.75-7.41-1.57-2-3.19-4.05-4.8-6.11.24-.44.49-.89.73-1.33,5.47,3.29,10.38,10.57,17.59,3.11Z"/>
      <path class="cls-33" d="M109.07,829.66c-5.48.27-10.58.39-15.68.27-1.21-.03-2.39-.9-3.59-1.39,1.12-.55,2.2-1.2,3.36-1.62.69-.25,1.52-.13,2.89-.21-2.4-3.87-4.54-7.32-6.67-10.77.53-.4,1.07-.79,1.6-1.19,2.74,3.19,5.48,6.37,8.44,9.82,2.59-3.23,5.28-6.59,7.97-9.95.57.43,1.15.85,1.72,1.28-2.14,3.42-4.28,6.84-6.3,10.08,1.76,2.65,6.62-2.03,6.26,3.67Z"/>
      <path class="cls-4" d="M310.43,821.29c-1.18,1.79-2.15,3.26-3.51,5.29,1.8.13,3.05.06,4.2.34,1.07.26,2.05.91,3.07,1.38-1.11.56-2.2,1.56-3.32,1.61-4.43.19-8.87.16-13.3.02-1.08-.04-2.13-.84-3.2-1.29,1.07-.59,2.1-1.29,3.23-1.72.71-.27,1.57-.12,3.07-.19-2.38-3.84-4.52-7.29-6.66-10.74.5-.41,1-.81,1.51-1.22,2.83,3.23,5.67,6.45,8.56,9.75,2.53-3.12,5.25-6.48,7.97-9.84.53.39,1.05.78,1.58,1.17-1,1.71-1.99,3.42-3.19,5.44Z"/>
      <path class="cls-33" d="M240.77,769.77c1.19.85,2.63,1.36,4.04,1.97.77.33,1.47.83,2.19,1.25-.73.58-1.45,1.63-2.2,1.65-4.75.15-9.51.18-14.25,0-1.1-.04-2.16-1.04-3.24-1.6,1.04-.44,2.04-1,3.12-1.29.76-.2,1.62-.04,3.31-.04-2.52-3.98-4.73-7.47-6.94-10.96.55-.41,1.11-.81,1.66-1.22,2.76,3.21,5.53,6.43,8.45,9.83,2.54-3.12,5.23-6.41,7.92-9.71.54.34,1.08.68,1.63,1.02-1.82,2.93-3.64,5.86-5.7,9.09Z"/>
      <path class="cls-18" d="M524.47,925.91c.87,2.1,2.37,4.57,1.67,5.76-1.02,1.75-3.61,2.57-6.3,2.96-.14.77-.11,1.63-.46,2.3-.51.96-1.28,1.78-1.95,2.66-.47-.92-1.31-1.82-1.35-2.76-.15-4.1-.22-8.21,0-12.3.08-1.51,1.06-2.97,1.63-4.45.8,1.37,1.6,2.74,2.77,4.76.61.15,2.12.51,3.98,1.07Z"/>
      <path class="cls-21" d="M177.67,871.12c4.84-.89,9.7-1.43,14.56-1.98.17.52.33,1.04.5,1.55-2.19,2.91-4.38,5.81-6.57,8.72.33.26.66.52.99.78,1.58-1.09,3.16-2.18,4.74-3.27.28.34.56.67.85,1.01-2.68,2.46-5.35,4.92-9.25,8.51,1.54-7.25-1.96-11.19-5.8-15.32Z"/>
      <path class="cls-18" d="M199.99,881.78c1.69-.09,2.94-.19,4.5-.3,0-4.04-.11-7.8.07-11.54.06-1.19.89-2.35,1.37-3.53.54,1.11,1.5,2.2,1.55,3.33.19,3.9.07,7.81.07,12.05,2.61,0,4.74-.17,6.83.09.8.1,1.47,1.18,2.21,1.81-.64.54-1.26,1.54-1.91,1.56-5.74.12-11.49.14-17.23-.02-.68-.02-1.32-1.28-1.98-1.97,1.36-.49,2.73-.99,4.52-1.48Z"/>
      <path class="cls-21" d="M542.39,880.04c-2.29,2.15-4.33,4.01-6.37,5.87-.51-.2-1.02-.4-1.54-.61,1.59-6.34-1.69-10.48-5.65-15.04h15.41c-2.49,3.25-4.72,6.16-6.94,9.06.3.29.59.58.89.87,1.61-1.04,3.21-2.07,5.86-3.79-.78,1.84-1.1,2.59-1.66,3.63Z"/>
      <path class="cls-21" d="M350.94,872.68c-.64-1.02-.85-2.02-1.06-3.02,3.04.35,6.64-1.72,8.86,2.17,2.52,4.44,5.14,8.82,7.71,13.23-.54.37-1.07.74-1.61,1.11-1.41-1.53-2.83-3.06-4.26-4.61-3.42,5.38-4.87,5.87-11.53,4.04-.1-.46-.2-.92-.3-1.37,2.35-.39,4.7-.78,7.06-1.16,2.54-7.78,1.51-10.2-4.87-10.39Z"/>
      <path class="cls-21" d="M225.08,772.66c-.72.52-1.96,1.17-2.32.85-1.06-.96-1.78-2.31-2.95-3.96-2.14,5.81-6.42,5.87-11.1,4.83-.13-.46-.25-.93-.38-1.39,2.12-.57,4.24-1.14,7.23-1.94v-9.26c-.79-.43-.92-.54-1.08-.58-2.02-.51-4.05-1-6.07-1.5.44-.56.98-1.67,1.3-1.61,2.71.52,6.36.4,7.86,2.11,3.08,3.51,5,8.04,7.51,12.46Z"/>
      <path class="cls-4" d="M352.68,762.97c5.94-.06,11.48-.06,18.25-.06-3.52,4.24-6.46,7.78-10.13,12.2-3.03-4.29-5.78-8.18-8.12-12.13Z"/>
      <path class="cls-4" d="M525.57,822.07c-.39-2.13-.81-3.84-1.21-5.47-.48-.14-.78-.25-1.09-.32-1.87-.46-3.73-.92-5.6-1.37.27-.53.59-1.54.8-1.52,2.66.25,6.47-.31,7.72,1.2,3.44,4.16,5.8,9.22,8.59,13.92-.42.37-.83.74-1.25,1.11-1.53-1.46-3.06-2.91-4.58-4.36-3.88,5.57-8.9,6.76-11.35,2.15,2.23-.16,4.29-.3,6.65-.47.4-1.41.84-2.92,1.31-4.85Z"/>
      <path class="cls-33" d="M507.34,822.39c-2.13,2.5-4,4.73-6.25,7.4-3.36-3.77-6.46-7.24-10.02-11.24h19.15c-1.01,1.37-1.81,2.47-2.88,3.84Z"/>
      <path class="cls-4" d="M109.69,876.33c-1.25.15-2.51.29-3.76.44.47.16.94.33,1.41.49-.47,2.51-.43,5.33-1.66,7.39-.53.89-5.03.88-5.39.15-1.12-2.3-1.12-5.14-1.64-8.3.67,0-.2.21-.89-.05-1-.37-1.88-1.07-2.81-1.63,1.02-.49,2.01-1.36,3.05-1.4,3.58-.16,7.18-.04,11.23.4.45,1.13.46,1.82.46,2.51Z"/>
      <path class="cls-33" d="M151.19,876.33c-1.13.1-2.26.21-2.12.2-.74,3.22-.98,6.1-2.23,8.45-.35.66-4.91.37-5.33-.52-1.03-2.21-.79-5.01-1.1-7.96.42,0-.45.21-1.15-.05-1-.37-1.88-1.07-2.8-1.63,1.02-.49,2.02-1.35,3.05-1.4,3.58-.16,7.18-.04,11.22.4.45,1.13.46,1.81.46,2.5Z"/>
      <path class="cls-13" d="M491.31,932.26c-.05-1,.14-2.33.35-2.33,5.5-.11,11.01-.09,17.45-.09-3.46,4.15-6.35,7.59-9.6,11.49-2.79-3.08-5.37-5.93-8.2-9.07Z"/>
      <path class="cls-4" d="M64.86,921.31c.4,3.28.89,6.3.38,9.14-.29,1.6-2.03,3.73-3.5,4.09-1.21.3-4.19-1.62-4.22-2.62-.06-1.88,1.24-3.94,2.39-5.65.66-.98,2.14-1.41,3.25-2.09-1.39-.41-2.77-.93-4.19-1.19-1.09-.19-2.24-.04-3.33-.04-.47,2.19-.87,4.04-1.47,6.81-3.39-6.74-2.27-8.97,3.48-8.97,2.29,0,4.58.12,7.2.52Z"/>
      <path class="cls-21" d="M440.74,929.48c.07,3.61-1.38,5.76-4.62,5.16-1.5-.27-3.51-2.05-3.84-3.48-.7-3,1.11-4.81,4.27-5.31.84-.13,1.53-1.16,3.38-2.67h-9.68c-.25,1.76-.5,3.6-.76,5.45l-1.29.08c-.19-2.4-.37-4.81-.56-7.15,11.63-2.56,13.11-1.67,13.11,7.93Z"/>
      <path class="cls-13" d="M96.7,764.73c0-2.77-.15-5.09.09-7.37.08-.79,1.12-1.49,1.72-2.23.43.74,1.17,1.46,1.23,2.23.17,2.13.07,4.27.07,6.41,0,2.12,0,4.24,0,6.99,2.48,0,4.72-.12,6.94.07.68.06,1.28.98,1.92,1.5-.66.51-1.31,1.44-1.99,1.45-5.59.12-11.19.12-16.78,0-.69-.01-1.37-.91-2.06-1.4.79-.55,1.53-1.46,2.37-1.56,1.93-.24,3.9-.07,6.49-.07,0-2.05,0-3.8,0-6.02Z"/>
      <path class="cls-36" d="M547.9,885.65c.28-1.29.67-3.03,1.43-3.21,3.44-.83,4.33-2.91,4.14-6.14-.19-3.27-.18-6.57.05-9.83.07-.95,1.18-1.84,1.81-2.75.65.89,1.8,1.74,1.86,2.67.23,3.26.1,6.55.09,9.83-.03,7.4-1.65,9.12-9.38,9.43Z"/>
      <path class="cls-36" d="M336.85,932.84c1.6-1.9,3.23-3.78,4.78-5.71.93-1.16,1.74-2.41,3.1-3.25-.66,10.17-4.55,15.2-11.91,16.2-1.16.16-2.45-.66-3.69-1.03,1.03-.73,2.04-1.49,3.09-2.19,1.8-1.2,3.62-2.37,5.05-3.8-.39-.25-.43-.2-.43-.2Z"/>
      <path class="cls-37" d="M336.92,932.78c-.94.13-2.08.7-2.82.36-1.88-.84-4.38-1.7-5.13-3.27-.66-1.39.1-4.62,1.32-5.45,1.48-1.01,4.67-1.17,6.06-.19,1.34.94,1.45,3.78,1.83,5.83.11.61-.72,1.39-1.22,2.43-.1.35-.06.3-.03.28Z"/>
      <path class="cls-17" d="M453.46,821.2c1.58-1.93,3.19-3.83,4.72-5.79.86-1.11,1.58-2.33,2.8-3.18.46,9.09-4.77,15.91-11.97,16.45-1.06.08-2.18-.79-3.28-1.23.87-.71,1.68-1.51,2.62-2.13,1.94-1.27,3.94-2.45,5.53-3.92-.38-.25-.43-.21-.43-.21Z"/>
      <path class="cls-37" d="M453.53,821.13c-1.1.18-2.22.55-3.34.55-3.33,0-5.35-1.85-5.35-5.07,0-3.22,2.11-5.31,5.32-5.16,3.47.16,5.27,2.41,4.83,5.97-.13,1.07-.87,2.07-1.43,3.44-.1.34-.06.29-.03.27Z"/>
      <path class="cls-33" d="M332.9,818.29c-.48,4.41-2.82,6.12-6.71,5.17-3.43-.84-4.18-3.67-3.04-6.47.59-1.46,3.07-3.49,4.05-3.18,2.11.66,3.81,2.66,5.7,4.49Z"/>
      <path class="cls-33" d="M380.12,931.38c-1.4,3.8-4.15,4.93-7.07,3.31-1.51-.83-3.09-3.86-2.65-5.29.55-1.78,3.04-3.98,4.86-4.15,3.43-.3,5.08,2.3,4.86,6.13Z"/>
      <path class="cls-2" d="M151.24,766.58c-.02,1.11.18,1.9-.11,2.39-1.46,2.49-12.06,2-14.36-1.22,2.09-.09,3.78-.2,5.46-.23,1.78-.04,3.57,0,5.18,0,2.46-3.68-1.32-8.7,3.83-12.89,0,4.76,0,8.13,0,11.96Z"/>
      <path class="cls-4" d="M251.05,826.07c-3.68-2.93-3.78-5.75,1.26-8.7-2.62-.12-4.29-.19-7.59-.34,1.82-1.52,2.51-2.58,3.29-2.66,2.43-.23,4.91-.21,7.36-.03.91.07,1.77.85,2.65,1.3-.79.53-1.52,1.18-2.38,1.54-.55.23-1.29.04-.77.04.15,2.53.28,4.94-.12,7.68-1.59.6-2.65.89-3.7,1.17Z"/>
      <path class="cls-33" d="M250.78,878.19c-2.79,2.68-5.87,3.01-7.83.25-1.09-1.54-1.12-4.92-.11-6.53.77-1.24,4.18-1.82,5.93-1.24,3.39,1.14,3.71,4.11,2.01,7.52Z"/>
      <path class="cls-10" d="M143.07,929.7c-1.06,4.86-4.62,5.05-7.67,3.88-1.32-.5-2.53-3.98-2.1-5.68.41-1.62,2.9-3.55,4.69-3.8,3.32-.47,4.88,2.03,5.08,5.6Z"/>
      <path class="cls-33" d="M290.46,816.71c.71,4.35-.75,7.34-4.91,6.86-1.81-.21-3.85-2.95-4.69-4.99-.4-.96,1.71-4.23,2.78-4.28,2.21-.1,4.48,1.26,6.82,2.41Z"/>
      <path class="cls-33" d="M297.5,875.41c.31-4.04,2.53-6.01,5.9-5.12,1.65.43,3.89,2.99,3.81,4.48-.1,1.86-1.97,4.58-3.7,5.19-3.03,1.08-5.25-.94-6.01-4.55Z"/>
      <path class="cls-10" d="M165.85,760.24c-.17,2.67.06,5.44-1.16,7.21-.67.98-4.31,1.06-5.63.14-1.31-.91-2.05-3.64-1.9-5.47.3-3.67,3.89-4.46,8.7-1.88Z"/>
      <path class="cls-13" d="M306.27,773.86c-3.54,0-6.6,0-9.66,0-.06-.51-.11-1.01-.17-1.52,2.13-.32,4.27-.64,5.4-.82.35-2.83.42-5.4,1.17-7.76.14-.43,4.24-.44,4.5.19.84,2.03.74,4.45,1.09,7.53.75.1,2.7.37,4.64.64.02.42.04.84.07,1.25-2.19.16-4.38.33-7.04.49Z"/>
      <path class="cls-4" d="M347.75,760.74c1.32,3.32.94,6.12-2.18,7.22-1.65.58-4.67.26-5.61-.87-1.15-1.38-1.71-4.57-.87-6.04,2.14-3.76,5.43-3.22,8.65-.31Z"/>
      <path class="cls-5" d="M492.05,816.62c.42-1.24,1.12-3.04,1.92-3.09,4.56-.28,9.14-.22,13.71-.06.83.03,1.63,1.03,2.45,1.57-.86.67-1.7,1.9-2.58,1.92-5.05.13-10.11-.03-15.5-.34Z"/>
      <path class="cls-36" d="M508,928.16c-5.32.22-10.26.36-15.2.22-.95-.03-1.87-1.14-2.81-1.75.97-.56,1.92-1.55,2.91-1.59,4.27-.18,8.56-.07,12.84-.08,2.05,0,3.85.18,2.26,3.19Z"/>
      <path class="cls-13" d="M346.59,820.11c.1.3.1.69.3.88,2.43,2.31,3.1,5.1.27,7.08-1.39.97-4.73.98-5.98-.04-2.52-2.06-2.05-4.93,1.02-7.5,1.79-.37,3.09-.4,4.39-.42Z"/>
      <path class="cls-17" d="M359.42,809c4.9.16,6.7,2.32,5.07,5.84-1.01,2.19-2.5,4.15-4.28,7.03-.06-4.79-6.92-7.9-.79-12.88Z"/>
      <path class="cls-5" d="M104.54,871.27c-3.55-.17-6.66-.35-9.77-.52.05-.64.1-1.29.15-1.93h15.65q-.68,2.45-6.02,2.46Z"/>
      <path class="cls-5" d="M151.05,871.2c-5.16,0-9.94-.04-14.72-.08.01-.89.02-1.77.03-2.66h15.33c-.09.9-.17,1.8-.65,2.74Z"/>
      <path class="cls-36" d="M291.12,881.1c-4.41.37-8.51.41-12.6.36-.32,0-.63-.56-1.97-1.83,4.58-.24,8.11-.43,11.78-.62.4-3.99.77-7.77,1.15-11.54.65.08,1.31.16,1.96.24,0,4.34,0,8.69-.31,13.39Z"/>
      <path class="cls-21" d="M79.04,819.24c2.21-2.77,4.42-5.54,7.3-9.15-.19,5.83-8.45,18.02-12.32,18.45,1.62-2.82,3.04-5.27,4.25-8.04-.19-.32-.26-.3.07-.19.48-.32.62-.75.75-1.15-.01.03-.05.09-.05.09Z"/>
      <path class="cls-18" d="M77.1,760.82c1.18-.43,2.58-.59,3.48-1.35,1.32-1.11,2.27-2.65,3.38-4.01.57.42,1.14.84,1.71,1.26-3.69,5.77-7.38,11.54-11.07,17.31l-1.86-1.01c1.3-2.53,2.59-5.06,3.62-7.87-.27-.29-.33-.31.02-.15.47-.3.6-.75.74-1.16,0,.05-.09.07.32-.05.15-.72-.11-1.33-.37-2.19,0-.43.02-.6.04-.77Z"/>
      <path class="cls-17" d="M197.64,763.88l7.01-8.37c.55.4,1.1.8,1.65,1.21-3.69,5.78-7.37,11.56-11.06,17.34-.64-.35-1.27-.7-1.91-1.05,1.32-2.54,2.63-5.08,3.63-7.88-.32-.26-.37-.29-.01-.11.48-.29.59-.76.72-1.2.01.03-.03.07-.03.07Z"/>
      <path class="cls-37" d="M268.76,820.27l7.08-9.37,1.74,1.35c-3.71,5.8-7.42,11.61-11.12,17.41-.71-.43-1.43-.86-2.14-1.29,1.47-2.5,2.94-5,4.45-7.82.04-.32,0-.28,0-.28Z"/>
      <path class="cls-17" d="M338.97,874.55c2-2.49,4-4.97,5.99-7.46.56.42,1.12.85,1.68,1.27-3.68,5.77-7.35,11.54-11.03,17.31-.65-.36-1.3-.73-1.96-1.09,1.5-2.8,3.01-5.6,4.4-8.73-.11-.33-.18-.33.14-.24.47-.32.62-.74.78-1.13.01.02-.02.06-.02.06Z"/>
      <path class="cls-36" d="M233.27,819.21c2.26-2.74,4.52-5.49,6.78-8.23.58.4,1.16.8,1.74,1.2-3.66,5.75-7.33,11.51-10.99,17.26-.64-.36-1.27-.72-1.91-1.07,1.52-2.84,3.03-5.68,4.5-8.86-.05-.34-.11-.29-.11-.29Z"/>
      <path class="cls-21" d="M197.6,931.93c2.29-3.14,4.57-6.28,6.86-9.42.63.44,1.27.87,1.9,1.31-3.72,5.8-7.45,11.59-11.17,17.39-.72-.43-1.44-.87-2.17-1.3,1.5-2.47,3-4.93,4.56-7.71.06-.32.02-.26.02-.26Z"/>
      <path class="cls-17" d="M579.13,930.86c2.25-2.77,4.49-5.53,6.74-8.3.58.4,1.16.8,1.74,1.2-3.67,5.76-7.33,11.53-11,17.29l-1.89-1.06c1.51-2.83,3.02-5.66,4.49-8.84-.04-.34-.08-.3-.08-.3Z"/>
      <path class="cls-37" d="M84.02,875.58c2.32-2.83,4.64-5.65,6.96-8.48.55.4,1.1.8,1.65,1.2-3.67,5.77-7.34,11.55-11,17.32-.66-.37-1.33-.73-1.99-1.1,1.52-2.77,3.03-5.54,4.49-8.64-.06-.34-.11-.3-.11-.3Z"/>
      <path class="cls-4" d="M369.09,760.97c-5.19.07-9.94.15-14.69.03-.91-.02-1.8-.8-2.69-1.23.9-.61,1.79-1.7,2.71-1.74,4.41-.18,8.84-.1,13.26-.08,2.1.01,3.76.38,1.41,3.02Z"/>
      <path class="cls-33" d="M70.49,817.88c-.34-.39-.34-1.07-.38-2.07.52-.31,1.14-.11,1.6-.3,1.71-.69,3.37-1.51,5.04-2.27.7,1.73,1.4,3.46,2.19,5.59.09.41.13.36-.18.3-.46.31-.61.69-.76,1.06,0,0,.07-.01.09-.03-2.41-.87-4.84-1.71-7.61-2.28Z"/>
      <path class="cls-4" d="M579.19,930.8c-2.46-.18-4.94-.34-7.79-.27-.38.22-.33.24-.32.26.23-.32.71-.73.64-.98-1.02-3.57.92-5.61,3.98-5.44,3.28.18,3.62,3.04,3.16,6.17.27.32.31.28.33.26Z"/>
      <path class="cls-33" d="M337.98,875.5c-2.97,1.55-5.92,1.78-6.75-2.14-.26-1.25,1.87-4.19,3.16-4.35,3.28-.41,4.38,2.01,4.22,5.33.35.21.38.17.04.03-.48.29-.63.72-.78,1.15,0,0,.08,0,.1-.03Z"/>
      <path class="cls-4" d="M196.66,764.84c-.3-.05-.63-.12-.94-.08-2.9.3-5.61-.33-5.3-3.74.13-1.41,2.58-3.77,3.87-3.71,3.36.18,3.71,2.95,3.2,6.19.15.38.19.34-.14.25-.48.3-.62.7-.76,1.09,0,0,.06.02.08,0Z"/>
      <path class="cls-33" d="M77.12,760.46c-.04.53-.05.7-.05,1.47,0,1.05-.02,1.51-.04,1.96,0,0,.09-.02-.22-.02-.46.32-.62.64-.77.97,0,0,.06.02.07,0-.63-.04-1.43.19-1.87-.11-1.45-.96-3.25-1.89-3.95-3.3-.37-.73,1.43-3.61,2-3.54,1.69.21,3.25,1.41,4.84,2.58Z"/>
      <path class="cls-4" d="M84.08,875.52c-.86.21-1.91.85-2.58.58-1.67-.67-3.17-1.76-4.74-2.69,1.02-1.53,2.04-3.07,3.06-4.6,1.39,1.21,2.89,2.31,4.1,3.68.34.39-.17,1.54-.09,2.71.2.38.24.34.26.31Z"/>
      <path class="cls-33" d="M197.66,931.86c-.93.01-2.14.43-2.79,0-1.54-1.02-2.82-2.44-4.21-3.7,1.24-1.26,2.47-2.51,3.71-3.77,1.17,1.42,2.48,2.77,3.45,4.32.32.51-.25,1.57-.32,2.8.1.43.14.37.16.35Z"/>
      <path class="cls-33" d="M268.82,820.21c-1.29-.02-2.86.44-3.85-.12-1.28-.72-3.18-2.85-2.92-3.34.85-1.57,2.58-2.66,3.97-3.93.99,1.22,2.19,2.33,2.9,3.69.39.75-.04,1.92-.14,3.33-.03.43.01.39.03.37Z"/>
      <path class="cls-5" d="M326.74,758.8c0-2.17,0-3.94,0-6.84,1.51,1.08,2.85,1.59,2.86,2.12.06,3.38-.18,6.76-.32,10.15-.74-.03-1.48-.07-2.22-.1-.11-1.64-.21-3.28-.32-5.32Z"/>
      <path class="cls-37" d="M347.65,812.27c1.78.28,3.09.55,4.4.83-.08.44-.16.89-.23,1.33h-15.71c-.02-.72-.05-1.44-.07-2.16,3.72,0,7.43,0,11.61,0Z"/>
      <path class="cls-18" d="M347.04,820.12c-1.75,0-3.05.04-4.74.05-2.36-.22-4.33-.43-6.31-.64.04-.57.08-1.14.12-1.71h15.48c.15.4.3.8.45,1.2-1.52.38-3.03.75-5,1.11Z"/>
      <path class="cls-5" d="M120.09,874.74c.05-3.78-1.13-7.45.67-10.55.65.06,1.29.11,1.94.17,0,3.44.04,6.88-.1,10.32,0,.18-1.52.3-2.5.06Z"/>
      <path class="cls-5" d="M411.44,930.89c-.32-3.69-.32-7.2-.32-10.72.31-.17.63-.35.94-.52.56.8,1.74,1.76,1.58,2.38-.75,2.99,2.25,6.79-2.2,8.86Z"/>
      <path class="cls-13" d="M233.35,819.14c-2.6,1.32-5.35,2.47-6.9-1.19-.46-1.08-.02-3.22.82-4,.85-.79,3.44-1.13,3.97-.53,1.1,1.25,1.34,3.26,1.99,5.37.05.42.11.37.13.34Z"/>
      <path class="cls-28" d="M255.95,826.83c1.57.13,3.15.26,4.94.41-2.2,2.93-13.19,3.28-18.08.17,3.05-.21,5.14-.36,8.09-.43,2.26,0,3.66-.07,5.06-.15Z"/>
      <path class="cls-21" d="M304.39,758.86c2.55,0,4.64,0,6.73,0l.43,1.32c-.97.53-2,1.59-2.91,1.49-3.14-.33-6.82,1.54-10.7-2.48,2.93-.16,4.46-.25,6.45-.33Z"/>
      <path class="cls-2" d="M496.24,868.05c.34-1.56.68-2.69,1.03-3.83.44.08.89.16,1.33.25v11.76c-3.56-2.24-1.88-5.38-2.36-8.17Z"/>
      <path class="cls-21" d="M492.95,875.39c-1.1-3.46-1.76-7.01-2.52-11.12,3.88,1.47,4.36,4.24,2.52,11.12Z"/>
      <path class="cls-21" d="M323.85,763.41c-.38.42-.57.51-.7.46-4.16-1.76-1.14-5.28-1.81-7.91-.25-.95.82-2.25,1.29-3.38.48.13.96.25,1.44.38,0,3.35,0,6.7-.22,10.46Z"/>
      <path class="cls-21" d="M125.47,872.32c0-2.87,0-5.28,0-7.7.43-.15.86-.31,1.29-.46.54.85,1.45,1.65,1.55,2.55.23,2.11.23,4.27,0,6.38-.09.84-1.03,1.58-1.58,2.37-.42-.89-.83-1.79-1.25-3.13Z"/>
      <path class="cls-17" d="M416.37,920.52c1.01.12,2.41.58,2.45,1.13.22,3.03.1,6.08-.58,9.22-3.77-2.69-1.54-6.64-1.87-10.35Z"/>
      <path class="cls-30" d="M255.81,826.61c-1.26.3-2.66.37-4.47.34-.41-.11-.43-.51-.36-.69,1.12-.47,2.18-.75,3.56-1.11.6.37.87.8,1.28,1.47Z"/>
      <path class="cls-13" d="M110.03,876.29c-.34-.65-.35-1.34-.35-2.37.23.55.46,1.44.35,2.37Z"/>
      <path class="cls-13" d="M151.53,876.29c-.34-.65-.35-1.34-.35-2.37.23.55.46,1.44.35,2.37Z"/>
      <path class="cls-32" d="M279.69,335.89c-14.64-26.37-29.12-52.41-44.41-79.87-16.04,29.89-31.38,58.48-47.41,88.36,7.08,0,12.93.19,18.76-.07,3.62-.16,4.54,1.32,4.39,4.64-.12,2.65-1.24,3.35-3.66,3.34-31.45-.04-62.91-.02-94.36-.07-1,0-2-.58-3.38-1,2.7-4.4,5.42-7.23,10.71-6.94,6.89.38,13.84.3,20.74-.04,1.85-.09,4.46-1.41,5.31-2.94,22.18-40.26,44.21-80.6,66.09-121.03.87-1.6.71-4.55-.19-6.2-18.28-33.42-36.77-66.73-55.1-100.12-1.39-2.54-2.94-3.38-5.77-3.34-10.87.16-21.74-.13-32.6.16-4.66.12-6.35-3.54-9.08-5.89-.24-.2.56-2.19,1.32-2.78.62-.49,1.9-.14,2.89-.14,30.46,0,60.93.05,91.39-.07,3.7-.01,5.38.76,5.27,4.91-.09,3.6-1.45,4.46-4.72,4.42-11.36-.13-22.72-.06-34.09-.04-1.58,0-3.15.17-5.85.32,18.11,32.25,35.78,63.73,54.13,96.42,18.23-32.73,35.74-64.16,53.89-96.75-4.26,0-7.31-.17-10.34.04-3.57.25-4.02-1.66-3.96-4.57.06-2.75.17-4.82,3.85-4.74,7.9.17,15.81.05,23.71.05,23.88,0,47.76.06,71.63-.06,3.63-.02,5.38.73,5.39,4.86,0,4.09-1.94,4.65-5.21,4.44-2.55-.16-5.12-.03-8.82-.03,18.51,32.9,36.41,64.71,55.13,97.99,18.02-32.88,35.43-64.63,53.26-97.17-2.35-.22-3.71-.46-5.07-.46-10.87-.03-21.74-.02-32.61-.02q-7.68,0-6.65-8.37h100.82c-2.96,4.99-5.46,8.49-11.61,8.18-10.18-.52-20.41-.02-30.62-.22-3.08-.06-4.66,1.06-6.09,3.69-18.24,33.62-36.55,67.21-54.99,100.72-1.47,2.68-1.38,4.49.09,7.07,22.43,39.38,44.79,78.81,67.01,118.31,1.56,2.78,3.32,3.59,6.23,3.53,7.24-.13,14.5.23,21.73-.14,5.11-.26,7.15,2.68,9.4,7.13-1.95.22-3.31.5-4.68.51-30.63.03-61.26-.03-91.89.08-3.48.01-5.17-.69-4.92-4.6.19-2.89,1.38-3.61,3.99-3.56,6.5.11,13.01.04,20.8.04-16.5-29.99-32.39-58.86-49.04-89.11-16.61,30.48-32.48,59.59-49.02,89.94,7.29,0,13.27.05,19.25-.02,2.81-.04,5.08-.23,5,3.92-.07,3.86-2.17,3.68-4.79,3.68-31.95-.03-63.89-.02-95.84,0-2.74,0-5.17.31-5.19-3.86-.01-3.99,2.08-4.11,5-4.07,6.02.1,12.05.03,19.34.03-1.88-3.45-3.16-5.8-4.58-8.49M295.99,143.33c-17.44,31.66-34.78,63.38-52.44,94.93-2.76,4.93-3.13,8.59-.21,13.78,16.69,29.63,32.96,59.51,49.24,89.37,1.5,2.76,3.34,3.55,6.29,3.5,8.72-.15,17.45-.21,26.17.02,3.59.1,5.56-1.1,7.32-4.3,17.06-30.94,34.27-61.8,51.58-92.59,1.49-2.66.86-4.46-.39-6.74-12.78-23.35-25.5-46.74-38.23-70.11-9.43-17.31-18.84-34.64-28.37-51.91-.96-1.75-2.62-3.11-3.95-4.65-1.18,1.45-2.6,2.76-3.51,4.36-4.45,7.86-8.77,15.8-13.51,24.34Z"/>
      <path class="cls-12" d="M216.4,720.46H53.71v-79.68c174.24,0,348.46,0,523.08,0v79.68H216.4M102.28,698.67v-39.57h21.07v-5.64h-48.41c.1,2.04.19,3.78.3,5.97h20.88v41.35h-21.2c.12,2.47.2,4.38.3,6.48h48.06v-6.68c-3.67,0-7.11.13-10.53-.04-3.47-.17-6.93-.64-10.47-1.89M431.17,660.18c-1.7.93-3.99,1.44-5,2.86-4.09,5.73-7.87,11.68-11.57,17.68-1.01,1.64-1.31,3.72-2.12,6.15,7.96,0,14.99.1,22.03-.05,2.52-.05,3.81.65,4.56,3.21,1.42,4.85,3.14,9.63,5.03,14.32.57,1.42,2.03,3.38,3.18,3.44,1.53.09,3.73-1.02,4.65-2.32,4.25-6.01,8.24-12.22,12.13-18.48.91-1.47,1.03-3.43,1.66-5.7-7.49,0-14.06-.22-20.6.09-3.71.18-5.41-.93-6.55-4.61-1.75-5.66-4.37-11.05-7.4-16.59M248.18,698.34c-.23.91-.47,1.82-1.15,4.49,3.18-1.58,5.45-2.21,7.05-3.6,4.33-3.76,8.33-7.92,12.59-11.77.98-.89,2.45-1.59,3.76-1.71,11.68-1.12,22.95-.95,30.29,10.56.86,1.34,2.21,2.51,3.58,3.34,1.74,1.04,3.74,1.64,5.62,2.43.48-.62.95-1.24,1.43-1.86-5.16-5.66-10.33-11.32-15.57-17.06,2.82-3.43,5.56-6.48,7.98-9.78,2.35-3.21,6.45-5.43,6.67-11.86-3.02,1.78-5.49,2.49-6.77,4.12-8.16,10.37-18.14,16.1-31.71,13.27-2.08-.43-4.41-1.08-5.96-2.4-4.36-3.73-8.25-8.02-12.59-11.77-1.38-1.19-3.62-1.4-5.47-2.05-.38.59-.76,1.18-1.13,1.77,5.12,5.61,10.24,11.22,15.52,17-4.65,5.54-9.17,10.94-14.15,16.89M538.8,670.48c.99.97,2.48,1.77,2.9,2.95,3.56,9.92,3.46,19.81-1.1,30.04h-18.93c.11,2.04.2,3.57.29,5.17,5.89,0,11.34.34,16.72-.15,2.45-.23,5.62-1.5,6.94-3.37,2.65-3.74,4.26-8.23,6.35-12.51.63.9,1.48,2.04,2.26,3.24,2.42,3.71,4.61,7.58,7.32,11.06.79,1.02,3.03.91,4.6,1.32.15-.99.77-2.24.38-2.93-7.12-12.51-14.31-24.98-21.67-37.35-.8-1.34-2.72-2.74-4.19-2.82-6.2-.31-12.42-.13-18.73-.13v5.47c5.44,0,10.68,0,16.86,0M206.52,683.3v16.93h-25.33v6.13h57.06v-6.47h-25.04v-42.97h-6.7v26.38M380.87,669.94c-5.57,7.28-4.68,15.49,2.18,20.09,6.2,4.16,15.02,2.12,18.81-4.35,2.92-4.99,1.77-12.28-2.56-16.22-5.06-4.6-11.37-4.61-18.44.48M336.46,691.7h-16.27c.12,2.44.2,4.16.28,5.85h37.21v-37.53c-2.24.11-3.97.2-6.08.3v31.39h-15.14M493.21,692.35c5.74-8.97,11.51-17.93,17.22-26.93,2.77-4.38,2.43-5.08-3.12-6.48-9.08,14.45-18.28,28.96-27.28,43.59-.78,1.27-.32,3.31-.44,4.99,1.74-.73,4.09-.99,5.1-2.29,3.01-3.87,5.49-8.14,8.52-12.88M158.85,674.13c-6.03,9.57-12.13,19.09-18,28.75-.7,1.15-.19,3.05-.24,4.6,1.64-.57,4.05-.64,4.81-1.79,9.04-13.67,17.89-27.47,26.57-41.36.65-1.03.17-3.71-.76-4.6-2-1.9-3.31-.2-4.44,1.71-2.43,4.08-5.06,8.04-7.93,12.7M474.03,680.72c4.12,2.88,8.37,3.03,12.27-.12,3.46-2.79,4.82-6.57,3.22-10.98-1.41-3.86-4.07-6.22-8.31-6.61-4.38-.4-7.82,1.21-9.79,5.11-2.22,4.4-1.55,8.57,2.61,12.6M148.07,665.62c-3.6-3.24-7.68-3.64-11.8-1.42-3.84,2.07-5.34,5.6-4.86,9.94.47,4.22,2.92,6.92,6.81,8.17,4.36,1.4,8.15.15,10.88-3.54,3.15-4.26,2.77-8.52-1.02-13.15Z"/>
      <path class="cls-3" d="M211.95,817.39c-2.2.24-4.06.24-5.92.24-.24-.39-.49-.79-.73-1.18l5.72-5.88c.42.23.84.46,1.26.69,0,1.96,0,3.92-.33,6.12Z"/>
      <path class="cls-3" d="M212.35,821.37c.09,1.72.1,3.03.07,4.34,0,.31-.16.62-.53,2.01-2.56-2.22-4.75-4.12-6.94-6.02.29-.53.59-1.05.88-1.58,2.14.28,4.28.56,6.52,1.24Z"/>
      <path class="cls-40" d="M218.19,811.22c1.46,1.86,2.58,3.5,4.18,5.82h-6.43q-.89-6.11,2.25-5.82Z"/>
      <path class="cls-3" d="M218.71,825.51c-1.1.7-1.91,1.14-3.1,1.79v-6.65h6.34c-1.14,1.78-2.05,3.19-3.24,4.86Z"/>
      <path class="cls-3" d="M56.04,811.43c1.26,1.63,2.15,3.41,3.43,5.97h-9.06c2.21-2.45,3.73-4.15,5.64-5.97Z"/>
      <path class="cls-3" d="M54.41,820.26c6.05-.22,2.93,3.93,3.76,6.1-.35.35-.7.69-1.04,1.04-1.94-1.83-3.88-3.66-5.82-5.49.89-.55,1.79-1.1,3.1-1.65Z"/>
      <path class="cls-40" d="M61.63,816.78c-.29-2.25-.29-4.19-.29-7.87,2.73,3.03,4.54,5.05,7.37,8.19-3.41,0-5.1,0-7.08-.32Z"/>
      <path class="cls-3" d="M61.17,823.88c-.26-5.58,3.41-3.04,6.45-2.63-1.7,2.01-3.4,4.03-6.04,7.14-.24-2.4-.32-3.25-.4-4.51Z"/>
      <path class="cls-3" d="M118.2,933.23c-.4.94-.63,1.54-1.22,3.08-1.19-2.86-2.11-5.05-3.22-7.72h5.83c-.45,1.59-.83,2.95-1.38,4.64Z"/>
      <path class="cls-3" d="M311.59,927.49c.34,2.63.34,5.14.34,7.77-4.42-2.45-4.49-3.65-.34-7.77Z"/>
      <path class="cls-3" d="M287.31,764.74c-.77,1.64-1.52,2.9-2.26,4.17-.32-.12-.64-.24-.96-.36v-8.66c1.47,2.03,2.36,3.26,3.22,4.85Z"/>
      <path class="cls-40" d="M78.34,820.3c-.18-.49-.03-.86.44-1.21.18.46.04.89-.44,1.21Z"/>
      <path class="cls-40" d="M77.43,763.77c-.38-.34-.36-.8-.35-1.59.25.26.5.87.35,1.59Z"/>
      <path class="cls-40" d="M76.38,764.98c-.19-.48-.04-.8.43-1.17.18.41.05.87-.43,1.17Z"/>
      <path class="cls-40" d="M196.95,765.02c-.22-.57-.08-.97.38-1.3.21.54.09,1-.38,1.3Z"/>
      <path class="cls-40" d="M338.21,875.62c-.18-.52-.03-.95.44-1.27.18.53.03.95-.44,1.27Z"/>
      <path class="cls-39" d="M296.18,143.02c4.55-8.23,8.87-16.17,13.32-24.03.91-1.6,2.33-2.91,3.51-4.36,1.33,1.54,2.99,2.91,3.95,4.65,9.52,17.27,18.93,34.59,28.37,51.91,12.74,23.37,25.45,46.76,38.23,70.11,1.25,2.28,1.88,4.08.39,6.74-17.31,30.8-34.51,61.66-51.58,92.59-1.76,3.19-3.73,4.39-7.32,4.3-8.72-.24-17.45-.17-26.17-.02-2.94.05-4.79-.74-6.29-3.5-16.29-29.86-32.55-59.74-49.24-89.37-2.92-5.19-2.55-8.85.21-13.78,17.65-31.55,34.99-63.26,52.62-95.24Z"/>
      <path class="cls-32" d="M102.31,699.12c3.5.79,6.96,1.26,10.43,1.43,3.42.17,6.86.04,10.53.04v6.68h-48.06c-.1-2.11-.19-4.02-.3-6.48h21.2v-41.35h-20.88c-.11-2.19-.2-3.93-.3-5.97h48.41v5.64h-21.07c0,13.39,0,26.48.03,40.02Z"/>
      <path class="cls-10" d="M431.56,660.2c2.64,5.52,5.25,10.91,7.01,16.57,1.14,3.68,2.84,4.79,6.55,4.61,6.54-.31,13.11-.09,20.6-.09-.63,2.27-.75,4.23-1.66,5.7-3.88,6.26-7.87,12.47-12.13,18.48-.92,1.3-3.12,2.41-4.65,2.32-1.15-.07-2.61-2.03-3.18-3.44-1.88-4.69-3.6-9.47-5.03-14.32-.75-2.57-2.04-3.27-4.56-3.21-7.03.15-14.07.05-22.03.05.81-2.43,1.11-4.51,2.12-6.15,3.69-6,7.48-11.95,11.57-17.68,1.01-1.42,3.3-1.93,5.39-2.84M432.04,674.24c-.69-1.41-1.38-2.82-2.33-4.77-3.03,4.03-5.68,7.56-8.7,11.58h14.1c-1.04-2.36-1.88-4.26-3.07-6.81M445.78,693.9c.72,1.84,1.44,3.68,2.38,6.09,3.19-4.53,5.95-8.44,9.14-12.97h-13.62c.68,2.14,1.31,4.13,2.1,6.88Z"/>
      <path class="cls-23" d="M248.4,698.06c4.75-5.68,9.28-11.07,13.92-16.62-5.27-5.78-10.39-11.39-15.52-17,.38-.59.76-1.18,1.13-1.77,1.85.66,4.08.86,5.47,2.05,4.35,3.75,8.23,8.03,12.59,11.77,1.55,1.33,3.88,1.97,5.96,2.4,13.57,2.83,23.55-2.9,31.71-13.27,1.29-1.63,3.75-2.34,6.77-4.12-.23,6.43-4.32,8.65-6.67,11.86-2.41,3.3-5.16,6.36-7.98,9.78,5.24,5.74,10.4,11.4,15.57,17.06-.48.62-.95,1.24-1.43,1.86-1.89-.79-3.89-1.39-5.62-2.43-1.38-.82-2.73-2-3.58-3.34-7.35-11.51-18.61-11.68-30.29-10.56-1.31.13-2.78.82-3.76,1.71-4.26,3.85-8.25,8.01-12.59,11.77-1.6,1.39-3.87,2.02-7.05,3.6.68-2.67.92-3.58,1.37-4.77Z"/>
      <path class="cls-10" d="M538.33,670.48c-5.71,0-10.94,0-16.39,0v-5.47c6.31,0,12.53-.18,18.73.13,1.47.07,3.39,1.48,4.19,2.82,7.36,12.37,14.55,24.84,21.67,37.35.39.68-.23,1.94-.38,2.93-1.57-.41-3.81-.3-4.6-1.32-2.71-3.47-4.91-7.35-7.32-11.06-.78-1.2-1.63-2.34-2.26-3.24-2.09,4.28-3.7,8.76-6.35,12.51-1.33,1.87-4.49,3.14-6.94,3.37-5.37.5-10.82.15-16.72.15-.09-1.6-.18-3.14-.29-5.17h18.93c4.56-10.23,4.66-20.12,1.1-30.04-.42-1.18-1.91-1.97-3.37-2.95Z"/>
      <path class="cls-32" d="M206.52,682.8v-25.89h6.7v42.97h25.04v6.47h-57.06v-6.13h25.33v-17.42Z"/>
      <path class="cls-32" d="M381.15,669.68c6.79-4.84,13.11-4.82,18.17-.22,4.33,3.93,5.48,11.23,2.56,16.22-3.79,6.47-12.61,8.51-18.81,4.35-6.86-4.59-7.75-12.81-1.91-20.34Z"/>
      <path class="cls-28" d="M336.95,691.7h14.65v-31.39c2.11-.1,3.84-.19,6.08-.3v37.53h-37.21c-.08-1.69-.17-3.41-.28-5.85h16.76Z"/>
      <path class="cls-10" d="M493.04,692.66c-2.86,4.43-5.34,8.7-8.35,12.57-1.01,1.3-3.36,1.55-5.1,2.29.12-1.68-.34-3.72.44-4.99,9.01-14.63,18.2-29.14,27.28-43.59,5.55,1.41,5.89,2.11,3.12,6.48-5.7,9-11.48,17.96-17.39,27.24Z"/>
      <path class="cls-10" d="M159.01,673.81c2.71-4.33,5.34-8.3,7.77-12.38,1.14-1.9,2.44-3.61,4.44-1.71.93.89,1.41,3.56.76,4.6-8.68,13.9-17.53,27.69-26.57,41.36-.76,1.15-3.17,1.22-4.81,1.79.05-1.55-.46-3.44.24-4.6,5.88-9.66,11.97-19.19,18.16-29.08Z"/>
      <path class="cls-13" d="M473.73,680.48c-3.87-3.8-4.54-7.96-2.32-12.37,1.97-3.9,5.4-5.51,9.79-5.11,4.24.39,6.9,2.75,8.31,6.61,1.61,4.41.24,8.19-3.22,10.98-3.9,3.15-8.15,3-12.56-.11Z"/>
      <path class="cls-13" d="M148.35,665.89c3.52,4.36,3.9,8.62.75,12.88-2.73,3.69-6.52,4.94-10.88,3.54-3.88-1.25-6.34-3.95-6.81-8.17-.48-4.34,1.02-7.87,4.86-9.94,4.12-2.22,8.2-1.82,12.08,1.69Z"/>
      <path class="cls-11" d="M432.22,674.56c1.01,2.22,1.85,4.12,2.89,6.49h-14.1c3.02-4.02,5.67-7.55,8.7-11.58.96,1.95,1.64,3.36,2.51,5.1Z"/>
      <path class="cls-14" d="M445.7,693.53c-.71-2.37-1.34-4.36-2.02-6.5h13.62c-3.19,4.52-5.95,8.44-9.14,12.97-.94-2.41-1.66-4.25-2.46-6.47Z"/>
    </g>
  </g>
</svg>