<?xml version="1.0" encoding="UTF-8"?>
<svg id="Calque_2" xmlns="http://www.w3.org/2000/svg" viewBox="0 0 716.72 562">
  <defs>
    <style>
      .cls-1 {
        fill: #b0313f;
      }

      .cls-2 {
        fill: #fff;
      }
    </style>
  </defs>
  <g id="Calque_1-2" data-name="Calque_1">
    <g>
      <path class="cls-1" d="M256.76,368h43.2c5.74,0,10.4,4.66,10.4,10.4v182.6h-64v-182.6c0-5.74,4.66-10.4,10.4-10.4Z"/>
      <path class="cls-1" d="M336.6,288h43.52c5.65,0,10.24,4.59,10.24,10.24v262.76h-64v-262.76c0-5.65,4.59-10.24,10.24-10.24Z"/>
      <path class="cls-1" d="M417.76,423h43.2c5.74,0,10.4,4.66,10.4,10.4v127.6h-64v-127.6c0-5.74,4.66-10.4,10.4-10.4Z"/>
      <g>
        <rect class="cls-2" x="106.86" y="158" width="503" height="41"/>
        <rect class="cls-2" x="340.36" y="104" width="36" height="63"/>
        <rect class="cls-2" x="229.36" y="561" width="258" height="1"/>
        <g>
          <path class="cls-2" d="M160.56,30.73c-8.34,0-16.67-.86-24.83-2.58L1.49,0h0C-6.79,41.63,20.24,82.1,61.87,90.39l86.14,17.2h210.35V30.73h-197.8Z"/>
          <path class="cls-2" d="M556.25,30.73c8.29,0,16.55-.86,24.66-2.56L715.23,0h0c8.29,41.63-18.74,82.1-60.37,90.39l-86.14,17.2h-210.35V30.73h197.89Z"/>
          <rect class="cls-2" x="148.01" y="103" width="82.25" height="459"/>
          <rect class="cls-2" x="486.46" y="103" width="82.25" height="459"/>
        </g>
      </g>
    </g>
  </g>
</svg>