<?xml version="1.0" encoding="UTF-8"?>
<svg id="Calque_2" data-name="Calque 2" xmlns="http://www.w3.org/2000/svg" xmlns:xlink="http://www.w3.org/1999/xlink" viewBox="0 0 425.53 440.68">
  <defs>
    <style>
      .cls-1 {
        fill: #b0313f;
      }

      .cls-2 {
        fill: #fff;
      }

      .cls-3 {
        fill: none;
      }

      .cls-4 {
        clip-path: url(#clippath);
      }
    </style>
    <clipPath id="clippath">
      <rect class="cls-3" x="43.68" width="352.86" height="276.87"/>
    </clipPath>
  </defs>
  <g id="Calque_1-2" data-name="Calque 1">
    <g>
      <path class="cls-2" d="M101.42,297.94v77.94h-18.39v-57.88c-2.49.9-4.82,2.18-6.96,3.84-2.08,1.66-3.88,3.57-5.4,5.72-1.45,2.15-2.63,4.5-3.53,7.07-.83,2.56-1.25,5.27-1.25,8.11v33.15h-18.39v-33.15c0-2.84-.45-5.54-1.35-8.11-.83-2.56-2.01-4.92-3.53-7.07-1.45-2.15-3.26-4.05-5.4-5.72-2.08-1.66-4.36-2.94-6.86-3.84v57.88H11.95v-59.55H0v-18.39h21.1c7.34,0,14.06,1.59,20.16,4.78,6.17,3.19,11.33,7.48,15.48,12.89,4.09-5.4,9.18-9.7,15.28-12.89,6.17-3.19,12.92-4.78,20.26-4.78h9.14ZM112.85,297.94h69.63v77.94h-18.29v-27.33h-21.41c-.21,3.95-1.14,7.69-2.81,11.22-1.59,3.46-3.74,6.48-6.44,9.04-2.7,2.56-5.82,4.61-9.35,6.13-3.53,1.45-7.31,2.18-11.33,2.18v-18.39c1.45,0,2.84-.24,4.16-.73,1.32-.55,2.49-1.28,3.53-2.18,1.04-.97,1.87-2.04,2.49-3.22.69-1.25,1.11-2.6,1.25-4.05h-11.43v-16.52h11.54v-15.69h-11.54v-18.39ZM164.19,316.33h-21.41v15.69h21.41v-15.69ZM263.92,297.94v77.94h-18.39v-4.68c0-5.06-.66-9.91-1.97-14.55-1.25-4.71-3.08-9.11-5.51-13.2-2.36-4.16-5.23-7.97-8.63-11.43-3.39-3.46-7.21-6.48-11.43-9.04v52.89h-18.39v-59.34c-.55-.07-1.14-.1-1.77-.1-.55-.07-1.11-.1-1.66-.1h-8.52v-18.39h8.52c4.64,0,9.25.62,13.82,1.87,4.64,1.25,9.08,2.98,13.3,5.2,4.3,2.15,8.31,4.71,12.05,7.69,3.81,2.91,7.21,6.1,10.18,9.56v-24.32h18.39ZM269.13,297.94h76.38v18.39h-45.93v32.01c0,1.25.24,2.42.73,3.53.48,1.11,1.14,2.08,1.97,2.91.83.83,1.8,1.49,2.91,1.97,1.18.48,2.39.73,3.64.73h18.29v-12.37h-15.69v-18.39h34.09v64.22h-18.39v-15.07h-18.29c-3.81,0-7.41-.73-10.81-2.18-3.33-1.45-6.24-3.43-8.73-5.92-2.49-2.49-4.47-5.4-5.92-8.73s-2.18-6.89-2.18-10.7v-32.01h-12.05v-18.39ZM355.9,297.94h69.63v77.94h-18.29v-27.33h-21.41c-.21,3.95-1.14,7.69-2.81,11.22-1.59,3.46-3.74,6.48-6.44,9.04-2.7,2.56-5.82,4.61-9.35,6.13-3.53,1.45-7.31,2.18-11.33,2.18v-18.39c1.45,0,2.84-.24,4.16-.73,1.32-.55,2.49-1.28,3.53-2.18,1.04-.97,1.87-2.04,2.49-3.22.69-1.25,1.11-2.6,1.25-4.05h-11.43v-16.52h11.54v-15.69h-11.54v-18.39ZM407.24,316.33h-21.41v15.69h21.41v-15.69Z"/>
      <g class="cls-4">
        <g>
          <path class="cls-1" d="M170.09,181.3h21.27c2.83,0,5.12,2.3,5.12,5.12v89.96h-31.51v-89.96c0-2.83,2.29-5.12,5.12-5.12Z"/>
          <path class="cls-1" d="M209.39,141.88h21.43c2.78,0,5.04,2.26,5.04,5.05v129.45h-31.51v-129.45c0-2.78,2.26-5.05,5.04-5.05Z"/>
          <path class="cls-1" d="M249.35,208.39h21.27c2.83,0,5.12,2.3,5.12,5.12v62.86h-31.51v-62.86c0-2.83,2.3-5.12,5.12-5.12Z"/>
          <path class="cls-2" d="M343.93,77.84H96.29v20.2h247.64v-20.2Z"/>
          <path class="cls-2" d="M228.97,51.24h-17.72v31.04h17.72v-31.04Z"/>
          <path class="cls-2" d="M283.62,276.38h-127.02v.49h127.02v-.49Z"/>
          <path class="cls-2" d="M126.69,15.16c-4.31,0-8.62-.42-12.84-1.27L44.45,0c-4.28,20.54,9.69,40.51,31.22,44.6l44.53,8.49h108.75V15.16h-102.26Z"/>
          <path class="cls-2" d="M313.57,15.16c4.29,0,8.56-.42,12.75-1.26L395.76,0c4.29,20.54-9.69,40.51-31.21,44.6l-44.54,8.49h-108.75V15.16h102.31,0Z"/>
          <path class="cls-2" d="M157.04,50.74h-40.49v226.13h40.49V50.74Z"/>
          <path class="cls-2" d="M323.67,50.74h-40.49v226.13h40.49V50.74Z"/>
        </g>
      </g>
      <path class="cls-2" d="M151.87,390.95h11.74v49.73h-5.9c-6.1,0-11.32-.93-15.65-2.79-4.29-1.86-7.85-4.44-10.68-7.76-2.79-3.36-4.88-7.36-6.3-12-1.37-4.69-2.19-9.84-2.45-15.45h-7.69v-11.74h19.36v7.96c0,3.32.2,6.61.6,9.88.4,3.27,1.22,6.28,2.45,9.02,1.28,2.7,3.07,5,5.37,6.9,2.3,1.9,5.35,3.16,9.15,3.78v-37.53ZM169.59,390.95h24.07v11.74h-6.17v26.26h6.17v11.74h-24.07v-11.74h6.17v-26.26h-6.17v-11.74ZM197.69,390.95h44.83v11.74h-25.33v8.16h20.29v10.54h-20.29v7.56h25.33v11.74h-44.83v-11.74h7.76v-26.26h-7.76v-11.74ZM298.86,390.95h11.74v49.73h-6.23c-4.6,0-8.84-.99-12.73-2.98-3.89-2.03-7.16-4.75-9.81-8.16-2.61,3.4-5.86,6.12-9.75,8.16-3.89,1.99-8.16,2.98-12.8,2.98h-5.84v-38h-7.63v-11.74h19.36v36.93c1.59-.62,3.03-1.44,4.31-2.45,1.33-1.02,2.48-2.21,3.45-3.58.97-1.37,1.72-2.85,2.25-4.44.53-1.64.8-3.34.8-5.11v-21.35h11.74v21.35c0,1.81.27,3.54.8,5.17.57,1.64,1.35,3.14,2.32,4.51,1.02,1.37,2.19,2.59,3.51,3.65,1.37,1.02,2.87,1.81,4.51,2.39v-37.07Z"/>
    </g>
  </g>
</svg>