<?xml version="1.0" standalone="no"?>
<!DOCTYPE svg PUBLIC "-//W3C//DTD SVG 20010904//EN"
 "http://www.w3.org/TR/2001/REC-SVG-20010904/DTD/svg10.dtd">
<svg version="1.0" xmlns="http://www.w3.org/2000/svg"
 width="340.000000pt" height="270.000000pt" viewBox="0 0 340.000000 270.000000"
 preserveAspectRatio="xMidYMid meet">

<g transform="translate(0.000000,270.000000) scale(0.100000,-0.100000)"
fill="#000000" stroke="none">
<path d="M1661 2496 c-7 -41 -15 -76 -18 -79 -3 -4 -21 5 -41 18 -20 14 -37
23 -39 21 -2 -2 12 -28 30 -59 l34 -55 6 -228 c9 -286 9 -469 1 -477 -4 -3
-36 20 -73 52 -36 31 -136 116 -221 188 -85 72 -163 140 -173 151 -17 19 -15
24 93 200 60 99 110 184 110 188 0 9 -63 -49 -249 -228 -151 -146 -154 -150
-135 -167 10 -10 73 -66 139 -123 299 -262 440 -392 443 -408 2 -10 -15 -33
-40 -55 -24 -21 -128 -119 -232 -219 -104 -100 -225 -216 -270 -259 l-81 -77
131 -128 c72 -70 250 -241 394 -381 l263 -254 66 69 c36 38 129 139 206 224
77 86 209 231 293 323 84 93 152 171 150 175 -3 8 -100 99 -293 276 -168 154
-335 317 -335 326 0 5 126 129 280 276 176 169 276 272 272 280 -4 6 -93 87
-197 180 -210 186 -225 199 -225 191 0 -2 55 -83 121 -178 67 -96 124 -181
126 -190 3 -10 -71 -86 -212 -220 -118 -112 -219 -205 -224 -207 -10 -3 -21
247 -21 500 l0 199 30 59 c17 33 27 60 24 60 -4 0 -22 -10 -41 -21 -19 -12
-36 -19 -39 -16 -3 3 -11 37 -17 76 -6 39 -14 71 -17 71 -4 0 -13 -33 -19 -74z
m-7 -1423 c3 -137 9 -341 12 -455 5 -172 4 -208 -7 -208 -22 0 -484 443 -486
465 -1 14 64 81 230 233 127 116 234 212 238 212 4 0 10 -111 13 -247z m357
46 c126 -111 229 -205 227 -210 -9 -25 -443 -508 -450 -501 -10 10 -24 912
-15 912 4 0 111 -91 238 -201z"/>
</g>
</svg>
