<svg width="329" height="191" viewBox="0 0 329 191" fill="none" xmlns="http://www.w3.org/2000/svg">
<g clip-path="url(#clip0_81_12)">
<path d="M80.3063 85.5167C80.3063 85.5167 85.8018 5.3444 166.204 13.803C246.606 22.2616 239.55 52.694 245.89 100.341C247.225 110.367 178.237 106.728 160.736 105.645C158.21 105.49 155.696 105.248 153.185 104.922L119.011 100.493C116.176 100.126 113.376 99.5519 110.624 98.7803L106.752 97.69C98.9955 95.5042 91.5665 92.2931 84.6633 88.1418L80.3021 85.5163L80.3063 85.5167Z" fill="#FFDF64" stroke="#42210B" stroke-miterlimit="10"/>
<path d="M80.3063 85.5167C80.3063 85.5167 5.21776 91.7341 4.16482 118.15C3.11189 144.565 106.678 176.104 168.905 176.214C231.131 176.323 294.814 180.688 316.117 146.078C330.062 123.421 245.527 101.569 245.669 101.582" fill="#FFDF64"/>
<path d="M80.3063 85.5167C80.3063 85.5167 5.21776 91.7341 4.16482 118.15C3.11189 144.565 106.678 176.104 168.905 176.214C231.131 176.323 294.814 180.688 316.117 146.078C330.062 123.421 245.527 101.569 245.669 101.582" stroke="#42210B" stroke-miterlimit="10"/>
<path d="M77.4198 108.365L80.3064 85.5167L95.07 94.4007L114.758 99.9445L156.743 105.384C156.743 105.384 246.48 112.157 245.89 100.341C245.299 88.5246 246.031 122.62 246.031 122.62C246.031 122.62 222.547 140.684 164.859 132.158C107.171 123.633 103.84 127.956 77.4198 108.365Z" fill="#FF0000" stroke="#42210B" stroke-miterlimit="10"/>
<path d="M28.219 137.163C30.8209 138.396 83.4772 162.827 149.562 168.97C159.659 169.907 174.596 170.841 190.732 169.984" stroke="#754C24" stroke-miterlimit="10"/>
<path d="M42.1965 134.444C44.3629 135.47 88.2287 155.786 143.273 160.912C151.685 161.694 164.125 162.476 177.565 161.768" stroke="#754C24" stroke-miterlimit="10"/>
<path d="M57.6011 132.882C59.392 133.686 95.6349 149.622 140.942 154.031C147.866 154.706 158.101 155.412 169.144 154.989" stroke="#754C24" stroke-miterlimit="10"/>
<path d="M232.489 50.4444C232.19 48.901 230.287 40.0046 219.809 32.0504C208.607 23.5482 196.501 22.8762 194.704 22.8035" stroke="#754C24" stroke-miterlimit="10"/>
<path d="M227.011 47.282C226.692 46.3334 224.714 40.8585 216.675 35.3535C208.08 29.4711 199.377 28.234 198.089 28.064" stroke="#754C24" stroke-miterlimit="10"/>
</g>
<defs>
<clipPath id="clip0_81_12">
<rect width="314.758" height="162.782" fill="white" transform="translate(14.5154) rotate(5.11592)"/>
</clipPath>
</defs>
</svg>
